%TF.GenerationSoftware,KiCad,Pcbnew,8.0.2-1*%
%TF.CreationDate,2024-09-30T15:02:25-04:00*%
%TF.ProjectId,Airbrake_ComputeBoard,41697262-7261-46b6-955f-436f6d707574,rev?*%
%TF.SameCoordinates,Original*%
%TF.FileFunction,Copper,L2,Bot*%
%TF.FilePolarity,Positive*%
%FSLAX46Y46*%
G04 Gerber Fmt 4.6, Leading zero omitted, Abs format (unit mm)*
G04 Created by KiCad (PCBNEW 8.0.2-1) date 2024-09-30 15:02:25*
%MOMM*%
%LPD*%
G01*
G04 APERTURE LIST*
G04 Aperture macros list*
%AMRoundRect*
0 Rectangle with rounded corners*
0 $1 Rounding radius*
0 $2 $3 $4 $5 $6 $7 $8 $9 X,Y pos of 4 corners*
0 Add a 4 corners polygon primitive as box body*
4,1,4,$2,$3,$4,$5,$6,$7,$8,$9,$2,$3,0*
0 Add four circle primitives for the rounded corners*
1,1,$1+$1,$2,$3*
1,1,$1+$1,$4,$5*
1,1,$1+$1,$6,$7*
1,1,$1+$1,$8,$9*
0 Add four rect primitives between the rounded corners*
20,1,$1+$1,$2,$3,$4,$5,0*
20,1,$1+$1,$4,$5,$6,$7,0*
20,1,$1+$1,$6,$7,$8,$9,0*
20,1,$1+$1,$8,$9,$2,$3,0*%
G04 Aperture macros list end*
%TA.AperFunction,ComponentPad*%
%ADD10RoundRect,0.250000X0.725000X-0.600000X0.725000X0.600000X-0.725000X0.600000X-0.725000X-0.600000X0*%
%TD*%
%TA.AperFunction,ComponentPad*%
%ADD11O,1.950000X1.700000*%
%TD*%
%TA.AperFunction,ComponentPad*%
%ADD12C,2.000000*%
%TD*%
%TA.AperFunction,ComponentPad*%
%ADD13R,2.000000X2.000000*%
%TD*%
%TA.AperFunction,ComponentPad*%
%ADD14RoundRect,0.250000X-0.750000X0.600000X-0.750000X-0.600000X0.750000X-0.600000X0.750000X0.600000X0*%
%TD*%
%TA.AperFunction,ComponentPad*%
%ADD15O,2.000000X1.700000*%
%TD*%
%TA.AperFunction,ComponentPad*%
%ADD16RoundRect,0.250000X-0.725000X0.600000X-0.725000X-0.600000X0.725000X-0.600000X0.725000X0.600000X0*%
%TD*%
%TA.AperFunction,ComponentPad*%
%ADD17C,1.400000*%
%TD*%
%TA.AperFunction,ComponentPad*%
%ADD18O,1.400000X1.400000*%
%TD*%
%TA.AperFunction,ViaPad*%
%ADD19C,0.600000*%
%TD*%
%TA.AperFunction,Conductor*%
%ADD20C,0.125000*%
%TD*%
%TA.AperFunction,Conductor*%
%ADD21C,0.200000*%
%TD*%
G04 APERTURE END LIST*
D10*
%TO.P,BlueRaven1,1,Pin_1*%
%TO.N,/5v_switch*%
X139192000Y-81922000D03*
D11*
%TO.P,BlueRaven1,2,Pin_2*%
%TO.N,/BR-TX*%
X139192000Y-79422000D03*
%TO.P,BlueRaven1,3,Pin_3*%
%TO.N,/BR-RX*%
X139192000Y-76922000D03*
%TO.P,BlueRaven1,4,Pin_4*%
%TO.N,GND*%
X139192000Y-74422000D03*
%TD*%
D12*
%TO.P,Teensy4.1,0,GND*%
%TO.N,GND*%
X150622000Y-68326000D03*
%TO.P,Teensy4.1,1,RX1*%
%TO.N,unconnected-(Teensy4.1-RX1-Pad1)*%
X150622000Y-70866000D03*
%TO.P,Teensy4.1,2,TX1*%
%TO.N,unconnected-(Teensy4.1-TX1-Pad2)*%
X150622000Y-73406000D03*
%TO.P,Teensy4.1,3,PWM*%
%TO.N,/SV*%
X150622000Y-75946000D03*
%TO.P,Teensy4.1,4,PWM*%
%TO.N,/BK*%
X150622000Y-78486000D03*
%TO.P,Teensy4.1,5,PWM*%
%TO.N,/EN*%
X150622000Y-81026000D03*
%TO.P,Teensy4.1,6,PWM*%
%TO.N,/F{slash}R*%
X150622000Y-83566000D03*
%TO.P,Teensy4.1,7,PWM*%
%TO.N,/PG_3.3v*%
X150622000Y-86106000D03*
%TO.P,Teensy4.1,8,RX2*%
%TO.N,unconnected-(Teensy4.1-RX2-Pad8)*%
X150622000Y-88646000D03*
%TO.P,Teensy4.1,9,TX2*%
%TO.N,unconnected-(Teensy4.1-TX2-Pad9)*%
X150622000Y-91186000D03*
%TO.P,Teensy4.1,10,PWM*%
%TO.N,/ALM_3.3v*%
X150622000Y-93726000D03*
%TO.P,Teensy4.1,11,CS*%
%TO.N,/CS*%
X150622000Y-96266000D03*
%TO.P,Teensy4.1,12,MOSI*%
%TO.N,/MOSI*%
X150622000Y-98806000D03*
%TO.P,Teensy4.1,13,MISO*%
%TO.N,/MISO*%
X150622000Y-101346000D03*
%TO.P,Teensy4.1,14,3.3V*%
%TO.N,unconnected-(Teensy4.1-3.3V-Pad14)*%
X150622000Y-103886000D03*
%TO.P,Teensy4.1,15,SCL2*%
%TO.N,unconnected-(Teensy4.1-SCL2-Pad15)*%
X150622000Y-106426000D03*
%TO.P,Teensy4.1,16,SDA2*%
%TO.N,unconnected-(Teensy4.1-SDA2-Pad16)*%
X150622000Y-108966000D03*
%TO.P,Teensy4.1,17,MOSI1*%
%TO.N,unconnected-(Teensy4.1-MOSI1-Pad17)*%
X150622000Y-111506000D03*
%TO.P,Teensy4.1,18,SCK1*%
%TO.N,unconnected-(Teensy4.1-SCK1-Pad18)*%
X150622000Y-114046000D03*
%TO.P,Teensy4.1,19,RX7*%
%TO.N,unconnected-(Teensy4.1-RX7-Pad19)*%
X150622000Y-116586000D03*
%TO.P,Teensy4.1,20,TX7*%
%TO.N,unconnected-(Teensy4.1-TX7-Pad20)*%
X150622000Y-119126000D03*
%TO.P,Teensy4.1,21,GPIO*%
%TO.N,unconnected-(Teensy4.1-GPIO-Pad21)*%
X150622000Y-121666000D03*
%TO.P,Teensy4.1,22,GPIO*%
%TO.N,unconnected-(Teensy4.1-GPIO-Pad22)*%
X150622000Y-124206000D03*
%TO.P,Teensy4.1,23,GPIO*%
%TO.N,unconnected-(Teensy4.1-GPIO-Pad23)*%
X150622000Y-126746000D03*
%TO.P,Teensy4.1,24,PWM*%
%TO.N,unconnected-(Teensy4.1-PWM-Pad24)*%
X165862000Y-126746000D03*
%TO.P,Teensy4.1,25,RX8*%
%TO.N,unconnected-(Teensy4.1-RX8-Pad25)*%
X165862000Y-124206000D03*
%TO.P,Teensy4.1,26,TX8*%
%TO.N,unconnected-(Teensy4.1-TX8-Pad26)*%
X165862000Y-121666000D03*
%TO.P,Teensy4.1,27,PWM*%
%TO.N,/A_3.3v*%
X165862000Y-119126000D03*
%TO.P,Teensy4.1,28,PWM*%
%TO.N,/B_3.3v*%
X165862000Y-116586000D03*
%TO.P,Teensy4.1,29,CS1*%
%TO.N,unconnected-(Teensy4.1-CS1-Pad29)*%
X165862000Y-114046000D03*
%TO.P,Teensy4.1,30,MISO*%
%TO.N,unconnected-(Teensy4.1-MISO-Pad30)*%
X165862000Y-111506000D03*
%TO.P,Teensy4.1,31,A16*%
%TO.N,unconnected-(Teensy4.1-A16-Pad31)*%
X165862000Y-108966000D03*
%TO.P,Teensy4.1,32,A17*%
%TO.N,unconnected-(Teensy4.1-A17-Pad32)*%
X165862000Y-106426000D03*
%TO.P,Teensy4.1,33,GND*%
%TO.N,unconnected-(Teensy4.1-GND-Pad33)*%
X165862000Y-103886000D03*
%TO.P,Teensy4.1,34,SCK*%
%TO.N,/SCK*%
X165862000Y-101346000D03*
%TO.P,Teensy4.1,35,A0*%
%TO.N,unconnected-(Teensy4.1-A0-Pad35)*%
X165862000Y-98806000D03*
%TO.P,Teensy4.1,36,A1*%
%TO.N,unconnected-(Teensy4.1-A1-Pad36)*%
X165862000Y-96266000D03*
%TO.P,Teensy4.1,37,A2*%
%TO.N,unconnected-(Teensy4.1-A2-Pad37)*%
X165862000Y-93726000D03*
%TO.P,Teensy4.1,38,A3*%
%TO.N,unconnected-(Teensy4.1-A3-Pad38)*%
X165862000Y-91186000D03*
%TO.P,Teensy4.1,39,SDA*%
%TO.N,/SDA*%
X165862000Y-88646000D03*
%TO.P,Teensy4.1,40,SCL*%
%TO.N,/SCL*%
X165862000Y-86106000D03*
%TO.P,Teensy4.1,41,TX5*%
%TO.N,/BR-RX*%
X165862000Y-83566000D03*
%TO.P,Teensy4.1,42,RX5*%
%TO.N,/BR-TX*%
X165862000Y-81026000D03*
%TO.P,Teensy4.1,43,PWM*%
%TO.N,unconnected-(Teensy4.1-PWM-Pad43)*%
X165862000Y-78486000D03*
%TO.P,Teensy4.1,44,PWM*%
%TO.N,/buzzer*%
X165862000Y-75946000D03*
%TO.P,Teensy4.1,45,3.3V*%
%TO.N,+3.3V*%
X165862000Y-73406000D03*
%TO.P,Teensy4.1,46,GND*%
%TO.N,GND*%
X165862000Y-70866000D03*
%TO.P,Teensy4.1,47,Vin*%
%TO.N,/5v_switch*%
X165862000Y-68326000D03*
%TD*%
D13*
%TO.P,BZ1,1,+*%
%TO.N,/buzzer*%
X172212000Y-124714000D03*
D12*
%TO.P,BZ1,2,-*%
%TO.N,GND*%
X179812000Y-124714000D03*
%TD*%
D10*
%TO.P,VN-100-1,1,Pin_1*%
%TO.N,/5v_switch*%
X138921000Y-125122000D03*
D11*
%TO.P,VN-100-1,2,Pin_2*%
%TO.N,/MOSI*%
X138921000Y-122622000D03*
%TO.P,VN-100-1,3,Pin_3*%
%TO.N,/MISO*%
X138921000Y-120122000D03*
%TO.P,VN-100-1,4,Pin_4*%
%TO.N,/SCK*%
X138921000Y-117622000D03*
%TO.P,VN-100-1,5,Pin_5*%
%TO.N,/CS*%
X138921000Y-115122000D03*
%TO.P,VN-100-1,6,Pin_6*%
%TO.N,GND*%
X138921000Y-112622000D03*
%TD*%
D14*
%TO.P,PowerSwitch1,1,Pin_1*%
%TO.N,Net-(Battery1-Pin_1)*%
X177292000Y-84916000D03*
D15*
%TO.P,PowerSwitch1,2,Pin_2*%
%TO.N,/5v_switch*%
X177292000Y-87416000D03*
%TD*%
D16*
%TO.P,SensorBoard1,1,Pin_1*%
%TO.N,GND*%
X177292000Y-94822000D03*
D11*
%TO.P,SensorBoard1,2,Pin_2*%
%TO.N,/SCL*%
X177292000Y-97322000D03*
%TO.P,SensorBoard1,3,Pin_3*%
%TO.N,/SDA*%
X177292000Y-99822000D03*
%TO.P,SensorBoard1,4,Pin_4*%
%TO.N,+3.3V*%
X177292000Y-102322000D03*
%TD*%
D17*
%TO.P,R1,1*%
%TO.N,/ALM_5v*%
X143764000Y-130302000D03*
D18*
%TO.P,R1,2*%
%TO.N,/ALM_3.3v*%
X151384000Y-130302000D03*
%TD*%
D16*
%TO.P,MotorEncoder1,1,Pin_1*%
%TO.N,GND*%
X177292000Y-109554000D03*
D11*
%TO.P,MotorEncoder1,2,Pin_2*%
%TO.N,/A_5v*%
X177292000Y-112054000D03*
%TO.P,MotorEncoder1,3,Pin_3*%
%TO.N,/5v_switch*%
X177292000Y-114554000D03*
%TO.P,MotorEncoder1,4,Pin_4*%
%TO.N,/B_5v*%
X177292000Y-117054000D03*
%TD*%
D17*
%TO.P,R7,1*%
%TO.N,/B_5v*%
X170180000Y-101600000D03*
D18*
%TO.P,R7,2*%
%TO.N,/B_3.3v*%
X170180000Y-109220000D03*
%TD*%
D17*
%TO.P,R4,1*%
%TO.N,/PG_3.3v*%
X161544000Y-134112000D03*
D18*
%TO.P,R4,2*%
%TO.N,GND*%
X153924000Y-134112000D03*
%TD*%
D17*
%TO.P,R8,1*%
%TO.N,/B_3.3v*%
X170180000Y-111506000D03*
D18*
%TO.P,R8,2*%
%TO.N,GND*%
X170180000Y-119126000D03*
%TD*%
D10*
%TO.P,MotoDriver1,1,Pin_1*%
%TO.N,GND*%
X139175000Y-105524000D03*
D11*
%TO.P,MotoDriver1,2,Pin_2*%
%TO.N,Net-(MotoDriver1-Pin_2)*%
X139175000Y-103024000D03*
%TO.P,MotoDriver1,3,Pin_3*%
%TO.N,Net-(MotoDriver1-Pin_3)*%
X139175000Y-100524000D03*
%TO.P,MotoDriver1,4,Pin_4*%
%TO.N,Net-(MotoDriver1-Pin_4)*%
X139175000Y-98024000D03*
%TO.P,MotoDriver1,5,Pin_5*%
%TO.N,Net-(MotoDriver1-Pin_5)*%
X139175000Y-95524000D03*
%TO.P,MotoDriver1,6,Pin_6*%
%TO.N,/PG_5v*%
X139175000Y-93024000D03*
%TO.P,MotoDriver1,7,Pin_7*%
%TO.N,/ALM_5v*%
X139175000Y-90524000D03*
%TO.P,MotoDriver1,8,Pin_8*%
%TO.N,/5v_switch*%
X139175000Y-88024000D03*
%TD*%
D17*
%TO.P,R6,1*%
%TO.N,/A_3.3v*%
X171450000Y-134112000D03*
D18*
%TO.P,R6,2*%
%TO.N,GND*%
X163830000Y-134112000D03*
%TD*%
D17*
%TO.P,R2,1*%
%TO.N,/ALM_3.3v*%
X151384000Y-134112000D03*
D18*
%TO.P,R2,2*%
%TO.N,GND*%
X143764000Y-134112000D03*
%TD*%
D17*
%TO.P,R5,1*%
%TO.N,/A_5v*%
X163576000Y-130302000D03*
D18*
%TO.P,R5,2*%
%TO.N,/A_3.3v*%
X171196000Y-130302000D03*
%TD*%
D14*
%TO.P,Battery1,1,Pin_1*%
%TO.N,Net-(Battery1-Pin_1)*%
X177292000Y-75518000D03*
D15*
%TO.P,Battery1,2,Pin_2*%
%TO.N,GND*%
X177292000Y-78018000D03*
%TD*%
D17*
%TO.P,R3,1*%
%TO.N,/PG_5v*%
X153670000Y-130302000D03*
D18*
%TO.P,R3,2*%
%TO.N,/PG_3.3v*%
X161290000Y-130302000D03*
%TD*%
D19*
%TO.N,/BR-TX*%
X157988000Y-79756000D03*
%TO.N,/PG_5v*%
X142240000Y-128524000D03*
%TO.N,Net-(MotoDriver1-Pin_3)*%
X144315265Y-99778735D03*
%TO.N,Net-(MotoDriver1-Pin_5)*%
X144272000Y-90932000D03*
%TO.N,Net-(MotoDriver1-Pin_4)*%
X144780000Y-95250000D03*
%TO.N,Net-(MotoDriver1-Pin_2)*%
X143764000Y-103124000D03*
%TO.N,/CS*%
X146050000Y-107950000D03*
%TD*%
D20*
%TO.N,/BR-RX*%
X139192000Y-76922000D02*
X143002000Y-76922000D01*
X143002000Y-76922000D02*
X143303500Y-77223500D01*
X159519500Y-77223500D02*
X165862000Y-83566000D01*
X143303500Y-77223500D02*
X159519500Y-77223500D01*
%TO.N,/BR-TX*%
X139192000Y-79422000D02*
X144446000Y-79422000D01*
X144446000Y-79422000D02*
X144780000Y-79756000D01*
X157226000Y-79756000D02*
X157988000Y-79756000D01*
X144780000Y-79756000D02*
X157226000Y-79756000D01*
D21*
%TO.N,/PG_5v*%
X137246000Y-95164000D02*
X137414000Y-94996000D01*
X137414000Y-94996000D02*
X137414000Y-94742000D01*
X138684000Y-128524000D02*
X137246000Y-127086000D01*
X137246000Y-127086000D02*
X137246000Y-95164000D01*
X139132000Y-93024000D02*
X139175000Y-93024000D01*
X137414000Y-94742000D02*
X139132000Y-93024000D01*
X142240000Y-128524000D02*
X138684000Y-128524000D01*
%TO.N,/B_5v*%
X174404000Y-114166000D02*
X177292000Y-117054000D01*
X170180000Y-101600000D02*
X174404000Y-105824000D01*
X174404000Y-105824000D02*
X174404000Y-114166000D01*
%TO.N,/ALM_3.3v*%
X160020000Y-121666000D02*
X160020000Y-98298000D01*
X151384000Y-130302000D02*
X160020000Y-121666000D01*
X155448000Y-93726000D02*
X150622000Y-93726000D01*
X160020000Y-98298000D02*
X155448000Y-93726000D01*
%TO.N,/PG_3.3v*%
X161290000Y-96774000D02*
X150622000Y-86106000D01*
X161290000Y-130302000D02*
X161290000Y-96774000D01*
%TO.N,/A_3.3v*%
X171196000Y-130302000D02*
X169434000Y-128540000D01*
X169434000Y-122698000D02*
X165862000Y-119126000D01*
X169434000Y-128540000D02*
X169434000Y-122698000D01*
%TO.N,/MOSI*%
X137646000Y-121347000D02*
X137646000Y-119645654D01*
X138466997Y-118824657D02*
X139652657Y-118824657D01*
X139652657Y-118824657D02*
X148698000Y-109779314D01*
X148698000Y-109779314D02*
X148698000Y-100730000D01*
X138921000Y-122622000D02*
X137646000Y-121347000D01*
X137646000Y-119645654D02*
X138466997Y-118824657D01*
X148698000Y-100730000D02*
X150622000Y-98806000D01*
%TO.N,Net-(MotoDriver1-Pin_3)*%
X139175000Y-100524000D02*
X143570000Y-100524000D01*
X143570000Y-100524000D02*
X144315265Y-99778735D01*
%TO.N,Net-(MotoDriver1-Pin_5)*%
X139680000Y-95524000D02*
X144272000Y-90932000D01*
X139175000Y-95524000D02*
X139680000Y-95524000D01*
%TO.N,Net-(MotoDriver1-Pin_4)*%
X139175000Y-98024000D02*
X142006000Y-98024000D01*
X142006000Y-98024000D02*
X144780000Y-95250000D01*
%TO.N,Net-(MotoDriver1-Pin_2)*%
X143664000Y-103024000D02*
X143764000Y-103124000D01*
X139175000Y-103024000D02*
X143664000Y-103024000D01*
%TO.N,/CS*%
X148082000Y-98806000D02*
X150622000Y-96266000D01*
X148082000Y-105961000D02*
X146093000Y-107950000D01*
X148082000Y-105961000D02*
X148082000Y-98806000D01*
X146093000Y-107950000D02*
X146050000Y-107950000D01*
%TO.N,/MISO*%
X149098000Y-109945000D02*
X149098000Y-102870000D01*
X138921000Y-120122000D02*
X149098000Y-109945000D01*
X149098000Y-102870000D02*
X150622000Y-101346000D01*
%TO.N,/buzzer*%
X168402000Y-119634000D02*
X168402000Y-78486000D01*
X172212000Y-124714000D02*
X172212000Y-123444000D01*
X168402000Y-78486000D02*
X165862000Y-75946000D01*
X172212000Y-123444000D02*
X168402000Y-119634000D01*
%TD*%
%TA.AperFunction,Conductor*%
%TO.N,GND*%
G36*
X180942539Y-64218185D02*
G01*
X180988294Y-64270989D01*
X180999500Y-64322500D01*
X180999500Y-123483820D01*
X180979815Y-123550859D01*
X180927011Y-123596614D01*
X180857853Y-123606558D01*
X180799338Y-123581673D01*
X180635237Y-123453949D01*
X180635228Y-123453942D01*
X180416614Y-123335635D01*
X180416603Y-123335630D01*
X180181493Y-123254916D01*
X179936293Y-123214000D01*
X179687707Y-123214000D01*
X179442506Y-123254916D01*
X179207396Y-123335630D01*
X179207390Y-123335632D01*
X178988761Y-123453949D01*
X178941942Y-123490388D01*
X178941942Y-123490390D01*
X179682590Y-124231037D01*
X179619007Y-124248075D01*
X179504993Y-124313901D01*
X179411901Y-124406993D01*
X179346075Y-124521007D01*
X179329037Y-124584589D01*
X178588564Y-123844116D01*
X178488267Y-123997632D01*
X178388412Y-124225282D01*
X178327387Y-124466261D01*
X178327385Y-124466270D01*
X178306859Y-124713994D01*
X178306859Y-124714005D01*
X178327385Y-124961729D01*
X178327387Y-124961738D01*
X178388412Y-125202717D01*
X178488266Y-125430364D01*
X178588564Y-125583882D01*
X179329037Y-124843409D01*
X179346075Y-124906993D01*
X179411901Y-125021007D01*
X179504993Y-125114099D01*
X179619007Y-125179925D01*
X179682588Y-125196962D01*
X178941942Y-125937609D01*
X178988768Y-125974055D01*
X178988770Y-125974056D01*
X179207385Y-126092364D01*
X179207396Y-126092369D01*
X179442506Y-126173083D01*
X179687707Y-126214000D01*
X179936293Y-126214000D01*
X180181493Y-126173083D01*
X180416603Y-126092369D01*
X180416614Y-126092364D01*
X180635228Y-125974057D01*
X180635231Y-125974055D01*
X180799337Y-125846326D01*
X180864331Y-125820683D01*
X180932871Y-125834249D01*
X180983196Y-125882718D01*
X180999500Y-125944179D01*
X180999500Y-134875500D01*
X180979815Y-134942539D01*
X180927011Y-134988294D01*
X180875500Y-134999500D01*
X172533170Y-134999500D01*
X172466131Y-134979815D01*
X172420376Y-134927011D01*
X172410432Y-134857853D01*
X172434216Y-134800774D01*
X172475052Y-134746697D01*
X172475052Y-134746696D01*
X172475058Y-134746689D01*
X172574229Y-134547528D01*
X172635115Y-134333536D01*
X172655643Y-134112000D01*
X172653609Y-134090054D01*
X172635115Y-133890464D01*
X172635114Y-133890462D01*
X172626216Y-133859190D01*
X172574229Y-133676472D01*
X172574224Y-133676461D01*
X172475061Y-133477316D01*
X172475056Y-133477308D01*
X172340979Y-133299761D01*
X172176562Y-133149876D01*
X172176560Y-133149874D01*
X171987404Y-133032754D01*
X171987398Y-133032752D01*
X171779940Y-132952382D01*
X171561243Y-132911500D01*
X171338757Y-132911500D01*
X171120060Y-132952382D01*
X170988864Y-133003207D01*
X170912601Y-133032752D01*
X170912595Y-133032754D01*
X170723439Y-133149874D01*
X170723437Y-133149876D01*
X170559020Y-133299761D01*
X170424943Y-133477308D01*
X170424938Y-133477316D01*
X170325775Y-133676461D01*
X170325769Y-133676476D01*
X170264885Y-133890462D01*
X170264884Y-133890464D01*
X170244357Y-134111999D01*
X170244357Y-134112000D01*
X170264884Y-134333535D01*
X170264885Y-134333537D01*
X170325769Y-134547523D01*
X170325775Y-134547538D01*
X170424938Y-134746683D01*
X170424947Y-134746697D01*
X170465784Y-134800774D01*
X170490476Y-134866135D01*
X170475911Y-134934470D01*
X170426713Y-134984082D01*
X170366830Y-134999500D01*
X164912544Y-134999500D01*
X164845505Y-134979815D01*
X164799750Y-134927011D01*
X164789806Y-134857853D01*
X164813590Y-134800773D01*
X164854631Y-134746425D01*
X164953760Y-134547349D01*
X165006495Y-134362000D01*
X164074975Y-134362000D01*
X164110070Y-134326905D01*
X164156148Y-134247095D01*
X164180000Y-134158078D01*
X164180000Y-134065922D01*
X164156148Y-133976905D01*
X164110070Y-133897095D01*
X164074975Y-133862000D01*
X164080000Y-133862000D01*
X165006495Y-133862000D01*
X164953760Y-133676650D01*
X164854631Y-133477574D01*
X164720608Y-133300099D01*
X164556261Y-133150278D01*
X164367179Y-133033202D01*
X164367177Y-133033201D01*
X164159799Y-132952864D01*
X164080000Y-132937946D01*
X164080000Y-133862000D01*
X164074975Y-133862000D01*
X164044905Y-133831930D01*
X163965095Y-133785852D01*
X163876078Y-133762000D01*
X163783922Y-133762000D01*
X163694905Y-133785852D01*
X163615095Y-133831930D01*
X163580000Y-133867025D01*
X163580000Y-132937946D01*
X163500200Y-132952864D01*
X163292822Y-133033201D01*
X163292820Y-133033202D01*
X163103738Y-133150278D01*
X162939391Y-133300099D01*
X162805366Y-133477576D01*
X162798278Y-133491812D01*
X162750775Y-133543049D01*
X162683111Y-133560469D01*
X162616771Y-133538542D01*
X162576280Y-133491812D01*
X162569064Y-133477321D01*
X162569056Y-133477308D01*
X162434979Y-133299761D01*
X162270562Y-133149876D01*
X162270560Y-133149874D01*
X162081404Y-133032754D01*
X162081398Y-133032752D01*
X161873940Y-132952382D01*
X161655243Y-132911500D01*
X161432757Y-132911500D01*
X161214060Y-132952382D01*
X161082864Y-133003207D01*
X161006601Y-133032752D01*
X161006595Y-133032754D01*
X160817439Y-133149874D01*
X160817437Y-133149876D01*
X160653020Y-133299761D01*
X160518943Y-133477308D01*
X160518938Y-133477316D01*
X160419775Y-133676461D01*
X160419769Y-133676476D01*
X160358885Y-133890462D01*
X160358884Y-133890464D01*
X160338357Y-134111999D01*
X160338357Y-134112000D01*
X160358884Y-134333535D01*
X160358885Y-134333537D01*
X160419769Y-134547523D01*
X160419775Y-134547538D01*
X160518938Y-134746683D01*
X160518947Y-134746697D01*
X160559784Y-134800774D01*
X160584476Y-134866135D01*
X160569911Y-134934470D01*
X160520713Y-134984082D01*
X160460830Y-134999500D01*
X155006544Y-134999500D01*
X154939505Y-134979815D01*
X154893750Y-134927011D01*
X154883806Y-134857853D01*
X154907590Y-134800773D01*
X154948631Y-134746425D01*
X155047760Y-134547349D01*
X155100495Y-134362000D01*
X154168975Y-134362000D01*
X154204070Y-134326905D01*
X154250148Y-134247095D01*
X154274000Y-134158078D01*
X154274000Y-134065922D01*
X154250148Y-133976905D01*
X154204070Y-133897095D01*
X154168975Y-133862000D01*
X154174000Y-133862000D01*
X155100495Y-133862000D01*
X155047760Y-133676650D01*
X154948631Y-133477574D01*
X154814608Y-133300099D01*
X154650261Y-133150278D01*
X154461179Y-133033202D01*
X154461177Y-133033201D01*
X154253799Y-132952864D01*
X154174000Y-132937946D01*
X154174000Y-133862000D01*
X154168975Y-133862000D01*
X154138905Y-133831930D01*
X154059095Y-133785852D01*
X153970078Y-133762000D01*
X153877922Y-133762000D01*
X153788905Y-133785852D01*
X153709095Y-133831930D01*
X153674000Y-133867025D01*
X153674000Y-132937946D01*
X153594200Y-132952864D01*
X153386822Y-133033201D01*
X153386820Y-133033202D01*
X153197738Y-133150278D01*
X153033391Y-133300099D01*
X152899368Y-133477574D01*
X152800239Y-133676651D01*
X152800237Y-133676655D01*
X152773525Y-133770540D01*
X152736246Y-133829633D01*
X152672936Y-133859190D01*
X152603697Y-133849828D01*
X152550510Y-133804518D01*
X152534994Y-133770541D01*
X152508229Y-133676472D01*
X152508224Y-133676461D01*
X152409061Y-133477316D01*
X152409056Y-133477308D01*
X152274979Y-133299761D01*
X152110562Y-133149876D01*
X152110560Y-133149874D01*
X151921404Y-133032754D01*
X151921398Y-133032752D01*
X151713940Y-132952382D01*
X151495243Y-132911500D01*
X151272757Y-132911500D01*
X151054060Y-132952382D01*
X150922864Y-133003207D01*
X150846601Y-133032752D01*
X150846595Y-133032754D01*
X150657439Y-133149874D01*
X150657437Y-133149876D01*
X150493020Y-133299761D01*
X150358943Y-133477308D01*
X150358938Y-133477316D01*
X150259775Y-133676461D01*
X150259769Y-133676476D01*
X150198885Y-133890462D01*
X150198884Y-133890464D01*
X150178357Y-134111999D01*
X150178357Y-134112000D01*
X150198884Y-134333535D01*
X150198885Y-134333537D01*
X150259769Y-134547523D01*
X150259775Y-134547538D01*
X150358938Y-134746683D01*
X150358947Y-134746697D01*
X150399784Y-134800774D01*
X150424476Y-134866135D01*
X150409911Y-134934470D01*
X150360713Y-134984082D01*
X150300830Y-134999500D01*
X144846544Y-134999500D01*
X144779505Y-134979815D01*
X144733750Y-134927011D01*
X144723806Y-134857853D01*
X144747590Y-134800773D01*
X144788631Y-134746425D01*
X144887760Y-134547349D01*
X144940495Y-134362000D01*
X144008975Y-134362000D01*
X144044070Y-134326905D01*
X144090148Y-134247095D01*
X144114000Y-134158078D01*
X144114000Y-134065922D01*
X144090148Y-133976905D01*
X144044070Y-133897095D01*
X144008975Y-133862000D01*
X144014000Y-133862000D01*
X144940495Y-133862000D01*
X144887760Y-133676650D01*
X144788631Y-133477574D01*
X144654608Y-133300099D01*
X144490261Y-133150278D01*
X144301179Y-133033202D01*
X144301177Y-133033201D01*
X144093799Y-132952864D01*
X144014000Y-132937946D01*
X144014000Y-133862000D01*
X144008975Y-133862000D01*
X143978905Y-133831930D01*
X143899095Y-133785852D01*
X143810078Y-133762000D01*
X143717922Y-133762000D01*
X143628905Y-133785852D01*
X143549095Y-133831930D01*
X143483930Y-133897095D01*
X143437852Y-133976905D01*
X143414000Y-134065922D01*
X143414000Y-134158078D01*
X143437852Y-134247095D01*
X143483930Y-134326905D01*
X143519025Y-134362000D01*
X142587505Y-134362000D01*
X142640239Y-134547349D01*
X142739368Y-134746425D01*
X142780410Y-134800773D01*
X142805102Y-134866134D01*
X142790537Y-134934469D01*
X142741340Y-134984081D01*
X142681456Y-134999500D01*
X135624500Y-134999500D01*
X135557461Y-134979815D01*
X135511706Y-134927011D01*
X135500500Y-134875500D01*
X135500500Y-132212711D01*
X136579500Y-132212711D01*
X136579500Y-132455288D01*
X136611161Y-132695785D01*
X136673947Y-132930104D01*
X136748584Y-133110293D01*
X136766776Y-133154212D01*
X136888064Y-133364289D01*
X136888066Y-133364292D01*
X136888067Y-133364293D01*
X137035733Y-133556736D01*
X137035739Y-133556743D01*
X137207256Y-133728260D01*
X137207263Y-133728266D01*
X137251226Y-133762000D01*
X137399711Y-133875936D01*
X137609788Y-133997224D01*
X137833900Y-134090054D01*
X138068211Y-134152838D01*
X138248586Y-134176584D01*
X138308711Y-134184500D01*
X138308712Y-134184500D01*
X138551289Y-134184500D01*
X138599388Y-134178167D01*
X138791789Y-134152838D01*
X139026100Y-134090054D01*
X139250212Y-133997224D01*
X139460289Y-133875936D01*
X139478451Y-133862000D01*
X142587505Y-133862000D01*
X143514000Y-133862000D01*
X143514000Y-132937946D01*
X143434200Y-132952864D01*
X143226822Y-133033201D01*
X143226820Y-133033202D01*
X143037738Y-133150278D01*
X142873391Y-133300099D01*
X142739368Y-133477574D01*
X142640239Y-133676650D01*
X142587505Y-133862000D01*
X139478451Y-133862000D01*
X139652738Y-133728265D01*
X139824265Y-133556738D01*
X139971936Y-133364289D01*
X140093224Y-133154212D01*
X140186054Y-132930100D01*
X140248838Y-132695789D01*
X140280500Y-132455288D01*
X140280500Y-132212712D01*
X140248838Y-131972211D01*
X140245221Y-131958711D01*
X175949500Y-131958711D01*
X175949500Y-132201288D01*
X175981161Y-132441785D01*
X176043947Y-132676104D01*
X176052101Y-132695789D01*
X176136776Y-132900212D01*
X176258064Y-133110289D01*
X176258066Y-133110292D01*
X176258067Y-133110293D01*
X176405733Y-133302736D01*
X176405739Y-133302743D01*
X176577256Y-133474260D01*
X176577263Y-133474266D01*
X176581574Y-133477574D01*
X176769711Y-133621936D01*
X176979788Y-133743224D01*
X177203900Y-133836054D01*
X177438211Y-133898838D01*
X177618586Y-133922584D01*
X177678711Y-133930500D01*
X177678712Y-133930500D01*
X177921289Y-133930500D01*
X177969388Y-133924167D01*
X178161789Y-133898838D01*
X178396100Y-133836054D01*
X178620212Y-133743224D01*
X178830289Y-133621936D01*
X179022738Y-133474265D01*
X179194265Y-133302738D01*
X179341936Y-133110289D01*
X179463224Y-132900212D01*
X179556054Y-132676100D01*
X179618838Y-132441789D01*
X179650500Y-132201288D01*
X179650500Y-131958712D01*
X179618838Y-131718211D01*
X179556054Y-131483900D01*
X179463224Y-131259788D01*
X179341936Y-131049711D01*
X179208655Y-130876015D01*
X179194266Y-130857263D01*
X179194260Y-130857256D01*
X179022743Y-130685739D01*
X179022736Y-130685733D01*
X178830293Y-130538067D01*
X178830292Y-130538066D01*
X178830289Y-130538064D01*
X178620212Y-130416776D01*
X178620205Y-130416773D01*
X178396104Y-130323947D01*
X178161785Y-130261161D01*
X177921289Y-130229500D01*
X177921288Y-130229500D01*
X177678712Y-130229500D01*
X177678711Y-130229500D01*
X177438214Y-130261161D01*
X177203895Y-130323947D01*
X176979794Y-130416773D01*
X176979785Y-130416777D01*
X176769706Y-130538067D01*
X176577263Y-130685733D01*
X176577256Y-130685739D01*
X176405739Y-130857256D01*
X176405733Y-130857263D01*
X176258067Y-131049706D01*
X176136777Y-131259785D01*
X176136773Y-131259794D01*
X176043947Y-131483895D01*
X175981161Y-131718214D01*
X175949500Y-131958711D01*
X140245221Y-131958711D01*
X140186054Y-131737900D01*
X140093224Y-131513788D01*
X139971936Y-131303711D01*
X139824265Y-131111262D01*
X139824260Y-131111256D01*
X139652743Y-130939739D01*
X139652736Y-130939733D01*
X139460293Y-130792067D01*
X139460292Y-130792066D01*
X139460289Y-130792064D01*
X139250212Y-130670776D01*
X139250205Y-130670773D01*
X139026104Y-130577947D01*
X138877260Y-130538064D01*
X138791789Y-130515162D01*
X138791788Y-130515161D01*
X138791785Y-130515161D01*
X138551289Y-130483500D01*
X138551288Y-130483500D01*
X138308712Y-130483500D01*
X138308711Y-130483500D01*
X138068214Y-130515161D01*
X137833895Y-130577947D01*
X137609794Y-130670773D01*
X137609785Y-130670777D01*
X137399706Y-130792067D01*
X137207263Y-130939733D01*
X137207256Y-130939739D01*
X137035739Y-131111256D01*
X137035733Y-131111263D01*
X136888067Y-131303706D01*
X136766777Y-131513785D01*
X136766773Y-131513794D01*
X136673947Y-131737895D01*
X136611161Y-131972214D01*
X136579500Y-132212711D01*
X135500500Y-132212711D01*
X135500500Y-130301999D01*
X142558357Y-130301999D01*
X142558357Y-130302000D01*
X142578884Y-130523535D01*
X142578885Y-130523537D01*
X142639769Y-130737523D01*
X142639775Y-130737538D01*
X142738938Y-130936683D01*
X142738943Y-130936691D01*
X142873020Y-131114238D01*
X143037437Y-131264123D01*
X143037439Y-131264125D01*
X143226595Y-131381245D01*
X143226596Y-131381245D01*
X143226599Y-131381247D01*
X143434060Y-131461618D01*
X143652757Y-131502500D01*
X143652759Y-131502500D01*
X143875241Y-131502500D01*
X143875243Y-131502500D01*
X144093940Y-131461618D01*
X144301401Y-131381247D01*
X144490562Y-131264124D01*
X144654981Y-131114236D01*
X144789058Y-130936689D01*
X144888229Y-130737528D01*
X144949115Y-130523536D01*
X144969643Y-130302000D01*
X144949115Y-130080464D01*
X144888229Y-129866472D01*
X144888224Y-129866461D01*
X144789061Y-129667316D01*
X144789056Y-129667308D01*
X144654979Y-129489761D01*
X144490562Y-129339876D01*
X144490560Y-129339874D01*
X144301404Y-129222754D01*
X144301398Y-129222752D01*
X144093940Y-129142382D01*
X143875243Y-129101500D01*
X143652757Y-129101500D01*
X143434060Y-129142382D01*
X143404546Y-129153816D01*
X143226601Y-129222752D01*
X143226595Y-129222754D01*
X143037439Y-129339874D01*
X143037437Y-129339876D01*
X142873020Y-129489761D01*
X142738943Y-129667308D01*
X142738938Y-129667316D01*
X142639775Y-129866461D01*
X142639769Y-129866476D01*
X142578885Y-130080462D01*
X142578884Y-130080464D01*
X142558357Y-130301999D01*
X135500500Y-130301999D01*
X135500500Y-127165054D01*
X136645498Y-127165054D01*
X136686423Y-127317785D01*
X136715358Y-127367900D01*
X136715359Y-127367904D01*
X136715360Y-127367904D01*
X136765479Y-127454714D01*
X136765481Y-127454717D01*
X136884349Y-127573585D01*
X136884355Y-127573590D01*
X138199139Y-128888374D01*
X138199149Y-128888385D01*
X138203479Y-128892715D01*
X138203480Y-128892716D01*
X138315284Y-129004520D01*
X138357705Y-129029011D01*
X138402095Y-129054639D01*
X138402097Y-129054641D01*
X138440151Y-129076611D01*
X138452215Y-129083577D01*
X138604943Y-129124500D01*
X141657588Y-129124500D01*
X141724627Y-129144185D01*
X141734903Y-129151555D01*
X141737736Y-129153814D01*
X141737738Y-129153816D01*
X141890478Y-129249789D01*
X142060745Y-129309368D01*
X142060750Y-129309369D01*
X142239996Y-129329565D01*
X142240000Y-129329565D01*
X142240004Y-129329565D01*
X142419249Y-129309369D01*
X142419252Y-129309368D01*
X142419255Y-129309368D01*
X142589522Y-129249789D01*
X142742262Y-129153816D01*
X142869816Y-129026262D01*
X142965789Y-128873522D01*
X143025368Y-128703255D01*
X143045565Y-128524000D01*
X143038460Y-128460943D01*
X143025369Y-128344750D01*
X143025368Y-128344745D01*
X143019363Y-128327584D01*
X142965789Y-128174478D01*
X142869816Y-128021738D01*
X142742262Y-127894184D01*
X142677893Y-127853738D01*
X142589523Y-127798211D01*
X142419254Y-127738631D01*
X142419249Y-127738630D01*
X142240004Y-127718435D01*
X142239996Y-127718435D01*
X142060750Y-127738630D01*
X142060745Y-127738631D01*
X141890476Y-127798211D01*
X141737736Y-127894185D01*
X141734903Y-127896445D01*
X141732724Y-127897334D01*
X141731842Y-127897889D01*
X141731744Y-127897734D01*
X141670217Y-127922855D01*
X141657588Y-127923500D01*
X138984097Y-127923500D01*
X138917058Y-127903815D01*
X138896416Y-127887181D01*
X137882819Y-126873584D01*
X137849334Y-126812261D01*
X137846500Y-126785903D01*
X137846500Y-126568537D01*
X137866185Y-126501498D01*
X137918989Y-126455743D01*
X137988147Y-126445799D01*
X138009496Y-126450829D01*
X138043203Y-126461999D01*
X138145991Y-126472500D01*
X139696008Y-126472499D01*
X139798797Y-126461999D01*
X139965334Y-126406814D01*
X140114656Y-126314712D01*
X140238712Y-126190656D01*
X140330814Y-126041334D01*
X140385999Y-125874797D01*
X140396500Y-125772009D01*
X140396499Y-124471992D01*
X140395914Y-124466270D01*
X140385999Y-124369203D01*
X140385998Y-124369200D01*
X140383098Y-124360447D01*
X140330814Y-124202666D01*
X140238712Y-124053344D01*
X140114656Y-123929288D01*
X139965334Y-123837186D01*
X139965333Y-123837185D01*
X139959878Y-123833821D01*
X139913154Y-123781873D01*
X139901931Y-123712910D01*
X139929775Y-123648828D01*
X139937272Y-123640623D01*
X140076104Y-123501792D01*
X140084390Y-123490388D01*
X140201048Y-123329820D01*
X140201047Y-123329820D01*
X140201051Y-123329816D01*
X140297557Y-123140412D01*
X140363246Y-122938243D01*
X140396500Y-122728287D01*
X140396500Y-122515713D01*
X140363246Y-122305757D01*
X140297557Y-122103588D01*
X140201051Y-121914184D01*
X140201049Y-121914181D01*
X140201048Y-121914179D01*
X140076109Y-121742213D01*
X139925792Y-121591896D01*
X139761204Y-121472316D01*
X139718540Y-121416989D01*
X139712561Y-121347376D01*
X139745166Y-121285580D01*
X139761199Y-121271686D01*
X139925792Y-121152104D01*
X140076104Y-121001792D01*
X140076106Y-121001788D01*
X140076109Y-121001786D01*
X140201048Y-120829820D01*
X140201047Y-120829820D01*
X140201051Y-120829816D01*
X140297557Y-120640412D01*
X140363246Y-120438243D01*
X140396500Y-120228287D01*
X140396500Y-120015713D01*
X140363246Y-119805757D01*
X140318851Y-119669126D01*
X140316857Y-119599290D01*
X140349100Y-119543133D01*
X148988971Y-110903262D01*
X149050292Y-110869779D01*
X149119984Y-110874763D01*
X149175917Y-110916635D01*
X149200334Y-110982099D01*
X149196856Y-111021385D01*
X149136892Y-111258175D01*
X149136890Y-111258187D01*
X149116357Y-111505994D01*
X149116357Y-111506005D01*
X149136890Y-111753812D01*
X149136892Y-111753824D01*
X149197936Y-111994881D01*
X149297826Y-112222606D01*
X149433833Y-112430782D01*
X149466245Y-112465991D01*
X149602256Y-112613738D01*
X149685008Y-112678147D01*
X149725821Y-112734857D01*
X149729496Y-112804630D01*
X149694864Y-112865313D01*
X149685014Y-112873848D01*
X149626400Y-112919469D01*
X149602257Y-112938261D01*
X149433833Y-113121217D01*
X149297826Y-113329393D01*
X149197936Y-113557118D01*
X149136892Y-113798175D01*
X149136890Y-113798187D01*
X149116357Y-114045994D01*
X149116357Y-114046005D01*
X149136890Y-114293812D01*
X149136892Y-114293824D01*
X149197936Y-114534881D01*
X149297826Y-114762606D01*
X149433833Y-114970782D01*
X149433836Y-114970785D01*
X149602256Y-115153738D01*
X149685008Y-115218147D01*
X149725821Y-115274857D01*
X149729496Y-115344630D01*
X149694864Y-115405313D01*
X149685014Y-115413848D01*
X149626400Y-115459469D01*
X149602257Y-115478261D01*
X149433833Y-115661217D01*
X149297826Y-115869393D01*
X149197936Y-116097118D01*
X149136892Y-116338175D01*
X149136890Y-116338187D01*
X149116357Y-116585994D01*
X149116357Y-116586005D01*
X149136890Y-116833812D01*
X149136892Y-116833824D01*
X149197936Y-117074881D01*
X149297826Y-117302606D01*
X149433833Y-117510782D01*
X149433836Y-117510785D01*
X149602256Y-117693738D01*
X149685008Y-117758147D01*
X149725821Y-117814857D01*
X149729496Y-117884630D01*
X149694864Y-117945313D01*
X149685014Y-117953848D01*
X149626400Y-117999469D01*
X149602257Y-118018261D01*
X149433833Y-118201217D01*
X149297826Y-118409393D01*
X149197936Y-118637118D01*
X149136892Y-118878175D01*
X149136890Y-118878187D01*
X149116357Y-119125994D01*
X149116357Y-119126005D01*
X149136890Y-119373812D01*
X149136892Y-119373824D01*
X149197936Y-119614881D01*
X149297826Y-119842606D01*
X149433833Y-120050782D01*
X149433836Y-120050785D01*
X149602256Y-120233738D01*
X149685008Y-120298147D01*
X149725821Y-120354857D01*
X149729496Y-120424630D01*
X149694864Y-120485313D01*
X149685014Y-120493848D01*
X149626400Y-120539469D01*
X149602257Y-120558261D01*
X149433833Y-120741217D01*
X149297826Y-120949393D01*
X149197936Y-121177118D01*
X149136892Y-121418175D01*
X149136890Y-121418187D01*
X149116357Y-121665994D01*
X149116357Y-121666005D01*
X149136890Y-121913812D01*
X149136892Y-121913824D01*
X149197936Y-122154881D01*
X149297826Y-122382606D01*
X149433833Y-122590782D01*
X149433836Y-122590785D01*
X149602256Y-122773738D01*
X149685008Y-122838147D01*
X149725821Y-122894857D01*
X149729496Y-122964630D01*
X149694864Y-123025313D01*
X149685014Y-123033848D01*
X149631781Y-123075282D01*
X149602257Y-123098261D01*
X149433833Y-123281217D01*
X149297826Y-123489393D01*
X149197936Y-123717118D01*
X149136892Y-123958175D01*
X149136890Y-123958187D01*
X149116357Y-124205994D01*
X149116357Y-124206005D01*
X149136890Y-124453812D01*
X149136892Y-124453824D01*
X149197936Y-124694881D01*
X149297826Y-124922606D01*
X149433833Y-125130782D01*
X149433836Y-125130785D01*
X149602256Y-125313738D01*
X149685008Y-125378147D01*
X149725821Y-125434857D01*
X149729496Y-125504630D01*
X149694864Y-125565313D01*
X149685014Y-125573848D01*
X149626400Y-125619469D01*
X149602257Y-125638261D01*
X149433833Y-125821217D01*
X149297826Y-126029393D01*
X149197936Y-126257118D01*
X149136892Y-126498175D01*
X149136890Y-126498187D01*
X149116357Y-126745994D01*
X149116357Y-126746005D01*
X149136890Y-126993812D01*
X149136892Y-126993824D01*
X149197936Y-127234881D01*
X149297826Y-127462606D01*
X149433833Y-127670782D01*
X149433836Y-127670785D01*
X149602256Y-127853738D01*
X149798491Y-128006474D01*
X150017190Y-128124828D01*
X150252386Y-128205571D01*
X150497665Y-128246500D01*
X150746335Y-128246500D01*
X150991614Y-128205571D01*
X151226810Y-128124828D01*
X151445509Y-128006474D01*
X151641744Y-127853738D01*
X151810164Y-127670785D01*
X151946173Y-127462607D01*
X152046063Y-127234881D01*
X152107108Y-126993821D01*
X152120081Y-126837265D01*
X152127643Y-126746005D01*
X152127643Y-126745994D01*
X152107109Y-126498187D01*
X152107107Y-126498175D01*
X152046063Y-126257118D01*
X151946173Y-126029393D01*
X151810166Y-125821217D01*
X151755545Y-125761883D01*
X151641744Y-125638262D01*
X151558991Y-125573852D01*
X151518179Y-125517143D01*
X151514504Y-125447370D01*
X151549136Y-125386687D01*
X151558985Y-125378151D01*
X151641744Y-125313738D01*
X151810164Y-125130785D01*
X151946173Y-124922607D01*
X152046063Y-124694881D01*
X152107108Y-124453821D01*
X152107109Y-124453812D01*
X152127643Y-124206005D01*
X152127643Y-124205994D01*
X152107109Y-123958187D01*
X152107107Y-123958175D01*
X152046063Y-123717118D01*
X151946173Y-123489393D01*
X151810166Y-123281217D01*
X151741509Y-123206636D01*
X151641744Y-123098262D01*
X151558991Y-123033852D01*
X151518179Y-122977143D01*
X151514504Y-122907370D01*
X151549136Y-122846687D01*
X151558985Y-122838151D01*
X151641744Y-122773738D01*
X151810164Y-122590785D01*
X151946173Y-122382607D01*
X152046063Y-122154881D01*
X152107108Y-121913821D01*
X152119717Y-121761651D01*
X152127643Y-121666005D01*
X152127643Y-121665994D01*
X152107109Y-121418187D01*
X152107107Y-121418175D01*
X152046063Y-121177118D01*
X151946173Y-120949393D01*
X151810166Y-120741217D01*
X151717368Y-120640412D01*
X151641744Y-120558262D01*
X151558991Y-120493852D01*
X151518179Y-120437143D01*
X151514504Y-120367370D01*
X151549136Y-120306687D01*
X151558985Y-120298151D01*
X151641744Y-120233738D01*
X151810164Y-120050785D01*
X151946173Y-119842607D01*
X152046063Y-119614881D01*
X152107108Y-119373821D01*
X152107109Y-119373812D01*
X152127643Y-119126005D01*
X152127643Y-119125994D01*
X152107109Y-118878187D01*
X152107107Y-118878175D01*
X152046063Y-118637118D01*
X151946173Y-118409393D01*
X151810166Y-118201217D01*
X151702360Y-118084109D01*
X151641744Y-118018262D01*
X151558991Y-117953852D01*
X151518179Y-117897143D01*
X151514504Y-117827370D01*
X151549136Y-117766687D01*
X151558985Y-117758151D01*
X151641744Y-117693738D01*
X151810164Y-117510785D01*
X151946173Y-117302607D01*
X152046063Y-117074881D01*
X152107108Y-116833821D01*
X152114699Y-116742213D01*
X152127643Y-116586005D01*
X152127643Y-116585994D01*
X152107109Y-116338187D01*
X152107107Y-116338175D01*
X152046063Y-116097118D01*
X151946173Y-115869393D01*
X151810166Y-115661217D01*
X151739177Y-115584103D01*
X151641744Y-115478262D01*
X151558991Y-115413852D01*
X151518179Y-115357143D01*
X151514504Y-115287370D01*
X151549136Y-115226687D01*
X151558985Y-115218151D01*
X151641744Y-115153738D01*
X151810164Y-114970785D01*
X151946173Y-114762607D01*
X152046063Y-114534881D01*
X152107108Y-114293821D01*
X152111149Y-114245054D01*
X152127643Y-114046005D01*
X152127643Y-114045994D01*
X152107109Y-113798187D01*
X152107107Y-113798175D01*
X152046063Y-113557118D01*
X151946173Y-113329393D01*
X151810166Y-113121217D01*
X151787873Y-113097000D01*
X151641744Y-112938262D01*
X151558991Y-112873852D01*
X151518179Y-112817143D01*
X151514504Y-112747370D01*
X151549136Y-112686687D01*
X151558985Y-112678151D01*
X151641744Y-112613738D01*
X151810164Y-112430785D01*
X151946173Y-112222607D01*
X152046063Y-111994881D01*
X152107108Y-111753821D01*
X152120494Y-111592276D01*
X152127643Y-111506005D01*
X152127643Y-111505994D01*
X152107109Y-111258187D01*
X152107107Y-111258175D01*
X152046063Y-111017118D01*
X151946173Y-110789393D01*
X151810166Y-110581217D01*
X151710659Y-110473124D01*
X151641744Y-110398262D01*
X151558991Y-110333852D01*
X151518179Y-110277143D01*
X151514504Y-110207370D01*
X151549136Y-110146687D01*
X151558985Y-110138151D01*
X151641744Y-110073738D01*
X151810164Y-109890785D01*
X151946173Y-109682607D01*
X152046063Y-109454881D01*
X152107108Y-109213821D01*
X152110416Y-109173905D01*
X152127643Y-108966005D01*
X152127643Y-108965994D01*
X152107109Y-108718187D01*
X152107107Y-108718175D01*
X152046063Y-108477118D01*
X151946173Y-108249393D01*
X151810166Y-108041217D01*
X151726197Y-107950003D01*
X151641744Y-107858262D01*
X151558991Y-107793852D01*
X151518179Y-107737143D01*
X151514504Y-107667370D01*
X151549136Y-107606687D01*
X151558985Y-107598151D01*
X151641744Y-107533738D01*
X151810164Y-107350785D01*
X151946173Y-107142607D01*
X152046063Y-106914881D01*
X152107108Y-106673821D01*
X152107109Y-106673812D01*
X152127643Y-106426005D01*
X152127643Y-106425994D01*
X152107109Y-106178187D01*
X152107107Y-106178175D01*
X152046063Y-105937118D01*
X151946173Y-105709393D01*
X151810166Y-105501217D01*
X151788557Y-105477744D01*
X151641744Y-105318262D01*
X151558991Y-105253852D01*
X151518179Y-105197143D01*
X151514504Y-105127370D01*
X151549136Y-105066687D01*
X151558985Y-105058151D01*
X151641744Y-104993738D01*
X151810164Y-104810785D01*
X151946173Y-104602607D01*
X152046063Y-104374881D01*
X152107108Y-104133821D01*
X152126169Y-103903792D01*
X152127643Y-103886005D01*
X152127643Y-103885994D01*
X152107109Y-103638187D01*
X152107107Y-103638175D01*
X152046063Y-103397118D01*
X151946173Y-103169393D01*
X151810166Y-102961217D01*
X151788557Y-102937744D01*
X151641744Y-102778262D01*
X151558991Y-102713852D01*
X151518179Y-102657143D01*
X151514504Y-102587370D01*
X151549136Y-102526687D01*
X151558985Y-102518151D01*
X151641744Y-102453738D01*
X151810164Y-102270785D01*
X151946173Y-102062607D01*
X152046063Y-101834881D01*
X152107108Y-101593821D01*
X152110399Y-101554103D01*
X152127643Y-101346005D01*
X152127643Y-101345994D01*
X152107109Y-101098187D01*
X152107107Y-101098175D01*
X152046063Y-100857118D01*
X151946173Y-100629393D01*
X151810166Y-100421217D01*
X151735781Y-100340414D01*
X151641744Y-100238262D01*
X151558991Y-100173852D01*
X151518179Y-100117143D01*
X151514504Y-100047370D01*
X151549136Y-99986687D01*
X151558985Y-99978151D01*
X151641744Y-99913738D01*
X151810164Y-99730785D01*
X151946173Y-99522607D01*
X152046063Y-99294881D01*
X152107108Y-99053821D01*
X152107181Y-99052946D01*
X152127643Y-98806005D01*
X152127643Y-98805994D01*
X152107109Y-98558187D01*
X152107107Y-98558175D01*
X152046063Y-98317118D01*
X151946173Y-98089393D01*
X151810166Y-97881217D01*
X151747515Y-97813160D01*
X151641744Y-97698262D01*
X151558991Y-97633852D01*
X151518179Y-97577143D01*
X151514504Y-97507370D01*
X151549136Y-97446687D01*
X151558985Y-97438151D01*
X151641744Y-97373738D01*
X151810164Y-97190785D01*
X151946173Y-96982607D01*
X152046063Y-96754881D01*
X152107108Y-96513821D01*
X152107109Y-96513812D01*
X152127643Y-96266005D01*
X152127643Y-96265994D01*
X152107109Y-96018187D01*
X152107107Y-96018175D01*
X152046063Y-95777118D01*
X151946173Y-95549393D01*
X151810166Y-95341217D01*
X151769461Y-95297000D01*
X151641744Y-95158262D01*
X151558991Y-95093852D01*
X151518179Y-95037143D01*
X151514504Y-94967370D01*
X151549136Y-94906687D01*
X151558985Y-94898151D01*
X151641744Y-94833738D01*
X151810164Y-94650785D01*
X151946173Y-94442607D01*
X151964560Y-94400689D01*
X152009517Y-94347204D01*
X152076253Y-94326514D01*
X152078116Y-94326500D01*
X155147903Y-94326500D01*
X155214942Y-94346185D01*
X155235584Y-94362819D01*
X159383181Y-98510416D01*
X159416666Y-98571739D01*
X159419500Y-98598097D01*
X159419500Y-121365902D01*
X159399815Y-121432941D01*
X159383181Y-121453583D01*
X151743680Y-129093083D01*
X151682357Y-129126568D01*
X151633215Y-129127291D01*
X151595596Y-129120259D01*
X151495243Y-129101500D01*
X151272757Y-129101500D01*
X151054060Y-129142382D01*
X151024546Y-129153816D01*
X150846601Y-129222752D01*
X150846595Y-129222754D01*
X150657439Y-129339874D01*
X150657437Y-129339876D01*
X150493020Y-129489761D01*
X150358943Y-129667308D01*
X150358938Y-129667316D01*
X150259775Y-129866461D01*
X150259769Y-129866476D01*
X150198885Y-130080462D01*
X150198884Y-130080464D01*
X150178357Y-130301999D01*
X150178357Y-130302000D01*
X150198884Y-130523535D01*
X150198885Y-130523537D01*
X150259769Y-130737523D01*
X150259775Y-130737538D01*
X150358938Y-130936683D01*
X150358943Y-130936691D01*
X150493020Y-131114238D01*
X150657437Y-131264123D01*
X150657439Y-131264125D01*
X150846595Y-131381245D01*
X150846596Y-131381245D01*
X150846599Y-131381247D01*
X151054060Y-131461618D01*
X151272757Y-131502500D01*
X151272759Y-131502500D01*
X151495241Y-131502500D01*
X151495243Y-131502500D01*
X151713940Y-131461618D01*
X151921401Y-131381247D01*
X152110562Y-131264124D01*
X152274981Y-131114236D01*
X152409058Y-130936689D01*
X152415999Y-130922748D01*
X152463502Y-130871512D01*
X152531164Y-130854090D01*
X152597505Y-130876015D01*
X152638001Y-130922749D01*
X152644941Y-130936688D01*
X152644943Y-130936691D01*
X152779020Y-131114238D01*
X152943437Y-131264123D01*
X152943439Y-131264125D01*
X153132595Y-131381245D01*
X153132596Y-131381245D01*
X153132599Y-131381247D01*
X153340060Y-131461618D01*
X153558757Y-131502500D01*
X153558759Y-131502500D01*
X153781241Y-131502500D01*
X153781243Y-131502500D01*
X153999940Y-131461618D01*
X154207401Y-131381247D01*
X154396562Y-131264124D01*
X154560981Y-131114236D01*
X154695058Y-130936689D01*
X154794229Y-130737528D01*
X154855115Y-130523536D01*
X154875643Y-130302000D01*
X154855115Y-130080464D01*
X154794229Y-129866472D01*
X154794224Y-129866461D01*
X154695061Y-129667316D01*
X154695056Y-129667308D01*
X154560979Y-129489761D01*
X154396562Y-129339876D01*
X154396560Y-129339874D01*
X154207404Y-129222754D01*
X154207398Y-129222752D01*
X153999940Y-129142382D01*
X153781243Y-129101500D01*
X153733096Y-129101500D01*
X153666057Y-129081815D01*
X153620302Y-129029011D01*
X153610358Y-128959853D01*
X153639383Y-128896297D01*
X153645415Y-128889819D01*
X156969921Y-125565313D01*
X160378506Y-122156728D01*
X160378511Y-122156724D01*
X160388714Y-122146520D01*
X160388716Y-122146520D01*
X160477819Y-122057417D01*
X160539142Y-122023932D01*
X160608834Y-122028916D01*
X160664767Y-122070788D01*
X160689184Y-122136252D01*
X160689500Y-122145098D01*
X160689500Y-129192754D01*
X160669815Y-129259793D01*
X160630778Y-129298181D01*
X160563436Y-129339877D01*
X160399020Y-129489761D01*
X160264943Y-129667308D01*
X160264938Y-129667316D01*
X160165775Y-129866461D01*
X160165769Y-129866476D01*
X160104885Y-130080462D01*
X160104884Y-130080464D01*
X160084357Y-130301999D01*
X160084357Y-130302000D01*
X160104884Y-130523535D01*
X160104885Y-130523537D01*
X160165769Y-130737523D01*
X160165775Y-130737538D01*
X160264938Y-130936683D01*
X160264943Y-130936691D01*
X160399020Y-131114238D01*
X160563437Y-131264123D01*
X160563439Y-131264125D01*
X160752595Y-131381245D01*
X160752596Y-131381245D01*
X160752599Y-131381247D01*
X160960060Y-131461618D01*
X161178757Y-131502500D01*
X161178759Y-131502500D01*
X161401241Y-131502500D01*
X161401243Y-131502500D01*
X161619940Y-131461618D01*
X161827401Y-131381247D01*
X162016562Y-131264124D01*
X162180981Y-131114236D01*
X162315058Y-130936689D01*
X162321999Y-130922748D01*
X162369502Y-130871512D01*
X162437164Y-130854090D01*
X162503505Y-130876015D01*
X162544001Y-130922749D01*
X162550941Y-130936688D01*
X162550943Y-130936691D01*
X162685020Y-131114238D01*
X162849437Y-131264123D01*
X162849439Y-131264125D01*
X163038595Y-131381245D01*
X163038596Y-131381245D01*
X163038599Y-131381247D01*
X163246060Y-131461618D01*
X163464757Y-131502500D01*
X163464759Y-131502500D01*
X163687241Y-131502500D01*
X163687243Y-131502500D01*
X163905940Y-131461618D01*
X164113401Y-131381247D01*
X164302562Y-131264124D01*
X164466981Y-131114236D01*
X164601058Y-130936689D01*
X164700229Y-130737528D01*
X164761115Y-130523536D01*
X164781643Y-130302000D01*
X164761115Y-130080464D01*
X164700229Y-129866472D01*
X164700224Y-129866461D01*
X164601061Y-129667316D01*
X164601056Y-129667308D01*
X164466979Y-129489761D01*
X164302562Y-129339876D01*
X164302560Y-129339874D01*
X164113404Y-129222754D01*
X164113398Y-129222752D01*
X163905940Y-129142382D01*
X163687243Y-129101500D01*
X163464757Y-129101500D01*
X163246060Y-129142382D01*
X163216546Y-129153816D01*
X163038601Y-129222752D01*
X163038595Y-129222754D01*
X162849439Y-129339874D01*
X162849437Y-129339876D01*
X162685020Y-129489761D01*
X162550943Y-129667308D01*
X162550940Y-129667313D01*
X162544000Y-129681252D01*
X162496496Y-129732488D01*
X162428833Y-129749909D01*
X162362493Y-129727983D01*
X162322000Y-129681252D01*
X162315059Y-129667313D01*
X162315056Y-129667308D01*
X162180979Y-129489761D01*
X162016563Y-129339877D01*
X162016562Y-129339876D01*
X161949221Y-129298180D01*
X161902587Y-129246153D01*
X161890500Y-129192754D01*
X161890500Y-96694944D01*
X161890499Y-96694938D01*
X161886242Y-96679051D01*
X161884755Y-96673500D01*
X161849577Y-96542215D01*
X161820639Y-96492095D01*
X161770520Y-96405284D01*
X161658716Y-96293480D01*
X161658715Y-96293479D01*
X161654385Y-96289149D01*
X161654374Y-96289139D01*
X152078516Y-86713281D01*
X152045031Y-86651958D01*
X152045992Y-86595159D01*
X152046061Y-86594884D01*
X152046063Y-86594881D01*
X152107108Y-86353821D01*
X152107109Y-86353812D01*
X152127643Y-86106005D01*
X152127643Y-86105994D01*
X152107109Y-85858187D01*
X152107107Y-85858175D01*
X152046063Y-85617118D01*
X151946173Y-85389393D01*
X151810166Y-85181217D01*
X151788557Y-85157744D01*
X151641744Y-84998262D01*
X151558991Y-84933852D01*
X151518179Y-84877143D01*
X151514504Y-84807370D01*
X151549136Y-84746687D01*
X151558985Y-84738151D01*
X151641744Y-84673738D01*
X151810164Y-84490785D01*
X151946173Y-84282607D01*
X152046063Y-84054881D01*
X152107108Y-83813821D01*
X152114610Y-83723288D01*
X152127643Y-83566005D01*
X152127643Y-83565994D01*
X152107109Y-83318187D01*
X152107107Y-83318175D01*
X152046063Y-83077118D01*
X151946173Y-82849393D01*
X151810166Y-82641217D01*
X151788557Y-82617744D01*
X151641744Y-82458262D01*
X151558991Y-82393852D01*
X151518179Y-82337143D01*
X151514504Y-82267370D01*
X151549136Y-82206687D01*
X151558985Y-82198151D01*
X151641744Y-82133738D01*
X151810164Y-81950785D01*
X151946173Y-81742607D01*
X152046063Y-81514881D01*
X152107108Y-81273821D01*
X152107260Y-81271991D01*
X152127643Y-81026005D01*
X152127643Y-81025994D01*
X152107109Y-80778187D01*
X152107107Y-80778175D01*
X152094727Y-80729288D01*
X152046063Y-80537119D01*
X152026626Y-80492808D01*
X152017724Y-80423511D01*
X152047701Y-80360399D01*
X152107040Y-80323511D01*
X152140183Y-80319000D01*
X157151880Y-80319000D01*
X157367560Y-80319000D01*
X157434599Y-80338685D01*
X157455241Y-80355319D01*
X157485738Y-80385816D01*
X157638478Y-80481789D01*
X157696021Y-80501924D01*
X157808745Y-80541368D01*
X157808750Y-80541369D01*
X157987996Y-80561565D01*
X157988000Y-80561565D01*
X157988004Y-80561565D01*
X158167249Y-80541369D01*
X158167252Y-80541368D01*
X158167255Y-80541368D01*
X158337522Y-80481789D01*
X158490262Y-80385816D01*
X158617816Y-80258262D01*
X158713789Y-80105522D01*
X158773368Y-79935255D01*
X158783502Y-79845313D01*
X158793565Y-79756003D01*
X158793565Y-79755996D01*
X158773369Y-79576750D01*
X158773368Y-79576745D01*
X158713788Y-79406476D01*
X158668724Y-79334757D01*
X158617816Y-79253738D01*
X158490262Y-79126184D01*
X158337523Y-79030211D01*
X158167254Y-78970631D01*
X158167249Y-78970630D01*
X157988004Y-78950435D01*
X157987996Y-78950435D01*
X157808750Y-78970630D01*
X157808745Y-78970631D01*
X157638476Y-79030211D01*
X157485737Y-79126184D01*
X157455241Y-79156681D01*
X157393918Y-79190166D01*
X157367560Y-79193000D01*
X152140183Y-79193000D01*
X152073144Y-79173315D01*
X152027389Y-79120511D01*
X152017445Y-79051353D01*
X152026625Y-79019193D01*
X152046063Y-78974881D01*
X152107108Y-78733821D01*
X152122985Y-78542213D01*
X152127643Y-78486005D01*
X152127643Y-78485994D01*
X152107109Y-78238187D01*
X152107107Y-78238175D01*
X152101742Y-78216989D01*
X152046063Y-77997119D01*
X152029916Y-77960309D01*
X152021014Y-77891011D01*
X152050991Y-77827898D01*
X152110330Y-77791011D01*
X152143473Y-77786500D01*
X159234936Y-77786500D01*
X159301975Y-77806185D01*
X159322617Y-77822819D01*
X164420405Y-82920607D01*
X164453890Y-82981930D01*
X164448906Y-83051622D01*
X164446281Y-83058096D01*
X164437936Y-83077121D01*
X164376892Y-83318175D01*
X164376890Y-83318187D01*
X164356357Y-83565994D01*
X164356357Y-83566005D01*
X164376890Y-83813812D01*
X164376892Y-83813824D01*
X164437936Y-84054881D01*
X164537826Y-84282606D01*
X164673833Y-84490782D01*
X164673836Y-84490785D01*
X164842256Y-84673738D01*
X164925008Y-84738147D01*
X164965821Y-84794857D01*
X164969496Y-84864630D01*
X164934864Y-84925313D01*
X164925014Y-84933848D01*
X164866400Y-84979469D01*
X164842257Y-84998261D01*
X164673833Y-85181217D01*
X164537826Y-85389393D01*
X164437936Y-85617118D01*
X164376892Y-85858175D01*
X164376890Y-85858187D01*
X164356357Y-86105994D01*
X164356357Y-86106005D01*
X164376890Y-86353812D01*
X164376892Y-86353824D01*
X164437936Y-86594881D01*
X164537826Y-86822606D01*
X164673833Y-87030782D01*
X164673836Y-87030785D01*
X164842256Y-87213738D01*
X164925008Y-87278147D01*
X164965821Y-87334857D01*
X164969496Y-87404630D01*
X164934864Y-87465313D01*
X164925014Y-87473848D01*
X164884236Y-87505588D01*
X164842257Y-87538261D01*
X164673833Y-87721217D01*
X164537826Y-87929393D01*
X164437936Y-88157118D01*
X164376892Y-88398175D01*
X164376890Y-88398187D01*
X164356357Y-88645994D01*
X164356357Y-88646005D01*
X164376890Y-88893812D01*
X164376892Y-88893824D01*
X164437936Y-89134881D01*
X164537826Y-89362606D01*
X164673833Y-89570782D01*
X164673836Y-89570785D01*
X164842256Y-89753738D01*
X164925008Y-89818147D01*
X164965821Y-89874857D01*
X164969496Y-89944630D01*
X164934864Y-90005313D01*
X164925014Y-90013848D01*
X164866400Y-90059469D01*
X164842257Y-90078261D01*
X164673833Y-90261217D01*
X164537826Y-90469393D01*
X164437936Y-90697118D01*
X164376892Y-90938175D01*
X164376890Y-90938187D01*
X164356357Y-91185994D01*
X164356357Y-91186005D01*
X164376890Y-91433812D01*
X164376892Y-91433824D01*
X164437936Y-91674881D01*
X164537826Y-91902606D01*
X164673833Y-92110782D01*
X164673836Y-92110785D01*
X164842256Y-92293738D01*
X164925008Y-92358147D01*
X164965821Y-92414857D01*
X164969496Y-92484630D01*
X164934864Y-92545313D01*
X164925014Y-92553848D01*
X164866400Y-92599469D01*
X164842257Y-92618261D01*
X164673833Y-92801217D01*
X164537826Y-93009393D01*
X164437936Y-93237118D01*
X164376892Y-93478175D01*
X164376890Y-93478187D01*
X164356357Y-93725994D01*
X164356357Y-93726005D01*
X164376890Y-93973812D01*
X164376892Y-93973824D01*
X164437936Y-94214881D01*
X164537826Y-94442606D01*
X164673833Y-94650782D01*
X164673836Y-94650785D01*
X164842256Y-94833738D01*
X164925008Y-94898147D01*
X164965821Y-94954857D01*
X164969496Y-95024630D01*
X164934864Y-95085313D01*
X164925014Y-95093848D01*
X164866400Y-95139469D01*
X164842257Y-95158261D01*
X164673833Y-95341217D01*
X164537826Y-95549393D01*
X164437936Y-95777118D01*
X164376892Y-96018175D01*
X164376890Y-96018187D01*
X164356357Y-96265994D01*
X164356357Y-96266005D01*
X164376890Y-96513812D01*
X164376892Y-96513824D01*
X164437936Y-96754881D01*
X164537826Y-96982606D01*
X164673833Y-97190782D01*
X164673836Y-97190785D01*
X164842256Y-97373738D01*
X164925008Y-97438147D01*
X164965821Y-97494857D01*
X164969496Y-97564630D01*
X164934864Y-97625313D01*
X164925014Y-97633848D01*
X164866400Y-97679469D01*
X164842257Y-97698261D01*
X164673833Y-97881217D01*
X164537826Y-98089393D01*
X164437936Y-98317118D01*
X164376892Y-98558175D01*
X164376890Y-98558187D01*
X164356357Y-98805994D01*
X164356357Y-98806005D01*
X164376890Y-99053812D01*
X164376892Y-99053824D01*
X164437936Y-99294881D01*
X164537826Y-99522606D01*
X164673833Y-99730782D01*
X164673836Y-99730785D01*
X164842256Y-99913738D01*
X164925008Y-99978147D01*
X164965821Y-100034857D01*
X164969496Y-100104630D01*
X164934864Y-100165313D01*
X164925014Y-100173848D01*
X164866400Y-100219469D01*
X164842257Y-100238261D01*
X164673833Y-100421217D01*
X164537826Y-100629393D01*
X164437936Y-100857118D01*
X164376892Y-101098175D01*
X164376890Y-101098187D01*
X164356357Y-101345994D01*
X164356357Y-101346005D01*
X164376890Y-101593812D01*
X164376892Y-101593824D01*
X164437936Y-101834881D01*
X164537826Y-102062606D01*
X164673833Y-102270782D01*
X164673836Y-102270785D01*
X164842256Y-102453738D01*
X164925008Y-102518147D01*
X164965821Y-102574857D01*
X164969496Y-102644630D01*
X164934864Y-102705313D01*
X164925014Y-102713848D01*
X164866400Y-102759469D01*
X164842257Y-102778261D01*
X164673833Y-102961217D01*
X164537826Y-103169393D01*
X164437936Y-103397118D01*
X164376892Y-103638175D01*
X164376890Y-103638187D01*
X164356357Y-103885994D01*
X164356357Y-103886005D01*
X164376890Y-104133812D01*
X164376892Y-104133824D01*
X164437936Y-104374881D01*
X164537826Y-104602606D01*
X164673833Y-104810782D01*
X164673836Y-104810785D01*
X164842256Y-104993738D01*
X164925008Y-105058147D01*
X164965821Y-105114857D01*
X164969496Y-105184630D01*
X164934864Y-105245313D01*
X164925014Y-105253848D01*
X164866400Y-105299469D01*
X164842257Y-105318261D01*
X164673833Y-105501217D01*
X164537826Y-105709393D01*
X164437936Y-105937118D01*
X164376892Y-106178175D01*
X164376890Y-106178187D01*
X164356357Y-106425994D01*
X164356357Y-106426005D01*
X164376890Y-106673812D01*
X164376892Y-106673824D01*
X164437936Y-106914881D01*
X164537826Y-107142606D01*
X164673833Y-107350782D01*
X164673836Y-107350785D01*
X164842256Y-107533738D01*
X164925008Y-107598147D01*
X164965821Y-107654857D01*
X164969496Y-107724630D01*
X164934864Y-107785313D01*
X164925014Y-107793848D01*
X164866400Y-107839469D01*
X164842257Y-107858261D01*
X164673833Y-108041217D01*
X164537826Y-108249393D01*
X164437936Y-108477118D01*
X164376892Y-108718175D01*
X164376890Y-108718187D01*
X164356357Y-108965994D01*
X164356357Y-108966005D01*
X164376890Y-109213812D01*
X164376892Y-109213824D01*
X164437936Y-109454881D01*
X164537826Y-109682606D01*
X164673833Y-109890782D01*
X164673836Y-109890785D01*
X164842256Y-110073738D01*
X164925008Y-110138147D01*
X164965821Y-110194857D01*
X164969496Y-110264630D01*
X164934864Y-110325313D01*
X164925014Y-110333848D01*
X164887561Y-110363000D01*
X164842257Y-110398261D01*
X164673833Y-110581217D01*
X164537826Y-110789393D01*
X164437936Y-111017118D01*
X164376892Y-111258175D01*
X164376890Y-111258187D01*
X164356357Y-111505994D01*
X164356357Y-111506005D01*
X164376890Y-111753812D01*
X164376892Y-111753824D01*
X164437936Y-111994881D01*
X164537826Y-112222606D01*
X164673833Y-112430782D01*
X164706245Y-112465991D01*
X164842256Y-112613738D01*
X164925008Y-112678147D01*
X164965821Y-112734857D01*
X164969496Y-112804630D01*
X164934864Y-112865313D01*
X164925014Y-112873848D01*
X164866400Y-112919469D01*
X164842257Y-112938261D01*
X164673833Y-113121217D01*
X164537826Y-113329393D01*
X164437936Y-113557118D01*
X164376892Y-113798175D01*
X164376890Y-113798187D01*
X164356357Y-114045994D01*
X164356357Y-114046005D01*
X164376890Y-114293812D01*
X164376892Y-114293824D01*
X164437936Y-114534881D01*
X164537826Y-114762606D01*
X164673833Y-114970782D01*
X164673836Y-114970785D01*
X164842256Y-115153738D01*
X164925008Y-115218147D01*
X164965821Y-115274857D01*
X164969496Y-115344630D01*
X164934864Y-115405313D01*
X164925014Y-115413848D01*
X164866400Y-115459469D01*
X164842257Y-115478261D01*
X164673833Y-115661217D01*
X164537826Y-115869393D01*
X164437936Y-116097118D01*
X164376892Y-116338175D01*
X164376890Y-116338187D01*
X164356357Y-116585994D01*
X164356357Y-116586005D01*
X164376890Y-116833812D01*
X164376892Y-116833824D01*
X164437936Y-117074881D01*
X164537826Y-117302606D01*
X164673833Y-117510782D01*
X164673836Y-117510785D01*
X164842256Y-117693738D01*
X164925008Y-117758147D01*
X164965821Y-117814857D01*
X164969496Y-117884630D01*
X164934864Y-117945313D01*
X164925014Y-117953848D01*
X164866400Y-117999469D01*
X164842257Y-118018261D01*
X164673833Y-118201217D01*
X164537826Y-118409393D01*
X164437936Y-118637118D01*
X164376892Y-118878175D01*
X164376890Y-118878187D01*
X164356357Y-119125994D01*
X164356357Y-119126005D01*
X164376890Y-119373812D01*
X164376892Y-119373824D01*
X164437936Y-119614881D01*
X164537826Y-119842606D01*
X164673833Y-120050782D01*
X164673836Y-120050785D01*
X164842256Y-120233738D01*
X164925008Y-120298147D01*
X164965821Y-120354857D01*
X164969496Y-120424630D01*
X164934864Y-120485313D01*
X164925014Y-120493848D01*
X164866400Y-120539469D01*
X164842257Y-120558261D01*
X164673833Y-120741217D01*
X164537826Y-120949393D01*
X164437936Y-121177118D01*
X164376892Y-121418175D01*
X164376890Y-121418187D01*
X164356357Y-121665994D01*
X164356357Y-121666005D01*
X164376890Y-121913812D01*
X164376892Y-121913824D01*
X164437936Y-122154881D01*
X164537826Y-122382606D01*
X164673833Y-122590782D01*
X164673836Y-122590785D01*
X164842256Y-122773738D01*
X164925008Y-122838147D01*
X164965821Y-122894857D01*
X164969496Y-122964630D01*
X164934864Y-123025313D01*
X164925014Y-123033848D01*
X164871781Y-123075282D01*
X164842257Y-123098261D01*
X164673833Y-123281217D01*
X164537826Y-123489393D01*
X164437936Y-123717118D01*
X164376892Y-123958175D01*
X164376890Y-123958187D01*
X164356357Y-124205994D01*
X164356357Y-124206005D01*
X164376890Y-124453812D01*
X164376892Y-124453824D01*
X164437936Y-124694881D01*
X164537826Y-124922606D01*
X164673833Y-125130782D01*
X164673836Y-125130785D01*
X164842256Y-125313738D01*
X164925008Y-125378147D01*
X164965821Y-125434857D01*
X164969496Y-125504630D01*
X164934864Y-125565313D01*
X164925014Y-125573848D01*
X164866400Y-125619469D01*
X164842257Y-125638261D01*
X164673833Y-125821217D01*
X164537826Y-126029393D01*
X164437936Y-126257118D01*
X164376892Y-126498175D01*
X164376890Y-126498187D01*
X164356357Y-126745994D01*
X164356357Y-126746005D01*
X164376890Y-126993812D01*
X164376892Y-126993824D01*
X164437936Y-127234881D01*
X164537826Y-127462606D01*
X164673833Y-127670782D01*
X164673836Y-127670785D01*
X164842256Y-127853738D01*
X165038491Y-128006474D01*
X165257190Y-128124828D01*
X165492386Y-128205571D01*
X165737665Y-128246500D01*
X165986335Y-128246500D01*
X166231614Y-128205571D01*
X166466810Y-128124828D01*
X166685509Y-128006474D01*
X166881744Y-127853738D01*
X167050164Y-127670785D01*
X167186173Y-127462607D01*
X167286063Y-127234881D01*
X167347108Y-126993821D01*
X167360081Y-126837265D01*
X167367643Y-126746005D01*
X167367643Y-126745994D01*
X167347109Y-126498187D01*
X167347107Y-126498175D01*
X167286063Y-126257118D01*
X167186173Y-126029393D01*
X167050166Y-125821217D01*
X166995545Y-125761883D01*
X166881744Y-125638262D01*
X166798991Y-125573852D01*
X166758179Y-125517143D01*
X166754504Y-125447370D01*
X166789136Y-125386687D01*
X166798985Y-125378151D01*
X166881744Y-125313738D01*
X167050164Y-125130785D01*
X167186173Y-124922607D01*
X167286063Y-124694881D01*
X167347108Y-124453821D01*
X167347109Y-124453812D01*
X167367643Y-124206005D01*
X167367643Y-124205994D01*
X167347109Y-123958187D01*
X167347107Y-123958175D01*
X167286063Y-123717118D01*
X167186173Y-123489393D01*
X167050166Y-123281217D01*
X166981509Y-123206636D01*
X166881744Y-123098262D01*
X166798991Y-123033852D01*
X166758179Y-122977143D01*
X166754504Y-122907370D01*
X166789136Y-122846687D01*
X166798985Y-122838151D01*
X166881744Y-122773738D01*
X167050164Y-122590785D01*
X167186173Y-122382607D01*
X167286063Y-122154881D01*
X167347108Y-121913821D01*
X167359717Y-121761647D01*
X167384870Y-121696466D01*
X167441271Y-121655227D01*
X167511015Y-121651029D01*
X167570974Y-121684209D01*
X168797181Y-122910416D01*
X168830666Y-122971739D01*
X168833500Y-122998097D01*
X168833500Y-128453330D01*
X168833499Y-128453348D01*
X168833499Y-128619054D01*
X168833498Y-128619054D01*
X168874423Y-128771785D01*
X168903358Y-128821900D01*
X168903359Y-128821904D01*
X168903360Y-128821904D01*
X168953479Y-128908714D01*
X168953481Y-128908717D01*
X169072349Y-129027585D01*
X169072355Y-129027590D01*
X169984685Y-129939920D01*
X170018170Y-130001243D01*
X170016271Y-130061532D01*
X170010885Y-130080462D01*
X169990357Y-130301999D01*
X169990357Y-130302000D01*
X170010884Y-130523535D01*
X170010885Y-130523537D01*
X170071769Y-130737523D01*
X170071775Y-130737538D01*
X170170938Y-130936683D01*
X170170943Y-130936691D01*
X170305020Y-131114238D01*
X170469437Y-131264123D01*
X170469439Y-131264125D01*
X170658595Y-131381245D01*
X170658596Y-131381245D01*
X170658599Y-131381247D01*
X170866060Y-131461618D01*
X171084757Y-131502500D01*
X171084759Y-131502500D01*
X171307241Y-131502500D01*
X171307243Y-131502500D01*
X171525940Y-131461618D01*
X171733401Y-131381247D01*
X171922562Y-131264124D01*
X172086981Y-131114236D01*
X172221058Y-130936689D01*
X172320229Y-130737528D01*
X172381115Y-130523536D01*
X172401643Y-130302000D01*
X172381115Y-130080464D01*
X172320229Y-129866472D01*
X172320224Y-129866461D01*
X172221061Y-129667316D01*
X172221056Y-129667308D01*
X172086979Y-129489761D01*
X171922562Y-129339876D01*
X171922560Y-129339874D01*
X171733404Y-129222754D01*
X171733398Y-129222752D01*
X171525940Y-129142382D01*
X171307243Y-129101500D01*
X171084757Y-129101500D01*
X171014734Y-129114589D01*
X170946783Y-129127291D01*
X170877268Y-129120259D01*
X170836318Y-129093083D01*
X170070819Y-128327584D01*
X170037334Y-128266261D01*
X170034500Y-128239903D01*
X170034500Y-122787059D01*
X170034501Y-122787046D01*
X170034501Y-122618945D01*
X170034501Y-122618943D01*
X169993577Y-122466215D01*
X169949698Y-122390215D01*
X169929845Y-122355829D01*
X169913376Y-122287929D01*
X169936229Y-122221903D01*
X169991151Y-122178713D01*
X170060705Y-122172073D01*
X170122807Y-122204091D01*
X170124886Y-122206122D01*
X170647050Y-122728286D01*
X170994385Y-123075621D01*
X171027870Y-123136944D01*
X171022886Y-123206636D01*
X170981014Y-123262569D01*
X170972889Y-123267792D01*
X170854455Y-123356452D01*
X170854452Y-123356455D01*
X170768206Y-123471664D01*
X170768202Y-123471671D01*
X170717908Y-123606517D01*
X170711501Y-123666116D01*
X170711501Y-123666123D01*
X170711500Y-123666135D01*
X170711500Y-125761870D01*
X170711501Y-125761876D01*
X170717908Y-125821483D01*
X170768202Y-125956328D01*
X170768206Y-125956335D01*
X170854452Y-126071544D01*
X170854455Y-126071547D01*
X170969664Y-126157793D01*
X170969671Y-126157797D01*
X171104517Y-126208091D01*
X171104516Y-126208091D01*
X171111444Y-126208835D01*
X171164127Y-126214500D01*
X173259872Y-126214499D01*
X173319483Y-126208091D01*
X173454331Y-126157796D01*
X173569546Y-126071546D01*
X173655796Y-125956331D01*
X173706091Y-125821483D01*
X173712500Y-125761873D01*
X173712499Y-123666128D01*
X173707299Y-123617757D01*
X173706091Y-123606516D01*
X173655797Y-123471671D01*
X173655793Y-123471664D01*
X173569547Y-123356455D01*
X173569544Y-123356452D01*
X173454335Y-123270206D01*
X173454328Y-123270202D01*
X173319482Y-123219908D01*
X173319483Y-123219908D01*
X173259883Y-123213501D01*
X173259881Y-123213500D01*
X173259873Y-123213500D01*
X173259865Y-123213500D01*
X172843910Y-123213500D01*
X172776871Y-123193815D01*
X172736522Y-123151499D01*
X172705786Y-123098262D01*
X172692520Y-123075284D01*
X169966319Y-120349083D01*
X169939546Y-120300052D01*
X170430000Y-120300052D01*
X170509804Y-120285135D01*
X170717177Y-120204798D01*
X170717179Y-120204797D01*
X170906261Y-120087721D01*
X171070608Y-119937900D01*
X171204631Y-119760425D01*
X171303760Y-119561349D01*
X171356495Y-119376000D01*
X170430000Y-119376000D01*
X170430000Y-120300052D01*
X169939546Y-120300052D01*
X169932834Y-120287760D01*
X169930000Y-120261402D01*
X169930000Y-119370975D01*
X169965095Y-119406070D01*
X170044905Y-119452148D01*
X170133922Y-119476000D01*
X170226078Y-119476000D01*
X170315095Y-119452148D01*
X170394905Y-119406070D01*
X170460070Y-119340905D01*
X170506148Y-119261095D01*
X170530000Y-119172078D01*
X170530000Y-119079922D01*
X170506148Y-118990905D01*
X170460070Y-118911095D01*
X170424975Y-118876000D01*
X170430000Y-118876000D01*
X171356495Y-118876000D01*
X171303760Y-118690650D01*
X171204631Y-118491574D01*
X171070608Y-118314099D01*
X170906261Y-118164278D01*
X170717179Y-118047202D01*
X170717177Y-118047201D01*
X170509799Y-117966864D01*
X170430000Y-117951946D01*
X170430000Y-118876000D01*
X170424975Y-118876000D01*
X170394905Y-118845930D01*
X170315095Y-118799852D01*
X170226078Y-118776000D01*
X170133922Y-118776000D01*
X170044905Y-118799852D01*
X169965095Y-118845930D01*
X169930000Y-118881025D01*
X169930000Y-117951946D01*
X169850200Y-117966864D01*
X169642822Y-118047201D01*
X169642820Y-118047202D01*
X169453738Y-118164278D01*
X169289391Y-118314100D01*
X169225454Y-118398766D01*
X169169345Y-118440402D01*
X169099633Y-118445093D01*
X169038451Y-118411351D01*
X169005224Y-118349887D01*
X169002500Y-118324039D01*
X169002500Y-112308789D01*
X169022185Y-112241750D01*
X169074989Y-112195995D01*
X169144147Y-112186051D01*
X169207703Y-112215076D01*
X169225454Y-112234062D01*
X169289020Y-112318238D01*
X169453437Y-112468123D01*
X169453439Y-112468125D01*
X169642595Y-112585245D01*
X169642596Y-112585245D01*
X169642599Y-112585247D01*
X169850060Y-112665618D01*
X170068757Y-112706500D01*
X170068759Y-112706500D01*
X170291241Y-112706500D01*
X170291243Y-112706500D01*
X170509940Y-112665618D01*
X170717401Y-112585247D01*
X170906562Y-112468124D01*
X171070981Y-112318236D01*
X171205058Y-112140689D01*
X171304229Y-111941528D01*
X171365115Y-111727536D01*
X171385643Y-111506000D01*
X171385642Y-111505994D01*
X171365115Y-111284464D01*
X171365114Y-111284462D01*
X171357638Y-111258187D01*
X171304229Y-111070472D01*
X171304224Y-111070461D01*
X171205061Y-110871316D01*
X171205056Y-110871308D01*
X171070979Y-110693761D01*
X170906562Y-110543876D01*
X170906560Y-110543874D01*
X170784707Y-110468427D01*
X170738071Y-110416400D01*
X170726967Y-110347418D01*
X170754920Y-110283384D01*
X170784707Y-110257573D01*
X170906560Y-110182125D01*
X170906559Y-110182125D01*
X170906562Y-110182124D01*
X171070981Y-110032236D01*
X171205058Y-109854689D01*
X171304229Y-109655528D01*
X171365115Y-109441536D01*
X171385643Y-109220000D01*
X171385070Y-109213821D01*
X171365115Y-108998464D01*
X171365114Y-108998462D01*
X171355879Y-108966005D01*
X171304229Y-108784472D01*
X171289835Y-108755565D01*
X171205061Y-108585316D01*
X171205056Y-108585308D01*
X171070979Y-108407761D01*
X170906562Y-108257876D01*
X170906560Y-108257874D01*
X170717404Y-108140754D01*
X170717398Y-108140752D01*
X170687721Y-108129255D01*
X170509940Y-108060382D01*
X170291243Y-108019500D01*
X170068757Y-108019500D01*
X169850060Y-108060382D01*
X169718864Y-108111207D01*
X169642601Y-108140752D01*
X169642595Y-108140754D01*
X169453439Y-108257874D01*
X169453437Y-108257876D01*
X169289020Y-108407762D01*
X169225454Y-108491937D01*
X169169345Y-108533573D01*
X169099633Y-108538264D01*
X169038451Y-108504522D01*
X169005224Y-108443058D01*
X169002500Y-108417210D01*
X169002500Y-102402789D01*
X169022185Y-102335750D01*
X169074989Y-102289995D01*
X169144147Y-102280051D01*
X169207703Y-102309076D01*
X169225454Y-102328062D01*
X169289020Y-102412238D01*
X169453437Y-102562123D01*
X169453439Y-102562125D01*
X169642595Y-102679245D01*
X169642596Y-102679245D01*
X169642599Y-102679247D01*
X169850060Y-102759618D01*
X170068757Y-102800500D01*
X170068759Y-102800500D01*
X170291241Y-102800500D01*
X170291243Y-102800500D01*
X170429215Y-102774708D01*
X170498730Y-102781739D01*
X170539681Y-102808916D01*
X173767181Y-106036416D01*
X173800666Y-106097739D01*
X173803500Y-106124097D01*
X173803500Y-114079330D01*
X173803499Y-114079348D01*
X173803499Y-114245054D01*
X173803498Y-114245054D01*
X173844424Y-114397787D01*
X173853890Y-114414182D01*
X173853891Y-114414184D01*
X173923477Y-114534712D01*
X173923481Y-114534717D01*
X174042349Y-114653585D01*
X174042355Y-114653590D01*
X175863897Y-116475132D01*
X175897382Y-116536455D01*
X175894147Y-116601131D01*
X175849753Y-116737760D01*
X175816500Y-116947713D01*
X175816500Y-117160287D01*
X175826534Y-117223644D01*
X175849753Y-117370239D01*
X175915444Y-117572414D01*
X176011951Y-117761820D01*
X176136890Y-117933786D01*
X176287213Y-118084109D01*
X176459179Y-118209048D01*
X176459181Y-118209049D01*
X176459184Y-118209051D01*
X176648588Y-118305557D01*
X176850757Y-118371246D01*
X177060713Y-118404500D01*
X177060714Y-118404500D01*
X177523286Y-118404500D01*
X177523287Y-118404500D01*
X177733243Y-118371246D01*
X177935412Y-118305557D01*
X178124816Y-118209051D01*
X178186441Y-118164278D01*
X178296786Y-118084109D01*
X178296788Y-118084106D01*
X178296792Y-118084104D01*
X178447104Y-117933792D01*
X178447106Y-117933788D01*
X178447109Y-117933786D01*
X178572048Y-117761820D01*
X178572047Y-117761820D01*
X178572051Y-117761816D01*
X178668557Y-117572412D01*
X178734246Y-117370243D01*
X178767500Y-117160287D01*
X178767500Y-116947713D01*
X178734246Y-116737757D01*
X178668557Y-116535588D01*
X178572051Y-116346184D01*
X178572049Y-116346181D01*
X178572048Y-116346179D01*
X178447109Y-116174213D01*
X178296792Y-116023896D01*
X178266360Y-116001786D01*
X178132204Y-115904316D01*
X178089540Y-115848989D01*
X178083561Y-115779376D01*
X178116166Y-115717580D01*
X178132199Y-115703686D01*
X178296792Y-115584104D01*
X178447104Y-115433792D01*
X178447106Y-115433788D01*
X178447109Y-115433786D01*
X178572048Y-115261820D01*
X178572047Y-115261820D01*
X178572051Y-115261816D01*
X178668557Y-115072412D01*
X178734246Y-114870243D01*
X178767500Y-114660287D01*
X178767500Y-114447713D01*
X178734246Y-114237757D01*
X178668557Y-114035588D01*
X178572051Y-113846184D01*
X178572049Y-113846181D01*
X178572048Y-113846179D01*
X178447109Y-113674213D01*
X178296792Y-113523896D01*
X178265910Y-113501459D01*
X178132204Y-113404316D01*
X178089540Y-113348989D01*
X178083561Y-113279376D01*
X178116166Y-113217580D01*
X178132199Y-113203686D01*
X178296792Y-113084104D01*
X178447104Y-112933792D01*
X178447106Y-112933788D01*
X178447109Y-112933786D01*
X178572048Y-112761820D01*
X178572047Y-112761820D01*
X178572051Y-112761816D01*
X178668557Y-112572412D01*
X178734246Y-112370243D01*
X178767500Y-112160287D01*
X178767500Y-111947713D01*
X178734246Y-111737757D01*
X178668557Y-111535588D01*
X178572051Y-111346184D01*
X178572049Y-111346181D01*
X178572048Y-111346179D01*
X178447109Y-111174213D01*
X178307931Y-111035035D01*
X178274446Y-110973712D01*
X178279430Y-110904020D01*
X178321302Y-110848087D01*
X178330516Y-110841815D01*
X178485343Y-110746317D01*
X178609315Y-110622345D01*
X178701356Y-110473124D01*
X178701358Y-110473119D01*
X178756505Y-110306697D01*
X178756506Y-110306690D01*
X178766999Y-110203986D01*
X178767000Y-110203973D01*
X178767000Y-109804000D01*
X177696146Y-109804000D01*
X177734630Y-109737343D01*
X177767000Y-109616535D01*
X177767000Y-109491465D01*
X177734630Y-109370657D01*
X177696146Y-109304000D01*
X178766999Y-109304000D01*
X178766999Y-108904028D01*
X178766998Y-108904013D01*
X178756505Y-108801302D01*
X178701358Y-108634880D01*
X178701356Y-108634875D01*
X178609315Y-108485654D01*
X178485345Y-108361684D01*
X178336124Y-108269643D01*
X178336119Y-108269641D01*
X178169697Y-108214494D01*
X178169690Y-108214493D01*
X178066986Y-108204000D01*
X177542000Y-108204000D01*
X177542000Y-109149854D01*
X177475343Y-109111370D01*
X177354535Y-109079000D01*
X177229465Y-109079000D01*
X177108657Y-109111370D01*
X177042000Y-109149854D01*
X177042000Y-108204000D01*
X176517028Y-108204000D01*
X176517012Y-108204001D01*
X176414302Y-108214494D01*
X176247880Y-108269641D01*
X176247875Y-108269643D01*
X176098654Y-108361684D01*
X175974684Y-108485654D01*
X175882643Y-108634875D01*
X175882641Y-108634880D01*
X175827494Y-108801302D01*
X175827493Y-108801309D01*
X175817000Y-108904013D01*
X175817000Y-109304000D01*
X176887854Y-109304000D01*
X176849370Y-109370657D01*
X176817000Y-109491465D01*
X176817000Y-109616535D01*
X176849370Y-109737343D01*
X176887854Y-109804000D01*
X175817001Y-109804000D01*
X175817001Y-110203986D01*
X175827494Y-110306697D01*
X175882641Y-110473119D01*
X175882643Y-110473124D01*
X175974684Y-110622345D01*
X176098654Y-110746315D01*
X176253484Y-110841815D01*
X176300208Y-110893763D01*
X176311431Y-110962726D01*
X176283587Y-111026808D01*
X176276069Y-111035035D01*
X176136889Y-111174215D01*
X176011951Y-111346179D01*
X175915444Y-111535585D01*
X175849753Y-111737760D01*
X175847209Y-111753824D01*
X175816500Y-111947713D01*
X175816500Y-112160287D01*
X175820581Y-112186051D01*
X175840020Y-112308789D01*
X175849754Y-112370243D01*
X175911236Y-112559465D01*
X175915444Y-112572414D01*
X176011951Y-112761820D01*
X176136890Y-112933786D01*
X176287209Y-113084105D01*
X176287214Y-113084109D01*
X176451793Y-113203682D01*
X176494459Y-113259011D01*
X176500438Y-113328625D01*
X176467833Y-113390420D01*
X176451793Y-113404318D01*
X176287214Y-113523890D01*
X176287209Y-113523894D01*
X176136890Y-113674213D01*
X176011951Y-113846179D01*
X175915444Y-114035585D01*
X175849753Y-114237760D01*
X175816074Y-114450401D01*
X175786145Y-114513536D01*
X175726833Y-114550467D01*
X175656971Y-114549469D01*
X175605920Y-114518684D01*
X175040819Y-113953583D01*
X175007334Y-113892260D01*
X175004500Y-113865902D01*
X175004500Y-105744945D01*
X175004500Y-105744943D01*
X174963577Y-105592216D01*
X174963577Y-105592215D01*
X174963577Y-105592214D01*
X174934639Y-105542095D01*
X174934637Y-105542092D01*
X174884520Y-105455284D01*
X174772716Y-105343480D01*
X174772715Y-105343479D01*
X174768385Y-105339149D01*
X174768374Y-105339139D01*
X171391314Y-101962079D01*
X171357829Y-101900756D01*
X171359730Y-101840460D01*
X171365115Y-101821536D01*
X171385643Y-101600000D01*
X171385070Y-101593821D01*
X171365115Y-101378464D01*
X171365114Y-101378462D01*
X171355879Y-101346005D01*
X171304229Y-101164472D01*
X171304224Y-101164461D01*
X171205061Y-100965316D01*
X171205056Y-100965308D01*
X171070979Y-100787761D01*
X170906562Y-100637876D01*
X170906560Y-100637874D01*
X170717404Y-100520754D01*
X170717398Y-100520752D01*
X170509940Y-100440382D01*
X170291243Y-100399500D01*
X170068757Y-100399500D01*
X169850060Y-100440382D01*
X169718864Y-100491207D01*
X169642601Y-100520752D01*
X169642595Y-100520754D01*
X169453439Y-100637874D01*
X169453437Y-100637876D01*
X169289020Y-100787762D01*
X169225454Y-100871937D01*
X169169345Y-100913573D01*
X169099633Y-100918264D01*
X169038451Y-100884522D01*
X169005224Y-100823058D01*
X169002500Y-100797210D01*
X169002500Y-97215713D01*
X175816500Y-97215713D01*
X175816500Y-97428286D01*
X175849058Y-97633854D01*
X175849754Y-97638243D01*
X175907991Y-97817478D01*
X175915444Y-97840414D01*
X176011951Y-98029820D01*
X176136890Y-98201786D01*
X176287209Y-98352105D01*
X176287214Y-98352109D01*
X176451793Y-98471682D01*
X176494459Y-98527011D01*
X176500438Y-98596625D01*
X176467833Y-98658420D01*
X176451793Y-98672318D01*
X176287214Y-98791890D01*
X176287209Y-98791894D01*
X176136890Y-98942213D01*
X176011951Y-99114179D01*
X175915444Y-99303585D01*
X175849753Y-99505760D01*
X175816500Y-99715713D01*
X175816500Y-99928286D01*
X175848172Y-100128258D01*
X175849754Y-100138243D01*
X175882252Y-100238262D01*
X175915444Y-100340414D01*
X176011951Y-100529820D01*
X176136890Y-100701786D01*
X176287209Y-100852105D01*
X176287214Y-100852109D01*
X176451793Y-100971682D01*
X176494459Y-101027011D01*
X176500438Y-101096625D01*
X176467833Y-101158420D01*
X176451793Y-101172318D01*
X176287214Y-101291890D01*
X176287209Y-101291894D01*
X176136890Y-101442213D01*
X176011951Y-101614179D01*
X175915444Y-101803585D01*
X175849753Y-102005760D01*
X175816500Y-102215713D01*
X175816500Y-102428286D01*
X175847739Y-102625526D01*
X175849754Y-102638243D01*
X175905209Y-102808916D01*
X175915444Y-102840414D01*
X176011951Y-103029820D01*
X176136890Y-103201786D01*
X176287213Y-103352109D01*
X176459179Y-103477048D01*
X176459181Y-103477049D01*
X176459184Y-103477051D01*
X176648588Y-103573557D01*
X176850757Y-103639246D01*
X177060713Y-103672500D01*
X177060714Y-103672500D01*
X177523286Y-103672500D01*
X177523287Y-103672500D01*
X177733243Y-103639246D01*
X177935412Y-103573557D01*
X178124816Y-103477051D01*
X178234834Y-103397119D01*
X178296786Y-103352109D01*
X178296788Y-103352106D01*
X178296792Y-103352104D01*
X178447104Y-103201792D01*
X178447106Y-103201788D01*
X178447109Y-103201786D01*
X178572048Y-103029820D01*
X178572047Y-103029820D01*
X178572051Y-103029816D01*
X178668557Y-102840412D01*
X178734246Y-102638243D01*
X178767500Y-102428287D01*
X178767500Y-102215713D01*
X178734246Y-102005757D01*
X178668557Y-101803588D01*
X178572051Y-101614184D01*
X178572049Y-101614181D01*
X178572048Y-101614179D01*
X178447109Y-101442213D01*
X178296792Y-101291896D01*
X178214098Y-101231816D01*
X178132204Y-101172316D01*
X178089540Y-101116989D01*
X178083561Y-101047376D01*
X178116166Y-100985580D01*
X178132199Y-100971686D01*
X178296792Y-100852104D01*
X178447104Y-100701792D01*
X178447106Y-100701788D01*
X178447109Y-100701786D01*
X178572048Y-100529820D01*
X178572047Y-100529820D01*
X178572051Y-100529816D01*
X178668557Y-100340412D01*
X178734246Y-100138243D01*
X178767500Y-99928287D01*
X178767500Y-99715713D01*
X178734246Y-99505757D01*
X178668557Y-99303588D01*
X178572051Y-99114184D01*
X178572049Y-99114181D01*
X178572048Y-99114179D01*
X178447109Y-98942213D01*
X178296792Y-98791896D01*
X178214098Y-98731816D01*
X178132204Y-98672316D01*
X178089540Y-98616989D01*
X178083561Y-98547376D01*
X178116166Y-98485580D01*
X178132199Y-98471686D01*
X178296792Y-98352104D01*
X178447104Y-98201792D01*
X178447106Y-98201788D01*
X178447109Y-98201786D01*
X178572048Y-98029820D01*
X178572047Y-98029820D01*
X178572051Y-98029816D01*
X178668557Y-97840412D01*
X178734246Y-97638243D01*
X178767500Y-97428287D01*
X178767500Y-97215713D01*
X178734246Y-97005757D01*
X178668557Y-96803588D01*
X178572051Y-96614184D01*
X178572049Y-96614181D01*
X178572048Y-96614179D01*
X178447109Y-96442213D01*
X178307931Y-96303035D01*
X178274446Y-96241712D01*
X178279430Y-96172020D01*
X178321302Y-96116087D01*
X178330516Y-96109815D01*
X178485343Y-96014317D01*
X178609315Y-95890345D01*
X178701356Y-95741124D01*
X178701358Y-95741119D01*
X178756505Y-95574697D01*
X178756506Y-95574690D01*
X178766999Y-95471986D01*
X178767000Y-95471973D01*
X178767000Y-95072000D01*
X177696146Y-95072000D01*
X177734630Y-95005343D01*
X177767000Y-94884535D01*
X177767000Y-94759465D01*
X177734630Y-94638657D01*
X177696146Y-94572000D01*
X178766999Y-94572000D01*
X178766999Y-94172028D01*
X178766998Y-94172013D01*
X178756505Y-94069302D01*
X178701358Y-93902880D01*
X178701356Y-93902875D01*
X178609315Y-93753654D01*
X178485345Y-93629684D01*
X178336124Y-93537643D01*
X178336119Y-93537641D01*
X178169697Y-93482494D01*
X178169690Y-93482493D01*
X178066986Y-93472000D01*
X177542000Y-93472000D01*
X177542000Y-94417854D01*
X177475343Y-94379370D01*
X177354535Y-94347000D01*
X177229465Y-94347000D01*
X177108657Y-94379370D01*
X177042000Y-94417854D01*
X177042000Y-93472000D01*
X176517028Y-93472000D01*
X176517012Y-93472001D01*
X176414302Y-93482494D01*
X176247880Y-93537641D01*
X176247875Y-93537643D01*
X176098654Y-93629684D01*
X175974684Y-93753654D01*
X175882643Y-93902875D01*
X175882641Y-93902880D01*
X175827494Y-94069302D01*
X175827493Y-94069309D01*
X175817000Y-94172013D01*
X175817000Y-94572000D01*
X176887854Y-94572000D01*
X176849370Y-94638657D01*
X176817000Y-94759465D01*
X176817000Y-94884535D01*
X176849370Y-95005343D01*
X176887854Y-95072000D01*
X175817001Y-95072000D01*
X175817001Y-95471986D01*
X175827494Y-95574697D01*
X175882641Y-95741119D01*
X175882643Y-95741124D01*
X175974684Y-95890345D01*
X176098654Y-96014315D01*
X176253484Y-96109815D01*
X176300208Y-96161763D01*
X176311431Y-96230726D01*
X176283587Y-96294808D01*
X176276069Y-96303035D01*
X176136889Y-96442215D01*
X176011951Y-96614179D01*
X175915444Y-96803585D01*
X175849753Y-97005760D01*
X175816500Y-97215713D01*
X169002500Y-97215713D01*
X169002500Y-84265983D01*
X175791500Y-84265983D01*
X175791500Y-85566001D01*
X175791501Y-85566018D01*
X175802000Y-85668796D01*
X175802001Y-85668799D01*
X175857185Y-85835331D01*
X175857187Y-85835336D01*
X175949289Y-85984657D01*
X176073344Y-86108712D01*
X176228120Y-86204178D01*
X176274845Y-86256126D01*
X176286068Y-86325088D01*
X176258224Y-86389171D01*
X176250706Y-86397398D01*
X176111889Y-86536215D01*
X175986951Y-86708179D01*
X175890444Y-86897585D01*
X175824753Y-87099760D01*
X175791500Y-87309713D01*
X175791500Y-87522286D01*
X175823007Y-87721217D01*
X175824754Y-87732243D01*
X175888812Y-87929393D01*
X175890444Y-87934414D01*
X175986951Y-88123820D01*
X176111890Y-88295786D01*
X176262213Y-88446109D01*
X176434179Y-88571048D01*
X176434181Y-88571049D01*
X176434184Y-88571051D01*
X176623588Y-88667557D01*
X176825757Y-88733246D01*
X177035713Y-88766500D01*
X177035714Y-88766500D01*
X177548286Y-88766500D01*
X177548287Y-88766500D01*
X177758243Y-88733246D01*
X177960412Y-88667557D01*
X178149816Y-88571051D01*
X178189232Y-88542414D01*
X178321786Y-88446109D01*
X178321788Y-88446106D01*
X178321792Y-88446104D01*
X178472104Y-88295792D01*
X178472106Y-88295788D01*
X178472109Y-88295786D01*
X178597048Y-88123820D01*
X178597047Y-88123820D01*
X178597051Y-88123816D01*
X178693557Y-87934412D01*
X178759246Y-87732243D01*
X178792500Y-87522287D01*
X178792500Y-87309713D01*
X178759246Y-87099757D01*
X178693557Y-86897588D01*
X178597051Y-86708184D01*
X178597049Y-86708181D01*
X178597048Y-86708179D01*
X178472109Y-86536213D01*
X178333294Y-86397398D01*
X178299809Y-86336075D01*
X178304793Y-86266383D01*
X178346665Y-86210450D01*
X178355879Y-86204178D01*
X178361331Y-86200814D01*
X178361334Y-86200814D01*
X178510656Y-86108712D01*
X178634712Y-85984656D01*
X178726814Y-85835334D01*
X178781999Y-85668797D01*
X178792500Y-85566009D01*
X178792499Y-84265992D01*
X178781999Y-84163203D01*
X178726814Y-83996666D01*
X178634712Y-83847344D01*
X178510656Y-83723288D01*
X178361334Y-83631186D01*
X178194797Y-83576001D01*
X178194795Y-83576000D01*
X178092010Y-83565500D01*
X176491998Y-83565500D01*
X176491981Y-83565501D01*
X176389203Y-83576000D01*
X176389200Y-83576001D01*
X176222668Y-83631185D01*
X176222663Y-83631187D01*
X176073342Y-83723289D01*
X175949289Y-83847342D01*
X175857187Y-83996663D01*
X175857186Y-83996666D01*
X175802001Y-84163203D01*
X175802001Y-84163204D01*
X175802000Y-84163204D01*
X175791500Y-84265983D01*
X169002500Y-84265983D01*
X169002500Y-78406945D01*
X169002500Y-78406943D01*
X168961577Y-78254216D01*
X168940084Y-78216989D01*
X168882524Y-78117290D01*
X168882521Y-78117286D01*
X168882520Y-78117284D01*
X168770716Y-78005480D01*
X168770715Y-78005479D01*
X168766385Y-78001149D01*
X168766374Y-78001139D01*
X167318516Y-76553281D01*
X167285031Y-76491958D01*
X167285992Y-76435159D01*
X167286061Y-76434884D01*
X167286063Y-76434881D01*
X167347108Y-76193821D01*
X167349246Y-76168018D01*
X167367643Y-75946005D01*
X167367643Y-75945994D01*
X167347109Y-75698187D01*
X167347107Y-75698175D01*
X167286063Y-75457118D01*
X167186173Y-75229393D01*
X167050166Y-75021217D01*
X166975600Y-74940217D01*
X166909104Y-74867983D01*
X175791500Y-74867983D01*
X175791500Y-76168001D01*
X175791501Y-76168018D01*
X175802000Y-76270796D01*
X175802001Y-76270799D01*
X175843943Y-76397369D01*
X175857186Y-76437334D01*
X175928703Y-76553281D01*
X175949289Y-76586657D01*
X176073344Y-76710712D01*
X176228558Y-76806448D01*
X176275283Y-76858396D01*
X176286506Y-76927358D01*
X176258663Y-76991441D01*
X176251144Y-76999668D01*
X176112271Y-77138541D01*
X175987379Y-77310442D01*
X175890904Y-77499782D01*
X175825242Y-77701870D01*
X175825242Y-77701873D01*
X175814769Y-77768000D01*
X176858988Y-77768000D01*
X176826075Y-77825007D01*
X176792000Y-77952174D01*
X176792000Y-78083826D01*
X176826075Y-78210993D01*
X176858988Y-78268000D01*
X175814769Y-78268000D01*
X175825242Y-78334126D01*
X175825242Y-78334129D01*
X175890904Y-78536217D01*
X175987379Y-78725557D01*
X176112272Y-78897459D01*
X176112276Y-78897464D01*
X176262535Y-79047723D01*
X176262540Y-79047727D01*
X176434442Y-79172620D01*
X176623782Y-79269095D01*
X176825870Y-79334757D01*
X177035754Y-79368000D01*
X177042000Y-79368000D01*
X177042000Y-78451012D01*
X177099007Y-78483925D01*
X177226174Y-78518000D01*
X177357826Y-78518000D01*
X177484993Y-78483925D01*
X177542000Y-78451012D01*
X177542000Y-79368000D01*
X177548246Y-79368000D01*
X177758127Y-79334757D01*
X177758130Y-79334757D01*
X177960217Y-79269095D01*
X178149557Y-79172620D01*
X178321459Y-79047727D01*
X178321464Y-79047723D01*
X178471723Y-78897464D01*
X178471727Y-78897459D01*
X178596620Y-78725557D01*
X178693095Y-78536217D01*
X178758757Y-78334129D01*
X178758757Y-78334126D01*
X178769231Y-78268000D01*
X177725012Y-78268000D01*
X177757925Y-78210993D01*
X177792000Y-78083826D01*
X177792000Y-77952174D01*
X177757925Y-77825007D01*
X177725012Y-77768000D01*
X178769231Y-77768000D01*
X178758757Y-77701873D01*
X178758757Y-77701870D01*
X178693095Y-77499782D01*
X178596620Y-77310442D01*
X178471727Y-77138540D01*
X178471723Y-77138535D01*
X178332856Y-76999668D01*
X178299371Y-76938345D01*
X178304355Y-76868653D01*
X178346227Y-76812720D01*
X178355441Y-76806448D01*
X178361331Y-76802814D01*
X178361334Y-76802814D01*
X178510656Y-76710712D01*
X178634712Y-76586656D01*
X178726814Y-76437334D01*
X178781999Y-76270797D01*
X178792500Y-76168009D01*
X178792499Y-74867992D01*
X178781999Y-74765203D01*
X178726814Y-74598666D01*
X178634712Y-74449344D01*
X178510656Y-74325288D01*
X178361334Y-74233186D01*
X178194797Y-74178001D01*
X178194795Y-74178000D01*
X178092010Y-74167500D01*
X176491998Y-74167500D01*
X176491981Y-74167501D01*
X176389203Y-74178000D01*
X176389200Y-74178001D01*
X176222668Y-74233185D01*
X176222663Y-74233187D01*
X176073342Y-74325289D01*
X175949289Y-74449342D01*
X175857187Y-74598663D01*
X175857186Y-74598666D01*
X175802001Y-74765203D01*
X175802001Y-74765204D01*
X175802000Y-74765204D01*
X175791500Y-74867983D01*
X166909104Y-74867983D01*
X166881744Y-74838262D01*
X166798991Y-74773852D01*
X166758179Y-74717143D01*
X166754504Y-74647370D01*
X166789136Y-74586687D01*
X166798985Y-74578151D01*
X166881744Y-74513738D01*
X167050164Y-74330785D01*
X167186173Y-74122607D01*
X167286063Y-73894881D01*
X167347108Y-73653821D01*
X167356329Y-73542540D01*
X167367643Y-73406005D01*
X167367643Y-73405994D01*
X167347109Y-73158187D01*
X167347107Y-73158175D01*
X167286063Y-72917118D01*
X167186173Y-72689393D01*
X167050166Y-72481217D01*
X167028557Y-72457744D01*
X166881744Y-72298262D01*
X166778253Y-72217712D01*
X166737442Y-72161003D01*
X166730655Y-72112176D01*
X166732056Y-72089609D01*
X165999575Y-71357128D01*
X166058853Y-71341245D01*
X166175147Y-71274102D01*
X166270102Y-71179147D01*
X166337245Y-71062853D01*
X166353127Y-71003575D01*
X167085434Y-71735882D01*
X167185731Y-71582369D01*
X167285587Y-71354717D01*
X167346612Y-71113738D01*
X167346614Y-71113729D01*
X167367141Y-70866005D01*
X167367141Y-70865994D01*
X167346614Y-70618270D01*
X167346612Y-70618261D01*
X167285587Y-70377282D01*
X167185731Y-70149630D01*
X167085434Y-69996116D01*
X166353127Y-70728423D01*
X166337245Y-70669147D01*
X166270102Y-70552853D01*
X166175147Y-70457898D01*
X166058853Y-70390755D01*
X165999575Y-70374872D01*
X166732056Y-69642390D01*
X166730655Y-69619825D01*
X166746147Y-69551694D01*
X166778250Y-69514290D01*
X166881744Y-69433738D01*
X167050164Y-69250785D01*
X167186173Y-69042607D01*
X167286063Y-68814881D01*
X167347108Y-68573821D01*
X167347116Y-68573729D01*
X167367643Y-68326005D01*
X167367643Y-68325994D01*
X167347109Y-68078187D01*
X167347107Y-68078175D01*
X167286063Y-67837118D01*
X167186173Y-67609393D01*
X167077275Y-67442711D01*
X175695500Y-67442711D01*
X175695500Y-67685288D01*
X175727161Y-67925785D01*
X175789947Y-68160104D01*
X175830852Y-68258857D01*
X175882776Y-68384212D01*
X176004064Y-68594289D01*
X176004066Y-68594292D01*
X176004067Y-68594293D01*
X176151733Y-68786736D01*
X176151739Y-68786743D01*
X176323256Y-68958260D01*
X176323262Y-68958265D01*
X176515711Y-69105936D01*
X176725788Y-69227224D01*
X176949900Y-69320054D01*
X177184211Y-69382838D01*
X177363406Y-69406429D01*
X177424711Y-69414500D01*
X177424712Y-69414500D01*
X177667289Y-69414500D01*
X177728594Y-69406429D01*
X177907789Y-69382838D01*
X178142100Y-69320054D01*
X178366212Y-69227224D01*
X178576289Y-69105936D01*
X178768738Y-68958265D01*
X178940265Y-68786738D01*
X179087936Y-68594289D01*
X179209224Y-68384212D01*
X179302054Y-68160100D01*
X179364838Y-67925789D01*
X179396500Y-67685288D01*
X179396500Y-67442712D01*
X179364838Y-67202211D01*
X179302054Y-66967900D01*
X179209224Y-66743788D01*
X179087936Y-66533711D01*
X178940265Y-66341262D01*
X178940260Y-66341256D01*
X178768743Y-66169739D01*
X178768736Y-66169733D01*
X178576293Y-66022067D01*
X178576292Y-66022066D01*
X178576289Y-66022064D01*
X178366212Y-65900776D01*
X178366205Y-65900773D01*
X178142104Y-65807947D01*
X177907785Y-65745161D01*
X177667289Y-65713500D01*
X177667288Y-65713500D01*
X177424712Y-65713500D01*
X177424711Y-65713500D01*
X177184214Y-65745161D01*
X176949895Y-65807947D01*
X176725794Y-65900773D01*
X176725785Y-65900777D01*
X176515706Y-66022067D01*
X176323263Y-66169733D01*
X176323256Y-66169739D01*
X176151739Y-66341256D01*
X176151733Y-66341263D01*
X176004067Y-66533706D01*
X175882777Y-66743785D01*
X175882773Y-66743794D01*
X175789947Y-66967895D01*
X175727161Y-67202214D01*
X175695500Y-67442711D01*
X167077275Y-67442711D01*
X167050166Y-67401217D01*
X167028557Y-67377744D01*
X166881744Y-67218262D01*
X166685509Y-67065526D01*
X166685507Y-67065525D01*
X166685506Y-67065524D01*
X166466811Y-66947172D01*
X166466802Y-66947169D01*
X166231616Y-66866429D01*
X165986335Y-66825500D01*
X165737665Y-66825500D01*
X165492383Y-66866429D01*
X165257197Y-66947169D01*
X165257188Y-66947172D01*
X165038493Y-67065524D01*
X164842257Y-67218261D01*
X164673833Y-67401217D01*
X164537826Y-67609393D01*
X164437936Y-67837118D01*
X164376892Y-68078175D01*
X164376890Y-68078187D01*
X164356357Y-68325994D01*
X164356357Y-68326005D01*
X164376890Y-68573812D01*
X164376892Y-68573824D01*
X164437936Y-68814881D01*
X164537826Y-69042606D01*
X164673833Y-69250782D01*
X164673836Y-69250785D01*
X164842256Y-69433738D01*
X164842259Y-69433740D01*
X164842262Y-69433743D01*
X164945743Y-69514286D01*
X164986556Y-69570996D01*
X164993343Y-69619823D01*
X164991941Y-69642389D01*
X165724424Y-70374871D01*
X165665147Y-70390755D01*
X165548853Y-70457898D01*
X165453898Y-70552853D01*
X165386755Y-70669147D01*
X165370872Y-70728424D01*
X164638564Y-69996116D01*
X164538267Y-70149632D01*
X164438412Y-70377282D01*
X164377387Y-70618261D01*
X164377385Y-70618270D01*
X164356859Y-70865994D01*
X164356859Y-70866005D01*
X164377385Y-71113729D01*
X164377387Y-71113738D01*
X164438412Y-71354717D01*
X164538266Y-71582364D01*
X164638564Y-71735882D01*
X165370871Y-71003575D01*
X165386755Y-71062853D01*
X165453898Y-71179147D01*
X165548853Y-71274102D01*
X165665147Y-71341245D01*
X165724424Y-71357128D01*
X164991942Y-72089609D01*
X164993343Y-72112177D01*
X164977850Y-72180307D01*
X164945744Y-72217713D01*
X164842258Y-72298260D01*
X164673833Y-72481217D01*
X164537826Y-72689393D01*
X164437936Y-72917118D01*
X164376892Y-73158175D01*
X164376890Y-73158187D01*
X164356357Y-73405994D01*
X164356357Y-73406005D01*
X164376890Y-73653812D01*
X164376892Y-73653824D01*
X164437936Y-73894881D01*
X164537826Y-74122606D01*
X164673833Y-74330782D01*
X164673836Y-74330785D01*
X164842256Y-74513738D01*
X164925008Y-74578147D01*
X164965821Y-74634857D01*
X164969496Y-74704630D01*
X164934864Y-74765313D01*
X164925014Y-74773848D01*
X164866400Y-74819469D01*
X164842257Y-74838261D01*
X164673833Y-75021217D01*
X164537826Y-75229393D01*
X164437936Y-75457118D01*
X164376892Y-75698175D01*
X164376890Y-75698187D01*
X164356357Y-75945994D01*
X164356357Y-75946005D01*
X164376890Y-76193812D01*
X164376892Y-76193824D01*
X164437936Y-76434881D01*
X164537826Y-76662606D01*
X164673833Y-76870782D01*
X164673836Y-76870785D01*
X164842256Y-77053738D01*
X164925008Y-77118147D01*
X164965821Y-77174857D01*
X164969496Y-77244630D01*
X164934864Y-77305313D01*
X164925014Y-77313848D01*
X164866400Y-77359469D01*
X164842257Y-77378261D01*
X164673833Y-77561217D01*
X164537826Y-77769393D01*
X164437936Y-77997118D01*
X164376892Y-78238175D01*
X164376890Y-78238187D01*
X164356357Y-78485994D01*
X164356357Y-78486005D01*
X164376890Y-78733812D01*
X164376892Y-78733824D01*
X164437936Y-78974881D01*
X164537826Y-79202606D01*
X164673833Y-79410782D01*
X164673836Y-79410785D01*
X164842256Y-79593738D01*
X164925008Y-79658147D01*
X164965821Y-79714857D01*
X164969496Y-79784630D01*
X164934864Y-79845313D01*
X164925014Y-79853848D01*
X164866400Y-79899469D01*
X164842257Y-79918261D01*
X164673833Y-80101217D01*
X164537826Y-80309393D01*
X164437936Y-80537118D01*
X164376892Y-80778175D01*
X164376890Y-80778187D01*
X164360224Y-80979324D01*
X164335071Y-81044509D01*
X164278669Y-81085747D01*
X164208926Y-81089945D01*
X164148967Y-81056765D01*
X159865191Y-76772989D01*
X159865186Y-76772985D01*
X159736812Y-76698869D01*
X159736811Y-76698868D01*
X159701012Y-76689276D01*
X159593620Y-76660500D01*
X159593617Y-76660500D01*
X152136893Y-76660500D01*
X152069854Y-76640815D01*
X152024099Y-76588011D01*
X152014155Y-76518853D01*
X152023338Y-76486689D01*
X152046062Y-76434884D01*
X152053988Y-76403588D01*
X152107108Y-76193821D01*
X152109246Y-76168018D01*
X152127643Y-75946005D01*
X152127643Y-75945994D01*
X152107109Y-75698187D01*
X152107107Y-75698175D01*
X152046063Y-75457118D01*
X151946173Y-75229393D01*
X151810166Y-75021217D01*
X151735600Y-74940217D01*
X151641744Y-74838262D01*
X151558991Y-74773852D01*
X151518179Y-74717143D01*
X151514504Y-74647370D01*
X151549136Y-74586687D01*
X151558985Y-74578151D01*
X151641744Y-74513738D01*
X151810164Y-74330785D01*
X151946173Y-74122607D01*
X152046063Y-73894881D01*
X152107108Y-73653821D01*
X152116329Y-73542540D01*
X152127643Y-73406005D01*
X152127643Y-73405994D01*
X152107109Y-73158187D01*
X152107107Y-73158175D01*
X152046063Y-72917118D01*
X151946173Y-72689393D01*
X151810166Y-72481217D01*
X151788557Y-72457744D01*
X151641744Y-72298262D01*
X151558991Y-72233852D01*
X151518179Y-72177143D01*
X151514504Y-72107370D01*
X151549136Y-72046687D01*
X151558985Y-72038151D01*
X151641744Y-71973738D01*
X151810164Y-71790785D01*
X151946173Y-71582607D01*
X152046063Y-71354881D01*
X152107108Y-71113821D01*
X152107116Y-71113729D01*
X152127643Y-70866005D01*
X152127643Y-70865994D01*
X152107109Y-70618187D01*
X152107107Y-70618175D01*
X152046063Y-70377118D01*
X151946173Y-70149393D01*
X151810166Y-69941217D01*
X151704561Y-69826500D01*
X151641744Y-69758262D01*
X151538253Y-69677712D01*
X151497442Y-69621003D01*
X151490655Y-69572176D01*
X151492056Y-69549609D01*
X150759575Y-68817128D01*
X150818853Y-68801245D01*
X150935147Y-68734102D01*
X151030102Y-68639147D01*
X151097245Y-68522853D01*
X151113127Y-68463575D01*
X151845434Y-69195882D01*
X151945731Y-69042369D01*
X152045587Y-68814717D01*
X152106612Y-68573738D01*
X152106614Y-68573729D01*
X152127141Y-68326005D01*
X152127141Y-68325994D01*
X152106614Y-68078270D01*
X152106612Y-68078261D01*
X152045587Y-67837282D01*
X151945731Y-67609630D01*
X151845434Y-67456116D01*
X151113127Y-68188423D01*
X151097245Y-68129147D01*
X151030102Y-68012853D01*
X150935147Y-67917898D01*
X150818853Y-67850755D01*
X150759575Y-67834872D01*
X151492057Y-67102390D01*
X151492056Y-67102389D01*
X151445229Y-67065943D01*
X151226614Y-66947635D01*
X151226603Y-66947630D01*
X150991493Y-66866916D01*
X150746293Y-66826000D01*
X150497707Y-66826000D01*
X150252506Y-66866916D01*
X150017396Y-66947630D01*
X150017390Y-66947632D01*
X149798761Y-67065949D01*
X149751942Y-67102388D01*
X149751942Y-67102390D01*
X150484424Y-67834871D01*
X150425147Y-67850755D01*
X150308853Y-67917898D01*
X150213898Y-68012853D01*
X150146755Y-68129147D01*
X150130872Y-68188424D01*
X149398564Y-67456116D01*
X149298267Y-67609632D01*
X149198412Y-67837282D01*
X149137387Y-68078261D01*
X149137385Y-68078270D01*
X149116859Y-68325994D01*
X149116859Y-68326005D01*
X149137385Y-68573729D01*
X149137387Y-68573738D01*
X149198412Y-68814717D01*
X149298266Y-69042364D01*
X149398564Y-69195882D01*
X150130871Y-68463575D01*
X150146755Y-68522853D01*
X150213898Y-68639147D01*
X150308853Y-68734102D01*
X150425147Y-68801245D01*
X150484424Y-68817128D01*
X149751942Y-69549609D01*
X149753343Y-69572177D01*
X149737850Y-69640307D01*
X149705744Y-69677713D01*
X149602258Y-69758260D01*
X149433833Y-69941217D01*
X149297826Y-70149393D01*
X149197936Y-70377118D01*
X149136892Y-70618175D01*
X149136890Y-70618187D01*
X149116357Y-70865994D01*
X149116357Y-70866005D01*
X149136890Y-71113812D01*
X149136892Y-71113824D01*
X149197936Y-71354881D01*
X149297826Y-71582606D01*
X149433833Y-71790782D01*
X149433836Y-71790785D01*
X149602256Y-71973738D01*
X149685008Y-72038147D01*
X149725821Y-72094857D01*
X149729496Y-72164630D01*
X149694864Y-72225313D01*
X149685014Y-72233848D01*
X149626400Y-72279469D01*
X149602257Y-72298261D01*
X149433833Y-72481217D01*
X149297826Y-72689393D01*
X149197936Y-72917118D01*
X149136892Y-73158175D01*
X149136890Y-73158187D01*
X149116357Y-73405994D01*
X149116357Y-73406005D01*
X149136890Y-73653812D01*
X149136892Y-73653824D01*
X149197936Y-73894881D01*
X149297826Y-74122606D01*
X149433833Y-74330782D01*
X149433836Y-74330785D01*
X149602256Y-74513738D01*
X149685008Y-74578147D01*
X149725821Y-74634857D01*
X149729496Y-74704630D01*
X149694864Y-74765313D01*
X149685014Y-74773848D01*
X149626400Y-74819469D01*
X149602257Y-74838261D01*
X149433833Y-75021217D01*
X149297826Y-75229393D01*
X149197936Y-75457118D01*
X149136892Y-75698175D01*
X149136890Y-75698187D01*
X149116357Y-75945994D01*
X149116357Y-75946005D01*
X149136890Y-76193812D01*
X149136892Y-76193824D01*
X149197937Y-76434884D01*
X149220662Y-76486689D01*
X149229566Y-76555989D01*
X149199590Y-76619101D01*
X149140251Y-76655988D01*
X149107107Y-76660500D01*
X143588064Y-76660500D01*
X143521025Y-76640815D01*
X143500383Y-76624181D01*
X143347691Y-76471489D01*
X143347690Y-76471488D01*
X143288533Y-76437334D01*
X143219310Y-76397368D01*
X143076120Y-76359000D01*
X143076117Y-76359000D01*
X140621825Y-76359000D01*
X140554786Y-76339315D01*
X140511340Y-76291294D01*
X140472051Y-76214184D01*
X140438510Y-76168018D01*
X140347109Y-76042213D01*
X140196790Y-75891894D01*
X140196785Y-75891890D01*
X140031781Y-75772008D01*
X139989115Y-75716678D01*
X139983136Y-75647065D01*
X140015741Y-75585270D01*
X140031781Y-75571371D01*
X140196466Y-75451721D01*
X140346723Y-75301464D01*
X140346727Y-75301459D01*
X140471620Y-75129557D01*
X140568095Y-74940217D01*
X140633757Y-74738129D01*
X140633757Y-74738126D01*
X140644231Y-74672000D01*
X139596146Y-74672000D01*
X139634630Y-74605343D01*
X139667000Y-74484535D01*
X139667000Y-74359465D01*
X139634630Y-74238657D01*
X139596146Y-74172000D01*
X140644231Y-74172000D01*
X140633757Y-74105873D01*
X140633757Y-74105870D01*
X140568095Y-73903782D01*
X140471620Y-73714442D01*
X140346727Y-73542540D01*
X140346723Y-73542535D01*
X140196464Y-73392276D01*
X140196459Y-73392272D01*
X140024557Y-73267379D01*
X139835217Y-73170904D01*
X139633128Y-73105242D01*
X139442000Y-73074969D01*
X139442000Y-74017854D01*
X139375343Y-73979370D01*
X139254535Y-73947000D01*
X139129465Y-73947000D01*
X139008657Y-73979370D01*
X138942000Y-74017854D01*
X138942000Y-73074969D01*
X138750872Y-73105242D01*
X138750869Y-73105242D01*
X138548782Y-73170904D01*
X138359442Y-73267379D01*
X138187540Y-73392272D01*
X138187535Y-73392276D01*
X138037276Y-73542535D01*
X138037272Y-73542540D01*
X137912379Y-73714442D01*
X137815904Y-73903782D01*
X137750242Y-74105870D01*
X137750242Y-74105873D01*
X137739769Y-74172000D01*
X138787854Y-74172000D01*
X138749370Y-74238657D01*
X138717000Y-74359465D01*
X138717000Y-74484535D01*
X138749370Y-74605343D01*
X138787854Y-74672000D01*
X137739769Y-74672000D01*
X137750242Y-74738126D01*
X137750242Y-74738129D01*
X137815904Y-74940217D01*
X137912379Y-75129557D01*
X138037272Y-75301459D01*
X138037276Y-75301464D01*
X138187535Y-75451723D01*
X138187540Y-75451727D01*
X138352218Y-75571372D01*
X138394884Y-75626701D01*
X138400863Y-75696315D01*
X138368258Y-75758110D01*
X138352218Y-75772008D01*
X138187214Y-75891890D01*
X138187209Y-75891894D01*
X138036890Y-76042213D01*
X137911951Y-76214179D01*
X137815444Y-76403585D01*
X137749753Y-76605760D01*
X137716500Y-76815713D01*
X137716500Y-77028286D01*
X137747739Y-77225526D01*
X137749754Y-77238243D01*
X137771546Y-77305313D01*
X137815444Y-77440414D01*
X137911951Y-77629820D01*
X138036890Y-77801786D01*
X138187209Y-77952105D01*
X138187214Y-77952109D01*
X138351793Y-78071682D01*
X138394459Y-78127011D01*
X138400438Y-78196625D01*
X138367833Y-78258420D01*
X138351793Y-78272318D01*
X138187214Y-78391890D01*
X138187209Y-78391894D01*
X138036890Y-78542213D01*
X137911951Y-78714179D01*
X137815444Y-78903585D01*
X137749753Y-79105760D01*
X137716500Y-79315713D01*
X137716500Y-79528286D01*
X137738420Y-79666687D01*
X137749754Y-79738243D01*
X137813767Y-79935255D01*
X137815444Y-79940414D01*
X137911951Y-80129820D01*
X138036890Y-80301786D01*
X138175705Y-80440601D01*
X138209190Y-80501924D01*
X138204206Y-80571616D01*
X138162334Y-80627549D01*
X138153121Y-80633821D01*
X137998342Y-80729289D01*
X137874289Y-80853342D01*
X137782187Y-81002663D01*
X137782185Y-81002668D01*
X137764259Y-81056765D01*
X137727001Y-81169203D01*
X137727001Y-81169204D01*
X137727000Y-81169204D01*
X137716500Y-81271983D01*
X137716500Y-82572001D01*
X137716501Y-82572018D01*
X137727000Y-82674796D01*
X137727001Y-82674799D01*
X137782185Y-82841331D01*
X137782186Y-82841334D01*
X137874288Y-82990656D01*
X137998344Y-83114712D01*
X138147666Y-83206814D01*
X138314203Y-83261999D01*
X138416991Y-83272500D01*
X139967008Y-83272499D01*
X140069797Y-83261999D01*
X140236334Y-83206814D01*
X140385656Y-83114712D01*
X140509712Y-82990656D01*
X140601814Y-82841334D01*
X140656999Y-82674797D01*
X140667500Y-82572009D01*
X140667499Y-81271992D01*
X140656999Y-81169203D01*
X140601814Y-81002666D01*
X140509712Y-80853344D01*
X140385656Y-80729288D01*
X140236334Y-80637186D01*
X140236333Y-80637185D01*
X140230878Y-80633821D01*
X140184154Y-80581873D01*
X140172931Y-80512910D01*
X140200775Y-80448828D01*
X140208272Y-80440623D01*
X140347104Y-80301792D01*
X140472051Y-80129816D01*
X140511340Y-80052705D01*
X140559314Y-80001909D01*
X140621825Y-79985000D01*
X144161436Y-79985000D01*
X144228475Y-80004685D01*
X144249116Y-80021318D01*
X144434309Y-80206512D01*
X144562690Y-80280632D01*
X144705879Y-80319000D01*
X144705880Y-80319000D01*
X149103817Y-80319000D01*
X149170856Y-80338685D01*
X149216611Y-80391489D01*
X149226555Y-80460647D01*
X149217374Y-80492806D01*
X149213375Y-80501924D01*
X149197936Y-80537121D01*
X149136892Y-80778175D01*
X149136890Y-80778187D01*
X149116357Y-81025994D01*
X149116357Y-81026005D01*
X149136890Y-81273812D01*
X149136892Y-81273824D01*
X149197936Y-81514881D01*
X149297826Y-81742606D01*
X149433833Y-81950782D01*
X149433836Y-81950785D01*
X149602256Y-82133738D01*
X149685008Y-82198147D01*
X149725821Y-82254857D01*
X149729496Y-82324630D01*
X149694864Y-82385313D01*
X149685014Y-82393848D01*
X149626400Y-82439469D01*
X149602257Y-82458261D01*
X149433833Y-82641217D01*
X149297826Y-82849393D01*
X149197936Y-83077118D01*
X149136892Y-83318175D01*
X149136890Y-83318187D01*
X149116357Y-83565994D01*
X149116357Y-83566005D01*
X149136890Y-83813812D01*
X149136892Y-83813824D01*
X149197936Y-84054881D01*
X149297826Y-84282606D01*
X149433833Y-84490782D01*
X149433836Y-84490785D01*
X149602256Y-84673738D01*
X149685008Y-84738147D01*
X149725821Y-84794857D01*
X149729496Y-84864630D01*
X149694864Y-84925313D01*
X149685014Y-84933848D01*
X149626400Y-84979469D01*
X149602257Y-84998261D01*
X149433833Y-85181217D01*
X149297826Y-85389393D01*
X149197936Y-85617118D01*
X149136892Y-85858175D01*
X149136890Y-85858187D01*
X149116357Y-86105994D01*
X149116357Y-86106005D01*
X149136890Y-86353812D01*
X149136892Y-86353824D01*
X149197936Y-86594881D01*
X149297826Y-86822606D01*
X149433833Y-87030782D01*
X149433836Y-87030785D01*
X149602256Y-87213738D01*
X149685008Y-87278147D01*
X149725821Y-87334857D01*
X149729496Y-87404630D01*
X149694864Y-87465313D01*
X149685014Y-87473848D01*
X149644236Y-87505588D01*
X149602257Y-87538261D01*
X149433833Y-87721217D01*
X149297826Y-87929393D01*
X149197936Y-88157118D01*
X149136892Y-88398175D01*
X149136890Y-88398187D01*
X149116357Y-88645994D01*
X149116357Y-88646005D01*
X149136890Y-88893812D01*
X149136892Y-88893824D01*
X149197936Y-89134881D01*
X149297826Y-89362606D01*
X149433833Y-89570782D01*
X149433836Y-89570785D01*
X149602256Y-89753738D01*
X149685008Y-89818147D01*
X149725821Y-89874857D01*
X149729496Y-89944630D01*
X149694864Y-90005313D01*
X149685014Y-90013848D01*
X149626400Y-90059469D01*
X149602257Y-90078261D01*
X149433833Y-90261217D01*
X149297826Y-90469393D01*
X149197936Y-90697118D01*
X149136892Y-90938175D01*
X149136890Y-90938187D01*
X149116357Y-91185994D01*
X149116357Y-91186005D01*
X149136890Y-91433812D01*
X149136892Y-91433824D01*
X149197936Y-91674881D01*
X149297826Y-91902606D01*
X149433833Y-92110782D01*
X149433836Y-92110785D01*
X149602256Y-92293738D01*
X149685008Y-92358147D01*
X149725821Y-92414857D01*
X149729496Y-92484630D01*
X149694864Y-92545313D01*
X149685014Y-92553848D01*
X149626400Y-92599469D01*
X149602257Y-92618261D01*
X149433833Y-92801217D01*
X149297826Y-93009393D01*
X149197936Y-93237118D01*
X149136892Y-93478175D01*
X149136890Y-93478187D01*
X149116357Y-93725994D01*
X149116357Y-93726005D01*
X149136890Y-93973812D01*
X149136892Y-93973824D01*
X149197936Y-94214881D01*
X149297826Y-94442606D01*
X149433833Y-94650782D01*
X149433836Y-94650785D01*
X149602256Y-94833738D01*
X149685008Y-94898147D01*
X149725821Y-94954857D01*
X149729496Y-95024630D01*
X149694864Y-95085313D01*
X149685014Y-95093848D01*
X149626400Y-95139469D01*
X149602257Y-95158261D01*
X149433833Y-95341217D01*
X149297826Y-95549393D01*
X149197936Y-95777118D01*
X149136892Y-96018175D01*
X149136890Y-96018187D01*
X149116357Y-96265994D01*
X149116357Y-96266005D01*
X149136890Y-96513812D01*
X149136892Y-96513824D01*
X149198007Y-96755160D01*
X149195382Y-96824980D01*
X149165482Y-96873281D01*
X147713286Y-98325478D01*
X147601482Y-98437281D01*
X147601480Y-98437283D01*
X147590075Y-98457037D01*
X147581726Y-98471500D01*
X147538289Y-98546735D01*
X147523853Y-98571739D01*
X147522423Y-98574215D01*
X147481499Y-98726943D01*
X147481499Y-98726945D01*
X147481499Y-98895046D01*
X147481500Y-98895059D01*
X147481500Y-105660902D01*
X147461815Y-105727941D01*
X147445181Y-105748583D01*
X146079925Y-107113838D01*
X146018602Y-107147323D01*
X146006128Y-107149377D01*
X145870752Y-107164630D01*
X145870747Y-107164631D01*
X145700478Y-107224210D01*
X145547737Y-107320184D01*
X145420184Y-107447737D01*
X145324211Y-107600476D01*
X145264631Y-107770745D01*
X145264630Y-107770750D01*
X145244435Y-107949996D01*
X145244435Y-107950003D01*
X145264630Y-108129249D01*
X145264631Y-108129254D01*
X145324211Y-108299523D01*
X145363270Y-108361684D01*
X145420184Y-108452262D01*
X145547738Y-108579816D01*
X145700478Y-108675789D01*
X145821610Y-108718175D01*
X145870745Y-108735368D01*
X145870750Y-108735369D01*
X146049996Y-108755565D01*
X146050000Y-108755565D01*
X146050004Y-108755565D01*
X146229249Y-108735369D01*
X146229252Y-108735368D01*
X146229255Y-108735368D01*
X146399522Y-108675789D01*
X146552262Y-108579816D01*
X146679816Y-108452262D01*
X146775789Y-108299522D01*
X146835368Y-108129255D01*
X146839701Y-108090791D01*
X146866765Y-108026380D01*
X146875230Y-108017003D01*
X147885820Y-107006414D01*
X147947142Y-106972930D01*
X148016834Y-106977914D01*
X148072767Y-107019786D01*
X148097184Y-107085250D01*
X148097500Y-107094096D01*
X148097500Y-109479216D01*
X148077815Y-109546255D01*
X148061181Y-109566897D01*
X140494839Y-117133238D01*
X140433516Y-117166723D01*
X140363824Y-117161739D01*
X140307891Y-117119867D01*
X140296673Y-117101852D01*
X140262507Y-117034798D01*
X140201051Y-116914184D01*
X140193023Y-116903134D01*
X140076109Y-116742213D01*
X139925792Y-116591896D01*
X139917677Y-116586000D01*
X139761204Y-116472316D01*
X139718540Y-116416989D01*
X139712561Y-116347376D01*
X139745166Y-116285580D01*
X139761199Y-116271686D01*
X139925792Y-116152104D01*
X140076104Y-116001792D01*
X140076106Y-116001788D01*
X140076109Y-116001786D01*
X140201048Y-115829820D01*
X140201047Y-115829820D01*
X140201051Y-115829816D01*
X140297557Y-115640412D01*
X140363246Y-115438243D01*
X140396500Y-115228287D01*
X140396500Y-115015713D01*
X140363246Y-114805757D01*
X140297557Y-114603588D01*
X140201051Y-114414184D01*
X140201049Y-114414181D01*
X140201048Y-114414179D01*
X140076109Y-114242213D01*
X139925790Y-114091894D01*
X139925785Y-114091890D01*
X139760781Y-113972008D01*
X139718115Y-113916678D01*
X139712136Y-113847065D01*
X139744741Y-113785270D01*
X139760781Y-113771371D01*
X139925466Y-113651721D01*
X140075723Y-113501464D01*
X140075727Y-113501459D01*
X140200620Y-113329557D01*
X140297095Y-113140217D01*
X140362757Y-112938129D01*
X140362757Y-112938126D01*
X140373231Y-112872000D01*
X139325146Y-112872000D01*
X139363630Y-112805343D01*
X139396000Y-112684535D01*
X139396000Y-112559465D01*
X139363630Y-112438657D01*
X139325146Y-112372000D01*
X140373231Y-112372000D01*
X140362757Y-112305873D01*
X140362757Y-112305870D01*
X140297095Y-112103782D01*
X140200620Y-111914442D01*
X140075727Y-111742540D01*
X140075723Y-111742535D01*
X139925464Y-111592276D01*
X139925459Y-111592272D01*
X139753557Y-111467379D01*
X139564217Y-111370904D01*
X139362128Y-111305242D01*
X139171000Y-111274969D01*
X139171000Y-112217854D01*
X139104343Y-112179370D01*
X138983535Y-112147000D01*
X138858465Y-112147000D01*
X138737657Y-112179370D01*
X138671000Y-112217854D01*
X138671000Y-111274969D01*
X138479872Y-111305242D01*
X138479869Y-111305242D01*
X138277782Y-111370904D01*
X138088443Y-111467378D01*
X138043384Y-111500115D01*
X137977577Y-111523594D01*
X137909524Y-111507768D01*
X137860830Y-111457661D01*
X137846500Y-111399796D01*
X137846500Y-106855126D01*
X137866185Y-106788087D01*
X137918989Y-106742332D01*
X137988147Y-106732388D01*
X138035597Y-106749588D01*
X138130869Y-106808353D01*
X138130880Y-106808358D01*
X138297302Y-106863505D01*
X138297309Y-106863506D01*
X138400019Y-106873999D01*
X138924999Y-106873999D01*
X138925000Y-106873998D01*
X138925000Y-105928145D01*
X138991657Y-105966630D01*
X139112465Y-105999000D01*
X139237535Y-105999000D01*
X139358343Y-105966630D01*
X139425000Y-105928145D01*
X139425000Y-106873999D01*
X139949972Y-106873999D01*
X139949986Y-106873998D01*
X140052697Y-106863505D01*
X140219119Y-106808358D01*
X140219124Y-106808356D01*
X140368345Y-106716315D01*
X140492315Y-106592345D01*
X140584356Y-106443124D01*
X140584358Y-106443119D01*
X140639505Y-106276697D01*
X140639506Y-106276690D01*
X140649999Y-106173986D01*
X140650000Y-106173973D01*
X140650000Y-105774000D01*
X139579146Y-105774000D01*
X139617630Y-105707343D01*
X139650000Y-105586535D01*
X139650000Y-105461465D01*
X139617630Y-105340657D01*
X139579146Y-105274000D01*
X140649999Y-105274000D01*
X140649999Y-104874028D01*
X140649998Y-104874013D01*
X140639505Y-104771302D01*
X140584358Y-104604880D01*
X140584356Y-104604875D01*
X140492315Y-104455654D01*
X140368345Y-104331684D01*
X140213515Y-104236184D01*
X140166791Y-104184236D01*
X140155568Y-104115273D01*
X140183412Y-104051191D01*
X140190909Y-104042986D01*
X140330104Y-103903792D01*
X140455051Y-103731816D01*
X140455349Y-103731230D01*
X140475235Y-103692205D01*
X140523209Y-103641409D01*
X140585719Y-103624500D01*
X143081059Y-103624500D01*
X143148098Y-103644185D01*
X143168740Y-103660818D01*
X143261738Y-103753816D01*
X143414478Y-103849789D01*
X143568787Y-103903784D01*
X143584745Y-103909368D01*
X143584750Y-103909369D01*
X143763996Y-103929565D01*
X143764000Y-103929565D01*
X143764004Y-103929565D01*
X143943249Y-103909369D01*
X143943252Y-103909368D01*
X143943255Y-103909368D01*
X144113522Y-103849789D01*
X144266262Y-103753816D01*
X144393816Y-103626262D01*
X144489789Y-103473522D01*
X144549368Y-103303255D01*
X144560801Y-103201786D01*
X144569565Y-103124003D01*
X144569565Y-103123996D01*
X144549369Y-102944750D01*
X144549368Y-102944745D01*
X144498894Y-102800500D01*
X144489789Y-102774478D01*
X144393816Y-102621738D01*
X144266262Y-102494184D01*
X144161388Y-102428287D01*
X144113523Y-102398211D01*
X143943254Y-102338631D01*
X143943249Y-102338630D01*
X143764004Y-102318435D01*
X143763996Y-102318435D01*
X143584750Y-102338630D01*
X143584745Y-102338631D01*
X143414474Y-102398212D01*
X143404477Y-102404494D01*
X143338506Y-102423500D01*
X140585719Y-102423500D01*
X140518680Y-102403815D01*
X140475235Y-102355795D01*
X140455052Y-102316185D01*
X140455051Y-102316184D01*
X140330109Y-102144213D01*
X140179792Y-101993896D01*
X140135999Y-101962079D01*
X140015204Y-101874316D01*
X139972540Y-101818989D01*
X139966561Y-101749376D01*
X139999166Y-101687580D01*
X140015199Y-101673686D01*
X140179792Y-101554104D01*
X140330104Y-101403792D01*
X140330106Y-101403788D01*
X140330109Y-101403786D01*
X140388661Y-101323193D01*
X140455051Y-101231816D01*
X140455349Y-101231230D01*
X140475235Y-101192205D01*
X140523209Y-101141409D01*
X140585719Y-101124500D01*
X143483331Y-101124500D01*
X143483347Y-101124501D01*
X143490943Y-101124501D01*
X143649054Y-101124501D01*
X143649057Y-101124501D01*
X143801785Y-101083577D01*
X143857780Y-101051248D01*
X143938716Y-101004520D01*
X144050520Y-100892716D01*
X144050520Y-100892714D01*
X144060724Y-100882511D01*
X144060728Y-100882506D01*
X144333800Y-100609433D01*
X144395121Y-100575950D01*
X144407576Y-100573898D01*
X144494520Y-100564103D01*
X144664787Y-100504524D01*
X144817527Y-100408551D01*
X144945081Y-100280997D01*
X145041054Y-100128257D01*
X145100633Y-99957990D01*
X145104519Y-99923500D01*
X145120830Y-99778738D01*
X145120830Y-99778731D01*
X145100634Y-99599485D01*
X145100633Y-99599480D01*
X145073734Y-99522607D01*
X145041054Y-99429213D01*
X144945081Y-99276473D01*
X144817527Y-99148919D01*
X144749375Y-99106096D01*
X144664788Y-99052946D01*
X144494519Y-98993366D01*
X144494514Y-98993365D01*
X144315269Y-98973170D01*
X144315261Y-98973170D01*
X144136015Y-98993365D01*
X144136010Y-98993366D01*
X143965741Y-99052946D01*
X143813002Y-99148919D01*
X143685449Y-99276472D01*
X143589475Y-99429213D01*
X143529895Y-99599485D01*
X143520102Y-99686403D01*
X143493035Y-99750817D01*
X143484564Y-99760200D01*
X143357582Y-99887182D01*
X143296262Y-99920666D01*
X143269903Y-99923500D01*
X140585719Y-99923500D01*
X140518680Y-99903815D01*
X140475235Y-99855795D01*
X140455052Y-99816185D01*
X140455051Y-99816184D01*
X140330109Y-99644213D01*
X140179792Y-99493896D01*
X140179784Y-99493890D01*
X140015204Y-99374316D01*
X139972540Y-99318989D01*
X139966561Y-99249376D01*
X139999166Y-99187580D01*
X140015199Y-99173686D01*
X140179792Y-99054104D01*
X140330104Y-98903792D01*
X140330106Y-98903788D01*
X140330109Y-98903786D01*
X140401150Y-98806005D01*
X140455051Y-98731816D01*
X140457534Y-98726943D01*
X140475235Y-98692205D01*
X140523209Y-98641409D01*
X140585719Y-98624500D01*
X141919331Y-98624500D01*
X141919347Y-98624501D01*
X141926943Y-98624501D01*
X142085054Y-98624501D01*
X142085057Y-98624501D01*
X142237785Y-98583577D01*
X142287904Y-98554639D01*
X142374716Y-98504520D01*
X142486520Y-98392716D01*
X142486520Y-98392714D01*
X142496728Y-98382507D01*
X142496730Y-98382504D01*
X144798535Y-96080698D01*
X144859856Y-96047215D01*
X144872311Y-96045163D01*
X144959255Y-96035368D01*
X145129522Y-95975789D01*
X145282262Y-95879816D01*
X145409816Y-95752262D01*
X145505789Y-95599522D01*
X145565368Y-95429255D01*
X145565369Y-95429249D01*
X145585565Y-95250003D01*
X145585565Y-95249996D01*
X145565369Y-95070750D01*
X145565368Y-95070745D01*
X145542483Y-95005343D01*
X145505789Y-94900478D01*
X145495771Y-94884535D01*
X145439690Y-94795282D01*
X145409816Y-94747738D01*
X145282262Y-94620184D01*
X145205578Y-94572000D01*
X145129523Y-94524211D01*
X144959254Y-94464631D01*
X144959249Y-94464630D01*
X144780004Y-94444435D01*
X144779996Y-94444435D01*
X144600750Y-94464630D01*
X144600745Y-94464631D01*
X144430476Y-94524211D01*
X144277737Y-94620184D01*
X144150184Y-94747737D01*
X144054210Y-94900478D01*
X143994630Y-95070750D01*
X143984837Y-95157668D01*
X143957770Y-95222082D01*
X143949298Y-95231465D01*
X141793584Y-97387181D01*
X141732261Y-97420666D01*
X141705903Y-97423500D01*
X140585719Y-97423500D01*
X140518680Y-97403815D01*
X140475235Y-97355795D01*
X140455052Y-97316185D01*
X140455051Y-97316184D01*
X140330109Y-97144213D01*
X140179792Y-96993896D01*
X140164254Y-96982607D01*
X140015204Y-96874316D01*
X139972540Y-96818989D01*
X139966561Y-96749376D01*
X139999166Y-96687580D01*
X140015199Y-96673686D01*
X140179792Y-96554104D01*
X140330104Y-96403792D01*
X140330106Y-96403788D01*
X140330109Y-96403786D01*
X140455048Y-96231820D01*
X140455047Y-96231820D01*
X140455051Y-96231816D01*
X140551557Y-96042412D01*
X140617246Y-95840243D01*
X140650500Y-95630287D01*
X140650500Y-95454097D01*
X140670185Y-95387058D01*
X140686819Y-95366416D01*
X142482822Y-93570413D01*
X144290536Y-91762698D01*
X144351857Y-91729215D01*
X144364310Y-91727163D01*
X144451255Y-91717368D01*
X144621522Y-91657789D01*
X144774262Y-91561816D01*
X144901816Y-91434262D01*
X144997789Y-91281522D01*
X145057368Y-91111255D01*
X145057369Y-91111249D01*
X145077565Y-90932003D01*
X145077565Y-90931996D01*
X145057369Y-90752750D01*
X145057368Y-90752745D01*
X144997788Y-90582476D01*
X144901815Y-90429737D01*
X144774262Y-90302184D01*
X144621523Y-90206211D01*
X144451254Y-90146631D01*
X144451249Y-90146630D01*
X144272004Y-90126435D01*
X144271996Y-90126435D01*
X144092750Y-90146630D01*
X144092745Y-90146631D01*
X143922476Y-90206211D01*
X143769737Y-90302184D01*
X143642184Y-90429737D01*
X143546210Y-90582478D01*
X143486630Y-90752750D01*
X143476837Y-90839667D01*
X143449770Y-90904081D01*
X143441298Y-90913464D01*
X140791252Y-93563510D01*
X140729929Y-93596995D01*
X140660237Y-93592011D01*
X140604304Y-93550139D01*
X140579887Y-93484675D01*
X140585638Y-93437519D01*
X140617246Y-93340243D01*
X140650500Y-93130287D01*
X140650500Y-92917713D01*
X140617246Y-92707757D01*
X140551557Y-92505588D01*
X140455051Y-92316184D01*
X140455049Y-92316181D01*
X140455048Y-92316179D01*
X140330109Y-92144213D01*
X140179792Y-91993896D01*
X140179784Y-91993890D01*
X140015204Y-91874316D01*
X139972540Y-91818989D01*
X139966561Y-91749376D01*
X139999166Y-91687580D01*
X140015199Y-91673686D01*
X140179792Y-91554104D01*
X140330104Y-91403792D01*
X140330106Y-91403788D01*
X140330109Y-91403786D01*
X140455048Y-91231820D01*
X140455047Y-91231820D01*
X140455051Y-91231816D01*
X140551557Y-91042412D01*
X140617246Y-90840243D01*
X140650500Y-90630287D01*
X140650500Y-90417713D01*
X140617246Y-90207757D01*
X140551557Y-90005588D01*
X140455051Y-89816184D01*
X140455049Y-89816181D01*
X140455048Y-89816179D01*
X140330109Y-89644213D01*
X140179792Y-89493896D01*
X140179784Y-89493890D01*
X140015204Y-89374316D01*
X139972540Y-89318989D01*
X139966561Y-89249376D01*
X139999166Y-89187580D01*
X140015199Y-89173686D01*
X140179792Y-89054104D01*
X140330104Y-88903792D01*
X140330106Y-88903788D01*
X140330109Y-88903786D01*
X140439086Y-88753789D01*
X140455051Y-88731816D01*
X140551557Y-88542412D01*
X140617246Y-88340243D01*
X140650500Y-88130287D01*
X140650500Y-87917713D01*
X140617246Y-87707757D01*
X140551557Y-87505588D01*
X140455051Y-87316184D01*
X140455049Y-87316181D01*
X140455048Y-87316179D01*
X140330109Y-87144213D01*
X140179786Y-86993890D01*
X140007820Y-86868951D01*
X139818414Y-86772444D01*
X139818413Y-86772443D01*
X139818412Y-86772443D01*
X139616243Y-86706754D01*
X139616241Y-86706753D01*
X139616240Y-86706753D01*
X139454957Y-86681208D01*
X139406287Y-86673500D01*
X138943713Y-86673500D01*
X138895042Y-86681208D01*
X138733760Y-86706753D01*
X138531585Y-86772444D01*
X138342179Y-86868951D01*
X138170213Y-86993890D01*
X138019890Y-87144213D01*
X137894951Y-87316179D01*
X137798444Y-87505585D01*
X137732753Y-87707760D01*
X137699500Y-87917713D01*
X137699500Y-88130286D01*
X137725713Y-88295792D01*
X137732754Y-88340243D01*
X137767150Y-88446104D01*
X137798444Y-88542414D01*
X137894951Y-88731820D01*
X138019890Y-88903786D01*
X138170209Y-89054105D01*
X138170214Y-89054109D01*
X138334793Y-89173682D01*
X138377459Y-89229011D01*
X138383438Y-89298625D01*
X138350833Y-89360420D01*
X138334793Y-89374318D01*
X138170214Y-89493890D01*
X138170209Y-89493894D01*
X138019890Y-89644213D01*
X137894951Y-89816179D01*
X137798444Y-90005585D01*
X137732753Y-90207760D01*
X137699500Y-90417713D01*
X137699500Y-90630286D01*
X137732662Y-90839667D01*
X137732754Y-90840243D01*
X137764575Y-90938179D01*
X137798444Y-91042414D01*
X137894951Y-91231820D01*
X138019890Y-91403786D01*
X138170209Y-91554105D01*
X138170214Y-91554109D01*
X138334793Y-91673682D01*
X138377459Y-91729011D01*
X138383438Y-91798625D01*
X138350833Y-91860420D01*
X138334793Y-91874318D01*
X138170214Y-91993890D01*
X138170209Y-91993894D01*
X138019890Y-92144213D01*
X137894951Y-92316179D01*
X137798444Y-92505585D01*
X137732753Y-92707760D01*
X137699500Y-92917713D01*
X137699500Y-93130286D01*
X137732754Y-93340246D01*
X137766600Y-93444415D01*
X137768595Y-93514256D01*
X137736350Y-93570413D01*
X137045286Y-94261478D01*
X136933481Y-94373282D01*
X136933480Y-94373284D01*
X136892402Y-94444435D01*
X136883361Y-94460094D01*
X136883359Y-94460096D01*
X136854425Y-94510209D01*
X136854424Y-94510210D01*
X136838544Y-94569472D01*
X136813499Y-94662943D01*
X136813499Y-94662945D01*
X136813499Y-94695903D01*
X136793814Y-94762942D01*
X136777180Y-94783584D01*
X136765481Y-94795282D01*
X136765479Y-94795284D01*
X136749875Y-94822312D01*
X136743279Y-94833738D01*
X136686423Y-94932215D01*
X136645499Y-95084943D01*
X136645499Y-95084945D01*
X136645499Y-95253046D01*
X136645500Y-95253059D01*
X136645500Y-126999330D01*
X136645499Y-126999348D01*
X136645499Y-127165054D01*
X136645498Y-127165054D01*
X135500500Y-127165054D01*
X135500500Y-67442711D01*
X137087500Y-67442711D01*
X137087500Y-67685288D01*
X137119161Y-67925785D01*
X137181947Y-68160104D01*
X137222852Y-68258857D01*
X137274776Y-68384212D01*
X137396064Y-68594289D01*
X137396066Y-68594292D01*
X137396067Y-68594293D01*
X137543733Y-68786736D01*
X137543739Y-68786743D01*
X137715256Y-68958260D01*
X137715262Y-68958265D01*
X137907711Y-69105936D01*
X138117788Y-69227224D01*
X138341900Y-69320054D01*
X138576211Y-69382838D01*
X138755406Y-69406429D01*
X138816711Y-69414500D01*
X138816712Y-69414500D01*
X139059289Y-69414500D01*
X139120594Y-69406429D01*
X139299789Y-69382838D01*
X139534100Y-69320054D01*
X139758212Y-69227224D01*
X139968289Y-69105936D01*
X140160738Y-68958265D01*
X140332265Y-68786738D01*
X140479936Y-68594289D01*
X140601224Y-68384212D01*
X140694054Y-68160100D01*
X140756838Y-67925789D01*
X140788500Y-67685288D01*
X140788500Y-67442712D01*
X140756838Y-67202211D01*
X140694054Y-66967900D01*
X140601224Y-66743788D01*
X140479936Y-66533711D01*
X140332265Y-66341262D01*
X140332260Y-66341256D01*
X140160743Y-66169739D01*
X140160736Y-66169733D01*
X139968293Y-66022067D01*
X139968292Y-66022066D01*
X139968289Y-66022064D01*
X139758212Y-65900776D01*
X139758205Y-65900773D01*
X139534104Y-65807947D01*
X139299785Y-65745161D01*
X139059289Y-65713500D01*
X139059288Y-65713500D01*
X138816712Y-65713500D01*
X138816711Y-65713500D01*
X138576214Y-65745161D01*
X138341895Y-65807947D01*
X138117794Y-65900773D01*
X138117785Y-65900777D01*
X137907706Y-66022067D01*
X137715263Y-66169733D01*
X137715256Y-66169739D01*
X137543739Y-66341256D01*
X137543733Y-66341263D01*
X137396067Y-66533706D01*
X137274777Y-66743785D01*
X137274773Y-66743794D01*
X137181947Y-66967895D01*
X137119161Y-67202214D01*
X137087500Y-67442711D01*
X135500500Y-67442711D01*
X135500500Y-64322500D01*
X135520185Y-64255461D01*
X135572989Y-64209706D01*
X135624500Y-64198500D01*
X180875500Y-64198500D01*
X180942539Y-64218185D01*
G37*
%TD.AperFunction*%
%TD*%
M02*
