M48
; DRILL file {KiCad 8.0.2-1} date 2024-09-30T15:02:23-0400
; FORMAT={-:-/ absolute / inch / decimal}
; #@! TF.CreationDate,2024-09-30T15:02:23-04:00
; #@! TF.GenerationSoftware,Kicad,Pcbnew,8.0.2-1
; #@! TF.FileFunction,Plated,1,2,PTH
FMAT,2
INCH
; #@! TA.AperFunction,Plated,PTH,ViaDrill
T1C0.0118
; #@! TA.AperFunction,Plated,PTH,ComponentDrill
T2C0.0276
; #@! TA.AperFunction,Plated,PTH,ComponentDrill
T3C0.0374
; #@! TA.AperFunction,Plated,PTH,ComponentDrill
T4C0.0394
; #@! TA.AperFunction,Plated,PTH,ComponentDrill
T5C0.0402
%
G90
G05
T1
X5.6Y-5.06
X5.66Y-4.06
X5.68Y-3.58
X5.6817Y-3.9283
X5.7Y-3.75
X5.75Y-4.25
X6.22Y-3.14
T2
X5.66Y-5.13
X5.66Y-5.28
X5.96Y-5.13
X5.96Y-5.28
X6.05Y-5.13
X6.06Y-5.28
X6.35Y-5.13
X6.36Y-5.28
X6.44Y-5.13
X6.45Y-5.28
X6.7Y-4.0
X6.7Y-4.3
X6.7Y-4.39
X6.7Y-4.69
X6.74Y-5.13
X6.75Y-5.28
T3
X5.4693Y-4.4339
X5.4693Y-4.5324
X5.4693Y-4.6308
X5.4693Y-4.7292
X5.4693Y-4.8276
X5.4693Y-4.9261
X5.4793Y-3.4655
X5.4793Y-3.5639
X5.4793Y-3.6624
X5.4793Y-3.7608
X5.4793Y-3.8592
X5.4793Y-3.9576
X5.4793Y-4.0561
X5.4793Y-4.1545
X5.48Y-2.93
X5.48Y-3.0284
X5.48Y-3.1269
X5.48Y-3.2253
X6.98Y-3.7331
X6.98Y-3.8316
X6.98Y-3.93
X6.98Y-4.0284
X6.98Y-4.3131
X6.98Y-4.4116
X6.98Y-4.51
X6.98Y-4.6084
T4
X6.78Y-4.91
X6.98Y-2.9731
X6.98Y-3.0716
X6.98Y-3.3431
X6.98Y-3.4416
X7.0792Y-4.91
T5
X5.93Y-2.69
X5.93Y-2.79
X5.93Y-2.89
X5.93Y-2.99
X5.93Y-3.09
X5.93Y-3.19
X5.93Y-3.29
X5.93Y-3.39
X5.93Y-3.49
X5.93Y-3.59
X5.93Y-3.69
X5.93Y-3.79
X5.93Y-3.89
X5.93Y-3.99
X5.93Y-4.09
X5.93Y-4.19
X5.93Y-4.29
X5.93Y-4.39
X5.93Y-4.49
X5.93Y-4.59
X5.93Y-4.69
X5.93Y-4.79
X5.93Y-4.89
X5.93Y-4.99
X6.53Y-2.69
X6.53Y-2.79
X6.53Y-2.89
X6.53Y-2.99
X6.53Y-3.09
X6.53Y-3.19
X6.53Y-3.29
X6.53Y-3.39
X6.53Y-3.49
X6.53Y-3.59
X6.53Y-3.69
X6.53Y-3.79
X6.53Y-3.89
X6.53Y-3.99
X6.53Y-4.09
X6.53Y-4.19
X6.53Y-4.29
X6.53Y-4.39
X6.53Y-4.49
X6.53Y-4.59
X6.53Y-4.69
X6.53Y-4.79
X6.53Y-4.89
X6.53Y-4.99
M30
