%TF.GenerationSoftware,KiCad,Pcbnew,8.0.2-1*%
%TF.CreationDate,2024-09-30T15:02:25-04:00*%
%TF.ProjectId,Airbrake_ComputeBoard,41697262-7261-46b6-955f-436f6d707574,rev?*%
%TF.SameCoordinates,Original*%
%TF.FileFunction,Copper,L1,Top*%
%TF.FilePolarity,Positive*%
%FSLAX46Y46*%
G04 Gerber Fmt 4.6, Leading zero omitted, Abs format (unit mm)*
G04 Created by KiCad (PCBNEW 8.0.2-1) date 2024-09-30 15:02:25*
%MOMM*%
%LPD*%
G01*
G04 APERTURE LIST*
G04 Aperture macros list*
%AMRoundRect*
0 Rectangle with rounded corners*
0 $1 Rounding radius*
0 $2 $3 $4 $5 $6 $7 $8 $9 X,Y pos of 4 corners*
0 Add a 4 corners polygon primitive as box body*
4,1,4,$2,$3,$4,$5,$6,$7,$8,$9,$2,$3,0*
0 Add four circle primitives for the rounded corners*
1,1,$1+$1,$2,$3*
1,1,$1+$1,$4,$5*
1,1,$1+$1,$6,$7*
1,1,$1+$1,$8,$9*
0 Add four rect primitives between the rounded corners*
20,1,$1+$1,$2,$3,$4,$5,0*
20,1,$1+$1,$4,$5,$6,$7,0*
20,1,$1+$1,$6,$7,$8,$9,0*
20,1,$1+$1,$8,$9,$2,$3,0*%
G04 Aperture macros list end*
%ADD10C,0.300000*%
%TA.AperFunction,NonConductor*%
%ADD11C,0.300000*%
%TD*%
%TA.AperFunction,ComponentPad*%
%ADD12RoundRect,0.250000X0.725000X-0.600000X0.725000X0.600000X-0.725000X0.600000X-0.725000X-0.600000X0*%
%TD*%
%TA.AperFunction,ComponentPad*%
%ADD13O,1.950000X1.700000*%
%TD*%
%TA.AperFunction,ComponentPad*%
%ADD14C,2.000000*%
%TD*%
%TA.AperFunction,ComponentPad*%
%ADD15R,2.000000X2.000000*%
%TD*%
%TA.AperFunction,ComponentPad*%
%ADD16RoundRect,0.250000X-0.750000X0.600000X-0.750000X-0.600000X0.750000X-0.600000X0.750000X0.600000X0*%
%TD*%
%TA.AperFunction,ComponentPad*%
%ADD17O,2.000000X1.700000*%
%TD*%
%TA.AperFunction,ComponentPad*%
%ADD18RoundRect,0.250000X-0.725000X0.600000X-0.725000X-0.600000X0.725000X-0.600000X0.725000X0.600000X0*%
%TD*%
%TA.AperFunction,ComponentPad*%
%ADD19C,1.400000*%
%TD*%
%TA.AperFunction,ComponentPad*%
%ADD20O,1.400000X1.400000*%
%TD*%
%TA.AperFunction,SMDPad,CuDef*%
%ADD21RoundRect,0.150000X-0.587500X-0.150000X0.587500X-0.150000X0.587500X0.150000X-0.587500X0.150000X0*%
%TD*%
%TA.AperFunction,ViaPad*%
%ADD22C,0.600000*%
%TD*%
%TA.AperFunction,Conductor*%
%ADD23C,0.200000*%
%TD*%
%TA.AperFunction,Conductor*%
%ADD24C,0.125000*%
%TD*%
G04 APERTURE END LIST*
D10*
D11*
X157300828Y-105159774D02*
X157300828Y-104302632D01*
X158800828Y-104731203D02*
X157300828Y-104731203D01*
X158729400Y-103231203D02*
X158800828Y-103374060D01*
X158800828Y-103374060D02*
X158800828Y-103659775D01*
X158800828Y-103659775D02*
X158729400Y-103802632D01*
X158729400Y-103802632D02*
X158586542Y-103874060D01*
X158586542Y-103874060D02*
X158015114Y-103874060D01*
X158015114Y-103874060D02*
X157872257Y-103802632D01*
X157872257Y-103802632D02*
X157800828Y-103659775D01*
X157800828Y-103659775D02*
X157800828Y-103374060D01*
X157800828Y-103374060D02*
X157872257Y-103231203D01*
X157872257Y-103231203D02*
X158015114Y-103159775D01*
X158015114Y-103159775D02*
X158157971Y-103159775D01*
X158157971Y-103159775D02*
X158300828Y-103874060D01*
X158729400Y-101945489D02*
X158800828Y-102088346D01*
X158800828Y-102088346D02*
X158800828Y-102374061D01*
X158800828Y-102374061D02*
X158729400Y-102516918D01*
X158729400Y-102516918D02*
X158586542Y-102588346D01*
X158586542Y-102588346D02*
X158015114Y-102588346D01*
X158015114Y-102588346D02*
X157872257Y-102516918D01*
X157872257Y-102516918D02*
X157800828Y-102374061D01*
X157800828Y-102374061D02*
X157800828Y-102088346D01*
X157800828Y-102088346D02*
X157872257Y-101945489D01*
X157872257Y-101945489D02*
X158015114Y-101874061D01*
X158015114Y-101874061D02*
X158157971Y-101874061D01*
X158157971Y-101874061D02*
X158300828Y-102588346D01*
X157800828Y-101231204D02*
X158800828Y-101231204D01*
X157943685Y-101231204D02*
X157872257Y-101159775D01*
X157872257Y-101159775D02*
X157800828Y-101016918D01*
X157800828Y-101016918D02*
X157800828Y-100802632D01*
X157800828Y-100802632D02*
X157872257Y-100659775D01*
X157872257Y-100659775D02*
X158015114Y-100588347D01*
X158015114Y-100588347D02*
X158800828Y-100588347D01*
X158729400Y-99945489D02*
X158800828Y-99802632D01*
X158800828Y-99802632D02*
X158800828Y-99516918D01*
X158800828Y-99516918D02*
X158729400Y-99374061D01*
X158729400Y-99374061D02*
X158586542Y-99302632D01*
X158586542Y-99302632D02*
X158515114Y-99302632D01*
X158515114Y-99302632D02*
X158372257Y-99374061D01*
X158372257Y-99374061D02*
X158300828Y-99516918D01*
X158300828Y-99516918D02*
X158300828Y-99731204D01*
X158300828Y-99731204D02*
X158229400Y-99874061D01*
X158229400Y-99874061D02*
X158086542Y-99945489D01*
X158086542Y-99945489D02*
X158015114Y-99945489D01*
X158015114Y-99945489D02*
X157872257Y-99874061D01*
X157872257Y-99874061D02*
X157800828Y-99731204D01*
X157800828Y-99731204D02*
X157800828Y-99516918D01*
X157800828Y-99516918D02*
X157872257Y-99374061D01*
X157800828Y-98802632D02*
X158800828Y-98445489D01*
X157800828Y-98088346D02*
X158800828Y-98445489D01*
X158800828Y-98445489D02*
X159157971Y-98588346D01*
X159157971Y-98588346D02*
X159229400Y-98659775D01*
X159229400Y-98659775D02*
X159300828Y-98802632D01*
X157800828Y-95731204D02*
X158800828Y-95731204D01*
X157229400Y-96088346D02*
X158300828Y-96445489D01*
X158300828Y-96445489D02*
X158300828Y-95516918D01*
X158657971Y-94945490D02*
X158729400Y-94874061D01*
X158729400Y-94874061D02*
X158800828Y-94945490D01*
X158800828Y-94945490D02*
X158729400Y-95016918D01*
X158729400Y-95016918D02*
X158657971Y-94945490D01*
X158657971Y-94945490D02*
X158800828Y-94945490D01*
X158800828Y-93445489D02*
X158800828Y-94302632D01*
X158800828Y-93874061D02*
X157300828Y-93874061D01*
X157300828Y-93874061D02*
X157515114Y-94016918D01*
X157515114Y-94016918D02*
X157657971Y-94159775D01*
X157657971Y-94159775D02*
X157729400Y-94302632D01*
D12*
%TO.P,BlueRaven1,1,Pin_1*%
%TO.N,/5v_switch*%
X139192000Y-81922000D03*
D13*
%TO.P,BlueRaven1,2,Pin_2*%
%TO.N,/BR-TX*%
X139192000Y-79422000D03*
%TO.P,BlueRaven1,3,Pin_3*%
%TO.N,/BR-RX*%
X139192000Y-76922000D03*
%TO.P,BlueRaven1,4,Pin_4*%
%TO.N,GND*%
X139192000Y-74422000D03*
%TD*%
D14*
%TO.P,Teensy4.1,0,GND*%
%TO.N,GND*%
X150622000Y-68326000D03*
%TO.P,Teensy4.1,1,RX1*%
%TO.N,unconnected-(Teensy4.1-RX1-Pad1)*%
X150622000Y-70866000D03*
%TO.P,Teensy4.1,2,TX1*%
%TO.N,unconnected-(Teensy4.1-TX1-Pad2)*%
X150622000Y-73406000D03*
%TO.P,Teensy4.1,3,PWM*%
%TO.N,/SV*%
X150622000Y-75946000D03*
%TO.P,Teensy4.1,4,PWM*%
%TO.N,/BK*%
X150622000Y-78486000D03*
%TO.P,Teensy4.1,5,PWM*%
%TO.N,/EN*%
X150622000Y-81026000D03*
%TO.P,Teensy4.1,6,PWM*%
%TO.N,/F{slash}R*%
X150622000Y-83566000D03*
%TO.P,Teensy4.1,7,PWM*%
%TO.N,/PG_3.3v*%
X150622000Y-86106000D03*
%TO.P,Teensy4.1,8,RX2*%
%TO.N,unconnected-(Teensy4.1-RX2-Pad8)*%
X150622000Y-88646000D03*
%TO.P,Teensy4.1,9,TX2*%
%TO.N,unconnected-(Teensy4.1-TX2-Pad9)*%
X150622000Y-91186000D03*
%TO.P,Teensy4.1,10,PWM*%
%TO.N,/ALM_3.3v*%
X150622000Y-93726000D03*
%TO.P,Teensy4.1,11,CS*%
%TO.N,/CS*%
X150622000Y-96266000D03*
%TO.P,Teensy4.1,12,MOSI*%
%TO.N,/MOSI*%
X150622000Y-98806000D03*
%TO.P,Teensy4.1,13,MISO*%
%TO.N,/MISO*%
X150622000Y-101346000D03*
%TO.P,Teensy4.1,14,3.3V*%
%TO.N,unconnected-(Teensy4.1-3.3V-Pad14)*%
X150622000Y-103886000D03*
%TO.P,Teensy4.1,15,SCL2*%
%TO.N,unconnected-(Teensy4.1-SCL2-Pad15)*%
X150622000Y-106426000D03*
%TO.P,Teensy4.1,16,SDA2*%
%TO.N,unconnected-(Teensy4.1-SDA2-Pad16)*%
X150622000Y-108966000D03*
%TO.P,Teensy4.1,17,MOSI1*%
%TO.N,unconnected-(Teensy4.1-MOSI1-Pad17)*%
X150622000Y-111506000D03*
%TO.P,Teensy4.1,18,SCK1*%
%TO.N,unconnected-(Teensy4.1-SCK1-Pad18)*%
X150622000Y-114046000D03*
%TO.P,Teensy4.1,19,RX7*%
%TO.N,unconnected-(Teensy4.1-RX7-Pad19)*%
X150622000Y-116586000D03*
%TO.P,Teensy4.1,20,TX7*%
%TO.N,unconnected-(Teensy4.1-TX7-Pad20)*%
X150622000Y-119126000D03*
%TO.P,Teensy4.1,21,GPIO*%
%TO.N,unconnected-(Teensy4.1-GPIO-Pad21)*%
X150622000Y-121666000D03*
%TO.P,Teensy4.1,22,GPIO*%
%TO.N,unconnected-(Teensy4.1-GPIO-Pad22)*%
X150622000Y-124206000D03*
%TO.P,Teensy4.1,23,GPIO*%
%TO.N,unconnected-(Teensy4.1-GPIO-Pad23)*%
X150622000Y-126746000D03*
%TO.P,Teensy4.1,24,PWM*%
%TO.N,unconnected-(Teensy4.1-PWM-Pad24)*%
X165862000Y-126746000D03*
%TO.P,Teensy4.1,25,RX8*%
%TO.N,unconnected-(Teensy4.1-RX8-Pad25)*%
X165862000Y-124206000D03*
%TO.P,Teensy4.1,26,TX8*%
%TO.N,unconnected-(Teensy4.1-TX8-Pad26)*%
X165862000Y-121666000D03*
%TO.P,Teensy4.1,27,PWM*%
%TO.N,/A_3.3v*%
X165862000Y-119126000D03*
%TO.P,Teensy4.1,28,PWM*%
%TO.N,/B_3.3v*%
X165862000Y-116586000D03*
%TO.P,Teensy4.1,29,CS1*%
%TO.N,unconnected-(Teensy4.1-CS1-Pad29)*%
X165862000Y-114046000D03*
%TO.P,Teensy4.1,30,MISO*%
%TO.N,unconnected-(Teensy4.1-MISO-Pad30)*%
X165862000Y-111506000D03*
%TO.P,Teensy4.1,31,A16*%
%TO.N,unconnected-(Teensy4.1-A16-Pad31)*%
X165862000Y-108966000D03*
%TO.P,Teensy4.1,32,A17*%
%TO.N,unconnected-(Teensy4.1-A17-Pad32)*%
X165862000Y-106426000D03*
%TO.P,Teensy4.1,33,GND*%
%TO.N,unconnected-(Teensy4.1-GND-Pad33)*%
X165862000Y-103886000D03*
%TO.P,Teensy4.1,34,SCK*%
%TO.N,/SCK*%
X165862000Y-101346000D03*
%TO.P,Teensy4.1,35,A0*%
%TO.N,unconnected-(Teensy4.1-A0-Pad35)*%
X165862000Y-98806000D03*
%TO.P,Teensy4.1,36,A1*%
%TO.N,unconnected-(Teensy4.1-A1-Pad36)*%
X165862000Y-96266000D03*
%TO.P,Teensy4.1,37,A2*%
%TO.N,unconnected-(Teensy4.1-A2-Pad37)*%
X165862000Y-93726000D03*
%TO.P,Teensy4.1,38,A3*%
%TO.N,unconnected-(Teensy4.1-A3-Pad38)*%
X165862000Y-91186000D03*
%TO.P,Teensy4.1,39,SDA*%
%TO.N,/SDA*%
X165862000Y-88646000D03*
%TO.P,Teensy4.1,40,SCL*%
%TO.N,/SCL*%
X165862000Y-86106000D03*
%TO.P,Teensy4.1,41,TX5*%
%TO.N,/BR-RX*%
X165862000Y-83566000D03*
%TO.P,Teensy4.1,42,RX5*%
%TO.N,/BR-TX*%
X165862000Y-81026000D03*
%TO.P,Teensy4.1,43,PWM*%
%TO.N,unconnected-(Teensy4.1-PWM-Pad43)*%
X165862000Y-78486000D03*
%TO.P,Teensy4.1,44,PWM*%
%TO.N,/buzzer*%
X165862000Y-75946000D03*
%TO.P,Teensy4.1,45,3.3V*%
%TO.N,+3.3V*%
X165862000Y-73406000D03*
%TO.P,Teensy4.1,46,GND*%
%TO.N,GND*%
X165862000Y-70866000D03*
%TO.P,Teensy4.1,47,Vin*%
%TO.N,/5v_switch*%
X165862000Y-68326000D03*
%TD*%
D15*
%TO.P,BZ1,1,+*%
%TO.N,/buzzer*%
X172212000Y-124714000D03*
D14*
%TO.P,BZ1,2,-*%
%TO.N,GND*%
X179812000Y-124714000D03*
%TD*%
D12*
%TO.P,VN-100-1,1,Pin_1*%
%TO.N,/5v_switch*%
X138921000Y-125122000D03*
D13*
%TO.P,VN-100-1,2,Pin_2*%
%TO.N,/MOSI*%
X138921000Y-122622000D03*
%TO.P,VN-100-1,3,Pin_3*%
%TO.N,/MISO*%
X138921000Y-120122000D03*
%TO.P,VN-100-1,4,Pin_4*%
%TO.N,/SCK*%
X138921000Y-117622000D03*
%TO.P,VN-100-1,5,Pin_5*%
%TO.N,/CS*%
X138921000Y-115122000D03*
%TO.P,VN-100-1,6,Pin_6*%
%TO.N,GND*%
X138921000Y-112622000D03*
%TD*%
D16*
%TO.P,PowerSwitch1,1,Pin_1*%
%TO.N,Net-(Battery1-Pin_1)*%
X177292000Y-84916000D03*
D17*
%TO.P,PowerSwitch1,2,Pin_2*%
%TO.N,/5v_switch*%
X177292000Y-87416000D03*
%TD*%
D18*
%TO.P,SensorBoard1,1,Pin_1*%
%TO.N,GND*%
X177292000Y-94822000D03*
D13*
%TO.P,SensorBoard1,2,Pin_2*%
%TO.N,/SCL*%
X177292000Y-97322000D03*
%TO.P,SensorBoard1,3,Pin_3*%
%TO.N,/SDA*%
X177292000Y-99822000D03*
%TO.P,SensorBoard1,4,Pin_4*%
%TO.N,+3.3V*%
X177292000Y-102322000D03*
%TD*%
D19*
%TO.P,R1,1*%
%TO.N,/ALM_5v*%
X143764000Y-130302000D03*
D20*
%TO.P,R1,2*%
%TO.N,/ALM_3.3v*%
X151384000Y-130302000D03*
%TD*%
D21*
%TO.P,Q4,1,C*%
%TO.N,Net-(MotoDriver1-Pin_5)*%
X145366500Y-89088000D03*
%TO.P,Q4,2,B*%
%TO.N,/SV*%
X147241500Y-88138000D03*
%TO.P,Q4,3,E*%
%TO.N,/5v_switch*%
X145366500Y-87188000D03*
%TD*%
D18*
%TO.P,MotorEncoder1,1,Pin_1*%
%TO.N,GND*%
X177292000Y-109554000D03*
D13*
%TO.P,MotorEncoder1,2,Pin_2*%
%TO.N,/A_5v*%
X177292000Y-112054000D03*
%TO.P,MotorEncoder1,3,Pin_3*%
%TO.N,/5v_switch*%
X177292000Y-114554000D03*
%TO.P,MotorEncoder1,4,Pin_4*%
%TO.N,/B_5v*%
X177292000Y-117054000D03*
%TD*%
D19*
%TO.P,R7,1*%
%TO.N,/B_5v*%
X170180000Y-101600000D03*
D20*
%TO.P,R7,2*%
%TO.N,/B_3.3v*%
X170180000Y-109220000D03*
%TD*%
D21*
%TO.P,Q3,1,C*%
%TO.N,Net-(MotoDriver1-Pin_4)*%
X145445000Y-94168000D03*
%TO.P,Q3,2,B*%
%TO.N,/BK*%
X147320000Y-93218000D03*
%TO.P,Q3,3,E*%
%TO.N,/5v_switch*%
X145445000Y-92268000D03*
%TD*%
D19*
%TO.P,R4,1*%
%TO.N,/PG_3.3v*%
X161544000Y-134112000D03*
D20*
%TO.P,R4,2*%
%TO.N,GND*%
X153924000Y-134112000D03*
%TD*%
D19*
%TO.P,R8,1*%
%TO.N,/B_3.3v*%
X170180000Y-111506000D03*
D20*
%TO.P,R8,2*%
%TO.N,GND*%
X170180000Y-119126000D03*
%TD*%
D12*
%TO.P,MotoDriver1,1,Pin_1*%
%TO.N,GND*%
X139175000Y-105524000D03*
D13*
%TO.P,MotoDriver1,2,Pin_2*%
%TO.N,Net-(MotoDriver1-Pin_2)*%
X139175000Y-103024000D03*
%TO.P,MotoDriver1,3,Pin_3*%
%TO.N,Net-(MotoDriver1-Pin_3)*%
X139175000Y-100524000D03*
%TO.P,MotoDriver1,4,Pin_4*%
%TO.N,Net-(MotoDriver1-Pin_4)*%
X139175000Y-98024000D03*
%TO.P,MotoDriver1,5,Pin_5*%
%TO.N,Net-(MotoDriver1-Pin_5)*%
X139175000Y-95524000D03*
%TO.P,MotoDriver1,6,Pin_6*%
%TO.N,/PG_5v*%
X139175000Y-93024000D03*
%TO.P,MotoDriver1,7,Pin_7*%
%TO.N,/ALM_5v*%
X139175000Y-90524000D03*
%TO.P,MotoDriver1,8,Pin_8*%
%TO.N,/5v_switch*%
X139175000Y-88024000D03*
%TD*%
D19*
%TO.P,R6,1*%
%TO.N,/A_3.3v*%
X171450000Y-134112000D03*
D20*
%TO.P,R6,2*%
%TO.N,GND*%
X163830000Y-134112000D03*
%TD*%
D21*
%TO.P,Q1,1,C*%
%TO.N,Net-(MotoDriver1-Pin_2)*%
X145288000Y-103500000D03*
%TO.P,Q1,2,B*%
%TO.N,/F{slash}R*%
X147163000Y-102550000D03*
%TO.P,Q1,3,E*%
%TO.N,/5v_switch*%
X145288000Y-101600000D03*
%TD*%
D19*
%TO.P,R2,1*%
%TO.N,/ALM_3.3v*%
X151384000Y-134112000D03*
D20*
%TO.P,R2,2*%
%TO.N,GND*%
X143764000Y-134112000D03*
%TD*%
D19*
%TO.P,R5,1*%
%TO.N,/A_5v*%
X163576000Y-130302000D03*
D20*
%TO.P,R5,2*%
%TO.N,/A_3.3v*%
X171196000Y-130302000D03*
%TD*%
D16*
%TO.P,Battery1,1,Pin_1*%
%TO.N,Net-(Battery1-Pin_1)*%
X177292000Y-75518000D03*
D17*
%TO.P,Battery1,2,Pin_2*%
%TO.N,GND*%
X177292000Y-78018000D03*
%TD*%
D19*
%TO.P,R3,1*%
%TO.N,/PG_5v*%
X153670000Y-130302000D03*
D20*
%TO.P,R3,2*%
%TO.N,/PG_3.3v*%
X161290000Y-130302000D03*
%TD*%
D21*
%TO.P,Q2,1,C*%
%TO.N,Net-(MotoDriver1-Pin_3)*%
X145366500Y-98740000D03*
%TO.P,Q2,2,B*%
%TO.N,/EN*%
X147241500Y-97790000D03*
%TO.P,Q2,3,E*%
%TO.N,/5v_switch*%
X145366500Y-96840000D03*
%TD*%
D22*
%TO.N,/BR-TX*%
X157988000Y-79756000D03*
%TO.N,/PG_5v*%
X142240000Y-128524000D03*
%TO.N,Net-(MotoDriver1-Pin_3)*%
X144315265Y-99778735D03*
%TO.N,Net-(MotoDriver1-Pin_5)*%
X144272000Y-90932000D03*
%TO.N,Net-(MotoDriver1-Pin_4)*%
X144780000Y-95250000D03*
%TO.N,Net-(MotoDriver1-Pin_2)*%
X143764000Y-103124000D03*
%TO.N,/CS*%
X146050000Y-107950000D03*
%TD*%
D23*
%TO.N,Net-(Battery1-Pin_1)*%
X178592000Y-76818000D02*
X178592000Y-83616000D01*
X177292000Y-75518000D02*
X178592000Y-76818000D01*
X178592000Y-83616000D02*
X177292000Y-84916000D01*
D24*
%TO.N,/BR-TX*%
X164592000Y-79756000D02*
X165862000Y-81026000D01*
X157988000Y-79756000D02*
X164592000Y-79756000D01*
D23*
%TO.N,/5v_switch*%
X179832000Y-112014000D02*
X179578000Y-112268000D01*
X139192000Y-81922000D02*
X139192000Y-88007000D01*
X136144000Y-72390000D02*
X137414000Y-71120000D01*
X141732000Y-88024000D02*
X144530500Y-88024000D01*
X145288000Y-101600000D02*
X144439471Y-101600000D01*
X140450000Y-107454000D02*
X137160000Y-110744000D01*
X137160000Y-124206000D02*
X138076000Y-125122000D01*
X163322000Y-65786000D02*
X165862000Y-68326000D01*
X177800000Y-114554000D02*
X177292000Y-114554000D01*
X136144000Y-78874000D02*
X136144000Y-72390000D01*
X138076000Y-125122000D02*
X138921000Y-125122000D01*
X144084000Y-92268000D02*
X145445000Y-92268000D01*
X143510000Y-89408000D02*
X143510000Y-91694000D01*
X179578000Y-112268000D02*
X179578000Y-112776000D01*
X143510000Y-91694000D02*
X143510000Y-94983500D01*
X174498000Y-84622000D02*
X174498000Y-76962000D01*
X177292000Y-87416000D02*
X174498000Y-84622000D01*
X137414000Y-71120000D02*
X141478000Y-71120000D01*
X143516250Y-99828250D02*
X145288000Y-101600000D01*
X142126000Y-88024000D02*
X143510000Y-89408000D01*
X146812000Y-65786000D02*
X163322000Y-65786000D01*
X144530500Y-88024000D02*
X145366500Y-87188000D01*
X137160000Y-110744000D02*
X137160000Y-124206000D01*
X179578000Y-112776000D02*
X177800000Y-114554000D01*
X179832000Y-92964000D02*
X179832000Y-112014000D01*
X143516250Y-94989750D02*
X145366500Y-96840000D01*
X140450000Y-105589471D02*
X140450000Y-107454000D01*
X141478000Y-71120000D02*
X146812000Y-65786000D01*
X141732000Y-88024000D02*
X142126000Y-88024000D01*
X174498000Y-76962000D02*
X165862000Y-68326000D01*
X143510000Y-94983500D02*
X143516250Y-94989750D01*
X143510000Y-91694000D02*
X144084000Y-92268000D01*
X139192000Y-88007000D02*
X139175000Y-88024000D01*
X177292000Y-87416000D02*
X177292000Y-90424000D01*
X143516250Y-94989750D02*
X143516250Y-99828250D01*
X139175000Y-88024000D02*
X141732000Y-88024000D01*
X139192000Y-81922000D02*
X136144000Y-78874000D01*
X177292000Y-90424000D02*
X179832000Y-92964000D01*
X144439471Y-101600000D02*
X140450000Y-105589471D01*
%TO.N,/PG_5v*%
X144018000Y-128524000D02*
X142240000Y-128524000D01*
X151892000Y-128524000D02*
X144018000Y-128524000D01*
X153670000Y-130302000D02*
X151892000Y-128524000D01*
%TO.N,/ALM_5v*%
X136652000Y-124962744D02*
X136652000Y-93047000D01*
X136652000Y-93047000D02*
X139175000Y-90524000D01*
X143764000Y-130302000D02*
X141991256Y-130302000D01*
X141991256Y-130302000D02*
X136652000Y-124962744D01*
%TO.N,/A_5v*%
X168910000Y-118981786D02*
X175837786Y-112054000D01*
X163576000Y-130302000D02*
X165100000Y-128778000D01*
X165100000Y-128778000D02*
X167640000Y-128778000D01*
X175837786Y-112054000D02*
X177292000Y-112054000D01*
X167640000Y-128778000D02*
X168910000Y-127508000D01*
X168910000Y-127508000D02*
X168910000Y-118981786D01*
%TO.N,/F{slash}R*%
X149322000Y-100391000D02*
X149322000Y-84866000D01*
X149322000Y-84866000D02*
X150622000Y-83566000D01*
X147163000Y-102550000D02*
X149322000Y-100391000D01*
%TO.N,/EN*%
X148679000Y-82969000D02*
X150622000Y-81026000D01*
X147241500Y-97790000D02*
X148590000Y-96441500D01*
X148590000Y-96441500D02*
X148590000Y-92513686D01*
X148679000Y-92424686D02*
X148679000Y-82969000D01*
X148590000Y-92513686D02*
X148679000Y-92424686D01*
%TO.N,/BK*%
X148279000Y-80829000D02*
X150622000Y-78486000D01*
X148279000Y-92259000D02*
X148279000Y-80829000D01*
X147320000Y-93218000D02*
X148279000Y-92259000D01*
%TO.N,/SV*%
X147241500Y-79326500D02*
X150622000Y-75946000D01*
X147241500Y-88138000D02*
X147241500Y-79326500D01*
%TO.N,/ALM_3.3v*%
X151384000Y-130302000D02*
X151384000Y-134112000D01*
%TO.N,/PG_3.3v*%
X161290000Y-133858000D02*
X161544000Y-134112000D01*
X161290000Y-130302000D02*
X161290000Y-133858000D01*
%TO.N,/A_3.3v*%
X171196000Y-130302000D02*
X171196000Y-133858000D01*
X171196000Y-133858000D02*
X171450000Y-134112000D01*
%TO.N,/B_3.3v*%
X170180000Y-109220000D02*
X170180000Y-111506000D01*
X170180000Y-112268000D02*
X165862000Y-116586000D01*
X170180000Y-111506000D02*
X170180000Y-112268000D01*
%TO.N,/SDA*%
X177292000Y-99822000D02*
X177038000Y-99822000D01*
X177038000Y-99822000D02*
X165862000Y-88646000D01*
%TO.N,/SCL*%
X177078000Y-97322000D02*
X165862000Y-86106000D01*
X177292000Y-97322000D02*
X177078000Y-97322000D01*
D24*
%TO.N,/SCK*%
X142220000Y-117622000D02*
X149606000Y-110236000D01*
X156972000Y-110236000D02*
X165862000Y-101346000D01*
D23*
X138921000Y-117622000D02*
X142220000Y-117622000D01*
D24*
X149606000Y-110236000D02*
X156972000Y-110236000D01*
D23*
%TO.N,Net-(MotoDriver1-Pin_3)*%
X144315265Y-99778735D02*
X144327765Y-99778735D01*
X144327765Y-99778735D02*
X145366500Y-98740000D01*
%TO.N,Net-(MotoDriver1-Pin_5)*%
X144272000Y-90932000D02*
X144272000Y-90182500D01*
X144272000Y-90182500D02*
X145366500Y-89088000D01*
%TO.N,Net-(MotoDriver1-Pin_4)*%
X144780000Y-94833000D02*
X145445000Y-94168000D01*
X144780000Y-95250000D02*
X144780000Y-94833000D01*
%TO.N,Net-(MotoDriver1-Pin_2)*%
X144912000Y-103124000D02*
X145288000Y-103500000D01*
X143764000Y-103124000D02*
X144912000Y-103124000D01*
%TO.N,/CS*%
X145542000Y-108501000D02*
X138921000Y-115122000D01*
X145542000Y-108458000D02*
X145542000Y-108501000D01*
X146050000Y-107950000D02*
X145542000Y-108458000D01*
%TD*%
%TA.AperFunction,Conductor*%
%TO.N,+3.3V*%
G36*
X167570974Y-70884209D02*
G01*
X173861181Y-77174416D01*
X173894666Y-77235739D01*
X173897500Y-77262097D01*
X173897500Y-84535330D01*
X173897499Y-84535348D01*
X173897499Y-84701054D01*
X173897498Y-84701054D01*
X173897499Y-84701057D01*
X173938423Y-84853785D01*
X173959124Y-84889640D01*
X173967358Y-84903900D01*
X173967359Y-84903904D01*
X173967360Y-84903904D01*
X174017479Y-84990714D01*
X174017481Y-84990717D01*
X174136349Y-85109585D01*
X174136355Y-85109590D01*
X175845027Y-86818263D01*
X175878512Y-86879586D01*
X175875277Y-86944262D01*
X175824753Y-87099759D01*
X175791500Y-87309713D01*
X175791500Y-87522286D01*
X175823007Y-87721217D01*
X175824754Y-87732243D01*
X175888812Y-87929393D01*
X175890444Y-87934414D01*
X175986951Y-88123820D01*
X176111890Y-88295786D01*
X176262213Y-88446109D01*
X176434179Y-88571048D01*
X176434181Y-88571049D01*
X176434184Y-88571051D01*
X176623588Y-88667557D01*
X176623590Y-88667557D01*
X176623795Y-88667662D01*
X176674591Y-88715636D01*
X176691500Y-88778147D01*
X176691500Y-90337330D01*
X176691499Y-90337348D01*
X176691499Y-90503054D01*
X176691498Y-90503054D01*
X176691499Y-90503057D01*
X176732423Y-90655785D01*
X176756287Y-90697118D01*
X176761358Y-90705900D01*
X176761359Y-90705904D01*
X176761360Y-90705904D01*
X176811479Y-90792714D01*
X176811481Y-90792717D01*
X176930349Y-90911585D01*
X176930355Y-90911590D01*
X179195181Y-93176416D01*
X179228666Y-93237739D01*
X179231500Y-93264097D01*
X179231500Y-111713902D01*
X179211815Y-111780941D01*
X179195181Y-111801583D01*
X179097481Y-111899282D01*
X179097477Y-111899287D01*
X179073094Y-111941523D01*
X179073091Y-111941528D01*
X179054868Y-111973090D01*
X179018423Y-112036213D01*
X179011275Y-112062893D01*
X178974909Y-112122554D01*
X178912062Y-112153082D01*
X178842687Y-112144787D01*
X178788809Y-112100301D01*
X178767535Y-112033749D01*
X178767500Y-112030799D01*
X178767500Y-111947713D01*
X178759830Y-111899287D01*
X178734246Y-111737757D01*
X178668557Y-111535588D01*
X178572051Y-111346184D01*
X178572049Y-111346181D01*
X178572048Y-111346179D01*
X178447109Y-111174213D01*
X178308294Y-111035398D01*
X178274809Y-110974075D01*
X178279793Y-110904383D01*
X178321665Y-110848450D01*
X178330879Y-110842178D01*
X178336331Y-110838814D01*
X178336334Y-110838814D01*
X178485656Y-110746712D01*
X178609712Y-110622656D01*
X178701814Y-110473334D01*
X178756999Y-110306797D01*
X178767500Y-110204009D01*
X178767499Y-108903992D01*
X178756999Y-108801203D01*
X178701814Y-108634666D01*
X178609712Y-108485344D01*
X178485656Y-108361288D01*
X178336334Y-108269186D01*
X178169797Y-108214001D01*
X178169795Y-108214000D01*
X178067010Y-108203500D01*
X176516998Y-108203500D01*
X176516981Y-108203501D01*
X176414203Y-108214000D01*
X176414200Y-108214001D01*
X176247668Y-108269185D01*
X176247663Y-108269187D01*
X176098342Y-108361289D01*
X175974289Y-108485342D01*
X175882187Y-108634663D01*
X175882186Y-108634666D01*
X175827001Y-108801203D01*
X175827001Y-108801204D01*
X175827000Y-108801204D01*
X175816500Y-108903983D01*
X175816500Y-110204001D01*
X175816501Y-110204018D01*
X175827000Y-110306796D01*
X175827001Y-110306799D01*
X175879024Y-110463793D01*
X175882186Y-110473334D01*
X175948728Y-110581217D01*
X175974289Y-110622657D01*
X176098344Y-110746712D01*
X176253120Y-110842178D01*
X176299845Y-110894126D01*
X176311068Y-110963088D01*
X176283224Y-111027171D01*
X176275706Y-111035398D01*
X176136889Y-111174215D01*
X176011951Y-111346179D01*
X175991767Y-111385794D01*
X175943793Y-111436590D01*
X175881282Y-111453499D01*
X175758729Y-111453499D01*
X175651373Y-111482265D01*
X175605996Y-111494424D01*
X175605995Y-111494425D01*
X175555882Y-111523359D01*
X175555881Y-111523360D01*
X175512475Y-111548420D01*
X175469071Y-111573479D01*
X175469068Y-111573481D01*
X168429479Y-118613070D01*
X168415596Y-118637118D01*
X168406944Y-118652104D01*
X168350423Y-118750001D01*
X168309499Y-118902729D01*
X168309499Y-118902731D01*
X168309499Y-119070832D01*
X168309500Y-119070845D01*
X168309500Y-127207903D01*
X168289815Y-127274942D01*
X168273181Y-127295584D01*
X167427584Y-128141181D01*
X167366261Y-128174666D01*
X167339903Y-128177500D01*
X166826974Y-128177500D01*
X166759935Y-128157815D01*
X166714180Y-128105011D01*
X166704236Y-128035853D01*
X166733261Y-127972297D01*
X166750812Y-127955647D01*
X166852223Y-127876715D01*
X166881744Y-127853738D01*
X167050164Y-127670785D01*
X167186173Y-127462607D01*
X167286063Y-127234881D01*
X167347108Y-126993821D01*
X167367643Y-126746000D01*
X167362520Y-126684180D01*
X167347109Y-126498187D01*
X167347107Y-126498175D01*
X167286063Y-126257118D01*
X167186173Y-126029393D01*
X167050166Y-125821217D01*
X166995545Y-125761883D01*
X166881744Y-125638262D01*
X166798991Y-125573852D01*
X166758179Y-125517143D01*
X166754504Y-125447370D01*
X166789136Y-125386687D01*
X166798985Y-125378151D01*
X166881744Y-125313738D01*
X167050164Y-125130785D01*
X167186173Y-124922607D01*
X167286063Y-124694881D01*
X167347108Y-124453821D01*
X167367643Y-124206000D01*
X167367366Y-124202663D01*
X167347109Y-123958187D01*
X167347107Y-123958175D01*
X167286063Y-123717118D01*
X167186173Y-123489393D01*
X167050166Y-123281217D01*
X166987828Y-123213500D01*
X166881744Y-123098262D01*
X166798991Y-123033852D01*
X166758179Y-122977143D01*
X166754504Y-122907370D01*
X166789136Y-122846687D01*
X166798985Y-122838151D01*
X166881744Y-122773738D01*
X167050164Y-122590785D01*
X167186173Y-122382607D01*
X167286063Y-122154881D01*
X167347108Y-121913821D01*
X167361328Y-121742213D01*
X167367643Y-121666005D01*
X167367643Y-121665994D01*
X167347109Y-121418187D01*
X167347107Y-121418175D01*
X167286063Y-121177118D01*
X167186173Y-120949393D01*
X167050166Y-120741217D01*
X166957368Y-120640412D01*
X166881744Y-120558262D01*
X166798991Y-120493852D01*
X166758179Y-120437143D01*
X166754504Y-120367370D01*
X166789136Y-120306687D01*
X166798985Y-120298151D01*
X166881744Y-120233738D01*
X167050164Y-120050785D01*
X167186173Y-119842607D01*
X167286063Y-119614881D01*
X167347108Y-119373821D01*
X167349286Y-119347535D01*
X167367643Y-119126005D01*
X167367643Y-119125994D01*
X167347109Y-118878187D01*
X167347107Y-118878175D01*
X167286063Y-118637118D01*
X167186173Y-118409393D01*
X167050166Y-118201217D01*
X166975691Y-118120316D01*
X166881744Y-118018262D01*
X166798991Y-117953852D01*
X166758179Y-117897143D01*
X166754504Y-117827370D01*
X166789136Y-117766687D01*
X166798985Y-117758151D01*
X166881744Y-117693738D01*
X167050164Y-117510785D01*
X167186173Y-117302607D01*
X167286063Y-117074881D01*
X167347108Y-116833821D01*
X167354699Y-116742213D01*
X167367643Y-116586005D01*
X167367643Y-116585994D01*
X167347109Y-116338187D01*
X167347108Y-116338183D01*
X167347108Y-116338179D01*
X167330268Y-116271681D01*
X167285992Y-116096839D01*
X167288616Y-116027018D01*
X167318514Y-115978719D01*
X170548713Y-112748521D01*
X170548716Y-112748520D01*
X170660520Y-112636716D01*
X170660593Y-112636588D01*
X170660685Y-112636500D01*
X170665468Y-112630268D01*
X170666439Y-112631013D01*
X170711156Y-112588370D01*
X170712716Y-112587579D01*
X170717387Y-112585252D01*
X170717401Y-112585247D01*
X170906562Y-112468124D01*
X171070981Y-112318236D01*
X171205058Y-112140689D01*
X171304229Y-111941528D01*
X171365115Y-111727536D01*
X171385643Y-111506000D01*
X171385642Y-111505994D01*
X171365115Y-111284464D01*
X171365114Y-111284462D01*
X171357638Y-111258187D01*
X171304229Y-111070472D01*
X171291096Y-111044097D01*
X171205061Y-110871316D01*
X171205056Y-110871308D01*
X171070979Y-110693761D01*
X170906563Y-110543877D01*
X170906562Y-110543876D01*
X170839221Y-110502180D01*
X170792587Y-110450153D01*
X170780500Y-110396754D01*
X170780500Y-110329244D01*
X170800185Y-110262205D01*
X170839220Y-110223819D01*
X170906562Y-110182124D01*
X171070981Y-110032236D01*
X171205058Y-109854689D01*
X171304229Y-109655528D01*
X171365115Y-109441536D01*
X171385643Y-109220000D01*
X171385070Y-109213821D01*
X171365115Y-108998464D01*
X171365114Y-108998462D01*
X171363199Y-108991732D01*
X171304229Y-108784472D01*
X171304224Y-108784461D01*
X171205061Y-108585316D01*
X171205056Y-108585308D01*
X171070979Y-108407761D01*
X170906562Y-108257876D01*
X170906560Y-108257874D01*
X170717404Y-108140754D01*
X170717398Y-108140752D01*
X170687721Y-108129255D01*
X170509940Y-108060382D01*
X170291243Y-108019500D01*
X170068757Y-108019500D01*
X169850060Y-108060382D01*
X169775461Y-108089282D01*
X169642601Y-108140752D01*
X169642595Y-108140754D01*
X169453439Y-108257874D01*
X169453437Y-108257876D01*
X169289020Y-108407761D01*
X169154943Y-108585308D01*
X169154938Y-108585316D01*
X169055775Y-108784461D01*
X169055769Y-108784476D01*
X168994885Y-108998462D01*
X168994884Y-108998464D01*
X168974357Y-109219999D01*
X168974357Y-109220000D01*
X168994884Y-109441535D01*
X168994885Y-109441537D01*
X169055769Y-109655523D01*
X169055775Y-109655538D01*
X169154938Y-109854683D01*
X169154943Y-109854691D01*
X169289020Y-110032238D01*
X169453433Y-110182120D01*
X169453435Y-110182121D01*
X169453438Y-110182124D01*
X169520778Y-110223818D01*
X169567412Y-110275843D01*
X169579500Y-110329244D01*
X169579500Y-110396754D01*
X169559815Y-110463793D01*
X169520778Y-110502181D01*
X169453436Y-110543877D01*
X169289020Y-110693761D01*
X169154943Y-110871308D01*
X169154938Y-110871316D01*
X169055775Y-111070461D01*
X169055769Y-111070476D01*
X168994885Y-111284462D01*
X168994884Y-111284464D01*
X168974357Y-111505999D01*
X168974357Y-111506000D01*
X168994884Y-111727535D01*
X168994885Y-111727537D01*
X169055769Y-111941523D01*
X169055775Y-111941538D01*
X169154938Y-112140683D01*
X169154943Y-112140691D01*
X169220339Y-112227289D01*
X169245031Y-112292651D01*
X169230466Y-112360985D01*
X169209066Y-112389697D01*
X167570974Y-114027789D01*
X167509651Y-114061274D01*
X167439959Y-114056290D01*
X167384026Y-114014418D01*
X167359717Y-113950350D01*
X167347108Y-113798179D01*
X167341758Y-113777051D01*
X167286063Y-113557118D01*
X167186173Y-113329393D01*
X167050166Y-113121217D01*
X167028557Y-113097744D01*
X166881744Y-112938262D01*
X166798991Y-112873852D01*
X166758179Y-112817143D01*
X166754504Y-112747370D01*
X166789136Y-112686687D01*
X166798985Y-112678151D01*
X166881744Y-112613738D01*
X167050164Y-112430785D01*
X167186173Y-112222607D01*
X167286063Y-111994881D01*
X167347108Y-111753821D01*
X167348070Y-111742213D01*
X167367643Y-111506005D01*
X167367643Y-111505994D01*
X167347109Y-111258187D01*
X167347107Y-111258175D01*
X167286063Y-111017118D01*
X167186173Y-110789393D01*
X167050166Y-110581217D01*
X166950854Y-110473336D01*
X166881744Y-110398262D01*
X166798991Y-110333852D01*
X166758179Y-110277143D01*
X166754504Y-110207370D01*
X166789136Y-110146687D01*
X166798985Y-110138151D01*
X166881744Y-110073738D01*
X167050164Y-109890785D01*
X167186173Y-109682607D01*
X167286063Y-109454881D01*
X167347108Y-109213821D01*
X167364953Y-108998464D01*
X167367643Y-108966005D01*
X167367643Y-108965994D01*
X167347109Y-108718187D01*
X167347107Y-108718175D01*
X167286063Y-108477118D01*
X167186173Y-108249393D01*
X167050166Y-108041217D01*
X166966197Y-107950003D01*
X166881744Y-107858262D01*
X166798991Y-107793852D01*
X166758179Y-107737143D01*
X166754504Y-107667370D01*
X166789136Y-107606687D01*
X166798985Y-107598151D01*
X166881744Y-107533738D01*
X167050164Y-107350785D01*
X167186173Y-107142607D01*
X167286063Y-106914881D01*
X167347108Y-106673821D01*
X167347109Y-106673812D01*
X167367643Y-106426005D01*
X167367643Y-106425994D01*
X167347109Y-106178187D01*
X167347107Y-106178175D01*
X167286063Y-105937118D01*
X167186173Y-105709393D01*
X167050166Y-105501217D01*
X167028557Y-105477744D01*
X166881744Y-105318262D01*
X166798991Y-105253852D01*
X166758179Y-105197143D01*
X166754504Y-105127370D01*
X166789136Y-105066687D01*
X166798985Y-105058151D01*
X166881744Y-104993738D01*
X167050164Y-104810785D01*
X167186173Y-104602607D01*
X167286063Y-104374881D01*
X167347108Y-104133821D01*
X167348675Y-104114910D01*
X167367643Y-103886005D01*
X167367643Y-103885994D01*
X167347109Y-103638187D01*
X167347107Y-103638175D01*
X167286063Y-103397118D01*
X167186173Y-103169393D01*
X167050166Y-102961217D01*
X167028557Y-102937744D01*
X166881744Y-102778262D01*
X166798991Y-102713852D01*
X166758179Y-102657143D01*
X166754504Y-102587370D01*
X166789136Y-102526687D01*
X166798985Y-102518151D01*
X166881744Y-102453738D01*
X167050164Y-102270785D01*
X167186173Y-102062607D01*
X167286063Y-101834881D01*
X167345544Y-101599999D01*
X168974357Y-101599999D01*
X168974357Y-101600000D01*
X168994884Y-101821535D01*
X168994885Y-101821537D01*
X169055769Y-102035523D01*
X169055775Y-102035538D01*
X169154938Y-102234683D01*
X169154943Y-102234691D01*
X169289020Y-102412238D01*
X169453437Y-102562123D01*
X169453439Y-102562125D01*
X169642595Y-102679245D01*
X169642596Y-102679245D01*
X169642599Y-102679247D01*
X169850060Y-102759618D01*
X170068757Y-102800500D01*
X170068759Y-102800500D01*
X170291241Y-102800500D01*
X170291243Y-102800500D01*
X170509940Y-102759618D01*
X170717401Y-102679247D01*
X170906562Y-102562124D01*
X171046282Y-102434751D01*
X171070979Y-102412238D01*
X171079844Y-102400500D01*
X171205058Y-102234689D01*
X171304229Y-102035528D01*
X171365115Y-101821536D01*
X171385643Y-101600000D01*
X171385070Y-101593821D01*
X171365115Y-101378464D01*
X171365114Y-101378462D01*
X171356285Y-101347432D01*
X171304229Y-101164472D01*
X171304224Y-101164461D01*
X171205061Y-100965316D01*
X171205056Y-100965308D01*
X171070979Y-100787761D01*
X170906562Y-100637876D01*
X170906560Y-100637874D01*
X170717404Y-100520754D01*
X170717398Y-100520752D01*
X170509940Y-100440382D01*
X170291243Y-100399500D01*
X170068757Y-100399500D01*
X169850060Y-100440382D01*
X169718864Y-100491207D01*
X169642601Y-100520752D01*
X169642595Y-100520754D01*
X169453439Y-100637874D01*
X169453437Y-100637876D01*
X169289020Y-100787761D01*
X169154943Y-100965308D01*
X169154938Y-100965316D01*
X169055775Y-101164461D01*
X169055769Y-101164476D01*
X168994885Y-101378462D01*
X168994884Y-101378464D01*
X168974357Y-101599999D01*
X167345544Y-101599999D01*
X167347108Y-101593821D01*
X167350399Y-101554103D01*
X167367643Y-101346005D01*
X167367643Y-101345994D01*
X167347109Y-101098187D01*
X167347107Y-101098175D01*
X167286063Y-100857118D01*
X167186173Y-100629393D01*
X167050166Y-100421217D01*
X166975781Y-100340414D01*
X166881744Y-100238262D01*
X166798991Y-100173852D01*
X166758179Y-100117143D01*
X166754504Y-100047370D01*
X166789136Y-99986687D01*
X166798985Y-99978151D01*
X166881744Y-99913738D01*
X167050164Y-99730785D01*
X167186173Y-99522607D01*
X167286063Y-99294881D01*
X167347108Y-99053821D01*
X167351559Y-99000106D01*
X167367643Y-98806005D01*
X167367643Y-98805994D01*
X167347109Y-98558187D01*
X167347107Y-98558175D01*
X167286063Y-98317118D01*
X167186173Y-98089393D01*
X167050166Y-97881217D01*
X166942720Y-97764500D01*
X166881744Y-97698262D01*
X166798991Y-97633852D01*
X166758179Y-97577143D01*
X166754504Y-97507370D01*
X166789136Y-97446687D01*
X166798985Y-97438151D01*
X166881744Y-97373738D01*
X167050164Y-97190785D01*
X167186173Y-96982607D01*
X167286063Y-96754881D01*
X167347108Y-96513821D01*
X167353268Y-96439485D01*
X167367643Y-96266005D01*
X167367643Y-96265994D01*
X167347109Y-96018187D01*
X167347107Y-96018175D01*
X167286063Y-95777118D01*
X167186173Y-95549393D01*
X167050166Y-95341217D01*
X166966197Y-95250003D01*
X166881744Y-95158262D01*
X166798991Y-95093852D01*
X166758179Y-95037143D01*
X166754504Y-94967370D01*
X166789136Y-94906687D01*
X166798985Y-94898151D01*
X166881744Y-94833738D01*
X167050164Y-94650785D01*
X167186173Y-94442607D01*
X167286063Y-94214881D01*
X167347108Y-93973821D01*
X167348891Y-93952306D01*
X167367643Y-93726005D01*
X167367643Y-93725994D01*
X167347109Y-93478187D01*
X167347107Y-93478175D01*
X167286063Y-93237118D01*
X167186173Y-93009393D01*
X167050166Y-92801217D01*
X166986642Y-92732212D01*
X166881744Y-92618262D01*
X166798991Y-92553852D01*
X166758179Y-92497143D01*
X166754504Y-92427370D01*
X166789136Y-92366687D01*
X166798985Y-92358151D01*
X166881744Y-92293738D01*
X167050164Y-92110785D01*
X167186173Y-91902607D01*
X167286063Y-91674881D01*
X167347108Y-91433821D01*
X167359717Y-91281647D01*
X167384870Y-91216466D01*
X167441271Y-91175227D01*
X167511015Y-91171029D01*
X167570973Y-91204208D01*
X171707979Y-95341215D01*
X175808191Y-99441427D01*
X175841676Y-99502750D01*
X175842983Y-99548506D01*
X175816500Y-99715713D01*
X175816500Y-99928286D01*
X175839895Y-100076000D01*
X175849754Y-100138243D01*
X175907457Y-100315835D01*
X175915444Y-100340414D01*
X176011951Y-100529820D01*
X176136890Y-100701786D01*
X176287209Y-100852105D01*
X176287214Y-100852109D01*
X176452218Y-100971991D01*
X176494884Y-101027320D01*
X176500863Y-101096934D01*
X176468258Y-101158729D01*
X176452218Y-101172627D01*
X176287540Y-101292272D01*
X176287535Y-101292276D01*
X176137276Y-101442535D01*
X176137272Y-101442540D01*
X176012379Y-101614442D01*
X175915904Y-101803782D01*
X175850242Y-102005870D01*
X175850242Y-102005873D01*
X175839769Y-102072000D01*
X176887854Y-102072000D01*
X176849370Y-102138657D01*
X176817000Y-102259465D01*
X176817000Y-102384535D01*
X176849370Y-102505343D01*
X176887854Y-102572000D01*
X175839769Y-102572000D01*
X175850242Y-102638126D01*
X175850242Y-102638129D01*
X175915904Y-102840217D01*
X176012379Y-103029557D01*
X176137272Y-103201459D01*
X176137276Y-103201464D01*
X176287535Y-103351723D01*
X176287540Y-103351727D01*
X176459442Y-103476620D01*
X176648782Y-103573095D01*
X176850872Y-103638757D01*
X177042000Y-103669029D01*
X177042000Y-102726145D01*
X177108657Y-102764630D01*
X177229465Y-102797000D01*
X177354535Y-102797000D01*
X177475343Y-102764630D01*
X177542000Y-102726145D01*
X177542000Y-103669028D01*
X177733127Y-103638757D01*
X177935217Y-103573095D01*
X178124557Y-103476620D01*
X178296459Y-103351727D01*
X178296464Y-103351723D01*
X178446723Y-103201464D01*
X178446727Y-103201459D01*
X178571620Y-103029557D01*
X178668095Y-102840217D01*
X178733757Y-102638129D01*
X178733757Y-102638126D01*
X178744231Y-102572000D01*
X177696146Y-102572000D01*
X177734630Y-102505343D01*
X177767000Y-102384535D01*
X177767000Y-102259465D01*
X177734630Y-102138657D01*
X177696146Y-102072000D01*
X178744231Y-102072000D01*
X178733757Y-102005873D01*
X178733757Y-102005870D01*
X178668095Y-101803782D01*
X178571620Y-101614442D01*
X178446727Y-101442540D01*
X178446723Y-101442535D01*
X178296464Y-101292276D01*
X178296459Y-101292272D01*
X178131781Y-101172627D01*
X178089115Y-101117297D01*
X178083136Y-101047684D01*
X178115741Y-100985889D01*
X178131776Y-100971994D01*
X178296792Y-100852104D01*
X178447104Y-100701792D01*
X178447106Y-100701788D01*
X178447109Y-100701786D01*
X178572048Y-100529820D01*
X178572047Y-100529820D01*
X178572051Y-100529816D01*
X178668557Y-100340412D01*
X178734246Y-100138243D01*
X178767500Y-99928287D01*
X178767500Y-99715713D01*
X178734246Y-99505757D01*
X178668557Y-99303588D01*
X178572051Y-99114184D01*
X178572049Y-99114181D01*
X178572048Y-99114179D01*
X178447109Y-98942213D01*
X178296792Y-98791896D01*
X178132204Y-98672316D01*
X178089540Y-98616989D01*
X178083561Y-98547376D01*
X178116166Y-98485580D01*
X178132199Y-98471686D01*
X178296792Y-98352104D01*
X178447104Y-98201792D01*
X178447106Y-98201788D01*
X178447109Y-98201786D01*
X178567206Y-98036485D01*
X178572051Y-98029816D01*
X178668557Y-97840412D01*
X178734246Y-97638243D01*
X178767500Y-97428287D01*
X178767500Y-97215713D01*
X178734246Y-97005757D01*
X178668557Y-96803588D01*
X178572051Y-96614184D01*
X178572049Y-96614181D01*
X178572048Y-96614179D01*
X178447109Y-96442213D01*
X178308294Y-96303398D01*
X178274809Y-96242075D01*
X178279793Y-96172383D01*
X178321665Y-96116450D01*
X178330879Y-96110178D01*
X178336331Y-96106814D01*
X178336334Y-96106814D01*
X178485656Y-96014712D01*
X178609712Y-95890656D01*
X178701814Y-95741334D01*
X178756999Y-95574797D01*
X178767500Y-95472009D01*
X178767499Y-94171992D01*
X178756999Y-94069203D01*
X178701814Y-93902666D01*
X178609712Y-93753344D01*
X178485656Y-93629288D01*
X178336334Y-93537186D01*
X178169797Y-93482001D01*
X178169795Y-93482000D01*
X178067010Y-93471500D01*
X176516998Y-93471500D01*
X176516981Y-93471501D01*
X176414203Y-93482000D01*
X176414200Y-93482001D01*
X176247668Y-93537185D01*
X176247663Y-93537187D01*
X176098342Y-93629289D01*
X175974289Y-93753342D01*
X175882187Y-93902663D01*
X175882185Y-93902668D01*
X175854349Y-93986670D01*
X175827001Y-94069203D01*
X175827001Y-94069204D01*
X175827000Y-94069204D01*
X175816500Y-94171983D01*
X175816500Y-94911903D01*
X175796815Y-94978942D01*
X175744011Y-95024697D01*
X175674853Y-95034641D01*
X175611297Y-95005616D01*
X175604819Y-94999584D01*
X167318516Y-86713281D01*
X167285031Y-86651958D01*
X167285992Y-86595159D01*
X167286061Y-86594884D01*
X167286063Y-86594881D01*
X167347108Y-86353821D01*
X167347109Y-86353812D01*
X167367643Y-86106005D01*
X167367643Y-86105994D01*
X167347109Y-85858187D01*
X167347107Y-85858175D01*
X167286063Y-85617118D01*
X167186173Y-85389393D01*
X167050166Y-85181217D01*
X167028557Y-85157744D01*
X166881744Y-84998262D01*
X166798991Y-84933852D01*
X166758179Y-84877143D01*
X166754504Y-84807370D01*
X166789136Y-84746687D01*
X166798985Y-84738151D01*
X166881744Y-84673738D01*
X167050164Y-84490785D01*
X167186173Y-84282607D01*
X167286063Y-84054881D01*
X167347108Y-83813821D01*
X167356949Y-83695057D01*
X167367643Y-83566005D01*
X167367643Y-83565994D01*
X167347109Y-83318187D01*
X167347107Y-83318175D01*
X167286063Y-83077118D01*
X167186173Y-82849393D01*
X167050166Y-82641217D01*
X167028557Y-82617744D01*
X166881744Y-82458262D01*
X166798991Y-82393852D01*
X166758179Y-82337143D01*
X166754504Y-82267370D01*
X166789136Y-82206687D01*
X166798985Y-82198151D01*
X166881744Y-82133738D01*
X167050164Y-81950785D01*
X167186173Y-81742607D01*
X167286063Y-81514881D01*
X167347108Y-81273821D01*
X167347260Y-81271992D01*
X167367643Y-81026005D01*
X167367643Y-81025994D01*
X167347109Y-80778187D01*
X167347107Y-80778175D01*
X167286063Y-80537118D01*
X167186173Y-80309393D01*
X167050166Y-80101217D01*
X167028557Y-80077744D01*
X166881744Y-79918262D01*
X166798991Y-79853852D01*
X166758179Y-79797143D01*
X166754504Y-79727370D01*
X166789136Y-79666687D01*
X166798985Y-79658151D01*
X166881744Y-79593738D01*
X167050164Y-79410785D01*
X167186173Y-79202607D01*
X167286063Y-78974881D01*
X167347108Y-78733821D01*
X167347771Y-78725820D01*
X167367643Y-78486005D01*
X167367643Y-78485994D01*
X167347109Y-78238187D01*
X167347107Y-78238175D01*
X167286063Y-77997118D01*
X167186173Y-77769393D01*
X167050166Y-77561217D01*
X166993432Y-77499588D01*
X166881744Y-77378262D01*
X166798991Y-77313852D01*
X166758179Y-77257143D01*
X166754504Y-77187370D01*
X166789136Y-77126687D01*
X166798985Y-77118151D01*
X166881744Y-77053738D01*
X167050164Y-76870785D01*
X167055284Y-76862949D01*
X167092374Y-76806178D01*
X167186173Y-76662607D01*
X167286063Y-76434881D01*
X167347108Y-76193821D01*
X167367643Y-75946000D01*
X167363159Y-75891890D01*
X167347109Y-75698187D01*
X167347107Y-75698175D01*
X167286063Y-75457118D01*
X167186173Y-75229393D01*
X167050166Y-75021217D01*
X166975781Y-74940414D01*
X166881744Y-74838262D01*
X166778253Y-74757712D01*
X166737442Y-74701003D01*
X166730655Y-74652176D01*
X166732056Y-74629609D01*
X165999575Y-73897128D01*
X166058853Y-73881245D01*
X166175147Y-73814102D01*
X166270102Y-73719147D01*
X166337245Y-73602853D01*
X166353127Y-73543575D01*
X167085434Y-74275882D01*
X167185731Y-74122369D01*
X167285587Y-73894717D01*
X167346612Y-73653738D01*
X167346614Y-73653729D01*
X167367141Y-73406005D01*
X167367141Y-73405994D01*
X167346614Y-73158270D01*
X167346612Y-73158261D01*
X167285587Y-72917282D01*
X167185731Y-72689630D01*
X167085434Y-72536116D01*
X166353127Y-73268423D01*
X166337245Y-73209147D01*
X166270102Y-73092853D01*
X166175147Y-72997898D01*
X166058853Y-72930755D01*
X165999575Y-72914872D01*
X166732056Y-72182390D01*
X166730655Y-72159825D01*
X166746147Y-72091694D01*
X166778250Y-72054290D01*
X166881744Y-71973738D01*
X167050164Y-71790785D01*
X167186173Y-71582607D01*
X167286063Y-71354881D01*
X167347108Y-71113821D01*
X167359717Y-70961647D01*
X167384870Y-70896466D01*
X167441271Y-70855227D01*
X167511015Y-70851029D01*
X167570974Y-70884209D01*
G37*
%TD.AperFunction*%
%TA.AperFunction,Conductor*%
G36*
X163088942Y-66406185D02*
G01*
X163109584Y-66422819D01*
X164405482Y-67718717D01*
X164438967Y-67780040D01*
X164438007Y-67836838D01*
X164376892Y-68078174D01*
X164376890Y-68078187D01*
X164356357Y-68325994D01*
X164356357Y-68326005D01*
X164376890Y-68573812D01*
X164376892Y-68573824D01*
X164437936Y-68814881D01*
X164537826Y-69042606D01*
X164673833Y-69250782D01*
X164673836Y-69250785D01*
X164842256Y-69433738D01*
X164925008Y-69498147D01*
X164965821Y-69554857D01*
X164969496Y-69624630D01*
X164934864Y-69685313D01*
X164925014Y-69693848D01*
X164866400Y-69739469D01*
X164842257Y-69758261D01*
X164673833Y-69941217D01*
X164537826Y-70149393D01*
X164437936Y-70377118D01*
X164376892Y-70618175D01*
X164376890Y-70618187D01*
X164356357Y-70865994D01*
X164356357Y-70866005D01*
X164376890Y-71113812D01*
X164376892Y-71113824D01*
X164437936Y-71354881D01*
X164537826Y-71582606D01*
X164673833Y-71790782D01*
X164673836Y-71790785D01*
X164842256Y-71973738D01*
X164842259Y-71973740D01*
X164842262Y-71973743D01*
X164945743Y-72054286D01*
X164986556Y-72110996D01*
X164993343Y-72159823D01*
X164991941Y-72182389D01*
X165724424Y-72914871D01*
X165665147Y-72930755D01*
X165548853Y-72997898D01*
X165453898Y-73092853D01*
X165386755Y-73209147D01*
X165370872Y-73268424D01*
X164638564Y-72536116D01*
X164538267Y-72689632D01*
X164438412Y-72917282D01*
X164377387Y-73158261D01*
X164377385Y-73158270D01*
X164356859Y-73405994D01*
X164356859Y-73406005D01*
X164377385Y-73653729D01*
X164377387Y-73653738D01*
X164438412Y-73894717D01*
X164538266Y-74122364D01*
X164638564Y-74275882D01*
X165370871Y-73543575D01*
X165386755Y-73602853D01*
X165453898Y-73719147D01*
X165548853Y-73814102D01*
X165665147Y-73881245D01*
X165724424Y-73897128D01*
X164991942Y-74629609D01*
X164993343Y-74652177D01*
X164977850Y-74720307D01*
X164945744Y-74757713D01*
X164842258Y-74838260D01*
X164673833Y-75021217D01*
X164537826Y-75229393D01*
X164437936Y-75457118D01*
X164376892Y-75698175D01*
X164376890Y-75698187D01*
X164356357Y-75945994D01*
X164356357Y-75946005D01*
X164376890Y-76193812D01*
X164376892Y-76193824D01*
X164437936Y-76434881D01*
X164537826Y-76662606D01*
X164673833Y-76870782D01*
X164673836Y-76870785D01*
X164842256Y-77053738D01*
X164925008Y-77118147D01*
X164965821Y-77174857D01*
X164969496Y-77244630D01*
X164934864Y-77305313D01*
X164925014Y-77313848D01*
X164866400Y-77359469D01*
X164842257Y-77378261D01*
X164673833Y-77561217D01*
X164537826Y-77769393D01*
X164437936Y-77997118D01*
X164376892Y-78238175D01*
X164376890Y-78238187D01*
X164356357Y-78485994D01*
X164356357Y-78486005D01*
X164376890Y-78733812D01*
X164376892Y-78733824D01*
X164436861Y-78970632D01*
X164437937Y-78974881D01*
X164457373Y-79019191D01*
X164466276Y-79088489D01*
X164436299Y-79151601D01*
X164376960Y-79188489D01*
X164343817Y-79193000D01*
X158608440Y-79193000D01*
X158541401Y-79173315D01*
X158520759Y-79156681D01*
X158490262Y-79126184D01*
X158337523Y-79030211D01*
X158167254Y-78970631D01*
X158167249Y-78970630D01*
X157988004Y-78950435D01*
X157987996Y-78950435D01*
X157808750Y-78970630D01*
X157808745Y-78970631D01*
X157638476Y-79030211D01*
X157485737Y-79126184D01*
X157358184Y-79253737D01*
X157262211Y-79406476D01*
X157202631Y-79576745D01*
X157202630Y-79576750D01*
X157182435Y-79755996D01*
X157182435Y-79756003D01*
X157202630Y-79935249D01*
X157202631Y-79935254D01*
X157262211Y-80105523D01*
X157277478Y-80129820D01*
X157358184Y-80258262D01*
X157485738Y-80385816D01*
X157638478Y-80481789D01*
X157796599Y-80537118D01*
X157808745Y-80541368D01*
X157808750Y-80541369D01*
X157987996Y-80561565D01*
X157988000Y-80561565D01*
X157988004Y-80561565D01*
X158167249Y-80541369D01*
X158167252Y-80541368D01*
X158167255Y-80541368D01*
X158337522Y-80481789D01*
X158490262Y-80385816D01*
X158520759Y-80355319D01*
X158582082Y-80321834D01*
X158608440Y-80319000D01*
X164307435Y-80319000D01*
X164374474Y-80338685D01*
X164395118Y-80355320D01*
X164420406Y-80380609D01*
X164453890Y-80441933D01*
X164448904Y-80511625D01*
X164446281Y-80518094D01*
X164437937Y-80537116D01*
X164437936Y-80537120D01*
X164376892Y-80778175D01*
X164376890Y-80778187D01*
X164356357Y-81025994D01*
X164356357Y-81026005D01*
X164376890Y-81273812D01*
X164376892Y-81273824D01*
X164437936Y-81514881D01*
X164537826Y-81742606D01*
X164673833Y-81950782D01*
X164673836Y-81950785D01*
X164842256Y-82133738D01*
X164925008Y-82198147D01*
X164965821Y-82254857D01*
X164969496Y-82324630D01*
X164934864Y-82385313D01*
X164925014Y-82393848D01*
X164866400Y-82439469D01*
X164842257Y-82458261D01*
X164673833Y-82641217D01*
X164537826Y-82849393D01*
X164437936Y-83077118D01*
X164376892Y-83318175D01*
X164376890Y-83318187D01*
X164356357Y-83565994D01*
X164356357Y-83566005D01*
X164376890Y-83813812D01*
X164376892Y-83813824D01*
X164437936Y-84054881D01*
X164537826Y-84282606D01*
X164673833Y-84490782D01*
X164673836Y-84490785D01*
X164842256Y-84673738D01*
X164925008Y-84738147D01*
X164965821Y-84794857D01*
X164969496Y-84864630D01*
X164934864Y-84925313D01*
X164925014Y-84933848D01*
X164866400Y-84979469D01*
X164842257Y-84998261D01*
X164673833Y-85181217D01*
X164537826Y-85389393D01*
X164437936Y-85617118D01*
X164376892Y-85858175D01*
X164376890Y-85858187D01*
X164356357Y-86105994D01*
X164356357Y-86106005D01*
X164376890Y-86353812D01*
X164376892Y-86353824D01*
X164437936Y-86594881D01*
X164537826Y-86822606D01*
X164673833Y-87030782D01*
X164673836Y-87030785D01*
X164842256Y-87213738D01*
X164925008Y-87278147D01*
X164965821Y-87334857D01*
X164969496Y-87404630D01*
X164934864Y-87465313D01*
X164925014Y-87473848D01*
X164884236Y-87505588D01*
X164842257Y-87538261D01*
X164673833Y-87721217D01*
X164537826Y-87929393D01*
X164437936Y-88157118D01*
X164376892Y-88398175D01*
X164376890Y-88398187D01*
X164356357Y-88645994D01*
X164356357Y-88646005D01*
X164376890Y-88893812D01*
X164376892Y-88893824D01*
X164437936Y-89134881D01*
X164537826Y-89362606D01*
X164673833Y-89570782D01*
X164673836Y-89570785D01*
X164842256Y-89753738D01*
X164925008Y-89818147D01*
X164965821Y-89874857D01*
X164969496Y-89944630D01*
X164934864Y-90005313D01*
X164925014Y-90013848D01*
X164866400Y-90059469D01*
X164842257Y-90078261D01*
X164673833Y-90261217D01*
X164537826Y-90469393D01*
X164437936Y-90697118D01*
X164376892Y-90938175D01*
X164376890Y-90938187D01*
X164356357Y-91185994D01*
X164356357Y-91186005D01*
X164376890Y-91433812D01*
X164376892Y-91433824D01*
X164437936Y-91674881D01*
X164537826Y-91902606D01*
X164673833Y-92110782D01*
X164673836Y-92110785D01*
X164842256Y-92293738D01*
X164925008Y-92358147D01*
X164965821Y-92414857D01*
X164969496Y-92484630D01*
X164934864Y-92545313D01*
X164925014Y-92553848D01*
X164871778Y-92595284D01*
X164842257Y-92618261D01*
X164673833Y-92801217D01*
X164537826Y-93009393D01*
X164437936Y-93237118D01*
X164376892Y-93478175D01*
X164376890Y-93478187D01*
X164356357Y-93725994D01*
X164356357Y-93726005D01*
X164376890Y-93973812D01*
X164376892Y-93973824D01*
X164437936Y-94214881D01*
X164537826Y-94442606D01*
X164673833Y-94650782D01*
X164673836Y-94650785D01*
X164842256Y-94833738D01*
X164925008Y-94898147D01*
X164965821Y-94954857D01*
X164969496Y-95024630D01*
X164934864Y-95085313D01*
X164925014Y-95093848D01*
X164866400Y-95139469D01*
X164842257Y-95158261D01*
X164673833Y-95341217D01*
X164537826Y-95549393D01*
X164437936Y-95777118D01*
X164376892Y-96018175D01*
X164376890Y-96018187D01*
X164356357Y-96265994D01*
X164356357Y-96266005D01*
X164376890Y-96513812D01*
X164376892Y-96513824D01*
X164437936Y-96754881D01*
X164537826Y-96982606D01*
X164673833Y-97190782D01*
X164673836Y-97190785D01*
X164842256Y-97373738D01*
X164925008Y-97438147D01*
X164965821Y-97494857D01*
X164969496Y-97564630D01*
X164934864Y-97625313D01*
X164925014Y-97633848D01*
X164866400Y-97679469D01*
X164842257Y-97698261D01*
X164673833Y-97881217D01*
X164537826Y-98089393D01*
X164437936Y-98317118D01*
X164376892Y-98558175D01*
X164376890Y-98558187D01*
X164356357Y-98805994D01*
X164356357Y-98806005D01*
X164376890Y-99053812D01*
X164376892Y-99053824D01*
X164437936Y-99294881D01*
X164537826Y-99522606D01*
X164673833Y-99730782D01*
X164673836Y-99730785D01*
X164842256Y-99913738D01*
X164925008Y-99978147D01*
X164965821Y-100034857D01*
X164969496Y-100104630D01*
X164934864Y-100165313D01*
X164925014Y-100173848D01*
X164895313Y-100196966D01*
X164842257Y-100238261D01*
X164673833Y-100421217D01*
X164537826Y-100629393D01*
X164437936Y-100857118D01*
X164376892Y-101098175D01*
X164376890Y-101098187D01*
X164356357Y-101345994D01*
X164356357Y-101346005D01*
X164376890Y-101593812D01*
X164376892Y-101593824D01*
X164437935Y-101834876D01*
X164437936Y-101834879D01*
X164437937Y-101834881D01*
X164446280Y-101853902D01*
X164455183Y-101923199D01*
X164425206Y-101986312D01*
X164420405Y-101991391D01*
X156775117Y-109636681D01*
X156713794Y-109670166D01*
X156687436Y-109673000D01*
X152140183Y-109673000D01*
X152073144Y-109653315D01*
X152027389Y-109600511D01*
X152017445Y-109531353D01*
X152026625Y-109499193D01*
X152046063Y-109454881D01*
X152107108Y-109213821D01*
X152124953Y-108998464D01*
X152127643Y-108966005D01*
X152127643Y-108965994D01*
X152107109Y-108718187D01*
X152107107Y-108718175D01*
X152046063Y-108477118D01*
X151946173Y-108249393D01*
X151810166Y-108041217D01*
X151726197Y-107950003D01*
X151641744Y-107858262D01*
X151558991Y-107793852D01*
X151518179Y-107737143D01*
X151514504Y-107667370D01*
X151549136Y-107606687D01*
X151558985Y-107598151D01*
X151641744Y-107533738D01*
X151810164Y-107350785D01*
X151946173Y-107142607D01*
X152046063Y-106914881D01*
X152107108Y-106673821D01*
X152107109Y-106673812D01*
X152127643Y-106426005D01*
X152127643Y-106425994D01*
X152107109Y-106178187D01*
X152107107Y-106178175D01*
X152046063Y-105937118D01*
X151992617Y-105815274D01*
X156572175Y-105815274D01*
X159958053Y-105815274D01*
X159958053Y-92789989D01*
X156572175Y-92789989D01*
X156572175Y-105815274D01*
X151992617Y-105815274D01*
X151946173Y-105709393D01*
X151810166Y-105501217D01*
X151788557Y-105477744D01*
X151641744Y-105318262D01*
X151558991Y-105253852D01*
X151518179Y-105197143D01*
X151514504Y-105127370D01*
X151549136Y-105066687D01*
X151558985Y-105058151D01*
X151641744Y-104993738D01*
X151810164Y-104810785D01*
X151946173Y-104602607D01*
X152046063Y-104374881D01*
X152107108Y-104133821D01*
X152108675Y-104114910D01*
X152127643Y-103886005D01*
X152127643Y-103885994D01*
X152107109Y-103638187D01*
X152107107Y-103638175D01*
X152046063Y-103397118D01*
X151946173Y-103169393D01*
X151810166Y-102961217D01*
X151788557Y-102937744D01*
X151641744Y-102778262D01*
X151558991Y-102713852D01*
X151518179Y-102657143D01*
X151514504Y-102587370D01*
X151549136Y-102526687D01*
X151558985Y-102518151D01*
X151641744Y-102453738D01*
X151810164Y-102270785D01*
X151946173Y-102062607D01*
X152046063Y-101834881D01*
X152107108Y-101593821D01*
X152110399Y-101554103D01*
X152127643Y-101346005D01*
X152127643Y-101345994D01*
X152107109Y-101098187D01*
X152107107Y-101098175D01*
X152046063Y-100857118D01*
X151946173Y-100629393D01*
X151810166Y-100421217D01*
X151735781Y-100340414D01*
X151641744Y-100238262D01*
X151558991Y-100173852D01*
X151518179Y-100117143D01*
X151514504Y-100047370D01*
X151549136Y-99986687D01*
X151558985Y-99978151D01*
X151641744Y-99913738D01*
X151810164Y-99730785D01*
X151946173Y-99522607D01*
X152046063Y-99294881D01*
X152107108Y-99053821D01*
X152111559Y-99000106D01*
X152127643Y-98806005D01*
X152127643Y-98805994D01*
X152107109Y-98558187D01*
X152107107Y-98558175D01*
X152046063Y-98317118D01*
X151946173Y-98089393D01*
X151810166Y-97881217D01*
X151702720Y-97764500D01*
X151641744Y-97698262D01*
X151558991Y-97633852D01*
X151518179Y-97577143D01*
X151514504Y-97507370D01*
X151549136Y-97446687D01*
X151558985Y-97438151D01*
X151641744Y-97373738D01*
X151810164Y-97190785D01*
X151946173Y-96982607D01*
X152046063Y-96754881D01*
X152107108Y-96513821D01*
X152113268Y-96439485D01*
X152127643Y-96266005D01*
X152127643Y-96265994D01*
X152107109Y-96018187D01*
X152107107Y-96018175D01*
X152046063Y-95777118D01*
X151946173Y-95549393D01*
X151810166Y-95341217D01*
X151726197Y-95250003D01*
X151641744Y-95158262D01*
X151558991Y-95093852D01*
X151518179Y-95037143D01*
X151514504Y-94967370D01*
X151549136Y-94906687D01*
X151558985Y-94898151D01*
X151641744Y-94833738D01*
X151810164Y-94650785D01*
X151946173Y-94442607D01*
X152046063Y-94214881D01*
X152107108Y-93973821D01*
X152108891Y-93952306D01*
X152127643Y-93726005D01*
X152127643Y-93725994D01*
X152107109Y-93478187D01*
X152107107Y-93478175D01*
X152046063Y-93237118D01*
X151946173Y-93009393D01*
X151810166Y-92801217D01*
X151746642Y-92732212D01*
X151641744Y-92618262D01*
X151558991Y-92553852D01*
X151518179Y-92497143D01*
X151514504Y-92427370D01*
X151549136Y-92366687D01*
X151558985Y-92358151D01*
X151641744Y-92293738D01*
X151810164Y-92110785D01*
X151946173Y-91902607D01*
X152046063Y-91674881D01*
X152107108Y-91433821D01*
X152107109Y-91433812D01*
X152127643Y-91186005D01*
X152127643Y-91185994D01*
X152107109Y-90938187D01*
X152107107Y-90938175D01*
X152046063Y-90697118D01*
X151946173Y-90469393D01*
X151810166Y-90261217D01*
X151731041Y-90175265D01*
X151641744Y-90078262D01*
X151558991Y-90013852D01*
X151518179Y-89957143D01*
X151514504Y-89887370D01*
X151549136Y-89826687D01*
X151558985Y-89818151D01*
X151641744Y-89753738D01*
X151810164Y-89570785D01*
X151946173Y-89362607D01*
X152046063Y-89134881D01*
X152107108Y-88893821D01*
X152108891Y-88872306D01*
X152127643Y-88646005D01*
X152127643Y-88645994D01*
X152107109Y-88398187D01*
X152107107Y-88398175D01*
X152046063Y-88157118D01*
X151946173Y-87929393D01*
X151810166Y-87721217D01*
X151788557Y-87697744D01*
X151641744Y-87538262D01*
X151558991Y-87473852D01*
X151518179Y-87417143D01*
X151514504Y-87347370D01*
X151549136Y-87286687D01*
X151558985Y-87278151D01*
X151641744Y-87213738D01*
X151810164Y-87030785D01*
X151946173Y-86822607D01*
X152046063Y-86594881D01*
X152107108Y-86353821D01*
X152107109Y-86353812D01*
X152127643Y-86106005D01*
X152127643Y-86105994D01*
X152107109Y-85858187D01*
X152107107Y-85858175D01*
X152046063Y-85617118D01*
X151946173Y-85389393D01*
X151810166Y-85181217D01*
X151788557Y-85157744D01*
X151641744Y-84998262D01*
X151558991Y-84933852D01*
X151518179Y-84877143D01*
X151514504Y-84807370D01*
X151549136Y-84746687D01*
X151558985Y-84738151D01*
X151641744Y-84673738D01*
X151810164Y-84490785D01*
X151946173Y-84282607D01*
X152046063Y-84054881D01*
X152107108Y-83813821D01*
X152116949Y-83695057D01*
X152127643Y-83566005D01*
X152127643Y-83565994D01*
X152107109Y-83318187D01*
X152107107Y-83318175D01*
X152046063Y-83077118D01*
X151946173Y-82849393D01*
X151810166Y-82641217D01*
X151788557Y-82617744D01*
X151641744Y-82458262D01*
X151558991Y-82393852D01*
X151518179Y-82337143D01*
X151514504Y-82267370D01*
X151549136Y-82206687D01*
X151558985Y-82198151D01*
X151641744Y-82133738D01*
X151810164Y-81950785D01*
X151946173Y-81742607D01*
X152046063Y-81514881D01*
X152107108Y-81273821D01*
X152107260Y-81271992D01*
X152127643Y-81026005D01*
X152127643Y-81025994D01*
X152107109Y-80778187D01*
X152107107Y-80778175D01*
X152046063Y-80537118D01*
X151946173Y-80309393D01*
X151810166Y-80101217D01*
X151788557Y-80077744D01*
X151641744Y-79918262D01*
X151558991Y-79853852D01*
X151518179Y-79797143D01*
X151514504Y-79727370D01*
X151549136Y-79666687D01*
X151558985Y-79658151D01*
X151641744Y-79593738D01*
X151810164Y-79410785D01*
X151946173Y-79202607D01*
X152046063Y-78974881D01*
X152107108Y-78733821D01*
X152107771Y-78725820D01*
X152127643Y-78486005D01*
X152127643Y-78485994D01*
X152107109Y-78238187D01*
X152107107Y-78238175D01*
X152046063Y-77997118D01*
X151946173Y-77769393D01*
X151810166Y-77561217D01*
X151753432Y-77499588D01*
X151641744Y-77378262D01*
X151558991Y-77313852D01*
X151518179Y-77257143D01*
X151514504Y-77187370D01*
X151549136Y-77126687D01*
X151558985Y-77118151D01*
X151641744Y-77053738D01*
X151810164Y-76870785D01*
X151815284Y-76862949D01*
X151852374Y-76806178D01*
X151946173Y-76662607D01*
X152046063Y-76434881D01*
X152107108Y-76193821D01*
X152127643Y-75946000D01*
X152123159Y-75891890D01*
X152107109Y-75698187D01*
X152107107Y-75698175D01*
X152046063Y-75457118D01*
X151946173Y-75229393D01*
X151810166Y-75021217D01*
X151735781Y-74940414D01*
X151641744Y-74838262D01*
X151558991Y-74773852D01*
X151518179Y-74717143D01*
X151514504Y-74647370D01*
X151549136Y-74586687D01*
X151558985Y-74578151D01*
X151641744Y-74513738D01*
X151810164Y-74330785D01*
X151946173Y-74122607D01*
X152046063Y-73894881D01*
X152107108Y-73653821D01*
X152107116Y-73653729D01*
X152127643Y-73406005D01*
X152127643Y-73405994D01*
X152107109Y-73158187D01*
X152107107Y-73158175D01*
X152046063Y-72917118D01*
X151946173Y-72689393D01*
X151810166Y-72481217D01*
X151704561Y-72366500D01*
X151641744Y-72298262D01*
X151558991Y-72233852D01*
X151518179Y-72177143D01*
X151514504Y-72107370D01*
X151549136Y-72046687D01*
X151558985Y-72038151D01*
X151641744Y-71973738D01*
X151810164Y-71790785D01*
X151946173Y-71582607D01*
X152046063Y-71354881D01*
X152107108Y-71113821D01*
X152125119Y-70896466D01*
X152127643Y-70866005D01*
X152127643Y-70865994D01*
X152107109Y-70618187D01*
X152107107Y-70618175D01*
X152046063Y-70377118D01*
X151946173Y-70149393D01*
X151810166Y-69941217D01*
X151788557Y-69917744D01*
X151641744Y-69758262D01*
X151558991Y-69693852D01*
X151518179Y-69637143D01*
X151514504Y-69567370D01*
X151549136Y-69506687D01*
X151558985Y-69498151D01*
X151641744Y-69433738D01*
X151810164Y-69250785D01*
X151946173Y-69042607D01*
X152046063Y-68814881D01*
X152107108Y-68573821D01*
X152107109Y-68573812D01*
X152127643Y-68326005D01*
X152127643Y-68325994D01*
X152107109Y-68078187D01*
X152107107Y-68078175D01*
X152046063Y-67837118D01*
X151946173Y-67609393D01*
X151810166Y-67401217D01*
X151788557Y-67377744D01*
X151641744Y-67218262D01*
X151445509Y-67065526D01*
X151445507Y-67065525D01*
X151445506Y-67065524D01*
X151226811Y-66947172D01*
X151226802Y-66947169D01*
X150991616Y-66866429D01*
X150746335Y-66825500D01*
X150497665Y-66825500D01*
X150252383Y-66866429D01*
X150017197Y-66947169D01*
X150017188Y-66947172D01*
X149798493Y-67065524D01*
X149602257Y-67218261D01*
X149433833Y-67401217D01*
X149297826Y-67609393D01*
X149197936Y-67837118D01*
X149136892Y-68078175D01*
X149136890Y-68078187D01*
X149116357Y-68325994D01*
X149116357Y-68326005D01*
X149136890Y-68573812D01*
X149136892Y-68573824D01*
X149197936Y-68814881D01*
X149297826Y-69042606D01*
X149433833Y-69250782D01*
X149433836Y-69250785D01*
X149602256Y-69433738D01*
X149685008Y-69498147D01*
X149725821Y-69554857D01*
X149729496Y-69624630D01*
X149694864Y-69685313D01*
X149685014Y-69693848D01*
X149626400Y-69739469D01*
X149602257Y-69758261D01*
X149433833Y-69941217D01*
X149297826Y-70149393D01*
X149197936Y-70377118D01*
X149136892Y-70618175D01*
X149136890Y-70618187D01*
X149116357Y-70865994D01*
X149116357Y-70866005D01*
X149136890Y-71113812D01*
X149136892Y-71113824D01*
X149197936Y-71354881D01*
X149297826Y-71582606D01*
X149433833Y-71790782D01*
X149433836Y-71790785D01*
X149602256Y-71973738D01*
X149685008Y-72038147D01*
X149725821Y-72094857D01*
X149729496Y-72164630D01*
X149694864Y-72225313D01*
X149685014Y-72233848D01*
X149670908Y-72244828D01*
X149602257Y-72298261D01*
X149433833Y-72481217D01*
X149297826Y-72689393D01*
X149197936Y-72917118D01*
X149136892Y-73158175D01*
X149136890Y-73158187D01*
X149116357Y-73405994D01*
X149116357Y-73406005D01*
X149136890Y-73653812D01*
X149136892Y-73653824D01*
X149197936Y-73894881D01*
X149297826Y-74122606D01*
X149433833Y-74330782D01*
X149433836Y-74330785D01*
X149602256Y-74513738D01*
X149685008Y-74578147D01*
X149725821Y-74634857D01*
X149729496Y-74704630D01*
X149694864Y-74765313D01*
X149685014Y-74773848D01*
X149626400Y-74819469D01*
X149602257Y-74838261D01*
X149433833Y-75021217D01*
X149297826Y-75229393D01*
X149197936Y-75457118D01*
X149136892Y-75698175D01*
X149136890Y-75698187D01*
X149116357Y-75945994D01*
X149116357Y-75946005D01*
X149136890Y-76193812D01*
X149136892Y-76193824D01*
X149198007Y-76435160D01*
X149195382Y-76504980D01*
X149165482Y-76553281D01*
X146872786Y-78845978D01*
X146760981Y-78957782D01*
X146760979Y-78957784D01*
X146736340Y-79000461D01*
X146725926Y-79018500D01*
X146681923Y-79094715D01*
X146640999Y-79247443D01*
X146640999Y-79247445D01*
X146640999Y-79415546D01*
X146641000Y-79415559D01*
X146641000Y-86505691D01*
X146621315Y-86572730D01*
X146568511Y-86618485D01*
X146499353Y-86628429D01*
X146435797Y-86599404D01*
X146429319Y-86593372D01*
X146355870Y-86519923D01*
X146355862Y-86519917D01*
X146214396Y-86436255D01*
X146214393Y-86436254D01*
X146056573Y-86390402D01*
X146056567Y-86390401D01*
X146019701Y-86387500D01*
X146019694Y-86387500D01*
X144713306Y-86387500D01*
X144713298Y-86387500D01*
X144676432Y-86390401D01*
X144676426Y-86390402D01*
X144518606Y-86436254D01*
X144518603Y-86436255D01*
X144377137Y-86519917D01*
X144377129Y-86519923D01*
X144260923Y-86636129D01*
X144260917Y-86636137D01*
X144177255Y-86777603D01*
X144177254Y-86777606D01*
X144131402Y-86935426D01*
X144131401Y-86935432D01*
X144128500Y-86972298D01*
X144128500Y-87299500D01*
X144108815Y-87366539D01*
X144056011Y-87412294D01*
X144004500Y-87423500D01*
X142212669Y-87423500D01*
X142212653Y-87423499D01*
X142205057Y-87423499D01*
X142046943Y-87423499D01*
X142039347Y-87423499D01*
X142039331Y-87423500D01*
X140585719Y-87423500D01*
X140518680Y-87403815D01*
X140475235Y-87355795D01*
X140455052Y-87316185D01*
X140455051Y-87316184D01*
X140330109Y-87144213D01*
X140179786Y-86993890D01*
X140007820Y-86868951D01*
X139996002Y-86862929D01*
X139860203Y-86793737D01*
X139809409Y-86745764D01*
X139792500Y-86683253D01*
X139792500Y-83396499D01*
X139812185Y-83329460D01*
X139864989Y-83283705D01*
X139916500Y-83272499D01*
X139967002Y-83272499D01*
X139967008Y-83272499D01*
X140069797Y-83261999D01*
X140236334Y-83206814D01*
X140385656Y-83114712D01*
X140509712Y-82990656D01*
X140601814Y-82841334D01*
X140656999Y-82674797D01*
X140667500Y-82572009D01*
X140667499Y-81271992D01*
X140656999Y-81169203D01*
X140601814Y-81002666D01*
X140509712Y-80853344D01*
X140385656Y-80729288D01*
X140236334Y-80637186D01*
X140236333Y-80637185D01*
X140230878Y-80633821D01*
X140184154Y-80581873D01*
X140172931Y-80512910D01*
X140200775Y-80448828D01*
X140208272Y-80440623D01*
X140347104Y-80301792D01*
X140472051Y-80129816D01*
X140568557Y-79940412D01*
X140634246Y-79738243D01*
X140667500Y-79528287D01*
X140667500Y-79315713D01*
X140634246Y-79105757D01*
X140568557Y-78903588D01*
X140472051Y-78714184D01*
X140472049Y-78714181D01*
X140472048Y-78714179D01*
X140347109Y-78542213D01*
X140196792Y-78391896D01*
X140196784Y-78391890D01*
X140032204Y-78272316D01*
X139989540Y-78216989D01*
X139983561Y-78147376D01*
X140016166Y-78085580D01*
X140032199Y-78071686D01*
X140196792Y-77952104D01*
X140347104Y-77801792D01*
X140347106Y-77801788D01*
X140347109Y-77801786D01*
X140472048Y-77629820D01*
X140472047Y-77629820D01*
X140472051Y-77629816D01*
X140568557Y-77440412D01*
X140634246Y-77238243D01*
X140667500Y-77028287D01*
X140667500Y-76815713D01*
X140634246Y-76605757D01*
X140568557Y-76403588D01*
X140472051Y-76214184D01*
X140472049Y-76214181D01*
X140472048Y-76214179D01*
X140347109Y-76042213D01*
X140196792Y-75891896D01*
X140196784Y-75891890D01*
X140032204Y-75772316D01*
X139989540Y-75716989D01*
X139983561Y-75647376D01*
X140016166Y-75585580D01*
X140032199Y-75571686D01*
X140196792Y-75452104D01*
X140347104Y-75301792D01*
X140347106Y-75301788D01*
X140347109Y-75301786D01*
X140472048Y-75129820D01*
X140472047Y-75129820D01*
X140472051Y-75129816D01*
X140568557Y-74940412D01*
X140634246Y-74738243D01*
X140667500Y-74528287D01*
X140667500Y-74315713D01*
X140634246Y-74105757D01*
X140568557Y-73903588D01*
X140472051Y-73714184D01*
X140472049Y-73714181D01*
X140472048Y-73714179D01*
X140347109Y-73542213D01*
X140196786Y-73391890D01*
X140024820Y-73266951D01*
X139835414Y-73170444D01*
X139835413Y-73170443D01*
X139835412Y-73170443D01*
X139633243Y-73104754D01*
X139633241Y-73104753D01*
X139633240Y-73104753D01*
X139471957Y-73079208D01*
X139423287Y-73071500D01*
X138960713Y-73071500D01*
X138912042Y-73079208D01*
X138750760Y-73104753D01*
X138750757Y-73104754D01*
X138586053Y-73158270D01*
X138548585Y-73170444D01*
X138359179Y-73266951D01*
X138187213Y-73391890D01*
X138036890Y-73542213D01*
X137911951Y-73714179D01*
X137815444Y-73903585D01*
X137749753Y-74105760D01*
X137716500Y-74315713D01*
X137716500Y-74528286D01*
X137743855Y-74701003D01*
X137749754Y-74738243D01*
X137791912Y-74867992D01*
X137815444Y-74940414D01*
X137911951Y-75129820D01*
X138036890Y-75301786D01*
X138187209Y-75452105D01*
X138187214Y-75452109D01*
X138351793Y-75571682D01*
X138394459Y-75627011D01*
X138400438Y-75696625D01*
X138367833Y-75758420D01*
X138351793Y-75772318D01*
X138187214Y-75891890D01*
X138187209Y-75891894D01*
X138036890Y-76042213D01*
X137911951Y-76214179D01*
X137815444Y-76403585D01*
X137749753Y-76605760D01*
X137716500Y-76815713D01*
X137716500Y-77028286D01*
X137747739Y-77225526D01*
X137749754Y-77238243D01*
X137771546Y-77305313D01*
X137815444Y-77440414D01*
X137911951Y-77629820D01*
X138036890Y-77801786D01*
X138187209Y-77952105D01*
X138187214Y-77952109D01*
X138351793Y-78071682D01*
X138394459Y-78127011D01*
X138400438Y-78196625D01*
X138367833Y-78258420D01*
X138351793Y-78272318D01*
X138187214Y-78391890D01*
X138187209Y-78391894D01*
X138036890Y-78542213D01*
X137911951Y-78714179D01*
X137815444Y-78903585D01*
X137749753Y-79105760D01*
X137716074Y-79318402D01*
X137686145Y-79381537D01*
X137626833Y-79418468D01*
X137556971Y-79417470D01*
X137505920Y-79386685D01*
X136780819Y-78661584D01*
X136747334Y-78600261D01*
X136744500Y-78573903D01*
X136744500Y-72690097D01*
X136764185Y-72623058D01*
X136780819Y-72602416D01*
X137626416Y-71756819D01*
X137687739Y-71723334D01*
X137714097Y-71720500D01*
X141391331Y-71720500D01*
X141391347Y-71720501D01*
X141398943Y-71720501D01*
X141557054Y-71720501D01*
X141557057Y-71720501D01*
X141709785Y-71679577D01*
X141759904Y-71650639D01*
X141846716Y-71600520D01*
X141958520Y-71488716D01*
X141958520Y-71488714D01*
X141968728Y-71478507D01*
X141968729Y-71478504D01*
X147024416Y-66422819D01*
X147085739Y-66389334D01*
X147112097Y-66386500D01*
X163021903Y-66386500D01*
X163088942Y-66406185D01*
G37*
%TD.AperFunction*%
%TD*%
M02*
