%TF.GenerationSoftware,KiCad,Pcbnew,8.0.2-1*%
%TF.CreationDate,2024-10-23T15:46:43-04:00*%
%TF.ProjectId,Airbrake_ComputeBoard,41697262-7261-46b6-955f-436f6d707574,rev?*%
%TF.SameCoordinates,Original*%
%TF.FileFunction,Copper,L1,Top*%
%TF.FilePolarity,Positive*%
%FSLAX46Y46*%
G04 Gerber Fmt 4.6, Leading zero omitted, Abs format (unit mm)*
G04 Created by KiCad (PCBNEW 8.0.2-1) date 2024-10-23 15:46:43*
%MOMM*%
%LPD*%
G01*
G04 APERTURE LIST*
G04 Aperture macros list*
%AMRoundRect*
0 Rectangle with rounded corners*
0 $1 Rounding radius*
0 $2 $3 $4 $5 $6 $7 $8 $9 X,Y pos of 4 corners*
0 Add a 4 corners polygon primitive as box body*
4,1,4,$2,$3,$4,$5,$6,$7,$8,$9,$2,$3,0*
0 Add four circle primitives for the rounded corners*
1,1,$1+$1,$2,$3*
1,1,$1+$1,$4,$5*
1,1,$1+$1,$6,$7*
1,1,$1+$1,$8,$9*
0 Add four rect primitives between the rounded corners*
20,1,$1+$1,$2,$3,$4,$5,0*
20,1,$1+$1,$4,$5,$6,$7,0*
20,1,$1+$1,$6,$7,$8,$9,0*
20,1,$1+$1,$8,$9,$2,$3,0*%
G04 Aperture macros list end*
%ADD10C,0.300000*%
%TA.AperFunction,NonConductor*%
%ADD11C,0.300000*%
%TD*%
%TA.AperFunction,SMDPad,CuDef*%
%ADD12RoundRect,0.250000X-0.350000X-0.450000X0.350000X-0.450000X0.350000X0.450000X-0.350000X0.450000X0*%
%TD*%
%TA.AperFunction,ComponentPad*%
%ADD13RoundRect,0.250000X0.600000X0.725000X-0.600000X0.725000X-0.600000X-0.725000X0.600000X-0.725000X0*%
%TD*%
%TA.AperFunction,ComponentPad*%
%ADD14O,1.700000X1.950000*%
%TD*%
%TA.AperFunction,ComponentPad*%
%ADD15C,2.000000*%
%TD*%
%TA.AperFunction,ComponentPad*%
%ADD16R,2.000000X2.000000*%
%TD*%
%TA.AperFunction,SMDPad,CuDef*%
%ADD17RoundRect,0.250000X0.350000X0.450000X-0.350000X0.450000X-0.350000X-0.450000X0.350000X-0.450000X0*%
%TD*%
%TA.AperFunction,ComponentPad*%
%ADD18C,1.524000*%
%TD*%
%TA.AperFunction,ComponentPad*%
%ADD19RoundRect,0.250000X-0.725000X0.600000X-0.725000X-0.600000X0.725000X-0.600000X0.725000X0.600000X0*%
%TD*%
%TA.AperFunction,ComponentPad*%
%ADD20O,1.950000X1.700000*%
%TD*%
%TA.AperFunction,ComponentPad*%
%ADD21RoundRect,0.250000X0.750000X-0.600000X0.750000X0.600000X-0.750000X0.600000X-0.750000X-0.600000X0*%
%TD*%
%TA.AperFunction,ComponentPad*%
%ADD22O,2.000000X1.700000*%
%TD*%
%TA.AperFunction,SMDPad,CuDef*%
%ADD23RoundRect,0.150000X-0.587500X-0.150000X0.587500X-0.150000X0.587500X0.150000X-0.587500X0.150000X0*%
%TD*%
%TA.AperFunction,ComponentPad*%
%ADD24RoundRect,0.250000X0.725000X-0.600000X0.725000X0.600000X-0.725000X0.600000X-0.725000X-0.600000X0*%
%TD*%
%TA.AperFunction,ViaPad*%
%ADD25C,0.600000*%
%TD*%
%TA.AperFunction,Conductor*%
%ADD26C,0.500000*%
%TD*%
%TA.AperFunction,Conductor*%
%ADD27C,0.200000*%
%TD*%
%TA.AperFunction,Conductor*%
%ADD28C,0.100000*%
%TD*%
G04 APERTURE END LIST*
D10*
D11*
X160860828Y-105069774D02*
X160860828Y-104212632D01*
X162360828Y-104641203D02*
X160860828Y-104641203D01*
X162289400Y-103141203D02*
X162360828Y-103284060D01*
X162360828Y-103284060D02*
X162360828Y-103569775D01*
X162360828Y-103569775D02*
X162289400Y-103712632D01*
X162289400Y-103712632D02*
X162146542Y-103784060D01*
X162146542Y-103784060D02*
X161575114Y-103784060D01*
X161575114Y-103784060D02*
X161432257Y-103712632D01*
X161432257Y-103712632D02*
X161360828Y-103569775D01*
X161360828Y-103569775D02*
X161360828Y-103284060D01*
X161360828Y-103284060D02*
X161432257Y-103141203D01*
X161432257Y-103141203D02*
X161575114Y-103069775D01*
X161575114Y-103069775D02*
X161717971Y-103069775D01*
X161717971Y-103069775D02*
X161860828Y-103784060D01*
X162289400Y-101855489D02*
X162360828Y-101998346D01*
X162360828Y-101998346D02*
X162360828Y-102284061D01*
X162360828Y-102284061D02*
X162289400Y-102426918D01*
X162289400Y-102426918D02*
X162146542Y-102498346D01*
X162146542Y-102498346D02*
X161575114Y-102498346D01*
X161575114Y-102498346D02*
X161432257Y-102426918D01*
X161432257Y-102426918D02*
X161360828Y-102284061D01*
X161360828Y-102284061D02*
X161360828Y-101998346D01*
X161360828Y-101998346D02*
X161432257Y-101855489D01*
X161432257Y-101855489D02*
X161575114Y-101784061D01*
X161575114Y-101784061D02*
X161717971Y-101784061D01*
X161717971Y-101784061D02*
X161860828Y-102498346D01*
X161360828Y-101141204D02*
X162360828Y-101141204D01*
X161503685Y-101141204D02*
X161432257Y-101069775D01*
X161432257Y-101069775D02*
X161360828Y-100926918D01*
X161360828Y-100926918D02*
X161360828Y-100712632D01*
X161360828Y-100712632D02*
X161432257Y-100569775D01*
X161432257Y-100569775D02*
X161575114Y-100498347D01*
X161575114Y-100498347D02*
X162360828Y-100498347D01*
X162289400Y-99855489D02*
X162360828Y-99712632D01*
X162360828Y-99712632D02*
X162360828Y-99426918D01*
X162360828Y-99426918D02*
X162289400Y-99284061D01*
X162289400Y-99284061D02*
X162146542Y-99212632D01*
X162146542Y-99212632D02*
X162075114Y-99212632D01*
X162075114Y-99212632D02*
X161932257Y-99284061D01*
X161932257Y-99284061D02*
X161860828Y-99426918D01*
X161860828Y-99426918D02*
X161860828Y-99641204D01*
X161860828Y-99641204D02*
X161789400Y-99784061D01*
X161789400Y-99784061D02*
X161646542Y-99855489D01*
X161646542Y-99855489D02*
X161575114Y-99855489D01*
X161575114Y-99855489D02*
X161432257Y-99784061D01*
X161432257Y-99784061D02*
X161360828Y-99641204D01*
X161360828Y-99641204D02*
X161360828Y-99426918D01*
X161360828Y-99426918D02*
X161432257Y-99284061D01*
X161360828Y-98712632D02*
X162360828Y-98355489D01*
X161360828Y-97998346D02*
X162360828Y-98355489D01*
X162360828Y-98355489D02*
X162717971Y-98498346D01*
X162717971Y-98498346D02*
X162789400Y-98569775D01*
X162789400Y-98569775D02*
X162860828Y-98712632D01*
X161360828Y-95641204D02*
X162360828Y-95641204D01*
X160789400Y-95998346D02*
X161860828Y-96355489D01*
X161860828Y-96355489D02*
X161860828Y-95426918D01*
X162217971Y-94855490D02*
X162289400Y-94784061D01*
X162289400Y-94784061D02*
X162360828Y-94855490D01*
X162360828Y-94855490D02*
X162289400Y-94926918D01*
X162289400Y-94926918D02*
X162217971Y-94855490D01*
X162217971Y-94855490D02*
X162360828Y-94855490D01*
X162360828Y-93355489D02*
X162360828Y-94212632D01*
X162360828Y-93784061D02*
X160860828Y-93784061D01*
X160860828Y-93784061D02*
X161075114Y-93926918D01*
X161075114Y-93926918D02*
X161217971Y-94069775D01*
X161217971Y-94069775D02*
X161289400Y-94212632D01*
D12*
%TO.P,R9,1*%
%TO.N,+3.3V*%
X145050000Y-73025000D03*
%TO.P,R9,2*%
%TO.N,Net-(Q4-B)*%
X147050000Y-73025000D03*
%TD*%
D13*
%TO.P,BlueRaven1,1,Pin_1*%
%TO.N,/usb_5v*%
X156170000Y-131826000D03*
D14*
%TO.P,BlueRaven1,2,Pin_2*%
%TO.N,/D-*%
X153670000Y-131826000D03*
%TO.P,BlueRaven1,3,Pin_3*%
%TO.N,/D+*%
X151170000Y-131826000D03*
%TO.P,BlueRaven1,4,Pin_4*%
%TO.N,GND*%
X148670000Y-131826000D03*
%TO.P,BlueRaven1,5,Pin_5*%
X146170000Y-131826000D03*
%TD*%
D15*
%TO.P,Teensy4.1,0,GND*%
%TO.N,GND*%
X157226000Y-66294000D03*
%TO.P,Teensy4.1,1,RX1*%
%TO.N,unconnected-(Teensy4.1-RX1-Pad1)*%
X157226000Y-68834000D03*
%TO.P,Teensy4.1,2,TX1*%
%TO.N,unconnected-(Teensy4.1-TX1-Pad2)*%
X157226000Y-71374000D03*
%TO.P,Teensy4.1,3,PWM*%
%TO.N,/SV*%
X157226000Y-73914000D03*
%TO.P,Teensy4.1,4,PWM*%
%TO.N,/BK*%
X157226000Y-76454000D03*
%TO.P,Teensy4.1,5,PWM*%
%TO.N,/Stop*%
X157226000Y-78994000D03*
%TO.P,Teensy4.1,6,PWM*%
%TO.N,/Dir*%
X157226000Y-81534000D03*
%TO.P,Teensy4.1,7,PWM*%
%TO.N,unconnected-(Teensy4.1-PWM-Pad7)*%
X157226000Y-84074000D03*
%TO.P,Teensy4.1,8,RX2*%
%TO.N,unconnected-(Teensy4.1-RX2-Pad8)*%
X157226000Y-86614000D03*
%TO.P,Teensy4.1,9,TX2*%
%TO.N,unconnected-(Teensy4.1-TX2-Pad9)*%
X157226000Y-89154000D03*
%TO.P,Teensy4.1,10,PWM*%
%TO.N,unconnected-(Teensy4.1-PWM-Pad10)*%
X157226000Y-91694000D03*
%TO.P,Teensy4.1,11,CS*%
%TO.N,/CS*%
X157226000Y-94234000D03*
%TO.P,Teensy4.1,12,MOSI*%
%TO.N,/MOSI*%
X157226000Y-96774000D03*
%TO.P,Teensy4.1,13,MISO*%
%TO.N,/MISO*%
X157226000Y-99314000D03*
%TO.P,Teensy4.1,14,3.3V*%
%TO.N,unconnected-(Teensy4.1-3.3V-Pad14)*%
X157226000Y-101854000D03*
%TO.P,Teensy4.1,15,SCL2*%
%TO.N,unconnected-(Teensy4.1-SCL2-Pad15)*%
X157226000Y-104394000D03*
%TO.P,Teensy4.1,16,SDA2*%
%TO.N,unconnected-(Teensy4.1-SDA2-Pad16)*%
X157226000Y-106934000D03*
%TO.P,Teensy4.1,17,MOSI1*%
%TO.N,unconnected-(Teensy4.1-MOSI1-Pad17)*%
X157226000Y-109474000D03*
%TO.P,Teensy4.1,18,SCK1*%
%TO.N,unconnected-(Teensy4.1-SCK1-Pad18)*%
X157226000Y-112014000D03*
%TO.P,Teensy4.1,19,RX7*%
%TO.N,unconnected-(Teensy4.1-RX7-Pad19)*%
X157226000Y-114554000D03*
%TO.P,Teensy4.1,20,TX7*%
%TO.N,unconnected-(Teensy4.1-TX7-Pad20)*%
X157226000Y-117094000D03*
%TO.P,Teensy4.1,21,GPIO*%
%TO.N,unconnected-(Teensy4.1-GPIO-Pad21)*%
X157226000Y-119634000D03*
%TO.P,Teensy4.1,22,GPIO*%
%TO.N,unconnected-(Teensy4.1-GPIO-Pad22)*%
X157226000Y-122174000D03*
%TO.P,Teensy4.1,23,GPIO*%
%TO.N,unconnected-(Teensy4.1-GPIO-Pad23)*%
X157226000Y-124714000D03*
%TO.P,Teensy4.1,24,PWM*%
%TO.N,unconnected-(Teensy4.1-PWM-Pad24)*%
X172466000Y-124714000D03*
%TO.P,Teensy4.1,25,RX8*%
%TO.N,unconnected-(Teensy4.1-RX8-Pad25)*%
X172466000Y-122174000D03*
%TO.P,Teensy4.1,26,TX8*%
%TO.N,unconnected-(Teensy4.1-TX8-Pad26)*%
X172466000Y-119634000D03*
%TO.P,Teensy4.1,27,PWM*%
%TO.N,/Encoder_A*%
X172466000Y-117094000D03*
%TO.P,Teensy4.1,28,PWM*%
%TO.N,/Encoder_B*%
X172466000Y-114554000D03*
%TO.P,Teensy4.1,29,CS1*%
%TO.N,unconnected-(Teensy4.1-CS1-Pad29)*%
X172466000Y-112014000D03*
%TO.P,Teensy4.1,30,MISO*%
%TO.N,unconnected-(Teensy4.1-MISO-Pad30)*%
X172466000Y-109474000D03*
%TO.P,Teensy4.1,31,A16*%
%TO.N,unconnected-(Teensy4.1-A16-Pad31)*%
X172466000Y-106934000D03*
%TO.P,Teensy4.1,32,A17*%
%TO.N,unconnected-(Teensy4.1-A17-Pad32)*%
X172466000Y-104394000D03*
%TO.P,Teensy4.1,33,GND*%
%TO.N,unconnected-(Teensy4.1-GND-Pad33)*%
X172466000Y-101854000D03*
%TO.P,Teensy4.1,34,SCK*%
%TO.N,/SCK*%
X172466000Y-99314000D03*
%TO.P,Teensy4.1,35,A0*%
%TO.N,unconnected-(Teensy4.1-A0-Pad35)*%
X172466000Y-96774000D03*
%TO.P,Teensy4.1,36,A1*%
%TO.N,unconnected-(Teensy4.1-A1-Pad36)*%
X172466000Y-94234000D03*
%TO.P,Teensy4.1,37,A2*%
%TO.N,unconnected-(Teensy4.1-A2-Pad37)*%
X172466000Y-91694000D03*
%TO.P,Teensy4.1,38,A3*%
%TO.N,unconnected-(Teensy4.1-A3-Pad38)*%
X172466000Y-89154000D03*
%TO.P,Teensy4.1,39,SDA*%
%TO.N,/SDA*%
X172466000Y-86614000D03*
%TO.P,Teensy4.1,40,SCL*%
%TO.N,/SCL*%
X172466000Y-84074000D03*
%TO.P,Teensy4.1,41,TX5*%
%TO.N,/BR-RX*%
X172466000Y-81534000D03*
%TO.P,Teensy4.1,42,RX5*%
%TO.N,/BR-TX*%
X172466000Y-78994000D03*
%TO.P,Teensy4.1,43,PWM*%
%TO.N,unconnected-(Teensy4.1-PWM-Pad43)*%
X172466000Y-76454000D03*
%TO.P,Teensy4.1,44,PWM*%
%TO.N,/buzzer*%
X172466000Y-73914000D03*
%TO.P,Teensy4.1,45,3.3V*%
%TO.N,+3.3V*%
X172466000Y-71374000D03*
%TO.P,Teensy4.1,46,GND*%
%TO.N,GND*%
X172466000Y-68834000D03*
%TO.P,Teensy4.1,47,Vin*%
%TO.N,+5V*%
X172466000Y-66294000D03*
%TO.P,Teensy4.1,48,usb_5v*%
%TO.N,/usb_5v*%
X160276000Y-72644000D03*
%TO.P,Teensy4.1,49,usb_D-*%
%TO.N,/D-*%
X160276000Y-75184000D03*
%TO.P,Teensy4.1,50,usb_D+*%
%TO.N,/D+*%
X160276000Y-77724000D03*
%TO.P,Teensy4.1,51,GND*%
%TO.N,GND*%
X160276000Y-80264000D03*
%TO.P,Teensy4.1,52,GND*%
X160276000Y-82804000D03*
%TD*%
D16*
%TO.P,BZ1,1,+*%
%TO.N,/buzzer*%
X150368000Y-122418000D03*
D15*
%TO.P,BZ1,2,-*%
%TO.N,GND*%
X150368000Y-114818000D03*
%TD*%
D17*
%TO.P,R2,1*%
%TO.N,+3.3V*%
X177800000Y-125476000D03*
%TO.P,R2,2*%
%TO.N,/SDA*%
X175800000Y-125476000D03*
%TD*%
D12*
%TO.P,R10,1*%
%TO.N,+5V*%
X145050000Y-70485000D03*
%TO.P,R10,2*%
%TO.N,Net-(MotorDriver1-Pin_5)*%
X147050000Y-70485000D03*
%TD*%
%TO.P,R7,1*%
%TO.N,+3.3V*%
X145050000Y-78105000D03*
%TO.P,R7,2*%
%TO.N,Net-(Q3-B)*%
X147050000Y-78105000D03*
%TD*%
D18*
%TO.P,Buck_Converter1,0,EN*%
%TO.N,unconnected-(Buck_Converter1-EN-Pad0)*%
X138938000Y-109220000D03*
%TO.P,Buck_Converter1,1,VIN*%
%TO.N,Net-(Buck_Converter1-VIN)*%
X141478000Y-109220000D03*
%TO.P,Buck_Converter1,2,GND*%
%TO.N,GND*%
X144018000Y-109220000D03*
%TO.P,Buck_Converter1,3,VO*%
%TO.N,+5V*%
X146558000Y-109220000D03*
%TD*%
D19*
%TO.P,VN-100-1,1,Pin_1*%
%TO.N,+5V*%
X178054000Y-75518000D03*
D20*
%TO.P,VN-100-1,2,Pin_2*%
%TO.N,/MOSI*%
X178054000Y-78018000D03*
%TO.P,VN-100-1,3,Pin_3*%
%TO.N,/MISO*%
X178054000Y-80518000D03*
%TO.P,VN-100-1,4,Pin_4*%
%TO.N,/SCK*%
X178054000Y-83018000D03*
%TO.P,VN-100-1,5,Pin_5*%
%TO.N,/CS*%
X178054000Y-85518000D03*
%TO.P,VN-100-1,6,Pin_6*%
%TO.N,GND*%
X178054000Y-88018000D03*
%TD*%
D21*
%TO.P,PowerSwitch1,1,Pin_1*%
%TO.N,Net-(Buck_Converter1-VIN)*%
X139937000Y-116058000D03*
D22*
%TO.P,PowerSwitch1,2,Pin_2*%
%TO.N,Net-(Battery1-Pin_1)*%
X139937000Y-113558000D03*
%TD*%
D19*
%TO.P,SensorBoard1,1,Pin_1*%
%TO.N,GND*%
X177546000Y-109260000D03*
D20*
%TO.P,SensorBoard1,2,Pin_2*%
%TO.N,/SCL*%
X177546000Y-111760000D03*
%TO.P,SensorBoard1,3,Pin_3*%
%TO.N,/SDA*%
X177546000Y-114260000D03*
%TO.P,SensorBoard1,4,Pin_4*%
%TO.N,+3.3V*%
X177546000Y-116760000D03*
%TD*%
D23*
%TO.P,Q4,1,B*%
%TO.N,Net-(Q4-B)*%
X149636000Y-72832000D03*
%TO.P,Q4,2,E*%
%TO.N,Net-(MotorDriver1-Pin_5)*%
X151511000Y-71882000D03*
%TO.P,Q4,3,C*%
%TO.N,/SV*%
X149636000Y-70932000D03*
%TD*%
D24*
%TO.P,MotorDriver1,1,Pin_1*%
%TO.N,GND*%
X138938000Y-86828000D03*
D20*
%TO.P,MotorDriver1,2,Pin_2*%
%TO.N,Net-(MotorDriver1-Pin_2)*%
X138938000Y-84328000D03*
%TO.P,MotorDriver1,3,Pin_3*%
%TO.N,Net-(MotorDriver1-Pin_3)*%
X138938000Y-81828000D03*
%TO.P,MotorDriver1,4,Pin_4*%
%TO.N,Net-(MotorDriver1-Pin_4)*%
X138938000Y-79328000D03*
%TO.P,MotorDriver1,5,Pin_5*%
%TO.N,Net-(MotorDriver1-Pin_5)*%
X138938000Y-76828000D03*
%TO.P,MotorDriver1,6,Pin_6*%
%TO.N,+5V*%
X138938000Y-74328000D03*
%TD*%
D12*
%TO.P,R8,1*%
%TO.N,+5V*%
X145050000Y-75565000D03*
%TO.P,R8,2*%
%TO.N,Net-(MotorDriver1-Pin_4)*%
X147050000Y-75565000D03*
%TD*%
D19*
%TO.P,MotorEncoder1,1,Pin_1*%
%TO.N,GND*%
X177309000Y-94802000D03*
D20*
%TO.P,MotorEncoder1,2,Pin_2*%
%TO.N,/Encoder_A*%
X177309000Y-97302000D03*
%TO.P,MotorEncoder1,3,Pin_3*%
%TO.N,+5V*%
X177309000Y-99802000D03*
%TO.P,MotorEncoder1,4,Pin_4*%
%TO.N,/Encoder_B*%
X177309000Y-102302000D03*
%TD*%
D23*
%TO.P,Q3,1,B*%
%TO.N,Net-(Q3-B)*%
X149714500Y-77912000D03*
%TO.P,Q3,2,E*%
%TO.N,Net-(MotorDriver1-Pin_4)*%
X151589500Y-76962000D03*
%TO.P,Q3,3,C*%
%TO.N,/BK*%
X149714500Y-76012000D03*
%TD*%
D17*
%TO.P,R1,1*%
%TO.N,/SCL*%
X178054000Y-121412000D03*
%TO.P,R1,2*%
%TO.N,+3.3V*%
X176054000Y-121412000D03*
%TD*%
D23*
%TO.P,Q1,1,B*%
%TO.N,Net-(Q1-B)*%
X149557500Y-89215000D03*
%TO.P,Q1,2,E*%
%TO.N,GND*%
X151432500Y-88265000D03*
%TO.P,Q1,3,C*%
%TO.N,Net-(MotorDriver1-Pin_2)*%
X149557500Y-87315000D03*
%TD*%
D12*
%TO.P,R6,1*%
%TO.N,+5V*%
X145050000Y-82550000D03*
%TO.P,R6,2*%
%TO.N,Net-(MotorDriver1-Pin_3)*%
X147050000Y-82550000D03*
%TD*%
%TO.P,R4,1*%
%TO.N,+5V*%
X145050000Y-85725000D03*
%TO.P,R4,2*%
%TO.N,Net-(MotorDriver1-Pin_2)*%
X147050000Y-85725000D03*
%TD*%
D17*
%TO.P,R3,1*%
%TO.N,/Dir*%
X151495000Y-91440000D03*
%TO.P,R3,2*%
%TO.N,Net-(Q1-B)*%
X149495000Y-91440000D03*
%TD*%
D21*
%TO.P,Battery1,1,Pin_1*%
%TO.N,Net-(Battery1-Pin_1)*%
X139683000Y-124694000D03*
D22*
%TO.P,Battery1,2,Pin_2*%
%TO.N,GND*%
X139683000Y-122194000D03*
%TD*%
D17*
%TO.P,R5,1*%
%TO.N,/Stop*%
X151495000Y-84455000D03*
%TO.P,R5,2*%
%TO.N,Net-(Q2-B)*%
X149495000Y-84455000D03*
%TD*%
D23*
%TO.P,Q2,1,B*%
%TO.N,Net-(Q2-B)*%
X149636000Y-82484000D03*
%TO.P,Q2,2,E*%
%TO.N,GND*%
X151511000Y-81534000D03*
%TO.P,Q2,3,C*%
%TO.N,Net-(MotorDriver1-Pin_3)*%
X149636000Y-80584000D03*
%TD*%
D25*
%TO.N,+5V*%
X143510000Y-82550000D03*
X143510000Y-76200000D03*
%TO.N,GND*%
X153035000Y-87630000D03*
X153670000Y-81280000D03*
%TO.N,/CS*%
X168910000Y-85598000D03*
X166370000Y-87630000D03*
%TO.N,/buzzer*%
X166116000Y-127508000D03*
%TD*%
D26*
%TO.N,Net-(Battery1-Pin_1)*%
X137160000Y-116335000D02*
X139937000Y-113558000D01*
X137160000Y-122171000D02*
X137160000Y-116335000D01*
X139683000Y-124694000D02*
X137160000Y-122171000D01*
D27*
%TO.N,/usb_5v*%
X165354000Y-124714000D02*
X165354000Y-73914000D01*
X156170000Y-131826000D02*
X158242000Y-131826000D01*
X164084000Y-72644000D02*
X160276000Y-72644000D01*
X165354000Y-73914000D02*
X164084000Y-72644000D01*
X158242000Y-131826000D02*
X165354000Y-124714000D01*
%TO.N,/D+*%
X163322000Y-77724000D02*
X160276000Y-77724000D01*
X163830000Y-124206000D02*
X163830000Y-78232000D01*
X163830000Y-78232000D02*
X163322000Y-77724000D01*
X159004000Y-129032000D02*
X163830000Y-124206000D01*
X153964000Y-129032000D02*
X159004000Y-129032000D01*
X151170000Y-131826000D02*
X153964000Y-129032000D01*
%TO.N,/D-*%
X159512000Y-129794000D02*
X164592000Y-124714000D01*
X163830000Y-75184000D02*
X160276000Y-75184000D01*
X164592000Y-75946000D02*
X163830000Y-75184000D01*
X155702000Y-129794000D02*
X159512000Y-129794000D01*
X153670000Y-131826000D02*
X155702000Y-129794000D01*
X164592000Y-124714000D02*
X164592000Y-75946000D01*
%TO.N,+5V*%
X145050000Y-75565000D02*
X144145000Y-75565000D01*
X179832000Y-91186000D02*
X176530000Y-91186000D01*
X180594000Y-78058000D02*
X180594000Y-90424000D01*
D26*
X142781000Y-70485000D02*
X138938000Y-74328000D01*
X145050000Y-70485000D02*
X142781000Y-70485000D01*
D27*
X180594000Y-90424000D02*
X179832000Y-91186000D01*
X176530000Y-91186000D02*
X175514000Y-92202000D01*
X177018000Y-99802000D02*
X177309000Y-99802000D01*
X175514000Y-92202000D02*
X175514000Y-98298000D01*
X175514000Y-98298000D02*
X177018000Y-99802000D01*
X178054000Y-71882000D02*
X178054000Y-75518000D01*
X145050000Y-85725000D02*
X145050000Y-82550000D01*
X145050000Y-82550000D02*
X143510000Y-82550000D01*
D26*
X171016000Y-64844000D02*
X172466000Y-66294000D01*
D27*
X172466000Y-66294000D02*
X178054000Y-71882000D01*
D26*
X145050000Y-70485000D02*
X150691000Y-64844000D01*
D27*
X178054000Y-75518000D02*
X180594000Y-78058000D01*
D26*
X150691000Y-64844000D02*
X171016000Y-64844000D01*
D27*
X144145000Y-75565000D02*
X143510000Y-76200000D01*
%TO.N,/BK*%
X149714500Y-76012000D02*
X156784000Y-76012000D01*
X156784000Y-76012000D02*
X157226000Y-76454000D01*
%TO.N,/SV*%
X154244000Y-70932000D02*
X157226000Y-73914000D01*
X149636000Y-70932000D02*
X154244000Y-70932000D01*
%TO.N,/SDA*%
X175154000Y-116652000D02*
X177546000Y-114260000D01*
X175800000Y-125476000D02*
X175154000Y-124830000D01*
X175154000Y-124830000D02*
X175154000Y-116652000D01*
%TO.N,+3.3V*%
X142510000Y-80645000D02*
X136525000Y-80645000D01*
X144675315Y-73025000D02*
X139595315Y-78105000D01*
X139595315Y-78105000D02*
X136525000Y-78105000D01*
X145050000Y-78105000D02*
X142510000Y-80645000D01*
X145050000Y-73025000D02*
X144675315Y-73025000D01*
%TO.N,/SCL*%
X178821000Y-119883000D02*
X180594000Y-118110000D01*
X180594000Y-118110000D02*
X180594000Y-114808000D01*
X178821000Y-120645000D02*
X178821000Y-119883000D01*
X180594000Y-114808000D02*
X177546000Y-111760000D01*
X178054000Y-121412000D02*
X178821000Y-120645000D01*
%TO.N,GND*%
X153416000Y-81534000D02*
X153670000Y-81280000D01*
X152400000Y-88265000D02*
X153035000Y-87630000D01*
X151511000Y-81534000D02*
X153416000Y-81534000D01*
X151432500Y-88265000D02*
X152400000Y-88265000D01*
%TO.N,/SCK*%
X174498000Y-87322654D02*
X174498000Y-97282000D01*
X178054000Y-83018000D02*
X178054000Y-83766654D01*
X178054000Y-83766654D02*
X174498000Y-87322654D01*
X174498000Y-97282000D02*
X172466000Y-99314000D01*
D26*
%TO.N,Net-(Buck_Converter1-VIN)*%
X141986000Y-114009000D02*
X141986000Y-109728000D01*
X139937000Y-116058000D02*
X141986000Y-114009000D01*
X141986000Y-109728000D02*
X141478000Y-109220000D01*
D27*
%TO.N,Net-(MotorDriver1-Pin_3)*%
X139216000Y-81550000D02*
X138938000Y-81828000D01*
X146050000Y-81550000D02*
X139216000Y-81550000D01*
X149636000Y-80584000D02*
X148381000Y-80584000D01*
X147050000Y-82550000D02*
X146050000Y-81550000D01*
X148381000Y-80584000D02*
X147050000Y-81915000D01*
%TO.N,Net-(MotorDriver1-Pin_2)*%
X141335000Y-86725000D02*
X138938000Y-84328000D01*
X149557500Y-87315000D02*
X148640000Y-87315000D01*
X147050000Y-85725000D02*
X146050000Y-86725000D01*
X146050000Y-86725000D02*
X141335000Y-86725000D01*
X148640000Y-87315000D02*
X147050000Y-85725000D01*
D28*
%TO.N,/CS*%
X166878000Y-87630000D02*
X166370000Y-87630000D01*
X168910000Y-85598000D02*
X166878000Y-87630000D01*
D27*
%TO.N,/buzzer*%
X166116000Y-127508000D02*
X165770000Y-127162000D01*
X165770000Y-127162000D02*
X165770000Y-80610000D01*
X165770000Y-80610000D02*
X172466000Y-73914000D01*
%TO.N,Net-(MotorDriver1-Pin_5)*%
X147050000Y-71612000D02*
X147320000Y-71882000D01*
X147320000Y-71882000D02*
X143884000Y-71882000D01*
X147050000Y-70485000D02*
X147050000Y-71612000D01*
X143884000Y-71882000D02*
X138938000Y-76828000D01*
X151511000Y-71882000D02*
X147320000Y-71882000D01*
%TO.N,Net-(MotorDriver1-Pin_4)*%
X147320000Y-76962000D02*
X141304000Y-76962000D01*
X147955000Y-76962000D02*
X147320000Y-76962000D01*
X151589500Y-76962000D02*
X147955000Y-76962000D01*
X141304000Y-76962000D02*
X138938000Y-79328000D01*
X147050000Y-76692000D02*
X147320000Y-76962000D01*
X147050000Y-75565000D02*
X147050000Y-76692000D01*
%TO.N,/Encoder_A*%
X172466000Y-117094000D02*
X175768000Y-113792000D01*
X175768000Y-113792000D02*
X175768000Y-106426000D01*
X178816000Y-103378000D02*
X178816000Y-98809000D01*
X178816000Y-98809000D02*
X177309000Y-97302000D01*
X175768000Y-106426000D02*
X178816000Y-103378000D01*
%TO.N,/Encoder_B*%
X174752000Y-112268000D02*
X174752000Y-104859000D01*
X174752000Y-104859000D02*
X177309000Y-102302000D01*
X172466000Y-114554000D02*
X174752000Y-112268000D01*
%TO.N,/Dir*%
X151495000Y-91440000D02*
X155926000Y-87009000D01*
X155926000Y-82834000D02*
X157226000Y-81534000D01*
X155926000Y-87009000D02*
X155926000Y-82834000D01*
%TO.N,/Stop*%
X157226000Y-78994000D02*
X151765000Y-84455000D01*
X151765000Y-84455000D02*
X151495000Y-84455000D01*
%TO.N,Net-(Q1-B)*%
X149495000Y-91440000D02*
X149495000Y-89277500D01*
X149495000Y-89277500D02*
X149557500Y-89215000D01*
%TO.N,Net-(Q2-B)*%
X149495000Y-82625000D02*
X149636000Y-82484000D01*
X149495000Y-84455000D02*
X149495000Y-82625000D01*
%TO.N,Net-(Q3-B)*%
X147243000Y-77912000D02*
X147050000Y-78105000D01*
X149714500Y-77912000D02*
X147243000Y-77912000D01*
%TO.N,Net-(Q4-B)*%
X149636000Y-72832000D02*
X147243000Y-72832000D01*
X147243000Y-72832000D02*
X147050000Y-73025000D01*
%TD*%
%TA.AperFunction,Conductor*%
%TO.N,+3.3V*%
G36*
X150042808Y-64218185D02*
G01*
X150088563Y-64270989D01*
X150098507Y-64340147D01*
X150069482Y-64403703D01*
X150063450Y-64410181D01*
X145225449Y-69248181D01*
X145164126Y-69281666D01*
X145137768Y-69284500D01*
X144649998Y-69284500D01*
X144649980Y-69284501D01*
X144547203Y-69295000D01*
X144547200Y-69295001D01*
X144380668Y-69350185D01*
X144380663Y-69350187D01*
X144231342Y-69442289D01*
X144107289Y-69566342D01*
X144039901Y-69675597D01*
X143987953Y-69722321D01*
X143934362Y-69734500D01*
X142707076Y-69734500D01*
X142678242Y-69740234D01*
X142678243Y-69740235D01*
X142562093Y-69763339D01*
X142562083Y-69763342D01*
X142482081Y-69796479D01*
X142482082Y-69796480D01*
X142425502Y-69819917D01*
X142376269Y-69852813D01*
X142302588Y-69902044D01*
X142302580Y-69902050D01*
X139263332Y-72941298D01*
X139202009Y-72974783D01*
X139174159Y-72976678D01*
X139174159Y-72977500D01*
X139169287Y-72977500D01*
X138706713Y-72977500D01*
X138658042Y-72985208D01*
X138496760Y-73010753D01*
X138294585Y-73076444D01*
X138105179Y-73172951D01*
X137933213Y-73297890D01*
X137782890Y-73448213D01*
X137657951Y-73620179D01*
X137561444Y-73809585D01*
X137495753Y-74011760D01*
X137469423Y-74178001D01*
X137462500Y-74221713D01*
X137462500Y-74434287D01*
X137464885Y-74449344D01*
X137492614Y-74624423D01*
X137495754Y-74644243D01*
X137553626Y-74822355D01*
X137561444Y-74846414D01*
X137657951Y-75035820D01*
X137782890Y-75207786D01*
X137933209Y-75358105D01*
X137933214Y-75358109D01*
X138097793Y-75477682D01*
X138140459Y-75533011D01*
X138146438Y-75602625D01*
X138113833Y-75664420D01*
X138097793Y-75678318D01*
X137933214Y-75797890D01*
X137933209Y-75797894D01*
X137782890Y-75948213D01*
X137657951Y-76120179D01*
X137561444Y-76309585D01*
X137561443Y-76309587D01*
X137561443Y-76309588D01*
X137550972Y-76341815D01*
X137495753Y-76511760D01*
X137462500Y-76721713D01*
X137462500Y-76934286D01*
X137492468Y-77123500D01*
X137495754Y-77144243D01*
X137528460Y-77244902D01*
X137561444Y-77346414D01*
X137657951Y-77535820D01*
X137782890Y-77707786D01*
X137933209Y-77858105D01*
X137933214Y-77858109D01*
X138097793Y-77977682D01*
X138140459Y-78033011D01*
X138146438Y-78102625D01*
X138113833Y-78164420D01*
X138097793Y-78178318D01*
X137933214Y-78297890D01*
X137933209Y-78297894D01*
X137782890Y-78448213D01*
X137657951Y-78620179D01*
X137561444Y-78809585D01*
X137495753Y-79011760D01*
X137472866Y-79156262D01*
X137462500Y-79221713D01*
X137462500Y-79434287D01*
X137495754Y-79644243D01*
X137556843Y-79832256D01*
X137561444Y-79846414D01*
X137657951Y-80035820D01*
X137782890Y-80207786D01*
X137933209Y-80358105D01*
X137933214Y-80358109D01*
X138097793Y-80477682D01*
X138140459Y-80533011D01*
X138146438Y-80602625D01*
X138113833Y-80664420D01*
X138097793Y-80678318D01*
X137933214Y-80797890D01*
X137933209Y-80797894D01*
X137782890Y-80948213D01*
X137657951Y-81120179D01*
X137561444Y-81309585D01*
X137495753Y-81511760D01*
X137462500Y-81721713D01*
X137462500Y-81934286D01*
X137494659Y-82137334D01*
X137495754Y-82144243D01*
X137557572Y-82334499D01*
X137561444Y-82346414D01*
X137657951Y-82535820D01*
X137782890Y-82707786D01*
X137933209Y-82858105D01*
X137933214Y-82858109D01*
X138097793Y-82977682D01*
X138140459Y-83033011D01*
X138146438Y-83102625D01*
X138113833Y-83164420D01*
X138097793Y-83178318D01*
X137933214Y-83297890D01*
X137933209Y-83297894D01*
X137782890Y-83448213D01*
X137657951Y-83620179D01*
X137561444Y-83809585D01*
X137495753Y-84011760D01*
X137462500Y-84221713D01*
X137462500Y-84434287D01*
X137466265Y-84458057D01*
X137486591Y-84586395D01*
X137495754Y-84644243D01*
X137550467Y-84812632D01*
X137561444Y-84846414D01*
X137657951Y-85035820D01*
X137782890Y-85207786D01*
X137921705Y-85346601D01*
X137955190Y-85407924D01*
X137950206Y-85477616D01*
X137908334Y-85533549D01*
X137899121Y-85539821D01*
X137744342Y-85635289D01*
X137620289Y-85759342D01*
X137528187Y-85908663D01*
X137528186Y-85908666D01*
X137473001Y-86075203D01*
X137473001Y-86075204D01*
X137473000Y-86075204D01*
X137462500Y-86177983D01*
X137462500Y-87478001D01*
X137462501Y-87478018D01*
X137473000Y-87580796D01*
X137473001Y-87580799D01*
X137515068Y-87707747D01*
X137528186Y-87747334D01*
X137620288Y-87896656D01*
X137744344Y-88020712D01*
X137893666Y-88112814D01*
X138060203Y-88167999D01*
X138162991Y-88178500D01*
X139713008Y-88178499D01*
X139815797Y-88167999D01*
X139982334Y-88112814D01*
X140131656Y-88020712D01*
X140255712Y-87896656D01*
X140347814Y-87747334D01*
X140402999Y-87580797D01*
X140413500Y-87478009D01*
X140413499Y-86952094D01*
X140433183Y-86885057D01*
X140485987Y-86839302D01*
X140555146Y-86829358D01*
X140618702Y-86858383D01*
X140625180Y-86864415D01*
X140850139Y-87089374D01*
X140850149Y-87089385D01*
X140966285Y-87205521D01*
X140999260Y-87224558D01*
X141032236Y-87243597D01*
X141103215Y-87284577D01*
X141255943Y-87325501D01*
X141255946Y-87325501D01*
X141421653Y-87325501D01*
X141421669Y-87325500D01*
X145963331Y-87325500D01*
X145963347Y-87325501D01*
X145970943Y-87325501D01*
X146129054Y-87325501D01*
X146129057Y-87325501D01*
X146281785Y-87284577D01*
X146352764Y-87243597D01*
X146418716Y-87205520D01*
X146530520Y-87093716D01*
X146530520Y-87093714D01*
X146540721Y-87083514D01*
X146540724Y-87083509D01*
X146662418Y-86961815D01*
X146723739Y-86928333D01*
X146750097Y-86925499D01*
X147349901Y-86925499D01*
X147416940Y-86945184D01*
X147437581Y-86961817D01*
X148271284Y-87795520D01*
X148271286Y-87795521D01*
X148271290Y-87795524D01*
X148374948Y-87855370D01*
X148408216Y-87874577D01*
X148446357Y-87884796D01*
X148501942Y-87916888D01*
X148568135Y-87983081D01*
X148709602Y-88066744D01*
X148751224Y-88078836D01*
X148867426Y-88112597D01*
X148867429Y-88112597D01*
X148867431Y-88112598D01*
X148904306Y-88115500D01*
X150070500Y-88115500D01*
X150137539Y-88135185D01*
X150183294Y-88187989D01*
X150194500Y-88239500D01*
X150194500Y-88290500D01*
X150174815Y-88357539D01*
X150122011Y-88403294D01*
X150070500Y-88414500D01*
X148904298Y-88414500D01*
X148867432Y-88417401D01*
X148867426Y-88417402D01*
X148709606Y-88463254D01*
X148709603Y-88463255D01*
X148568137Y-88546917D01*
X148568129Y-88546923D01*
X148451923Y-88663129D01*
X148451917Y-88663137D01*
X148368255Y-88804603D01*
X148368254Y-88804606D01*
X148322402Y-88962426D01*
X148322401Y-88962432D01*
X148319500Y-88999298D01*
X148319500Y-89430701D01*
X148322401Y-89467567D01*
X148322402Y-89467573D01*
X148368254Y-89625393D01*
X148368255Y-89625396D01*
X148368256Y-89625398D01*
X148405681Y-89688681D01*
X148451917Y-89766862D01*
X148451923Y-89766870D01*
X148568129Y-89883076D01*
X148568133Y-89883079D01*
X148568135Y-89883081D01*
X148709602Y-89966744D01*
X148805097Y-89994488D01*
X148863980Y-90032092D01*
X148893187Y-90095564D01*
X148894500Y-90113563D01*
X148894500Y-90194091D01*
X148874815Y-90261130D01*
X148830731Y-90299641D01*
X148831813Y-90301395D01*
X148825667Y-90305185D01*
X148825666Y-90305186D01*
X148777837Y-90334687D01*
X148676342Y-90397289D01*
X148552289Y-90521342D01*
X148460187Y-90670663D01*
X148460186Y-90670666D01*
X148405001Y-90837203D01*
X148405001Y-90837204D01*
X148405000Y-90837204D01*
X148394500Y-90939983D01*
X148394500Y-91940001D01*
X148394501Y-91940019D01*
X148405000Y-92042796D01*
X148405001Y-92042799D01*
X148451420Y-92182881D01*
X148460186Y-92209334D01*
X148552288Y-92358656D01*
X148676344Y-92482712D01*
X148825666Y-92574814D01*
X148992203Y-92629999D01*
X149094991Y-92640500D01*
X149895008Y-92640499D01*
X149895016Y-92640498D01*
X149895019Y-92640498D01*
X149951302Y-92634748D01*
X149997797Y-92629999D01*
X150164334Y-92574814D01*
X150313656Y-92482712D01*
X150407319Y-92389049D01*
X150468642Y-92355564D01*
X150538334Y-92360548D01*
X150582681Y-92389049D01*
X150676344Y-92482712D01*
X150825666Y-92574814D01*
X150992203Y-92629999D01*
X151094991Y-92640500D01*
X151895008Y-92640499D01*
X151895016Y-92640498D01*
X151895019Y-92640498D01*
X151951302Y-92634748D01*
X151997797Y-92629999D01*
X152164334Y-92574814D01*
X152313656Y-92482712D01*
X152437712Y-92358656D01*
X152529814Y-92209334D01*
X152584999Y-92042797D01*
X152595500Y-91940009D01*
X152595499Y-91240095D01*
X152615183Y-91173057D01*
X152631813Y-91152420D01*
X156047987Y-87736246D01*
X156109308Y-87702763D01*
X156179000Y-87707747D01*
X156211828Y-87726075D01*
X156289008Y-87786147D01*
X156329821Y-87842856D01*
X156333496Y-87912629D01*
X156298865Y-87973313D01*
X156289014Y-87981848D01*
X156239085Y-88020710D01*
X156206257Y-88046261D01*
X156037833Y-88229217D01*
X155901826Y-88437393D01*
X155801936Y-88665118D01*
X155740892Y-88906175D01*
X155740890Y-88906187D01*
X155720357Y-89153994D01*
X155720357Y-89154005D01*
X155740890Y-89401812D01*
X155740892Y-89401824D01*
X155801936Y-89642881D01*
X155901826Y-89870606D01*
X156037833Y-90078782D01*
X156053282Y-90095564D01*
X156206256Y-90261738D01*
X156289008Y-90326147D01*
X156329821Y-90382857D01*
X156333496Y-90452630D01*
X156298864Y-90513313D01*
X156289014Y-90521848D01*
X156253898Y-90549181D01*
X156206257Y-90586261D01*
X156037833Y-90769217D01*
X155901826Y-90977393D01*
X155801936Y-91205118D01*
X155740892Y-91446175D01*
X155740890Y-91446187D01*
X155720357Y-91693994D01*
X155720357Y-91694005D01*
X155740890Y-91941812D01*
X155740892Y-91941824D01*
X155801936Y-92182881D01*
X155901826Y-92410606D01*
X156037833Y-92618782D01*
X156048158Y-92629998D01*
X156206256Y-92801738D01*
X156289008Y-92866147D01*
X156329821Y-92922857D01*
X156333496Y-92992630D01*
X156298864Y-93053313D01*
X156289014Y-93061848D01*
X156230400Y-93107469D01*
X156206257Y-93126261D01*
X156037833Y-93309217D01*
X155901826Y-93517393D01*
X155801936Y-93745118D01*
X155740892Y-93986175D01*
X155740890Y-93986187D01*
X155720357Y-94233994D01*
X155720357Y-94234005D01*
X155740890Y-94481812D01*
X155740892Y-94481824D01*
X155801936Y-94722881D01*
X155901826Y-94950606D01*
X156037833Y-95158782D01*
X156070245Y-95193991D01*
X156206256Y-95341738D01*
X156289008Y-95406147D01*
X156329821Y-95462857D01*
X156333496Y-95532630D01*
X156298864Y-95593313D01*
X156289014Y-95601848D01*
X156230400Y-95647469D01*
X156206257Y-95666261D01*
X156037833Y-95849217D01*
X155901826Y-96057393D01*
X155801936Y-96285118D01*
X155740892Y-96526175D01*
X155740890Y-96526187D01*
X155720357Y-96773994D01*
X155720357Y-96774005D01*
X155740890Y-97021812D01*
X155740892Y-97021824D01*
X155801936Y-97262881D01*
X155901826Y-97490606D01*
X156037833Y-97698782D01*
X156037836Y-97698785D01*
X156206256Y-97881738D01*
X156289008Y-97946147D01*
X156329821Y-98002857D01*
X156333496Y-98072630D01*
X156298864Y-98133313D01*
X156289014Y-98141848D01*
X156230400Y-98187469D01*
X156206257Y-98206261D01*
X156037833Y-98389217D01*
X155901826Y-98597393D01*
X155801936Y-98825118D01*
X155740892Y-99066175D01*
X155740890Y-99066187D01*
X155720357Y-99313994D01*
X155720357Y-99314005D01*
X155740890Y-99561812D01*
X155740892Y-99561824D01*
X155801936Y-99802881D01*
X155901826Y-100030606D01*
X156037833Y-100238782D01*
X156037836Y-100238785D01*
X156206256Y-100421738D01*
X156289008Y-100486147D01*
X156329821Y-100542857D01*
X156333496Y-100612630D01*
X156298864Y-100673313D01*
X156289014Y-100681848D01*
X156230400Y-100727469D01*
X156206257Y-100746261D01*
X156037833Y-100929217D01*
X155901826Y-101137393D01*
X155801936Y-101365118D01*
X155740892Y-101606175D01*
X155740890Y-101606187D01*
X155720357Y-101853994D01*
X155720357Y-101854005D01*
X155740890Y-102101812D01*
X155740892Y-102101824D01*
X155801936Y-102342881D01*
X155901826Y-102570606D01*
X156037833Y-102778782D01*
X156037836Y-102778785D01*
X156206256Y-102961738D01*
X156289008Y-103026147D01*
X156329821Y-103082857D01*
X156333496Y-103152630D01*
X156298864Y-103213313D01*
X156289014Y-103221848D01*
X156230400Y-103267469D01*
X156206257Y-103286261D01*
X156037833Y-103469217D01*
X155901826Y-103677393D01*
X155801936Y-103905118D01*
X155740892Y-104146175D01*
X155740890Y-104146187D01*
X155720357Y-104393994D01*
X155720357Y-104394005D01*
X155740890Y-104641812D01*
X155740892Y-104641824D01*
X155801936Y-104882881D01*
X155901826Y-105110606D01*
X156037833Y-105318782D01*
X156037836Y-105318785D01*
X156206256Y-105501738D01*
X156289008Y-105566147D01*
X156329821Y-105622857D01*
X156333496Y-105692630D01*
X156298864Y-105753313D01*
X156289014Y-105761848D01*
X156230400Y-105807469D01*
X156206257Y-105826261D01*
X156037833Y-106009217D01*
X155901826Y-106217393D01*
X155801936Y-106445118D01*
X155740892Y-106686175D01*
X155740890Y-106686187D01*
X155720357Y-106933994D01*
X155720357Y-106934005D01*
X155740890Y-107181812D01*
X155740892Y-107181824D01*
X155801936Y-107422881D01*
X155901826Y-107650606D01*
X156037833Y-107858782D01*
X156037836Y-107858785D01*
X156206256Y-108041738D01*
X156289008Y-108106147D01*
X156329821Y-108162857D01*
X156333496Y-108232630D01*
X156298864Y-108293313D01*
X156289014Y-108301848D01*
X156239146Y-108340663D01*
X156206257Y-108366261D01*
X156037833Y-108549217D01*
X155901826Y-108757393D01*
X155801936Y-108985118D01*
X155740892Y-109226175D01*
X155740890Y-109226187D01*
X155720357Y-109473994D01*
X155720357Y-109474005D01*
X155740890Y-109721812D01*
X155740892Y-109721824D01*
X155801936Y-109962881D01*
X155901826Y-110190606D01*
X156037833Y-110398782D01*
X156037836Y-110398785D01*
X156206256Y-110581738D01*
X156289008Y-110646147D01*
X156329821Y-110702857D01*
X156333496Y-110772630D01*
X156298864Y-110833313D01*
X156289014Y-110841848D01*
X156239730Y-110880208D01*
X156206257Y-110906261D01*
X156037833Y-111089217D01*
X155901826Y-111297393D01*
X155801936Y-111525118D01*
X155740892Y-111766175D01*
X155740890Y-111766187D01*
X155720357Y-112013994D01*
X155720357Y-112014005D01*
X155740890Y-112261812D01*
X155740892Y-112261824D01*
X155801936Y-112502881D01*
X155901826Y-112730606D01*
X156037833Y-112938782D01*
X156037836Y-112938785D01*
X156206256Y-113121738D01*
X156289008Y-113186147D01*
X156329821Y-113242857D01*
X156333496Y-113312630D01*
X156298864Y-113373313D01*
X156289014Y-113381848D01*
X156251518Y-113411033D01*
X156206257Y-113446261D01*
X156037833Y-113629217D01*
X155901826Y-113837393D01*
X155801936Y-114065118D01*
X155740892Y-114306175D01*
X155740890Y-114306187D01*
X155720357Y-114553994D01*
X155720357Y-114554005D01*
X155740890Y-114801812D01*
X155740892Y-114801824D01*
X155801936Y-115042881D01*
X155901826Y-115270606D01*
X156037833Y-115478782D01*
X156037836Y-115478785D01*
X156206256Y-115661738D01*
X156289008Y-115726147D01*
X156329821Y-115782857D01*
X156333496Y-115852630D01*
X156298864Y-115913313D01*
X156289014Y-115921848D01*
X156284016Y-115925739D01*
X156206257Y-115986261D01*
X156037833Y-116169217D01*
X155901826Y-116377393D01*
X155801936Y-116605118D01*
X155740892Y-116846175D01*
X155740890Y-116846187D01*
X155720357Y-117093994D01*
X155720357Y-117094005D01*
X155740890Y-117341812D01*
X155740892Y-117341824D01*
X155801936Y-117582881D01*
X155901826Y-117810606D01*
X156037833Y-118018782D01*
X156037836Y-118018785D01*
X156206256Y-118201738D01*
X156289008Y-118266147D01*
X156329821Y-118322857D01*
X156333496Y-118392630D01*
X156298864Y-118453313D01*
X156289014Y-118461848D01*
X156230400Y-118507469D01*
X156206257Y-118526261D01*
X156037833Y-118709217D01*
X155901826Y-118917393D01*
X155801936Y-119145118D01*
X155740892Y-119386175D01*
X155740890Y-119386187D01*
X155720357Y-119633994D01*
X155720357Y-119634005D01*
X155740890Y-119881812D01*
X155740892Y-119881824D01*
X155801936Y-120122881D01*
X155901826Y-120350606D01*
X156037833Y-120558782D01*
X156037836Y-120558785D01*
X156206256Y-120741738D01*
X156289008Y-120806147D01*
X156329821Y-120862857D01*
X156333496Y-120932630D01*
X156298864Y-120993313D01*
X156289014Y-121001848D01*
X156241348Y-121038949D01*
X156206257Y-121066261D01*
X156037833Y-121249217D01*
X155901826Y-121457393D01*
X155801936Y-121685118D01*
X155740892Y-121926175D01*
X155740890Y-121926187D01*
X155720357Y-122173994D01*
X155720357Y-122174005D01*
X155740890Y-122421812D01*
X155740892Y-122421824D01*
X155801936Y-122662881D01*
X155901826Y-122890606D01*
X156037833Y-123098782D01*
X156037836Y-123098785D01*
X156206256Y-123281738D01*
X156289008Y-123346147D01*
X156329821Y-123402857D01*
X156333496Y-123472630D01*
X156298864Y-123533313D01*
X156289014Y-123541848D01*
X156230400Y-123587469D01*
X156206257Y-123606261D01*
X156037833Y-123789217D01*
X155901826Y-123997393D01*
X155801936Y-124225118D01*
X155740892Y-124466175D01*
X155740890Y-124466187D01*
X155720357Y-124713994D01*
X155720357Y-124714005D01*
X155740890Y-124961812D01*
X155740892Y-124961824D01*
X155801936Y-125202881D01*
X155901826Y-125430606D01*
X156037833Y-125638782D01*
X156037836Y-125638785D01*
X156206256Y-125821738D01*
X156402491Y-125974474D01*
X156621190Y-126092828D01*
X156856386Y-126173571D01*
X157101665Y-126214500D01*
X157350335Y-126214500D01*
X157595614Y-126173571D01*
X157830810Y-126092828D01*
X158049509Y-125974474D01*
X158245744Y-125821738D01*
X158414164Y-125638785D01*
X158550173Y-125430607D01*
X158650063Y-125202881D01*
X158711108Y-124961821D01*
X158715480Y-124909057D01*
X158731643Y-124714005D01*
X158731643Y-124713994D01*
X158711109Y-124466187D01*
X158711107Y-124466175D01*
X158650063Y-124225118D01*
X158550173Y-123997393D01*
X158414166Y-123789217D01*
X158392557Y-123765744D01*
X158245744Y-123606262D01*
X158162991Y-123541852D01*
X158122179Y-123485143D01*
X158118504Y-123415370D01*
X158153136Y-123354687D01*
X158162985Y-123346151D01*
X158245744Y-123281738D01*
X158414164Y-123098785D01*
X158550173Y-122890607D01*
X158650063Y-122662881D01*
X158711108Y-122421821D01*
X158713752Y-122389913D01*
X158731643Y-122174005D01*
X158731643Y-122173994D01*
X158711109Y-121926187D01*
X158711107Y-121926175D01*
X158650063Y-121685118D01*
X158550173Y-121457393D01*
X158414166Y-121249217D01*
X158346460Y-121175669D01*
X158245744Y-121066262D01*
X158162991Y-121001852D01*
X158122179Y-120945143D01*
X158118504Y-120875370D01*
X158153136Y-120814687D01*
X158162985Y-120806151D01*
X158245744Y-120741738D01*
X158414164Y-120558785D01*
X158550173Y-120350607D01*
X158650063Y-120122881D01*
X158711108Y-119881821D01*
X158731643Y-119634000D01*
X158728916Y-119601095D01*
X158711109Y-119386187D01*
X158711107Y-119386175D01*
X158650063Y-119145118D01*
X158550173Y-118917393D01*
X158414166Y-118709217D01*
X158392557Y-118685744D01*
X158245744Y-118526262D01*
X158162991Y-118461852D01*
X158122179Y-118405143D01*
X158118504Y-118335370D01*
X158153136Y-118274687D01*
X158162985Y-118266151D01*
X158245744Y-118201738D01*
X158414164Y-118018785D01*
X158550173Y-117810607D01*
X158650063Y-117582881D01*
X158711108Y-117341821D01*
X158711109Y-117341812D01*
X158731643Y-117094005D01*
X158731643Y-117093994D01*
X158711109Y-116846187D01*
X158711107Y-116846175D01*
X158650063Y-116605118D01*
X158550173Y-116377393D01*
X158414166Y-116169217D01*
X158365256Y-116116087D01*
X158245744Y-115986262D01*
X158162991Y-115921852D01*
X158122179Y-115865143D01*
X158118504Y-115795370D01*
X158153136Y-115734687D01*
X158162985Y-115726151D01*
X158245744Y-115661738D01*
X158414164Y-115478785D01*
X158550173Y-115270607D01*
X158650063Y-115042881D01*
X158711108Y-114801821D01*
X158729800Y-114576242D01*
X158731643Y-114554005D01*
X158731643Y-114553994D01*
X158711109Y-114306187D01*
X158711107Y-114306175D01*
X158650063Y-114065118D01*
X158550173Y-113837393D01*
X158414166Y-113629217D01*
X158392557Y-113605744D01*
X158245744Y-113446262D01*
X158162991Y-113381852D01*
X158122179Y-113325143D01*
X158118504Y-113255370D01*
X158153136Y-113194687D01*
X158162985Y-113186151D01*
X158245744Y-113121738D01*
X158414164Y-112938785D01*
X158550173Y-112730607D01*
X158650063Y-112502881D01*
X158711108Y-112261821D01*
X158714918Y-112215847D01*
X158731643Y-112014005D01*
X158731643Y-112013994D01*
X158711109Y-111766187D01*
X158711107Y-111766175D01*
X158650063Y-111525118D01*
X158550173Y-111297393D01*
X158414166Y-111089217D01*
X158392557Y-111065744D01*
X158245744Y-110906262D01*
X158162991Y-110841852D01*
X158122179Y-110785143D01*
X158118504Y-110715370D01*
X158153136Y-110654687D01*
X158162985Y-110646151D01*
X158245744Y-110581738D01*
X158414164Y-110398785D01*
X158550173Y-110190607D01*
X158650063Y-109962881D01*
X158711108Y-109721821D01*
X158711109Y-109721812D01*
X158731643Y-109474005D01*
X158731643Y-109473994D01*
X158711109Y-109226187D01*
X158711107Y-109226175D01*
X158650063Y-108985118D01*
X158550173Y-108757393D01*
X158414166Y-108549217D01*
X158375486Y-108507200D01*
X158245744Y-108366262D01*
X158162991Y-108301852D01*
X158122179Y-108245143D01*
X158118504Y-108175370D01*
X158153136Y-108114687D01*
X158162985Y-108106151D01*
X158245744Y-108041738D01*
X158414164Y-107858785D01*
X158550173Y-107650607D01*
X158650063Y-107422881D01*
X158711108Y-107181821D01*
X158731643Y-106934000D01*
X158711108Y-106686179D01*
X158704240Y-106659057D01*
X158650063Y-106445118D01*
X158550173Y-106217393D01*
X158414166Y-106009217D01*
X158355490Y-105945478D01*
X158245744Y-105826262D01*
X158162991Y-105761852D01*
X158122179Y-105705143D01*
X158118504Y-105635370D01*
X158153136Y-105574687D01*
X158162985Y-105566151D01*
X158245744Y-105501738D01*
X158414164Y-105318785D01*
X158550173Y-105110607D01*
X158650063Y-104882881D01*
X158711108Y-104641821D01*
X158711790Y-104633596D01*
X158731643Y-104394005D01*
X158731643Y-104393994D01*
X158711109Y-104146187D01*
X158711107Y-104146175D01*
X158650063Y-103905118D01*
X158550173Y-103677393D01*
X158414166Y-103469217D01*
X158392557Y-103445744D01*
X158245744Y-103286262D01*
X158162991Y-103221852D01*
X158122179Y-103165143D01*
X158118504Y-103095370D01*
X158153136Y-103034687D01*
X158162985Y-103026151D01*
X158245744Y-102961738D01*
X158414164Y-102778785D01*
X158550173Y-102570607D01*
X158650063Y-102342881D01*
X158711108Y-102101821D01*
X158720725Y-101985760D01*
X158731643Y-101854005D01*
X158731643Y-101853994D01*
X158711109Y-101606187D01*
X158711107Y-101606175D01*
X158650063Y-101365118D01*
X158550173Y-101137393D01*
X158414166Y-100929217D01*
X158390506Y-100903516D01*
X158245744Y-100746262D01*
X158162991Y-100681852D01*
X158122179Y-100625143D01*
X158118504Y-100555370D01*
X158153136Y-100494687D01*
X158162985Y-100486151D01*
X158245744Y-100421738D01*
X158414164Y-100238785D01*
X158550173Y-100030607D01*
X158650063Y-99802881D01*
X158711108Y-99561821D01*
X158711222Y-99560446D01*
X158731643Y-99314005D01*
X158731643Y-99313994D01*
X158711109Y-99066187D01*
X158711107Y-99066175D01*
X158650063Y-98825118D01*
X158550173Y-98597393D01*
X158414166Y-98389217D01*
X158392557Y-98365744D01*
X158245744Y-98206262D01*
X158162991Y-98141852D01*
X158122179Y-98085143D01*
X158118504Y-98015370D01*
X158153136Y-97954687D01*
X158162985Y-97946151D01*
X158245744Y-97881738D01*
X158414164Y-97698785D01*
X158550173Y-97490607D01*
X158650063Y-97262881D01*
X158711108Y-97021821D01*
X158714096Y-96985760D01*
X158731643Y-96774005D01*
X158731643Y-96773994D01*
X158711109Y-96526187D01*
X158711107Y-96526175D01*
X158650063Y-96285118D01*
X158550173Y-96057393D01*
X158414166Y-95849217D01*
X158392557Y-95825744D01*
X158245744Y-95666262D01*
X158162991Y-95601852D01*
X158122179Y-95545143D01*
X158118504Y-95475370D01*
X158153136Y-95414687D01*
X158162985Y-95406151D01*
X158245744Y-95341738D01*
X158414164Y-95158785D01*
X158550173Y-94950607D01*
X158650063Y-94722881D01*
X158711108Y-94481821D01*
X158731643Y-94234000D01*
X158724848Y-94151998D01*
X158711109Y-93986187D01*
X158711107Y-93986175D01*
X158650063Y-93745118D01*
X158550173Y-93517393D01*
X158414166Y-93309217D01*
X158392557Y-93285744D01*
X158245744Y-93126262D01*
X158162991Y-93061852D01*
X158122179Y-93005143D01*
X158118504Y-92935370D01*
X158153136Y-92874687D01*
X158162985Y-92866151D01*
X158245744Y-92801738D01*
X158414164Y-92618785D01*
X158550173Y-92410607D01*
X158650063Y-92182881D01*
X158711108Y-91941821D01*
X158711109Y-91941812D01*
X158731643Y-91694005D01*
X158731643Y-91693994D01*
X158711109Y-91446187D01*
X158711107Y-91446175D01*
X158650063Y-91205118D01*
X158550173Y-90977393D01*
X158414166Y-90769217D01*
X158392557Y-90745744D01*
X158245744Y-90586262D01*
X158162991Y-90521852D01*
X158122179Y-90465143D01*
X158118504Y-90395370D01*
X158153136Y-90334687D01*
X158162985Y-90326151D01*
X158245744Y-90261738D01*
X158414164Y-90078785D01*
X158550173Y-89870607D01*
X158650063Y-89642881D01*
X158711108Y-89401821D01*
X158722068Y-89269555D01*
X158731643Y-89154005D01*
X158731643Y-89153994D01*
X158711109Y-88906187D01*
X158711107Y-88906175D01*
X158650063Y-88665118D01*
X158550173Y-88437393D01*
X158414166Y-88229217D01*
X158376213Y-88187989D01*
X158245744Y-88046262D01*
X158162991Y-87981852D01*
X158122179Y-87925143D01*
X158118504Y-87855370D01*
X158153136Y-87794687D01*
X158162985Y-87786151D01*
X158245744Y-87721738D01*
X158414164Y-87538785D01*
X158550173Y-87330607D01*
X158650063Y-87102881D01*
X158711108Y-86861821D01*
X158711393Y-86858383D01*
X158731643Y-86614005D01*
X158731643Y-86613994D01*
X158711109Y-86366187D01*
X158711107Y-86366175D01*
X158650063Y-86125118D01*
X158550173Y-85897393D01*
X158414166Y-85689217D01*
X158373459Y-85644998D01*
X158245744Y-85506262D01*
X158162991Y-85441852D01*
X158122179Y-85385143D01*
X158118504Y-85315370D01*
X158153136Y-85254687D01*
X158162985Y-85246151D01*
X158245744Y-85181738D01*
X158414164Y-84998785D01*
X158550173Y-84790607D01*
X158650063Y-84562881D01*
X158711108Y-84321821D01*
X158711840Y-84312989D01*
X158731643Y-84074005D01*
X158731643Y-84073994D01*
X158711109Y-83826187D01*
X158711107Y-83826175D01*
X158650063Y-83585118D01*
X158550173Y-83357393D01*
X158414166Y-83149217D01*
X158325938Y-83053376D01*
X158245744Y-82966262D01*
X158162991Y-82901852D01*
X158122179Y-82845143D01*
X158118504Y-82775370D01*
X158153136Y-82714687D01*
X158162985Y-82706151D01*
X158245744Y-82641738D01*
X158414164Y-82458785D01*
X158550173Y-82250607D01*
X158650063Y-82022881D01*
X158711108Y-81781821D01*
X158711204Y-81780666D01*
X158731643Y-81534005D01*
X158731643Y-81533994D01*
X158711109Y-81286187D01*
X158711107Y-81286175D01*
X158650063Y-81045118D01*
X158550173Y-80817393D01*
X158414166Y-80609217D01*
X158363529Y-80554211D01*
X158245744Y-80426262D01*
X158162991Y-80361852D01*
X158122179Y-80305143D01*
X158118504Y-80235370D01*
X158153136Y-80174687D01*
X158162985Y-80166151D01*
X158245744Y-80101738D01*
X158414164Y-79918785D01*
X158550173Y-79710607D01*
X158650063Y-79482881D01*
X158711108Y-79241821D01*
X158711109Y-79241812D01*
X158731643Y-78994005D01*
X158731643Y-78993994D01*
X158711109Y-78746187D01*
X158711107Y-78746175D01*
X158650063Y-78505118D01*
X158550173Y-78277393D01*
X158414166Y-78069217D01*
X158380836Y-78033011D01*
X158245744Y-77886262D01*
X158162991Y-77821852D01*
X158122179Y-77765143D01*
X158118504Y-77695370D01*
X158153136Y-77634687D01*
X158162985Y-77626151D01*
X158245744Y-77561738D01*
X158414164Y-77378785D01*
X158550173Y-77170607D01*
X158650063Y-76942881D01*
X158711108Y-76701821D01*
X158716878Y-76632185D01*
X158731643Y-76454005D01*
X158731643Y-76453994D01*
X158711109Y-76206187D01*
X158711107Y-76206175D01*
X158650063Y-75965118D01*
X158550173Y-75737393D01*
X158414166Y-75529217D01*
X158371667Y-75483051D01*
X158245744Y-75346262D01*
X158162991Y-75281852D01*
X158122179Y-75225143D01*
X158118504Y-75155370D01*
X158153136Y-75094687D01*
X158162985Y-75086151D01*
X158245744Y-75021738D01*
X158414164Y-74838785D01*
X158550173Y-74630607D01*
X158650063Y-74402881D01*
X158711108Y-74161821D01*
X158711274Y-74159816D01*
X158731643Y-73914005D01*
X158731643Y-73913994D01*
X158711109Y-73666187D01*
X158711107Y-73666175D01*
X158650063Y-73425118D01*
X158550173Y-73197393D01*
X158414166Y-72989217D01*
X158324509Y-72891824D01*
X158245744Y-72806262D01*
X158162991Y-72741852D01*
X158122179Y-72685143D01*
X158118504Y-72615370D01*
X158153136Y-72554687D01*
X158162985Y-72546151D01*
X158245744Y-72481738D01*
X158414164Y-72298785D01*
X158550173Y-72090607D01*
X158650063Y-71862881D01*
X158711108Y-71621821D01*
X158714918Y-71575847D01*
X158731643Y-71374005D01*
X158731643Y-71373994D01*
X158711109Y-71126187D01*
X158711107Y-71126175D01*
X158650063Y-70885118D01*
X158550173Y-70657393D01*
X158414166Y-70449217D01*
X158308561Y-70334500D01*
X158245744Y-70266262D01*
X158162991Y-70201852D01*
X158122179Y-70145143D01*
X158118504Y-70075370D01*
X158153136Y-70014687D01*
X158162985Y-70006151D01*
X158245744Y-69941738D01*
X158414164Y-69758785D01*
X158550173Y-69550607D01*
X158650063Y-69322881D01*
X158711108Y-69081821D01*
X158711109Y-69081812D01*
X158731643Y-68834005D01*
X158731643Y-68833994D01*
X158711109Y-68586187D01*
X158711107Y-68586175D01*
X158650063Y-68345118D01*
X158550173Y-68117393D01*
X158414166Y-67909217D01*
X158392557Y-67885744D01*
X158245744Y-67726262D01*
X158162991Y-67661852D01*
X158122179Y-67605143D01*
X158118504Y-67535370D01*
X158153136Y-67474687D01*
X158162985Y-67466151D01*
X158245744Y-67401738D01*
X158414164Y-67218785D01*
X158550173Y-67010607D01*
X158650063Y-66782881D01*
X158711108Y-66541821D01*
X158711780Y-66533711D01*
X158731643Y-66294005D01*
X158731643Y-66293994D01*
X158711109Y-66046187D01*
X158711107Y-66046175D01*
X158705001Y-66022064D01*
X158650063Y-65805119D01*
X158633916Y-65768309D01*
X158625014Y-65699011D01*
X158654991Y-65635898D01*
X158714330Y-65599011D01*
X158747473Y-65594500D01*
X170653770Y-65594500D01*
X170720809Y-65614185D01*
X170741451Y-65630819D01*
X170855794Y-65745162D01*
X170966618Y-65855985D01*
X171000103Y-65917308D01*
X170999143Y-65974106D01*
X170980891Y-66046182D01*
X170960357Y-66293994D01*
X170960357Y-66294005D01*
X170980890Y-66541812D01*
X170980892Y-66541824D01*
X171041936Y-66782881D01*
X171141826Y-67010606D01*
X171277833Y-67218782D01*
X171277836Y-67218785D01*
X171446256Y-67401738D01*
X171529008Y-67466147D01*
X171569821Y-67522857D01*
X171573496Y-67592630D01*
X171538864Y-67653313D01*
X171529014Y-67661848D01*
X171470400Y-67707469D01*
X171446257Y-67726261D01*
X171277833Y-67909217D01*
X171141826Y-68117393D01*
X171041936Y-68345118D01*
X170980892Y-68586175D01*
X170980890Y-68586187D01*
X170960357Y-68833994D01*
X170960357Y-68834005D01*
X170980890Y-69081812D01*
X170980892Y-69081824D01*
X171041936Y-69322881D01*
X171141826Y-69550606D01*
X171277833Y-69758782D01*
X171277836Y-69758785D01*
X171446256Y-69941738D01*
X171446259Y-69941740D01*
X171446262Y-69941743D01*
X171549743Y-70022286D01*
X171590556Y-70078996D01*
X171597343Y-70127823D01*
X171595941Y-70150389D01*
X172328424Y-70882871D01*
X172269147Y-70898755D01*
X172152853Y-70965898D01*
X172057898Y-71060853D01*
X171990755Y-71177147D01*
X171974872Y-71236424D01*
X171242564Y-70504116D01*
X171142267Y-70657632D01*
X171042412Y-70885282D01*
X170981387Y-71126261D01*
X170981385Y-71126270D01*
X170960859Y-71373994D01*
X170960859Y-71374005D01*
X170981385Y-71621729D01*
X170981387Y-71621738D01*
X171042412Y-71862717D01*
X171142266Y-72090364D01*
X171242564Y-72243882D01*
X171974871Y-71511575D01*
X171990755Y-71570853D01*
X172057898Y-71687147D01*
X172152853Y-71782102D01*
X172269147Y-71849245D01*
X172328424Y-71865128D01*
X171595942Y-72597609D01*
X171597343Y-72620177D01*
X171581850Y-72688307D01*
X171549744Y-72725713D01*
X171446258Y-72806260D01*
X171277833Y-72989217D01*
X171141826Y-73197393D01*
X171041936Y-73425118D01*
X170980892Y-73666175D01*
X170980890Y-73666187D01*
X170960357Y-73913994D01*
X170960357Y-73914005D01*
X170980890Y-74161812D01*
X170980892Y-74161824D01*
X171042007Y-74403160D01*
X171039382Y-74472980D01*
X171009482Y-74521281D01*
X166166181Y-79364583D01*
X166104858Y-79398068D01*
X166035166Y-79393084D01*
X165979233Y-79351212D01*
X165954816Y-79285748D01*
X165954500Y-79276902D01*
X165954500Y-73834945D01*
X165954498Y-73834936D01*
X165949464Y-73816146D01*
X165949016Y-73814474D01*
X165913577Y-73682215D01*
X165875155Y-73615667D01*
X165875155Y-73615666D01*
X165834522Y-73545287D01*
X165834521Y-73545286D01*
X165834520Y-73545284D01*
X165722716Y-73433480D01*
X165722715Y-73433479D01*
X165718385Y-73429149D01*
X165718374Y-73429139D01*
X164571590Y-72282355D01*
X164571588Y-72282352D01*
X164452717Y-72163481D01*
X164452709Y-72163475D01*
X164353754Y-72106344D01*
X164353752Y-72106343D01*
X164315790Y-72084425D01*
X164315789Y-72084424D01*
X164303263Y-72081067D01*
X164163057Y-72043499D01*
X164004943Y-72043499D01*
X163997347Y-72043499D01*
X163997331Y-72043500D01*
X161732116Y-72043500D01*
X161665077Y-72023815D01*
X161619322Y-71971011D01*
X161618560Y-71969311D01*
X161600172Y-71927391D01*
X161464166Y-71719217D01*
X161415436Y-71666282D01*
X161295744Y-71536262D01*
X161099509Y-71383526D01*
X161099507Y-71383525D01*
X161099506Y-71383524D01*
X160880811Y-71265172D01*
X160880802Y-71265169D01*
X160645616Y-71184429D01*
X160400335Y-71143500D01*
X160151665Y-71143500D01*
X159906383Y-71184429D01*
X159671197Y-71265169D01*
X159671188Y-71265172D01*
X159452493Y-71383524D01*
X159256257Y-71536261D01*
X159087833Y-71719217D01*
X158951826Y-71927393D01*
X158851936Y-72155118D01*
X158790892Y-72396175D01*
X158790890Y-72396187D01*
X158770357Y-72643994D01*
X158770357Y-72644005D01*
X158790890Y-72891812D01*
X158790892Y-72891824D01*
X158851936Y-73132881D01*
X158951826Y-73360606D01*
X159087833Y-73568782D01*
X159087836Y-73568785D01*
X159256256Y-73751738D01*
X159339008Y-73816147D01*
X159379821Y-73872857D01*
X159383496Y-73942630D01*
X159348864Y-74003313D01*
X159339014Y-74011848D01*
X159298349Y-74043500D01*
X159256257Y-74076261D01*
X159087833Y-74259217D01*
X158951826Y-74467393D01*
X158851936Y-74695118D01*
X158790892Y-74936175D01*
X158790890Y-74936187D01*
X158770357Y-75183994D01*
X158770357Y-75184005D01*
X158790890Y-75431812D01*
X158790892Y-75431824D01*
X158851936Y-75672881D01*
X158951826Y-75900606D01*
X159087833Y-76108782D01*
X159120245Y-76143991D01*
X159256256Y-76291738D01*
X159339008Y-76356147D01*
X159379821Y-76412857D01*
X159383496Y-76482630D01*
X159348864Y-76543313D01*
X159339014Y-76551848D01*
X159285778Y-76593284D01*
X159256257Y-76616261D01*
X159087833Y-76799217D01*
X158951826Y-77007393D01*
X158851936Y-77235118D01*
X158790892Y-77476175D01*
X158790890Y-77476187D01*
X158770357Y-77723994D01*
X158770357Y-77724005D01*
X158790890Y-77971812D01*
X158790892Y-77971824D01*
X158851936Y-78212881D01*
X158951826Y-78440606D01*
X159087833Y-78648782D01*
X159087836Y-78648785D01*
X159256256Y-78831738D01*
X159339008Y-78896147D01*
X159379821Y-78952857D01*
X159383496Y-79022630D01*
X159348864Y-79083313D01*
X159339014Y-79091848D01*
X159280400Y-79137469D01*
X159256257Y-79156261D01*
X159087833Y-79339217D01*
X158951826Y-79547393D01*
X158851936Y-79775118D01*
X158790892Y-80016175D01*
X158790890Y-80016187D01*
X158770357Y-80263994D01*
X158770357Y-80264005D01*
X158790890Y-80511812D01*
X158790892Y-80511824D01*
X158851936Y-80752881D01*
X158951826Y-80980606D01*
X159087833Y-81188782D01*
X159087836Y-81188785D01*
X159256256Y-81371738D01*
X159339008Y-81436147D01*
X159379821Y-81492857D01*
X159383496Y-81562630D01*
X159348864Y-81623313D01*
X159339014Y-81631848D01*
X159280400Y-81677469D01*
X159256257Y-81696261D01*
X159087833Y-81879217D01*
X158951826Y-82087393D01*
X158851936Y-82315118D01*
X158790892Y-82556175D01*
X158790890Y-82556187D01*
X158770357Y-82803994D01*
X158770357Y-82804005D01*
X158790890Y-83051812D01*
X158790892Y-83051824D01*
X158851936Y-83292881D01*
X158951826Y-83520606D01*
X159087833Y-83728782D01*
X159087836Y-83728785D01*
X159256256Y-83911738D01*
X159452491Y-84064474D01*
X159671190Y-84182828D01*
X159906386Y-84263571D01*
X160151665Y-84304500D01*
X160400335Y-84304500D01*
X160645614Y-84263571D01*
X160880810Y-84182828D01*
X161099509Y-84064474D01*
X161295744Y-83911738D01*
X161464164Y-83728785D01*
X161600173Y-83520607D01*
X161700063Y-83292881D01*
X161761108Y-83051821D01*
X161762430Y-83035865D01*
X161781643Y-82804005D01*
X161781643Y-82803994D01*
X161761109Y-82556187D01*
X161761107Y-82556175D01*
X161700063Y-82315118D01*
X161600173Y-82087393D01*
X161464166Y-81879217D01*
X161441339Y-81854420D01*
X161295744Y-81696262D01*
X161212991Y-81631852D01*
X161172179Y-81575143D01*
X161168504Y-81505370D01*
X161203136Y-81444687D01*
X161212985Y-81436151D01*
X161295744Y-81371738D01*
X161464164Y-81188785D01*
X161600173Y-80980607D01*
X161700063Y-80752881D01*
X161761108Y-80511821D01*
X161761109Y-80511812D01*
X161781643Y-80264005D01*
X161781643Y-80263994D01*
X161761109Y-80016187D01*
X161761107Y-80016175D01*
X161700063Y-79775118D01*
X161600173Y-79547393D01*
X161464166Y-79339217D01*
X161423006Y-79294506D01*
X161295744Y-79156262D01*
X161212991Y-79091852D01*
X161172179Y-79035143D01*
X161168504Y-78965370D01*
X161203136Y-78904687D01*
X161212985Y-78896151D01*
X161295744Y-78831738D01*
X161464164Y-78648785D01*
X161600173Y-78440607D01*
X161618560Y-78398689D01*
X161663517Y-78345204D01*
X161730253Y-78324514D01*
X161732116Y-78324500D01*
X163021903Y-78324500D01*
X163088942Y-78344185D01*
X163109584Y-78360819D01*
X163193181Y-78444416D01*
X163226666Y-78505739D01*
X163229500Y-78532097D01*
X163229500Y-92575989D01*
X163209815Y-92643028D01*
X163157011Y-92688783D01*
X163105500Y-92699989D01*
X160132175Y-92699989D01*
X160132175Y-105725274D01*
X163105500Y-105725274D01*
X163172539Y-105744959D01*
X163218294Y-105797763D01*
X163229500Y-105849274D01*
X163229500Y-123905902D01*
X163209815Y-123972941D01*
X163193181Y-123993583D01*
X158791584Y-128395181D01*
X158730261Y-128428666D01*
X158703903Y-128431500D01*
X154050670Y-128431500D01*
X154050654Y-128431499D01*
X154043058Y-128431499D01*
X153884943Y-128431499D01*
X153808579Y-128451961D01*
X153732214Y-128472423D01*
X153732209Y-128472426D01*
X153595290Y-128551475D01*
X153595282Y-128551481D01*
X151748867Y-130397896D01*
X151687544Y-130431381D01*
X151622868Y-130428146D01*
X151486240Y-130383753D01*
X151324957Y-130358208D01*
X151276287Y-130350500D01*
X151063713Y-130350500D01*
X151015042Y-130358208D01*
X150853760Y-130383753D01*
X150651585Y-130449444D01*
X150462179Y-130545951D01*
X150290213Y-130670890D01*
X150139894Y-130821209D01*
X150139890Y-130821214D01*
X150020318Y-130985793D01*
X149964989Y-131028459D01*
X149895375Y-131034438D01*
X149833580Y-131001833D01*
X149819682Y-130985793D01*
X149700109Y-130821214D01*
X149700105Y-130821209D01*
X149549786Y-130670890D01*
X149377820Y-130545951D01*
X149188414Y-130449444D01*
X149188413Y-130449443D01*
X149188412Y-130449443D01*
X148986243Y-130383754D01*
X148986241Y-130383753D01*
X148986240Y-130383753D01*
X148824957Y-130358208D01*
X148776287Y-130350500D01*
X148563713Y-130350500D01*
X148515042Y-130358208D01*
X148353760Y-130383753D01*
X148151585Y-130449444D01*
X147962179Y-130545951D01*
X147790213Y-130670890D01*
X147639894Y-130821209D01*
X147639890Y-130821214D01*
X147520318Y-130985793D01*
X147464989Y-131028459D01*
X147395375Y-131034438D01*
X147333580Y-131001833D01*
X147319682Y-130985793D01*
X147200109Y-130821214D01*
X147200105Y-130821209D01*
X147049786Y-130670890D01*
X146877820Y-130545951D01*
X146688414Y-130449444D01*
X146688413Y-130449443D01*
X146688412Y-130449443D01*
X146486243Y-130383754D01*
X146486241Y-130383753D01*
X146486240Y-130383753D01*
X146324957Y-130358208D01*
X146276287Y-130350500D01*
X146063713Y-130350500D01*
X146015042Y-130358208D01*
X145853760Y-130383753D01*
X145651585Y-130449444D01*
X145462179Y-130545951D01*
X145290213Y-130670890D01*
X145139890Y-130821213D01*
X145014951Y-130993179D01*
X144918444Y-131182585D01*
X144852753Y-131384760D01*
X144819500Y-131594713D01*
X144819500Y-132057286D01*
X144842307Y-132201288D01*
X144852754Y-132267243D01*
X144909466Y-132441785D01*
X144918444Y-132469414D01*
X145014951Y-132658820D01*
X145139890Y-132830786D01*
X145290213Y-132981109D01*
X145462179Y-133106048D01*
X145462181Y-133106049D01*
X145462184Y-133106051D01*
X145651588Y-133202557D01*
X145853757Y-133268246D01*
X146063713Y-133301500D01*
X146063714Y-133301500D01*
X146276286Y-133301500D01*
X146276287Y-133301500D01*
X146486243Y-133268246D01*
X146688412Y-133202557D01*
X146877816Y-133106051D01*
X146899789Y-133090086D01*
X147049786Y-132981109D01*
X147049788Y-132981106D01*
X147049792Y-132981104D01*
X147200104Y-132830792D01*
X147319683Y-132666204D01*
X147375011Y-132623540D01*
X147444624Y-132617561D01*
X147506420Y-132650166D01*
X147520313Y-132666199D01*
X147623925Y-132808809D01*
X147639896Y-132830792D01*
X147790213Y-132981109D01*
X147962179Y-133106048D01*
X147962181Y-133106049D01*
X147962184Y-133106051D01*
X148151588Y-133202557D01*
X148353757Y-133268246D01*
X148563713Y-133301500D01*
X148563714Y-133301500D01*
X148776286Y-133301500D01*
X148776287Y-133301500D01*
X148986243Y-133268246D01*
X149188412Y-133202557D01*
X149377816Y-133106051D01*
X149399789Y-133090086D01*
X149549786Y-132981109D01*
X149549788Y-132981106D01*
X149549792Y-132981104D01*
X149700104Y-132830792D01*
X149819683Y-132666204D01*
X149875011Y-132623540D01*
X149944624Y-132617561D01*
X150006420Y-132650166D01*
X150020313Y-132666199D01*
X150123925Y-132808809D01*
X150139896Y-132830792D01*
X150290213Y-132981109D01*
X150462179Y-133106048D01*
X150462181Y-133106049D01*
X150462184Y-133106051D01*
X150651588Y-133202557D01*
X150853757Y-133268246D01*
X151063713Y-133301500D01*
X151063714Y-133301500D01*
X151276286Y-133301500D01*
X151276287Y-133301500D01*
X151486243Y-133268246D01*
X151688412Y-133202557D01*
X151877816Y-133106051D01*
X151899789Y-133090086D01*
X152049786Y-132981109D01*
X152049788Y-132981106D01*
X152049792Y-132981104D01*
X152200104Y-132830792D01*
X152319683Y-132666204D01*
X152375011Y-132623540D01*
X152444624Y-132617561D01*
X152506420Y-132650166D01*
X152520313Y-132666199D01*
X152623925Y-132808809D01*
X152639896Y-132830792D01*
X152790213Y-132981109D01*
X152962179Y-133106048D01*
X152962181Y-133106049D01*
X152962184Y-133106051D01*
X153151588Y-133202557D01*
X153353757Y-133268246D01*
X153563713Y-133301500D01*
X153563714Y-133301500D01*
X153776286Y-133301500D01*
X153776287Y-133301500D01*
X153986243Y-133268246D01*
X154188412Y-133202557D01*
X154377816Y-133106051D01*
X154549792Y-132981104D01*
X154688604Y-132842291D01*
X154749923Y-132808809D01*
X154819615Y-132813793D01*
X154875549Y-132855664D01*
X154881821Y-132864878D01*
X154885185Y-132870333D01*
X154885186Y-132870334D01*
X154977288Y-133019656D01*
X155101344Y-133143712D01*
X155250666Y-133235814D01*
X155417203Y-133290999D01*
X155519991Y-133301500D01*
X156820008Y-133301499D01*
X156922797Y-133290999D01*
X157089334Y-133235814D01*
X157238656Y-133143712D01*
X157362712Y-133019656D01*
X157454814Y-132870334D01*
X157509999Y-132703797D01*
X157520500Y-132601009D01*
X157520500Y-132550500D01*
X157540185Y-132483461D01*
X157592989Y-132437706D01*
X157644500Y-132426500D01*
X158155331Y-132426500D01*
X158155347Y-132426501D01*
X158162943Y-132426501D01*
X158321054Y-132426501D01*
X158321057Y-132426501D01*
X158473785Y-132385577D01*
X158523904Y-132356639D01*
X158610716Y-132306520D01*
X158722520Y-132194716D01*
X158722520Y-132194714D01*
X158732728Y-132184507D01*
X158732729Y-132184504D01*
X158958522Y-131958711D01*
X175949500Y-131958711D01*
X175949500Y-132201288D01*
X175981161Y-132441785D01*
X176043947Y-132676104D01*
X176122140Y-132864878D01*
X176136776Y-132900212D01*
X176258064Y-133110289D01*
X176258066Y-133110292D01*
X176258067Y-133110293D01*
X176405733Y-133302736D01*
X176405739Y-133302743D01*
X176577256Y-133474260D01*
X176577262Y-133474265D01*
X176769711Y-133621936D01*
X176979788Y-133743224D01*
X177203900Y-133836054D01*
X177438211Y-133898838D01*
X177618586Y-133922584D01*
X177678711Y-133930500D01*
X177678712Y-133930500D01*
X177921289Y-133930500D01*
X177969388Y-133924167D01*
X178161789Y-133898838D01*
X178396100Y-133836054D01*
X178620212Y-133743224D01*
X178830289Y-133621936D01*
X179022738Y-133474265D01*
X179194265Y-133302738D01*
X179341936Y-133110289D01*
X179463224Y-132900212D01*
X179556054Y-132676100D01*
X179618838Y-132441789D01*
X179650500Y-132201288D01*
X179650500Y-131958712D01*
X179618838Y-131718211D01*
X179556054Y-131483900D01*
X179463224Y-131259788D01*
X179341936Y-131049711D01*
X179194265Y-130857262D01*
X179194260Y-130857256D01*
X179022743Y-130685739D01*
X179022736Y-130685733D01*
X178830293Y-130538067D01*
X178830292Y-130538066D01*
X178830289Y-130538064D01*
X178645509Y-130431381D01*
X178620214Y-130416777D01*
X178620205Y-130416773D01*
X178396104Y-130323947D01*
X178161785Y-130261161D01*
X177921289Y-130229500D01*
X177921288Y-130229500D01*
X177678712Y-130229500D01*
X177678711Y-130229500D01*
X177438214Y-130261161D01*
X177203895Y-130323947D01*
X176979794Y-130416773D01*
X176979785Y-130416777D01*
X176809380Y-130515161D01*
X176773032Y-130536147D01*
X176769706Y-130538067D01*
X176577263Y-130685733D01*
X176577256Y-130685739D01*
X176405739Y-130857256D01*
X176405733Y-130857263D01*
X176258067Y-131049706D01*
X176258064Y-131049710D01*
X176258064Y-131049711D01*
X176257321Y-131050998D01*
X176136777Y-131259785D01*
X176136773Y-131259794D01*
X176043947Y-131483895D01*
X175981161Y-131718214D01*
X175949500Y-131958711D01*
X158958522Y-131958711D01*
X164957821Y-125959413D01*
X165019142Y-125925930D01*
X165088834Y-125930914D01*
X165144767Y-125972786D01*
X165169184Y-126038250D01*
X165169500Y-126047096D01*
X165169500Y-127075330D01*
X165169499Y-127075348D01*
X165169499Y-127241054D01*
X165169498Y-127241054D01*
X165169499Y-127241057D01*
X165210423Y-127393785D01*
X165230722Y-127428943D01*
X165269894Y-127496791D01*
X165289479Y-127530715D01*
X165294426Y-127537161D01*
X165292082Y-127538959D01*
X165318783Y-127587857D01*
X165320837Y-127600331D01*
X165330630Y-127687249D01*
X165390210Y-127857521D01*
X165486184Y-128010262D01*
X165613738Y-128137816D01*
X165766478Y-128233789D01*
X165936745Y-128293368D01*
X165936750Y-128293369D01*
X166115996Y-128313565D01*
X166116000Y-128313565D01*
X166116004Y-128313565D01*
X166295249Y-128293369D01*
X166295252Y-128293368D01*
X166295255Y-128293368D01*
X166465522Y-128233789D01*
X166618262Y-128137816D01*
X166745816Y-128010262D01*
X166841789Y-127857522D01*
X166901368Y-127687255D01*
X166911162Y-127600331D01*
X166921565Y-127508003D01*
X166921565Y-127507996D01*
X166901369Y-127328750D01*
X166901368Y-127328745D01*
X166841789Y-127158478D01*
X166745816Y-127005738D01*
X166618262Y-126878184D01*
X166465522Y-126782211D01*
X166465523Y-126782211D01*
X166465521Y-126782210D01*
X166453545Y-126778020D01*
X166396769Y-126737299D01*
X166371022Y-126672346D01*
X166370500Y-126660979D01*
X166370500Y-88546321D01*
X166390185Y-88479282D01*
X166442989Y-88433527D01*
X166480612Y-88423101D01*
X166549255Y-88415368D01*
X166719522Y-88355789D01*
X166872262Y-88259816D01*
X166928488Y-88203589D01*
X166984073Y-88171496D01*
X167090485Y-88142984D01*
X167109053Y-88132263D01*
X167109055Y-88132263D01*
X167216008Y-88070514D01*
X167216007Y-88070514D01*
X167216015Y-88070510D01*
X168848846Y-86437677D01*
X168910167Y-86404194D01*
X168922630Y-86402141D01*
X169019204Y-86391260D01*
X169089250Y-86383369D01*
X169089253Y-86383368D01*
X169089255Y-86383368D01*
X169259522Y-86323789D01*
X169412262Y-86227816D01*
X169539816Y-86100262D01*
X169635789Y-85947522D01*
X169695368Y-85777255D01*
X169697386Y-85759344D01*
X169715565Y-85598003D01*
X169715565Y-85597996D01*
X169695369Y-85418750D01*
X169695368Y-85418745D01*
X169670124Y-85346601D01*
X169635789Y-85248478D01*
X169620616Y-85224331D01*
X169593853Y-85181738D01*
X169539816Y-85095738D01*
X169412262Y-84968184D01*
X169391293Y-84955008D01*
X169259523Y-84872211D01*
X169089254Y-84812631D01*
X169089249Y-84812630D01*
X168910004Y-84792435D01*
X168909996Y-84792435D01*
X168730750Y-84812630D01*
X168730745Y-84812631D01*
X168560476Y-84872211D01*
X168407737Y-84968184D01*
X168280184Y-85095737D01*
X168184211Y-85248476D01*
X168124631Y-85418745D01*
X168124630Y-85418749D01*
X168105859Y-85585356D01*
X168078793Y-85649769D01*
X168070320Y-85659153D01*
X166852947Y-86876526D01*
X166791624Y-86910011D01*
X166724312Y-86905887D01*
X166639503Y-86876211D01*
X166549255Y-86844632D01*
X166549254Y-86844631D01*
X166549249Y-86844630D01*
X166480616Y-86836897D01*
X166416202Y-86809830D01*
X166376647Y-86752235D01*
X166370500Y-86713677D01*
X166370500Y-80910096D01*
X166390185Y-80843057D01*
X166406814Y-80822420D01*
X170757027Y-76472206D01*
X170818348Y-76438723D01*
X170888040Y-76443707D01*
X170943973Y-76485579D01*
X170968282Y-76549649D01*
X170980890Y-76701812D01*
X170980892Y-76701824D01*
X171041936Y-76942881D01*
X171141826Y-77170606D01*
X171277833Y-77378782D01*
X171305297Y-77408616D01*
X171446256Y-77561738D01*
X171529008Y-77626147D01*
X171569821Y-77682857D01*
X171573496Y-77752630D01*
X171538864Y-77813313D01*
X171529014Y-77821848D01*
X171482432Y-77858105D01*
X171446257Y-77886261D01*
X171277833Y-78069217D01*
X171141826Y-78277393D01*
X171041936Y-78505118D01*
X170980892Y-78746175D01*
X170980890Y-78746187D01*
X170960357Y-78993994D01*
X170960357Y-78994005D01*
X170980890Y-79241812D01*
X170980892Y-79241824D01*
X171041936Y-79482881D01*
X171141826Y-79710606D01*
X171277833Y-79918782D01*
X171277836Y-79918785D01*
X171446256Y-80101738D01*
X171529008Y-80166147D01*
X171569821Y-80222857D01*
X171573496Y-80292630D01*
X171538864Y-80353313D01*
X171529014Y-80361848D01*
X171520718Y-80368306D01*
X171446257Y-80426261D01*
X171277833Y-80609217D01*
X171141826Y-80817393D01*
X171041936Y-81045118D01*
X170980892Y-81286175D01*
X170980890Y-81286187D01*
X170960357Y-81533994D01*
X170960357Y-81534005D01*
X170980890Y-81781812D01*
X170980892Y-81781824D01*
X171041936Y-82022881D01*
X171141826Y-82250606D01*
X171277833Y-82458782D01*
X171277836Y-82458785D01*
X171446256Y-82641738D01*
X171529008Y-82706147D01*
X171569821Y-82762857D01*
X171573496Y-82832630D01*
X171538864Y-82893313D01*
X171529014Y-82901848D01*
X171470400Y-82947469D01*
X171446257Y-82966261D01*
X171277833Y-83149217D01*
X171141826Y-83357393D01*
X171041936Y-83585118D01*
X170980892Y-83826175D01*
X170980890Y-83826187D01*
X170960357Y-84073994D01*
X170960357Y-84074005D01*
X170980890Y-84321812D01*
X170980892Y-84321824D01*
X171041936Y-84562881D01*
X171141826Y-84790606D01*
X171277833Y-84998782D01*
X171277836Y-84998785D01*
X171446256Y-85181738D01*
X171529008Y-85246147D01*
X171569821Y-85302857D01*
X171573496Y-85372630D01*
X171538864Y-85433313D01*
X171529014Y-85441848D01*
X171470400Y-85487469D01*
X171446257Y-85506261D01*
X171277833Y-85689217D01*
X171141826Y-85897393D01*
X171041936Y-86125118D01*
X170980892Y-86366175D01*
X170980890Y-86366187D01*
X170960357Y-86613994D01*
X170960357Y-86614005D01*
X170980890Y-86861812D01*
X170980892Y-86861824D01*
X171041936Y-87102881D01*
X171141826Y-87330606D01*
X171277833Y-87538782D01*
X171293417Y-87555711D01*
X171446256Y-87721738D01*
X171529008Y-87786147D01*
X171569821Y-87842857D01*
X171573496Y-87912630D01*
X171538864Y-87973313D01*
X171529014Y-87981848D01*
X171479085Y-88020710D01*
X171446257Y-88046261D01*
X171277833Y-88229217D01*
X171141826Y-88437393D01*
X171041936Y-88665118D01*
X170980892Y-88906175D01*
X170980890Y-88906187D01*
X170960357Y-89153994D01*
X170960357Y-89154005D01*
X170980890Y-89401812D01*
X170980892Y-89401824D01*
X171041936Y-89642881D01*
X171141826Y-89870606D01*
X171277833Y-90078782D01*
X171293282Y-90095564D01*
X171446256Y-90261738D01*
X171529008Y-90326147D01*
X171569821Y-90382857D01*
X171573496Y-90452630D01*
X171538864Y-90513313D01*
X171529014Y-90521848D01*
X171493898Y-90549181D01*
X171446257Y-90586261D01*
X171277833Y-90769217D01*
X171141826Y-90977393D01*
X171041936Y-91205118D01*
X170980892Y-91446175D01*
X170980890Y-91446187D01*
X170960357Y-91693994D01*
X170960357Y-91694005D01*
X170980890Y-91941812D01*
X170980892Y-91941824D01*
X171041936Y-92182881D01*
X171141826Y-92410606D01*
X171277833Y-92618782D01*
X171288158Y-92629998D01*
X171446256Y-92801738D01*
X171529008Y-92866147D01*
X171569821Y-92922857D01*
X171573496Y-92992630D01*
X171538864Y-93053313D01*
X171529014Y-93061848D01*
X171470400Y-93107469D01*
X171446257Y-93126261D01*
X171277833Y-93309217D01*
X171141826Y-93517393D01*
X171041936Y-93745118D01*
X170980892Y-93986175D01*
X170980890Y-93986187D01*
X170960357Y-94233994D01*
X170960357Y-94234005D01*
X170980890Y-94481812D01*
X170980892Y-94481824D01*
X171041936Y-94722881D01*
X171141826Y-94950606D01*
X171277833Y-95158782D01*
X171310245Y-95193991D01*
X171446256Y-95341738D01*
X171529008Y-95406147D01*
X171569821Y-95462857D01*
X171573496Y-95532630D01*
X171538864Y-95593313D01*
X171529014Y-95601848D01*
X171470400Y-95647469D01*
X171446257Y-95666261D01*
X171277833Y-95849217D01*
X171141826Y-96057393D01*
X171041936Y-96285118D01*
X170980892Y-96526175D01*
X170980890Y-96526187D01*
X170960357Y-96773994D01*
X170960357Y-96774005D01*
X170980890Y-97021812D01*
X170980892Y-97021824D01*
X171041936Y-97262881D01*
X171141826Y-97490606D01*
X171277833Y-97698782D01*
X171277836Y-97698785D01*
X171446256Y-97881738D01*
X171529008Y-97946147D01*
X171569821Y-98002857D01*
X171573496Y-98072630D01*
X171538864Y-98133313D01*
X171529014Y-98141848D01*
X171470400Y-98187469D01*
X171446257Y-98206261D01*
X171277833Y-98389217D01*
X171141826Y-98597393D01*
X171041936Y-98825118D01*
X170980892Y-99066175D01*
X170980890Y-99066187D01*
X170960357Y-99313994D01*
X170960357Y-99314005D01*
X170980890Y-99561812D01*
X170980892Y-99561824D01*
X171041936Y-99802881D01*
X171141826Y-100030606D01*
X171277833Y-100238782D01*
X171277836Y-100238785D01*
X171446256Y-100421738D01*
X171529008Y-100486147D01*
X171569821Y-100542857D01*
X171573496Y-100612630D01*
X171538864Y-100673313D01*
X171529014Y-100681848D01*
X171470400Y-100727469D01*
X171446257Y-100746261D01*
X171277833Y-100929217D01*
X171141826Y-101137393D01*
X171041936Y-101365118D01*
X170980892Y-101606175D01*
X170980890Y-101606187D01*
X170960357Y-101853994D01*
X170960357Y-101854005D01*
X170980890Y-102101812D01*
X170980892Y-102101824D01*
X171041936Y-102342881D01*
X171141826Y-102570606D01*
X171277833Y-102778782D01*
X171277836Y-102778785D01*
X171446256Y-102961738D01*
X171529008Y-103026147D01*
X171569821Y-103082857D01*
X171573496Y-103152630D01*
X171538864Y-103213313D01*
X171529014Y-103221848D01*
X171470400Y-103267469D01*
X171446257Y-103286261D01*
X171277833Y-103469217D01*
X171141826Y-103677393D01*
X171041936Y-103905118D01*
X170980892Y-104146175D01*
X170980890Y-104146187D01*
X170960357Y-104393994D01*
X170960357Y-104394005D01*
X170980890Y-104641812D01*
X170980892Y-104641824D01*
X171041936Y-104882881D01*
X171141826Y-105110606D01*
X171277833Y-105318782D01*
X171277836Y-105318785D01*
X171446256Y-105501738D01*
X171529008Y-105566147D01*
X171569821Y-105622857D01*
X171573496Y-105692630D01*
X171538864Y-105753313D01*
X171529014Y-105761848D01*
X171470400Y-105807469D01*
X171446257Y-105826261D01*
X171277833Y-106009217D01*
X171141826Y-106217393D01*
X171041936Y-106445118D01*
X170980892Y-106686175D01*
X170980890Y-106686187D01*
X170960357Y-106933994D01*
X170960357Y-106934005D01*
X170980890Y-107181812D01*
X170980892Y-107181824D01*
X171041936Y-107422881D01*
X171141826Y-107650606D01*
X171277833Y-107858782D01*
X171277836Y-107858785D01*
X171446256Y-108041738D01*
X171529008Y-108106147D01*
X171569821Y-108162857D01*
X171573496Y-108232630D01*
X171538864Y-108293313D01*
X171529014Y-108301848D01*
X171479146Y-108340663D01*
X171446257Y-108366261D01*
X171277833Y-108549217D01*
X171141826Y-108757393D01*
X171041936Y-108985118D01*
X170980892Y-109226175D01*
X170980890Y-109226187D01*
X170960357Y-109473994D01*
X170960357Y-109474005D01*
X170980890Y-109721812D01*
X170980892Y-109721824D01*
X171041936Y-109962881D01*
X171141826Y-110190606D01*
X171277833Y-110398782D01*
X171277836Y-110398785D01*
X171446256Y-110581738D01*
X171529008Y-110646147D01*
X171569821Y-110702857D01*
X171573496Y-110772630D01*
X171538864Y-110833313D01*
X171529014Y-110841848D01*
X171479730Y-110880208D01*
X171446257Y-110906261D01*
X171277833Y-111089217D01*
X171141826Y-111297393D01*
X171041936Y-111525118D01*
X170980892Y-111766175D01*
X170980890Y-111766187D01*
X170960357Y-112013994D01*
X170960357Y-112014005D01*
X170980890Y-112261812D01*
X170980892Y-112261824D01*
X171041936Y-112502881D01*
X171141826Y-112730606D01*
X171277833Y-112938782D01*
X171277836Y-112938785D01*
X171446256Y-113121738D01*
X171529008Y-113186147D01*
X171569821Y-113242857D01*
X171573496Y-113312630D01*
X171538864Y-113373313D01*
X171529014Y-113381848D01*
X171491518Y-113411033D01*
X171446257Y-113446261D01*
X171277833Y-113629217D01*
X171141826Y-113837393D01*
X171041936Y-114065118D01*
X170980892Y-114306175D01*
X170980890Y-114306187D01*
X170960357Y-114553994D01*
X170960357Y-114554005D01*
X170980890Y-114801812D01*
X170980892Y-114801824D01*
X171041936Y-115042881D01*
X171141826Y-115270606D01*
X171277833Y-115478782D01*
X171277836Y-115478785D01*
X171446256Y-115661738D01*
X171529008Y-115726147D01*
X171569821Y-115782857D01*
X171573496Y-115852630D01*
X171538864Y-115913313D01*
X171529014Y-115921848D01*
X171524016Y-115925739D01*
X171446257Y-115986261D01*
X171277833Y-116169217D01*
X171141826Y-116377393D01*
X171041936Y-116605118D01*
X170980892Y-116846175D01*
X170980890Y-116846187D01*
X170960357Y-117093994D01*
X170960357Y-117094005D01*
X170980890Y-117341812D01*
X170980892Y-117341824D01*
X171041936Y-117582881D01*
X171141826Y-117810606D01*
X171277833Y-118018782D01*
X171277836Y-118018785D01*
X171446256Y-118201738D01*
X171529008Y-118266147D01*
X171569821Y-118322857D01*
X171573496Y-118392630D01*
X171538864Y-118453313D01*
X171529014Y-118461848D01*
X171470400Y-118507469D01*
X171446257Y-118526261D01*
X171277833Y-118709217D01*
X171141826Y-118917393D01*
X171041936Y-119145118D01*
X170980892Y-119386175D01*
X170980890Y-119386187D01*
X170960357Y-119633994D01*
X170960357Y-119634005D01*
X170980890Y-119881812D01*
X170980892Y-119881824D01*
X171041936Y-120122881D01*
X171141826Y-120350606D01*
X171277833Y-120558782D01*
X171277836Y-120558785D01*
X171446256Y-120741738D01*
X171529008Y-120806147D01*
X171569821Y-120862857D01*
X171573496Y-120932630D01*
X171538864Y-120993313D01*
X171529014Y-121001848D01*
X171481348Y-121038949D01*
X171446257Y-121066261D01*
X171277833Y-121249217D01*
X171141826Y-121457393D01*
X171041936Y-121685118D01*
X170980892Y-121926175D01*
X170980890Y-121926187D01*
X170960357Y-122173994D01*
X170960357Y-122174005D01*
X170980890Y-122421812D01*
X170980892Y-122421824D01*
X171041936Y-122662881D01*
X171141826Y-122890606D01*
X171277833Y-123098782D01*
X171277836Y-123098785D01*
X171446256Y-123281738D01*
X171529008Y-123346147D01*
X171569821Y-123402857D01*
X171573496Y-123472630D01*
X171538864Y-123533313D01*
X171529014Y-123541848D01*
X171470400Y-123587469D01*
X171446257Y-123606261D01*
X171277833Y-123789217D01*
X171141826Y-123997393D01*
X171041936Y-124225118D01*
X170980892Y-124466175D01*
X170980890Y-124466187D01*
X170960357Y-124713994D01*
X170960357Y-124714005D01*
X170980890Y-124961812D01*
X170980892Y-124961824D01*
X171041936Y-125202881D01*
X171141826Y-125430606D01*
X171277833Y-125638782D01*
X171277836Y-125638785D01*
X171446256Y-125821738D01*
X171642491Y-125974474D01*
X171861190Y-126092828D01*
X172096386Y-126173571D01*
X172341665Y-126214500D01*
X172590335Y-126214500D01*
X172835614Y-126173571D01*
X173070810Y-126092828D01*
X173289509Y-125974474D01*
X173485744Y-125821738D01*
X173654164Y-125638785D01*
X173790173Y-125430607D01*
X173890063Y-125202881D01*
X173951108Y-124961821D01*
X173955480Y-124909057D01*
X173971643Y-124714005D01*
X173971643Y-124713994D01*
X173951109Y-124466187D01*
X173951107Y-124466175D01*
X173890063Y-124225118D01*
X173790173Y-123997393D01*
X173654166Y-123789217D01*
X173632557Y-123765744D01*
X173485744Y-123606262D01*
X173402991Y-123541852D01*
X173362179Y-123485143D01*
X173358504Y-123415370D01*
X173393136Y-123354687D01*
X173402985Y-123346151D01*
X173485744Y-123281738D01*
X173654164Y-123098785D01*
X173790173Y-122890607D01*
X173890063Y-122662881D01*
X173951108Y-122421821D01*
X173953752Y-122389913D01*
X173971643Y-122174005D01*
X173971643Y-122173994D01*
X173951109Y-121926187D01*
X173951107Y-121926175D01*
X173890063Y-121685118D01*
X173790173Y-121457393D01*
X173654166Y-121249217D01*
X173586460Y-121175669D01*
X173485744Y-121066262D01*
X173402991Y-121001852D01*
X173362179Y-120945143D01*
X173358504Y-120875370D01*
X173393136Y-120814687D01*
X173402985Y-120806151D01*
X173485744Y-120741738D01*
X173654164Y-120558785D01*
X173790173Y-120350607D01*
X173890063Y-120122881D01*
X173951108Y-119881821D01*
X173971643Y-119634000D01*
X173968916Y-119601095D01*
X173951109Y-119386187D01*
X173951107Y-119386175D01*
X173890063Y-119145118D01*
X173790173Y-118917393D01*
X173654166Y-118709217D01*
X173632557Y-118685744D01*
X173485744Y-118526262D01*
X173402991Y-118461852D01*
X173362179Y-118405143D01*
X173358504Y-118335370D01*
X173393136Y-118274687D01*
X173402985Y-118266151D01*
X173485744Y-118201738D01*
X173654164Y-118018785D01*
X173790173Y-117810607D01*
X173890063Y-117582881D01*
X173951108Y-117341821D01*
X173951109Y-117341812D01*
X173971643Y-117094005D01*
X173971643Y-117093994D01*
X173951109Y-116846187D01*
X173951108Y-116846183D01*
X173951108Y-116846179D01*
X173945120Y-116822535D01*
X173896412Y-116630190D01*
X173890063Y-116605119D01*
X173890062Y-116605118D01*
X173889992Y-116604839D01*
X173892616Y-116535018D01*
X173922514Y-116486719D01*
X175894770Y-114514464D01*
X175956091Y-114480981D01*
X176025783Y-114485965D01*
X176081716Y-114527837D01*
X176103020Y-114573186D01*
X176103754Y-114576242D01*
X176148146Y-114712868D01*
X176150141Y-114782709D01*
X176117896Y-114838867D01*
X174785286Y-116171478D01*
X174673481Y-116283282D01*
X174673480Y-116283284D01*
X174635057Y-116349835D01*
X174594423Y-116420215D01*
X174553499Y-116572943D01*
X174553499Y-116572945D01*
X174553499Y-116741046D01*
X174553500Y-116741059D01*
X174553500Y-124743330D01*
X174553499Y-124743348D01*
X174553499Y-124909054D01*
X174553498Y-124909054D01*
X174553499Y-124909057D01*
X174594423Y-125061785D01*
X174594424Y-125061787D01*
X174594423Y-125061787D01*
X174606508Y-125082717D01*
X174606509Y-125082719D01*
X174673475Y-125198709D01*
X174673874Y-125199229D01*
X174674074Y-125199746D01*
X174677543Y-125205755D01*
X174676606Y-125206295D01*
X174699070Y-125264397D01*
X174699500Y-125274718D01*
X174699500Y-125976001D01*
X174699501Y-125976019D01*
X174710000Y-126078796D01*
X174710001Y-126078799D01*
X174765115Y-126245119D01*
X174765186Y-126245334D01*
X174857288Y-126394656D01*
X174981344Y-126518712D01*
X175130666Y-126610814D01*
X175297203Y-126665999D01*
X175399991Y-126676500D01*
X176200008Y-126676499D01*
X176200016Y-126676498D01*
X176200019Y-126676498D01*
X176256302Y-126670748D01*
X176302797Y-126665999D01*
X176469334Y-126610814D01*
X176618656Y-126518712D01*
X176712675Y-126424692D01*
X176773994Y-126391210D01*
X176843686Y-126396194D01*
X176888034Y-126424695D01*
X176981654Y-126518315D01*
X177130875Y-126610356D01*
X177130880Y-126610358D01*
X177297302Y-126665505D01*
X177297309Y-126665506D01*
X177400019Y-126675999D01*
X177549999Y-126675999D01*
X178050000Y-126675999D01*
X178199972Y-126675999D01*
X178199986Y-126675998D01*
X178302697Y-126665505D01*
X178469119Y-126610358D01*
X178469124Y-126610356D01*
X178618345Y-126518315D01*
X178742315Y-126394345D01*
X178834356Y-126245124D01*
X178834358Y-126245119D01*
X178889505Y-126078697D01*
X178889506Y-126078690D01*
X178899999Y-125975986D01*
X178900000Y-125975973D01*
X178900000Y-125726000D01*
X178050000Y-125726000D01*
X178050000Y-126675999D01*
X177549999Y-126675999D01*
X177550000Y-126675998D01*
X177550000Y-125226000D01*
X178050000Y-125226000D01*
X178899999Y-125226000D01*
X178899999Y-124976028D01*
X178899998Y-124976013D01*
X178889505Y-124873302D01*
X178834358Y-124706880D01*
X178834356Y-124706875D01*
X178742315Y-124557654D01*
X178618345Y-124433684D01*
X178469124Y-124341643D01*
X178469119Y-124341641D01*
X178302697Y-124286494D01*
X178302690Y-124286493D01*
X178199986Y-124276000D01*
X178050000Y-124276000D01*
X178050000Y-125226000D01*
X177550000Y-125226000D01*
X177550000Y-124276000D01*
X177400027Y-124276000D01*
X177400012Y-124276001D01*
X177297302Y-124286494D01*
X177130880Y-124341641D01*
X177130875Y-124341643D01*
X176981657Y-124433682D01*
X176888034Y-124527305D01*
X176826710Y-124560789D01*
X176757019Y-124555805D01*
X176712672Y-124527304D01*
X176618657Y-124433289D01*
X176618656Y-124433288D01*
X176469334Y-124341186D01*
X176302797Y-124286001D01*
X176302795Y-124286000D01*
X176200016Y-124275500D01*
X176200009Y-124275500D01*
X175878500Y-124275500D01*
X175811461Y-124255815D01*
X175765706Y-124203011D01*
X175754500Y-124151500D01*
X175754500Y-122712861D01*
X175774185Y-122645822D01*
X175790819Y-122625180D01*
X175804000Y-122611999D01*
X175804000Y-120212000D01*
X175790819Y-120198819D01*
X175757334Y-120137496D01*
X175754500Y-120111138D01*
X175754500Y-116952097D01*
X175774185Y-116885058D01*
X175790813Y-116864421D01*
X175860360Y-116794874D01*
X175921679Y-116761392D01*
X175991371Y-116766376D01*
X176047305Y-116808247D01*
X176070511Y-116863160D01*
X176104242Y-117076127D01*
X176104242Y-117076130D01*
X176169904Y-117278217D01*
X176266379Y-117467557D01*
X176391272Y-117639459D01*
X176391276Y-117639464D01*
X176541535Y-117789723D01*
X176541540Y-117789727D01*
X176713442Y-117914620D01*
X176902782Y-118011095D01*
X177104872Y-118076757D01*
X177296000Y-118107029D01*
X177296000Y-117164145D01*
X177362657Y-117202630D01*
X177483465Y-117235000D01*
X177608535Y-117235000D01*
X177729343Y-117202630D01*
X177796000Y-117164145D01*
X177796000Y-118107028D01*
X177987127Y-118076757D01*
X178189217Y-118011095D01*
X178378557Y-117914620D01*
X178550459Y-117789727D01*
X178550464Y-117789723D01*
X178700723Y-117639464D01*
X178700727Y-117639459D01*
X178825620Y-117467557D01*
X178922095Y-117278217D01*
X178987757Y-117076129D01*
X178987757Y-117076126D01*
X178998231Y-117010000D01*
X177950146Y-117010000D01*
X177988630Y-116943343D01*
X178021000Y-116822535D01*
X178021000Y-116697465D01*
X177988630Y-116576657D01*
X177950146Y-116510000D01*
X178998231Y-116510000D01*
X178987757Y-116443873D01*
X178987757Y-116443870D01*
X178922095Y-116241782D01*
X178825620Y-116052442D01*
X178700727Y-115880540D01*
X178700723Y-115880535D01*
X178550464Y-115730276D01*
X178550459Y-115730272D01*
X178385781Y-115610627D01*
X178343115Y-115555297D01*
X178337136Y-115485684D01*
X178369741Y-115423889D01*
X178385776Y-115409994D01*
X178550792Y-115290104D01*
X178701104Y-115139792D01*
X178701106Y-115139788D01*
X178701109Y-115139786D01*
X178826048Y-114967820D01*
X178826047Y-114967820D01*
X178826051Y-114967816D01*
X178922557Y-114778412D01*
X178988246Y-114576243D01*
X178989207Y-114570179D01*
X178996771Y-114522418D01*
X179021500Y-114366287D01*
X179021500Y-114366281D01*
X179021925Y-114363598D01*
X179051854Y-114300463D01*
X179111165Y-114263531D01*
X179181028Y-114264529D01*
X179232079Y-114295314D01*
X179957181Y-115020416D01*
X179990666Y-115081739D01*
X179993500Y-115108097D01*
X179993500Y-117809902D01*
X179973815Y-117876941D01*
X179957181Y-117897583D01*
X178340481Y-119514282D01*
X178340479Y-119514285D01*
X178290361Y-119601094D01*
X178290359Y-119601096D01*
X178261425Y-119651209D01*
X178261424Y-119651210D01*
X178261423Y-119651215D01*
X178220499Y-119803943D01*
X178220499Y-119803945D01*
X178220499Y-119972046D01*
X178220500Y-119972059D01*
X178220500Y-120087500D01*
X178200815Y-120154539D01*
X178148011Y-120200294D01*
X178096500Y-120211500D01*
X177653998Y-120211500D01*
X177653980Y-120211501D01*
X177551203Y-120222000D01*
X177551200Y-120222001D01*
X177384668Y-120277185D01*
X177384663Y-120277187D01*
X177235345Y-120369287D01*
X177141327Y-120463305D01*
X177080003Y-120496789D01*
X177010312Y-120491805D01*
X176965965Y-120463304D01*
X176872345Y-120369684D01*
X176723124Y-120277643D01*
X176723119Y-120277641D01*
X176556697Y-120222494D01*
X176556690Y-120222493D01*
X176453986Y-120212000D01*
X176304000Y-120212000D01*
X176304000Y-122611999D01*
X176453972Y-122611999D01*
X176453986Y-122611998D01*
X176556697Y-122601505D01*
X176723119Y-122546358D01*
X176723124Y-122546356D01*
X176872342Y-122454317D01*
X176965964Y-122360695D01*
X177027287Y-122327210D01*
X177096979Y-122332194D01*
X177141327Y-122360695D01*
X177235344Y-122454712D01*
X177384666Y-122546814D01*
X177551203Y-122601999D01*
X177653991Y-122612500D01*
X178454008Y-122612499D01*
X178454016Y-122612498D01*
X178454019Y-122612498D01*
X178510302Y-122606748D01*
X178556797Y-122601999D01*
X178723334Y-122546814D01*
X178872656Y-122454712D01*
X178996712Y-122330656D01*
X179088814Y-122181334D01*
X179143999Y-122014797D01*
X179154500Y-121912009D01*
X179154499Y-121212098D01*
X179174183Y-121145060D01*
X179190818Y-121124417D01*
X179301520Y-121013716D01*
X179380577Y-120876785D01*
X179421501Y-120724057D01*
X179421501Y-120565942D01*
X179421501Y-120558347D01*
X179421500Y-120558329D01*
X179421500Y-120183097D01*
X179441185Y-120116058D01*
X179457819Y-120095416D01*
X180787819Y-118765416D01*
X180849142Y-118731931D01*
X180918834Y-118736915D01*
X180974767Y-118778787D01*
X180999184Y-118844251D01*
X180999500Y-118853097D01*
X180999500Y-134875500D01*
X180979815Y-134942539D01*
X180927011Y-134988294D01*
X180875500Y-134999500D01*
X135624500Y-134999500D01*
X135557461Y-134979815D01*
X135511706Y-134927011D01*
X135500500Y-134875500D01*
X135500500Y-132212711D01*
X136579500Y-132212711D01*
X136579500Y-132455288D01*
X136611161Y-132695785D01*
X136673947Y-132930104D01*
X136748584Y-133110293D01*
X136766776Y-133154212D01*
X136888064Y-133364289D01*
X136888066Y-133364292D01*
X136888067Y-133364293D01*
X137035733Y-133556736D01*
X137035739Y-133556743D01*
X137207256Y-133728260D01*
X137207263Y-133728266D01*
X137320321Y-133815018D01*
X137399711Y-133875936D01*
X137609788Y-133997224D01*
X137833900Y-134090054D01*
X138068211Y-134152838D01*
X138248586Y-134176584D01*
X138308711Y-134184500D01*
X138308712Y-134184500D01*
X138551289Y-134184500D01*
X138599388Y-134178167D01*
X138791789Y-134152838D01*
X139026100Y-134090054D01*
X139250212Y-133997224D01*
X139460289Y-133875936D01*
X139652738Y-133728265D01*
X139824265Y-133556738D01*
X139971936Y-133364289D01*
X140093224Y-133154212D01*
X140186054Y-132930100D01*
X140248838Y-132695789D01*
X140280500Y-132455288D01*
X140280500Y-132212712D01*
X140278130Y-132194713D01*
X140248838Y-131972214D01*
X140248838Y-131972211D01*
X140186054Y-131737900D01*
X140093224Y-131513788D01*
X139971936Y-131303711D01*
X139824265Y-131111262D01*
X139824260Y-131111256D01*
X139652743Y-130939739D01*
X139652736Y-130939733D01*
X139460293Y-130792067D01*
X139460292Y-130792066D01*
X139460289Y-130792064D01*
X139250420Y-130670896D01*
X139250214Y-130670777D01*
X139250205Y-130670773D01*
X139026104Y-130577947D01*
X138791785Y-130515161D01*
X138551289Y-130483500D01*
X138551288Y-130483500D01*
X138308712Y-130483500D01*
X138308711Y-130483500D01*
X138068214Y-130515161D01*
X137833895Y-130577947D01*
X137609794Y-130670773D01*
X137609785Y-130670777D01*
X137399706Y-130792067D01*
X137207263Y-130939733D01*
X137207256Y-130939739D01*
X137035739Y-131111256D01*
X137035733Y-131111263D01*
X136888067Y-131303706D01*
X136766777Y-131513785D01*
X136766773Y-131513794D01*
X136673947Y-131737895D01*
X136611161Y-131972214D01*
X136579500Y-132212711D01*
X135500500Y-132212711D01*
X135500500Y-122244920D01*
X136409499Y-122244920D01*
X136438340Y-122389907D01*
X136438343Y-122389917D01*
X136494913Y-122526489D01*
X136494914Y-122526491D01*
X136494916Y-122526495D01*
X136508187Y-122546356D01*
X136508495Y-122546817D01*
X136508494Y-122546817D01*
X136577046Y-122649414D01*
X136577052Y-122649421D01*
X138146181Y-124218549D01*
X138179666Y-124279872D01*
X138182500Y-124306230D01*
X138182500Y-125344001D01*
X138182501Y-125344019D01*
X138193000Y-125446796D01*
X138193001Y-125446799D01*
X138248185Y-125613331D01*
X138248186Y-125613334D01*
X138340288Y-125762656D01*
X138464344Y-125886712D01*
X138613666Y-125978814D01*
X138780203Y-126033999D01*
X138882991Y-126044500D01*
X140483008Y-126044499D01*
X140585797Y-126033999D01*
X140752334Y-125978814D01*
X140901656Y-125886712D01*
X141025712Y-125762656D01*
X141117814Y-125613334D01*
X141172999Y-125446797D01*
X141183500Y-125344009D01*
X141183499Y-124043992D01*
X141172999Y-123941203D01*
X141117814Y-123774666D01*
X141025712Y-123625344D01*
X140901656Y-123501288D01*
X140752334Y-123409186D01*
X140752333Y-123409185D01*
X140746878Y-123405821D01*
X140700154Y-123353873D01*
X140688931Y-123284910D01*
X140716775Y-123220828D01*
X140724272Y-123212623D01*
X140863104Y-123073792D01*
X140988051Y-122901816D01*
X141084557Y-122712412D01*
X141150246Y-122510243D01*
X141183500Y-122300287D01*
X141183500Y-122087713D01*
X141150246Y-121877757D01*
X141084557Y-121675588D01*
X140988051Y-121486184D01*
X140988049Y-121486181D01*
X140988048Y-121486179D01*
X140903738Y-121370135D01*
X148867500Y-121370135D01*
X148867500Y-123465870D01*
X148867501Y-123465876D01*
X148873908Y-123525483D01*
X148924202Y-123660328D01*
X148924206Y-123660335D01*
X149010452Y-123775544D01*
X149010455Y-123775547D01*
X149125664Y-123861793D01*
X149125671Y-123861797D01*
X149260517Y-123912091D01*
X149260516Y-123912091D01*
X149267444Y-123912835D01*
X149320127Y-123918500D01*
X151415872Y-123918499D01*
X151475483Y-123912091D01*
X151610331Y-123861796D01*
X151725546Y-123775546D01*
X151811796Y-123660331D01*
X151862091Y-123525483D01*
X151868500Y-123465873D01*
X151868499Y-121370128D01*
X151862091Y-121310517D01*
X151825383Y-121212099D01*
X151811797Y-121175671D01*
X151811793Y-121175664D01*
X151725547Y-121060455D01*
X151725544Y-121060452D01*
X151610335Y-120974206D01*
X151610328Y-120974202D01*
X151475482Y-120923908D01*
X151475483Y-120923908D01*
X151415883Y-120917501D01*
X151415881Y-120917500D01*
X151415873Y-120917500D01*
X151415864Y-120917500D01*
X149320129Y-120917500D01*
X149320123Y-120917501D01*
X149260516Y-120923908D01*
X149125671Y-120974202D01*
X149125664Y-120974206D01*
X149010455Y-121060452D01*
X149010452Y-121060455D01*
X148924206Y-121175664D01*
X148924202Y-121175671D01*
X148873908Y-121310517D01*
X148867501Y-121370116D01*
X148867501Y-121370123D01*
X148867500Y-121370135D01*
X140903738Y-121370135D01*
X140863109Y-121314213D01*
X140712786Y-121163890D01*
X140540820Y-121038951D01*
X140351414Y-120942444D01*
X140351413Y-120942443D01*
X140351412Y-120942443D01*
X140149243Y-120876754D01*
X140149241Y-120876753D01*
X140149240Y-120876753D01*
X139987957Y-120851208D01*
X139939287Y-120843500D01*
X139426713Y-120843500D01*
X139378042Y-120851208D01*
X139216760Y-120876753D01*
X139014585Y-120942444D01*
X138825179Y-121038951D01*
X138653213Y-121163890D01*
X138502890Y-121314213D01*
X138377951Y-121486179D01*
X138281444Y-121675585D01*
X138215753Y-121877759D01*
X138214497Y-121885693D01*
X138184567Y-121948827D01*
X138125256Y-121985758D01*
X138055393Y-121984760D01*
X138004343Y-121953975D01*
X137946819Y-121896451D01*
X137913334Y-121835128D01*
X137910500Y-121808770D01*
X137910500Y-116697229D01*
X137930185Y-116630190D01*
X137946815Y-116609552D01*
X138224822Y-116331545D01*
X138286142Y-116298062D01*
X138355833Y-116303046D01*
X138411767Y-116344917D01*
X138436184Y-116410382D01*
X138436500Y-116419228D01*
X138436500Y-116708000D01*
X138436501Y-116708019D01*
X138447000Y-116810796D01*
X138447001Y-116810799D01*
X138490922Y-116943343D01*
X138502186Y-116977334D01*
X138594288Y-117126656D01*
X138718344Y-117250712D01*
X138867666Y-117342814D01*
X139034203Y-117397999D01*
X139136991Y-117408500D01*
X140737008Y-117408499D01*
X140839797Y-117397999D01*
X141006334Y-117342814D01*
X141155656Y-117250712D01*
X141279712Y-117126656D01*
X141371814Y-116977334D01*
X141426999Y-116810797D01*
X141437500Y-116708009D01*
X141437499Y-115670228D01*
X141457183Y-115603190D01*
X141473813Y-115582553D01*
X142238373Y-114817994D01*
X148862357Y-114817994D01*
X148862357Y-114818005D01*
X148882890Y-115065812D01*
X148882892Y-115065824D01*
X148943936Y-115306881D01*
X149043826Y-115534606D01*
X149179833Y-115742782D01*
X149179836Y-115742785D01*
X149348256Y-115925738D01*
X149544491Y-116078474D01*
X149763190Y-116196828D01*
X149998386Y-116277571D01*
X150243665Y-116318500D01*
X150492335Y-116318500D01*
X150737614Y-116277571D01*
X150972810Y-116196828D01*
X151191509Y-116078474D01*
X151387744Y-115925738D01*
X151556164Y-115742785D01*
X151692173Y-115534607D01*
X151792063Y-115306881D01*
X151853108Y-115065821D01*
X151855009Y-115042881D01*
X151873643Y-114818005D01*
X151873643Y-114817994D01*
X151853109Y-114570187D01*
X151853107Y-114570175D01*
X151792063Y-114329118D01*
X151692173Y-114101393D01*
X151556166Y-113893217D01*
X151504776Y-113837393D01*
X151387744Y-113710262D01*
X151191509Y-113557526D01*
X151191507Y-113557525D01*
X151191506Y-113557524D01*
X150972811Y-113439172D01*
X150972802Y-113439169D01*
X150737616Y-113358429D01*
X150492335Y-113317500D01*
X150243665Y-113317500D01*
X149998383Y-113358429D01*
X149763197Y-113439169D01*
X149763188Y-113439172D01*
X149544493Y-113557524D01*
X149348257Y-113710261D01*
X149179833Y-113893217D01*
X149043826Y-114101393D01*
X148943936Y-114329118D01*
X148882892Y-114570175D01*
X148882890Y-114570187D01*
X148862357Y-114817994D01*
X142238373Y-114817994D01*
X142568952Y-114487415D01*
X142602109Y-114437792D01*
X142651084Y-114364495D01*
X142694679Y-114259248D01*
X142707659Y-114227912D01*
X142736500Y-114082917D01*
X142736500Y-113935082D01*
X142736500Y-109984209D01*
X142756185Y-109917170D01*
X142808989Y-109871415D01*
X142878147Y-109861471D01*
X142941703Y-109890496D01*
X142962075Y-109913086D01*
X143047170Y-110034615D01*
X143047175Y-110034621D01*
X143203378Y-110190824D01*
X143203384Y-110190829D01*
X143384333Y-110317531D01*
X143384335Y-110317532D01*
X143384338Y-110317534D01*
X143584550Y-110410894D01*
X143797932Y-110468070D01*
X143955123Y-110481822D01*
X144017998Y-110487323D01*
X144018000Y-110487323D01*
X144018002Y-110487323D01*
X144073017Y-110482509D01*
X144238068Y-110468070D01*
X144451450Y-110410894D01*
X144651662Y-110317534D01*
X144832620Y-110190826D01*
X144988826Y-110034620D01*
X145115534Y-109853662D01*
X145175618Y-109724811D01*
X145221790Y-109672371D01*
X145288983Y-109653219D01*
X145355865Y-109673435D01*
X145400382Y-109724811D01*
X145460464Y-109853658D01*
X145460468Y-109853666D01*
X145587170Y-110034615D01*
X145587175Y-110034621D01*
X145743378Y-110190824D01*
X145743384Y-110190829D01*
X145924333Y-110317531D01*
X145924335Y-110317532D01*
X145924338Y-110317534D01*
X146124550Y-110410894D01*
X146337932Y-110468070D01*
X146495123Y-110481822D01*
X146557998Y-110487323D01*
X146558000Y-110487323D01*
X146558002Y-110487323D01*
X146613017Y-110482509D01*
X146778068Y-110468070D01*
X146991450Y-110410894D01*
X147191662Y-110317534D01*
X147372620Y-110190826D01*
X147528826Y-110034620D01*
X147655534Y-109853662D01*
X147748894Y-109653450D01*
X147806070Y-109440068D01*
X147824782Y-109226187D01*
X147825323Y-109220002D01*
X147825323Y-109219997D01*
X147810727Y-109053162D01*
X147806070Y-108999932D01*
X147748894Y-108786550D01*
X147655534Y-108586339D01*
X147528826Y-108405380D01*
X147372620Y-108249174D01*
X147372616Y-108249171D01*
X147372615Y-108249170D01*
X147191666Y-108122468D01*
X147191662Y-108122466D01*
X147174980Y-108114687D01*
X146991450Y-108029106D01*
X146991447Y-108029105D01*
X146991445Y-108029104D01*
X146778070Y-107971930D01*
X146778062Y-107971929D01*
X146558002Y-107952677D01*
X146557998Y-107952677D01*
X146337937Y-107971929D01*
X146337929Y-107971930D01*
X146124554Y-108029104D01*
X146124548Y-108029107D01*
X145924340Y-108122465D01*
X145924338Y-108122466D01*
X145743377Y-108249175D01*
X145587175Y-108405377D01*
X145460466Y-108586338D01*
X145460465Y-108586340D01*
X145400382Y-108715189D01*
X145354209Y-108767628D01*
X145287016Y-108786780D01*
X145220135Y-108766564D01*
X145175618Y-108715189D01*
X145126566Y-108609998D01*
X145115534Y-108586339D01*
X144988826Y-108405380D01*
X144832620Y-108249174D01*
X144832616Y-108249171D01*
X144832615Y-108249170D01*
X144651666Y-108122468D01*
X144651662Y-108122466D01*
X144634980Y-108114687D01*
X144451450Y-108029106D01*
X144451447Y-108029105D01*
X144451445Y-108029104D01*
X144238070Y-107971930D01*
X144238062Y-107971929D01*
X144018002Y-107952677D01*
X144017998Y-107952677D01*
X143797937Y-107971929D01*
X143797929Y-107971930D01*
X143584554Y-108029104D01*
X143584548Y-108029107D01*
X143384340Y-108122465D01*
X143384338Y-108122466D01*
X143203377Y-108249175D01*
X143047175Y-108405377D01*
X142920466Y-108586338D01*
X142920465Y-108586340D01*
X142860382Y-108715189D01*
X142814209Y-108767628D01*
X142747016Y-108786780D01*
X142680135Y-108766564D01*
X142635618Y-108715189D01*
X142586566Y-108609998D01*
X142575534Y-108586339D01*
X142448826Y-108405380D01*
X142292620Y-108249174D01*
X142292616Y-108249171D01*
X142292615Y-108249170D01*
X142111666Y-108122468D01*
X142111662Y-108122466D01*
X142094980Y-108114687D01*
X141911450Y-108029106D01*
X141911447Y-108029105D01*
X141911445Y-108029104D01*
X141698070Y-107971930D01*
X141698062Y-107971929D01*
X141478002Y-107952677D01*
X141477998Y-107952677D01*
X141257937Y-107971929D01*
X141257929Y-107971930D01*
X141044554Y-108029104D01*
X141044548Y-108029107D01*
X140844340Y-108122465D01*
X140844338Y-108122466D01*
X140663377Y-108249175D01*
X140507175Y-108405377D01*
X140380466Y-108586338D01*
X140380465Y-108586340D01*
X140320382Y-108715189D01*
X140274209Y-108767628D01*
X140207016Y-108786780D01*
X140140135Y-108766564D01*
X140095618Y-108715189D01*
X140046566Y-108609998D01*
X140035534Y-108586339D01*
X139908826Y-108405380D01*
X139752620Y-108249174D01*
X139752616Y-108249171D01*
X139752615Y-108249170D01*
X139571666Y-108122468D01*
X139571662Y-108122466D01*
X139554980Y-108114687D01*
X139371450Y-108029106D01*
X139371447Y-108029105D01*
X139371445Y-108029104D01*
X139158070Y-107971930D01*
X139158062Y-107971929D01*
X138938002Y-107952677D01*
X138937998Y-107952677D01*
X138717937Y-107971929D01*
X138717929Y-107971930D01*
X138504554Y-108029104D01*
X138504548Y-108029107D01*
X138304340Y-108122465D01*
X138304338Y-108122466D01*
X138123377Y-108249175D01*
X137967175Y-108405377D01*
X137840466Y-108586338D01*
X137840465Y-108586340D01*
X137747107Y-108786548D01*
X137747104Y-108786554D01*
X137689930Y-108999929D01*
X137689929Y-108999937D01*
X137670677Y-109219997D01*
X137670677Y-109220002D01*
X137689929Y-109440062D01*
X137689930Y-109440070D01*
X137747104Y-109653445D01*
X137747105Y-109653447D01*
X137747106Y-109653450D01*
X137780382Y-109724811D01*
X137840466Y-109853662D01*
X137840468Y-109853666D01*
X137967170Y-110034615D01*
X137967175Y-110034621D01*
X138123378Y-110190824D01*
X138123384Y-110190829D01*
X138304333Y-110317531D01*
X138304335Y-110317532D01*
X138304338Y-110317534D01*
X138504550Y-110410894D01*
X138717932Y-110468070D01*
X138875123Y-110481822D01*
X138937998Y-110487323D01*
X138938000Y-110487323D01*
X138938002Y-110487323D01*
X138993017Y-110482509D01*
X139158068Y-110468070D01*
X139371450Y-110410894D01*
X139571662Y-110317534D01*
X139752620Y-110190826D01*
X139908826Y-110034620D01*
X140035534Y-109853662D01*
X140095618Y-109724811D01*
X140141790Y-109672371D01*
X140208983Y-109653219D01*
X140275865Y-109673435D01*
X140320382Y-109724811D01*
X140380464Y-109853658D01*
X140380468Y-109853666D01*
X140507170Y-110034615D01*
X140507175Y-110034621D01*
X140663378Y-110190824D01*
X140663384Y-110190829D01*
X140844333Y-110317531D01*
X140844335Y-110317532D01*
X140844338Y-110317534D01*
X141044550Y-110410894D01*
X141143594Y-110437432D01*
X141203253Y-110473796D01*
X141233783Y-110536643D01*
X141235500Y-110557207D01*
X141235500Y-112497242D01*
X141215815Y-112564281D01*
X141163011Y-112610036D01*
X141093853Y-112619980D01*
X141030297Y-112590955D01*
X141023819Y-112584923D01*
X140966786Y-112527890D01*
X140794820Y-112402951D01*
X140605414Y-112306444D01*
X140605413Y-112306443D01*
X140605412Y-112306443D01*
X140403243Y-112240754D01*
X140403241Y-112240753D01*
X140403240Y-112240753D01*
X140241957Y-112215208D01*
X140193287Y-112207500D01*
X139680713Y-112207500D01*
X139632042Y-112215208D01*
X139470760Y-112240753D01*
X139268585Y-112306444D01*
X139079179Y-112402951D01*
X138907213Y-112527890D01*
X138756890Y-112678213D01*
X138631951Y-112850179D01*
X138535444Y-113039585D01*
X138469753Y-113241760D01*
X138436500Y-113451713D01*
X138436500Y-113664286D01*
X138469754Y-113874246D01*
X138470892Y-113878986D01*
X138468352Y-113879595D01*
X138470485Y-113938557D01*
X138438004Y-113995626D01*
X136577047Y-115856584D01*
X136577043Y-115856589D01*
X136533437Y-115921854D01*
X136530842Y-115925738D01*
X136512879Y-115952621D01*
X136494916Y-115979504D01*
X136494912Y-115979511D01*
X136438343Y-116116082D01*
X136438340Y-116116092D01*
X136409500Y-116261079D01*
X136409500Y-116261082D01*
X136409500Y-122244918D01*
X136409500Y-122244920D01*
X136409499Y-122244920D01*
X135500500Y-122244920D01*
X135500500Y-67442711D01*
X137087500Y-67442711D01*
X137087500Y-67685288D01*
X137119161Y-67925785D01*
X137181947Y-68160104D01*
X137258583Y-68345118D01*
X137274776Y-68384212D01*
X137396064Y-68594289D01*
X137396066Y-68594292D01*
X137396067Y-68594293D01*
X137543733Y-68786736D01*
X137543739Y-68786743D01*
X137715256Y-68958260D01*
X137715263Y-68958266D01*
X137810472Y-69031322D01*
X137907711Y-69105936D01*
X138117788Y-69227224D01*
X138341900Y-69320054D01*
X138576211Y-69382838D01*
X138756586Y-69406584D01*
X138816711Y-69414500D01*
X138816712Y-69414500D01*
X139059289Y-69414500D01*
X139107388Y-69408167D01*
X139299789Y-69382838D01*
X139534100Y-69320054D01*
X139758212Y-69227224D01*
X139968289Y-69105936D01*
X140160738Y-68958265D01*
X140332265Y-68786738D01*
X140479936Y-68594289D01*
X140601224Y-68384212D01*
X140694054Y-68160100D01*
X140756838Y-67925789D01*
X140788500Y-67685288D01*
X140788500Y-67442712D01*
X140756838Y-67202211D01*
X140694054Y-66967900D01*
X140601224Y-66743788D01*
X140479936Y-66533711D01*
X140332265Y-66341262D01*
X140332260Y-66341256D01*
X140160743Y-66169739D01*
X140160736Y-66169733D01*
X139968293Y-66022067D01*
X139968292Y-66022066D01*
X139968289Y-66022064D01*
X139758212Y-65900776D01*
X139758205Y-65900773D01*
X139534104Y-65807947D01*
X139299785Y-65745161D01*
X139059289Y-65713500D01*
X139059288Y-65713500D01*
X138816712Y-65713500D01*
X138816711Y-65713500D01*
X138576214Y-65745161D01*
X138341895Y-65807947D01*
X138117794Y-65900773D01*
X138117785Y-65900777D01*
X137907706Y-66022067D01*
X137715263Y-66169733D01*
X137715256Y-66169739D01*
X137543739Y-66341256D01*
X137543733Y-66341263D01*
X137396067Y-66533706D01*
X137274777Y-66743785D01*
X137274773Y-66743794D01*
X137181947Y-66967895D01*
X137119161Y-67202214D01*
X137087500Y-67442711D01*
X135500500Y-67442711D01*
X135500500Y-64322500D01*
X135520185Y-64255461D01*
X135572989Y-64209706D01*
X135624500Y-64198500D01*
X149975769Y-64198500D01*
X150042808Y-64218185D01*
G37*
%TD.AperFunction*%
%TA.AperFunction,Conductor*%
G36*
X174174974Y-68852209D02*
G01*
X177417181Y-72094416D01*
X177450666Y-72155739D01*
X177453500Y-72182097D01*
X177453500Y-74043500D01*
X177433815Y-74110539D01*
X177381011Y-74156294D01*
X177329502Y-74167500D01*
X177278999Y-74167500D01*
X177278980Y-74167501D01*
X177176203Y-74178000D01*
X177176200Y-74178001D01*
X177009668Y-74233185D01*
X177009663Y-74233187D01*
X176860342Y-74325289D01*
X176736289Y-74449342D01*
X176644187Y-74598663D01*
X176644185Y-74598668D01*
X176629083Y-74644243D01*
X176589001Y-74765203D01*
X176589001Y-74765204D01*
X176589000Y-74765204D01*
X176578500Y-74867983D01*
X176578500Y-76168001D01*
X176578501Y-76168018D01*
X176589000Y-76270796D01*
X176589001Y-76270799D01*
X176644185Y-76437331D01*
X176644187Y-76437336D01*
X176654469Y-76454005D01*
X176736288Y-76586656D01*
X176860344Y-76710712D01*
X176918012Y-76746282D01*
X177015120Y-76806178D01*
X177061845Y-76858126D01*
X177073068Y-76927088D01*
X177045224Y-76991171D01*
X177037706Y-76999398D01*
X176898889Y-77138215D01*
X176773951Y-77310179D01*
X176677444Y-77499585D01*
X176677443Y-77499587D01*
X176677443Y-77499588D01*
X176657249Y-77561738D01*
X176611753Y-77701760D01*
X176586991Y-77858104D01*
X176578500Y-77911713D01*
X176578500Y-78124287D01*
X176584880Y-78164567D01*
X176609877Y-78322396D01*
X176611754Y-78334243D01*
X176671803Y-78519055D01*
X176677444Y-78536414D01*
X176773951Y-78725820D01*
X176898890Y-78897786D01*
X177049209Y-79048105D01*
X177049214Y-79048109D01*
X177213793Y-79167682D01*
X177256459Y-79223011D01*
X177262438Y-79292625D01*
X177229833Y-79354420D01*
X177213793Y-79368318D01*
X177049214Y-79487890D01*
X177049209Y-79487894D01*
X176898890Y-79638213D01*
X176773951Y-79810179D01*
X176677444Y-79999585D01*
X176611753Y-80201760D01*
X176591215Y-80331432D01*
X176578500Y-80411713D01*
X176578500Y-80624287D01*
X176586207Y-80672949D01*
X176610471Y-80826147D01*
X176611754Y-80834243D01*
X176671902Y-81019360D01*
X176677444Y-81036414D01*
X176773951Y-81225820D01*
X176898890Y-81397786D01*
X177049209Y-81548105D01*
X177049214Y-81548109D01*
X177213793Y-81667682D01*
X177256459Y-81723011D01*
X177262438Y-81792625D01*
X177229833Y-81854420D01*
X177213793Y-81868318D01*
X177049214Y-81987890D01*
X177049209Y-81987894D01*
X176898890Y-82138213D01*
X176773951Y-82310179D01*
X176677444Y-82499585D01*
X176611753Y-82701760D01*
X176578500Y-82911713D01*
X176578500Y-83124287D01*
X176586207Y-83172949D01*
X176611249Y-83331059D01*
X176611754Y-83334243D01*
X176677420Y-83536342D01*
X176677444Y-83536414D01*
X176773951Y-83725820D01*
X176898890Y-83897786D01*
X176902053Y-83901488D01*
X176901178Y-83902234D01*
X176932065Y-83958799D01*
X176927081Y-84028491D01*
X176898580Y-84072838D01*
X174175980Y-86795437D01*
X174114657Y-86828922D01*
X174044965Y-86823938D01*
X173989032Y-86782066D01*
X173964615Y-86716602D01*
X173964723Y-86697516D01*
X173971643Y-86614005D01*
X173971643Y-86613994D01*
X173951109Y-86366187D01*
X173951107Y-86366175D01*
X173890063Y-86125118D01*
X173790173Y-85897393D01*
X173654166Y-85689217D01*
X173613459Y-85644998D01*
X173485744Y-85506262D01*
X173402991Y-85441852D01*
X173362179Y-85385143D01*
X173358504Y-85315370D01*
X173393136Y-85254687D01*
X173402985Y-85246151D01*
X173485744Y-85181738D01*
X173654164Y-84998785D01*
X173790173Y-84790607D01*
X173890063Y-84562881D01*
X173951108Y-84321821D01*
X173951840Y-84312989D01*
X173971643Y-84074005D01*
X173971643Y-84073994D01*
X173951109Y-83826187D01*
X173951107Y-83826175D01*
X173890063Y-83585118D01*
X173790173Y-83357393D01*
X173654166Y-83149217D01*
X173565938Y-83053376D01*
X173485744Y-82966262D01*
X173402991Y-82901852D01*
X173362179Y-82845143D01*
X173358504Y-82775370D01*
X173393136Y-82714687D01*
X173402985Y-82706151D01*
X173485744Y-82641738D01*
X173654164Y-82458785D01*
X173790173Y-82250607D01*
X173890063Y-82022881D01*
X173951108Y-81781821D01*
X173951204Y-81780666D01*
X173971643Y-81534005D01*
X173971643Y-81533994D01*
X173951109Y-81286187D01*
X173951107Y-81286175D01*
X173890063Y-81045118D01*
X173790173Y-80817393D01*
X173654166Y-80609217D01*
X173603529Y-80554211D01*
X173485744Y-80426262D01*
X173402991Y-80361852D01*
X173362179Y-80305143D01*
X173358504Y-80235370D01*
X173393136Y-80174687D01*
X173402985Y-80166151D01*
X173485744Y-80101738D01*
X173654164Y-79918785D01*
X173790173Y-79710607D01*
X173890063Y-79482881D01*
X173951108Y-79241821D01*
X173951109Y-79241812D01*
X173971643Y-78994005D01*
X173971643Y-78993994D01*
X173951109Y-78746187D01*
X173951107Y-78746175D01*
X173890063Y-78505118D01*
X173790173Y-78277393D01*
X173654166Y-78069217D01*
X173620836Y-78033011D01*
X173485744Y-77886262D01*
X173402991Y-77821852D01*
X173362179Y-77765143D01*
X173358504Y-77695370D01*
X173393136Y-77634687D01*
X173402985Y-77626151D01*
X173485744Y-77561738D01*
X173654164Y-77378785D01*
X173790173Y-77170607D01*
X173890063Y-76942881D01*
X173951108Y-76701821D01*
X173956878Y-76632185D01*
X173971643Y-76454005D01*
X173971643Y-76453994D01*
X173951109Y-76206187D01*
X173951107Y-76206175D01*
X173890063Y-75965118D01*
X173790173Y-75737393D01*
X173654166Y-75529217D01*
X173611667Y-75483051D01*
X173485744Y-75346262D01*
X173402991Y-75281852D01*
X173362179Y-75225143D01*
X173358504Y-75155370D01*
X173393136Y-75094687D01*
X173402985Y-75086151D01*
X173485744Y-75021738D01*
X173654164Y-74838785D01*
X173790173Y-74630607D01*
X173890063Y-74402881D01*
X173951108Y-74161821D01*
X173951274Y-74159816D01*
X173971643Y-73914005D01*
X173971643Y-73913994D01*
X173951109Y-73666187D01*
X173951107Y-73666175D01*
X173890063Y-73425118D01*
X173790173Y-73197393D01*
X173654166Y-72989217D01*
X173564509Y-72891824D01*
X173485744Y-72806262D01*
X173382253Y-72725712D01*
X173341442Y-72669003D01*
X173334655Y-72620176D01*
X173336056Y-72597609D01*
X172603575Y-71865128D01*
X172662853Y-71849245D01*
X172779147Y-71782102D01*
X172874102Y-71687147D01*
X172941245Y-71570853D01*
X172957127Y-71511575D01*
X173689434Y-72243882D01*
X173789731Y-72090369D01*
X173889587Y-71862717D01*
X173950612Y-71621738D01*
X173950614Y-71621729D01*
X173971141Y-71374005D01*
X173971141Y-71373994D01*
X173950614Y-71126270D01*
X173950612Y-71126261D01*
X173889587Y-70885282D01*
X173789731Y-70657630D01*
X173689434Y-70504116D01*
X172957127Y-71236423D01*
X172941245Y-71177147D01*
X172874102Y-71060853D01*
X172779147Y-70965898D01*
X172662853Y-70898755D01*
X172603575Y-70882872D01*
X173336056Y-70150390D01*
X173334655Y-70127825D01*
X173350147Y-70059694D01*
X173382250Y-70022290D01*
X173485744Y-69941738D01*
X173654164Y-69758785D01*
X173790173Y-69550607D01*
X173890063Y-69322881D01*
X173951108Y-69081821D01*
X173963717Y-68929647D01*
X173988870Y-68864466D01*
X174045271Y-68823227D01*
X174115015Y-68819029D01*
X174174974Y-68852209D01*
G37*
%TD.AperFunction*%
%TA.AperFunction,Conductor*%
G36*
X155688799Y-76632185D02*
G01*
X155734554Y-76684989D01*
X155741964Y-76706054D01*
X155797938Y-76927088D01*
X155801937Y-76942881D01*
X155901826Y-77170606D01*
X156037833Y-77378782D01*
X156065297Y-77408616D01*
X156206256Y-77561738D01*
X156289008Y-77626147D01*
X156329821Y-77682857D01*
X156333496Y-77752630D01*
X156298864Y-77813313D01*
X156289014Y-77821848D01*
X156242432Y-77858105D01*
X156206257Y-77886261D01*
X156037833Y-78069217D01*
X155901826Y-78277393D01*
X155801936Y-78505118D01*
X155740892Y-78746175D01*
X155740890Y-78746187D01*
X155720357Y-78993994D01*
X155720357Y-78994005D01*
X155740890Y-79241812D01*
X155740892Y-79241824D01*
X155802007Y-79483160D01*
X155799382Y-79552980D01*
X155769482Y-79601281D01*
X154522908Y-80847855D01*
X154461585Y-80881340D01*
X154391893Y-80876356D01*
X154335960Y-80834484D01*
X154330234Y-80826147D01*
X154299817Y-80777739D01*
X154172262Y-80650184D01*
X154019523Y-80554211D01*
X153849254Y-80494631D01*
X153849249Y-80494630D01*
X153670004Y-80474435D01*
X153669996Y-80474435D01*
X153490750Y-80494630D01*
X153490745Y-80494631D01*
X153320476Y-80554211D01*
X153167737Y-80650184D01*
X153040184Y-80777737D01*
X153004528Y-80834484D01*
X152984778Y-80865917D01*
X152978774Y-80875472D01*
X152926439Y-80921763D01*
X152873780Y-80933500D01*
X152619308Y-80933500D01*
X152552269Y-80913815D01*
X152531626Y-80897180D01*
X152500370Y-80865923D01*
X152500362Y-80865917D01*
X152385344Y-80797896D01*
X152358898Y-80782256D01*
X152358897Y-80782255D01*
X152358896Y-80782255D01*
X152358893Y-80782254D01*
X152201073Y-80736402D01*
X152201067Y-80736401D01*
X152164201Y-80733500D01*
X152164194Y-80733500D01*
X150998000Y-80733500D01*
X150930961Y-80713815D01*
X150885206Y-80661011D01*
X150874000Y-80609500D01*
X150874000Y-80368313D01*
X150873999Y-80368298D01*
X150873197Y-80358109D01*
X150871098Y-80331431D01*
X150843189Y-80235370D01*
X150825245Y-80173606D01*
X150825244Y-80173603D01*
X150825244Y-80173602D01*
X150741581Y-80032135D01*
X150741579Y-80032133D01*
X150741576Y-80032129D01*
X150625370Y-79915923D01*
X150625362Y-79915917D01*
X150507838Y-79846414D01*
X150483898Y-79832256D01*
X150483897Y-79832255D01*
X150483896Y-79832255D01*
X150483893Y-79832254D01*
X150326073Y-79786402D01*
X150326067Y-79786401D01*
X150289201Y-79783500D01*
X150289194Y-79783500D01*
X148982806Y-79783500D01*
X148982798Y-79783500D01*
X148945932Y-79786401D01*
X148945926Y-79786402D01*
X148788106Y-79832254D01*
X148788103Y-79832255D01*
X148646637Y-79915917D01*
X148646629Y-79915923D01*
X148615374Y-79947180D01*
X148554052Y-79980666D01*
X148527692Y-79983500D01*
X148460057Y-79983500D01*
X148301942Y-79983500D01*
X148149215Y-80024423D01*
X148149214Y-80024423D01*
X148149212Y-80024424D01*
X148149209Y-80024425D01*
X148104183Y-80050422D01*
X148104181Y-80050423D01*
X148012290Y-80103475D01*
X148012282Y-80103481D01*
X147900478Y-80215286D01*
X146820181Y-81295582D01*
X146758858Y-81329067D01*
X146689166Y-81324083D01*
X146644819Y-81295583D01*
X146530521Y-81181286D01*
X146530521Y-81181285D01*
X146418717Y-81069481D01*
X146418716Y-81069480D01*
X146331904Y-81019360D01*
X146331904Y-81019359D01*
X146331900Y-81019358D01*
X146281785Y-80990423D01*
X146129057Y-80949499D01*
X145970943Y-80949499D01*
X145963347Y-80949499D01*
X145963331Y-80949500D01*
X140145759Y-80949500D01*
X140078720Y-80929815D01*
X140058078Y-80913182D01*
X140003631Y-80858735D01*
X139942792Y-80797896D01*
X139778204Y-80678316D01*
X139735540Y-80622989D01*
X139729561Y-80553376D01*
X139762166Y-80491580D01*
X139778199Y-80477686D01*
X139942792Y-80358104D01*
X140093104Y-80207792D01*
X140093106Y-80207788D01*
X140093109Y-80207786D01*
X140218048Y-80035820D01*
X140218047Y-80035820D01*
X140218051Y-80035816D01*
X140314557Y-79846412D01*
X140380246Y-79644243D01*
X140413500Y-79434287D01*
X140413500Y-79221713D01*
X140380246Y-79011757D01*
X140335851Y-78875126D01*
X140333857Y-78805290D01*
X140366100Y-78749133D01*
X140510247Y-78604986D01*
X143950001Y-78604986D01*
X143960494Y-78707697D01*
X144015641Y-78874119D01*
X144015643Y-78874124D01*
X144107684Y-79023345D01*
X144231654Y-79147315D01*
X144380875Y-79239356D01*
X144380880Y-79239358D01*
X144547302Y-79294505D01*
X144547309Y-79294506D01*
X144650019Y-79304999D01*
X144799999Y-79304999D01*
X144800000Y-79304998D01*
X144800000Y-78355000D01*
X143950001Y-78355000D01*
X143950001Y-78604986D01*
X140510247Y-78604986D01*
X141516416Y-77598819D01*
X141577739Y-77565334D01*
X141604097Y-77562500D01*
X143826000Y-77562500D01*
X143893039Y-77582185D01*
X143938794Y-77634989D01*
X143950000Y-77686500D01*
X143950000Y-77855000D01*
X145176000Y-77855000D01*
X145243039Y-77874685D01*
X145288794Y-77927489D01*
X145300000Y-77979000D01*
X145300000Y-79304999D01*
X145449972Y-79304999D01*
X145449986Y-79304998D01*
X145552697Y-79294505D01*
X145719119Y-79239358D01*
X145719124Y-79239356D01*
X145868342Y-79147317D01*
X145961964Y-79053695D01*
X146023287Y-79020210D01*
X146092979Y-79025194D01*
X146137327Y-79053695D01*
X146231344Y-79147712D01*
X146380666Y-79239814D01*
X146547203Y-79294999D01*
X146649991Y-79305500D01*
X147450008Y-79305499D01*
X147450016Y-79305498D01*
X147450019Y-79305498D01*
X147506302Y-79299748D01*
X147552797Y-79294999D01*
X147719334Y-79239814D01*
X147868656Y-79147712D01*
X147992712Y-79023656D01*
X148084814Y-78874334D01*
X148139999Y-78707797D01*
X148148570Y-78623897D01*
X148174966Y-78559206D01*
X148232146Y-78519055D01*
X148271928Y-78512500D01*
X148606192Y-78512500D01*
X148673231Y-78532185D01*
X148693874Y-78548820D01*
X148725129Y-78580076D01*
X148725133Y-78580079D01*
X148725135Y-78580081D01*
X148866602Y-78663744D01*
X148908224Y-78675836D01*
X149024426Y-78709597D01*
X149024429Y-78709597D01*
X149024431Y-78709598D01*
X149061306Y-78712500D01*
X149061314Y-78712500D01*
X150367686Y-78712500D01*
X150367694Y-78712500D01*
X150404569Y-78709598D01*
X150404571Y-78709597D01*
X150404573Y-78709597D01*
X150446191Y-78697505D01*
X150562398Y-78663744D01*
X150703865Y-78580081D01*
X150820081Y-78463865D01*
X150903744Y-78322398D01*
X150949598Y-78164569D01*
X150952500Y-78127694D01*
X150952500Y-77886500D01*
X150972185Y-77819461D01*
X151024989Y-77773706D01*
X151076500Y-77762500D01*
X152242686Y-77762500D01*
X152242694Y-77762500D01*
X152279569Y-77759598D01*
X152279571Y-77759597D01*
X152279573Y-77759597D01*
X152321191Y-77747505D01*
X152437398Y-77713744D01*
X152578865Y-77630081D01*
X152695081Y-77513865D01*
X152778744Y-77372398D01*
X152816198Y-77243481D01*
X152824597Y-77214573D01*
X152824598Y-77214567D01*
X152827499Y-77177701D01*
X152827500Y-77177694D01*
X152827500Y-76746306D01*
X152827497Y-76746272D01*
X152827494Y-76746222D01*
X152827496Y-76746212D01*
X152827404Y-76743868D01*
X152827993Y-76743844D01*
X152841862Y-76677845D01*
X152890916Y-76628091D01*
X152951112Y-76612500D01*
X155621760Y-76612500D01*
X155688799Y-76632185D01*
G37*
%TD.AperFunction*%
%TA.AperFunction,Conductor*%
G36*
X143898638Y-72776449D02*
G01*
X143898638Y-72775000D01*
X145176000Y-72775000D01*
X145243039Y-72794685D01*
X145288794Y-72847489D01*
X145300000Y-72899000D01*
X145300000Y-73151000D01*
X145280315Y-73218039D01*
X145227511Y-73263794D01*
X145176000Y-73275000D01*
X143950001Y-73275000D01*
X143950001Y-73524986D01*
X143960494Y-73627697D01*
X144015641Y-73794119D01*
X144015643Y-73794124D01*
X144107684Y-73943345D01*
X144231654Y-74067315D01*
X144380875Y-74159356D01*
X144380882Y-74159359D01*
X144434211Y-74177030D01*
X144491656Y-74216802D01*
X144518480Y-74281317D01*
X144506166Y-74350093D01*
X144458623Y-74401294D01*
X144434214Y-74412441D01*
X144380672Y-74430184D01*
X144380663Y-74430187D01*
X144231342Y-74522289D01*
X144107289Y-74646342D01*
X144015187Y-74795663D01*
X144015186Y-74795666D01*
X143968201Y-74937456D01*
X143928428Y-74994900D01*
X143912495Y-75005838D01*
X143776287Y-75084477D01*
X143776282Y-75084481D01*
X143491465Y-75369298D01*
X143430142Y-75402783D01*
X143417668Y-75404837D01*
X143330750Y-75414630D01*
X143160478Y-75474210D01*
X143007737Y-75570184D01*
X142880184Y-75697737D01*
X142784211Y-75850476D01*
X142724631Y-76020745D01*
X142724630Y-76020750D01*
X142704435Y-76199996D01*
X142704435Y-76200000D01*
X142707096Y-76223615D01*
X142695042Y-76292437D01*
X142647694Y-76343817D01*
X142583876Y-76361500D01*
X141224942Y-76361500D01*
X141072215Y-76402423D01*
X141058860Y-76410134D01*
X141058857Y-76410135D01*
X140935290Y-76481475D01*
X140935282Y-76481481D01*
X140823478Y-76593286D01*
X140624079Y-76792684D01*
X140562756Y-76826169D01*
X140493064Y-76821185D01*
X140437131Y-76779313D01*
X140413925Y-76724401D01*
X140413500Y-76721717D01*
X140413500Y-76721713D01*
X140380246Y-76511757D01*
X140335851Y-76375126D01*
X140333857Y-76305290D01*
X140366100Y-76249133D01*
X143807438Y-72807796D01*
X143868759Y-72774313D01*
X143898638Y-72776449D01*
G37*
%TD.AperFunction*%
%TD*%
M02*
