%TF.GenerationSoftware,KiCad,Pcbnew,8.0.2-1*%
%TF.CreationDate,2024-10-23T15:46:43-04:00*%
%TF.ProjectId,Airbrake_ComputeBoard,41697262-7261-46b6-955f-436f6d707574,rev?*%
%TF.SameCoordinates,Original*%
%TF.FileFunction,Soldermask,Top*%
%TF.FilePolarity,Negative*%
%FSLAX46Y46*%
G04 Gerber Fmt 4.6, Leading zero omitted, Abs format (unit mm)*
G04 Created by KiCad (PCBNEW 8.0.2-1) date 2024-10-23 15:46:43*
%MOMM*%
%LPD*%
G01*
G04 APERTURE LIST*
G04 Aperture macros list*
%AMRoundRect*
0 Rectangle with rounded corners*
0 $1 Rounding radius*
0 $2 $3 $4 $5 $6 $7 $8 $9 X,Y pos of 4 corners*
0 Add a 4 corners polygon primitive as box body*
4,1,4,$2,$3,$4,$5,$6,$7,$8,$9,$2,$3,0*
0 Add four circle primitives for the rounded corners*
1,1,$1+$1,$2,$3*
1,1,$1+$1,$4,$5*
1,1,$1+$1,$6,$7*
1,1,$1+$1,$8,$9*
0 Add four rect primitives between the rounded corners*
20,1,$1+$1,$2,$3,$4,$5,0*
20,1,$1+$1,$4,$5,$6,$7,0*
20,1,$1+$1,$6,$7,$8,$9,0*
20,1,$1+$1,$8,$9,$2,$3,0*%
G04 Aperture macros list end*
%ADD10C,3.200000*%
%ADD11RoundRect,0.250000X-0.350000X-0.450000X0.350000X-0.450000X0.350000X0.450000X-0.350000X0.450000X0*%
%ADD12RoundRect,0.250000X0.600000X0.725000X-0.600000X0.725000X-0.600000X-0.725000X0.600000X-0.725000X0*%
%ADD13O,1.700000X1.950000*%
%ADD14C,2.000000*%
%ADD15R,2.000000X2.000000*%
%ADD16RoundRect,0.250000X0.350000X0.450000X-0.350000X0.450000X-0.350000X-0.450000X0.350000X-0.450000X0*%
%ADD17C,1.524000*%
%ADD18RoundRect,0.250000X-0.725000X0.600000X-0.725000X-0.600000X0.725000X-0.600000X0.725000X0.600000X0*%
%ADD19O,1.950000X1.700000*%
%ADD20RoundRect,0.250000X0.750000X-0.600000X0.750000X0.600000X-0.750000X0.600000X-0.750000X-0.600000X0*%
%ADD21O,2.000000X1.700000*%
%ADD22RoundRect,0.150000X-0.587500X-0.150000X0.587500X-0.150000X0.587500X0.150000X-0.587500X0.150000X0*%
%ADD23RoundRect,0.250000X0.725000X-0.600000X0.725000X0.600000X-0.725000X0.600000X-0.725000X-0.600000X0*%
G04 APERTURE END LIST*
D10*
%TO.C,H3*%
X138430000Y-132334000D03*
%TD*%
D11*
%TO.C,R9*%
X145050000Y-73025000D03*
X147050000Y-73025000D03*
%TD*%
D12*
%TO.C,BlueRaven1*%
X156170000Y-131826000D03*
D13*
X153670000Y-131826000D03*
X151170000Y-131826000D03*
X148670000Y-131826000D03*
X146170000Y-131826000D03*
%TD*%
D14*
%TO.C,Teensy4.1*%
X157226000Y-66294000D03*
X157226000Y-68834000D03*
X157226000Y-71374000D03*
X157226000Y-73914000D03*
X157226000Y-76454000D03*
X157226000Y-78994000D03*
X157226000Y-81534000D03*
X157226000Y-84074000D03*
X157226000Y-86614000D03*
X157226000Y-89154000D03*
X157226000Y-91694000D03*
X157226000Y-94234000D03*
X157226000Y-96774000D03*
X157226000Y-99314000D03*
X157226000Y-101854000D03*
X157226000Y-104394000D03*
X157226000Y-106934000D03*
X157226000Y-109474000D03*
X157226000Y-112014000D03*
X157226000Y-114554000D03*
X157226000Y-117094000D03*
X157226000Y-119634000D03*
X157226000Y-122174000D03*
X157226000Y-124714000D03*
X172466000Y-124714000D03*
X172466000Y-122174000D03*
X172466000Y-119634000D03*
X172466000Y-117094000D03*
X172466000Y-114554000D03*
X172466000Y-112014000D03*
X172466000Y-109474000D03*
X172466000Y-106934000D03*
X172466000Y-104394000D03*
X172466000Y-101854000D03*
X172466000Y-99314000D03*
X172466000Y-96774000D03*
X172466000Y-94234000D03*
X172466000Y-91694000D03*
X172466000Y-89154000D03*
X172466000Y-86614000D03*
X172466000Y-84074000D03*
X172466000Y-81534000D03*
X172466000Y-78994000D03*
X172466000Y-76454000D03*
X172466000Y-73914000D03*
X172466000Y-71374000D03*
X172466000Y-68834000D03*
X172466000Y-66294000D03*
X160276000Y-72644000D03*
X160276000Y-75184000D03*
X160276000Y-77724000D03*
X160276000Y-80264000D03*
X160276000Y-82804000D03*
%TD*%
D15*
%TO.C,BZ1*%
X150368000Y-122418000D03*
D14*
X150368000Y-114818000D03*
%TD*%
D16*
%TO.C,R2*%
X177800000Y-125476000D03*
X175800000Y-125476000D03*
%TD*%
D11*
%TO.C,R10*%
X145050000Y-70485000D03*
X147050000Y-70485000D03*
%TD*%
%TO.C,R7*%
X145050000Y-78105000D03*
X147050000Y-78105000D03*
%TD*%
D17*
%TO.C,Buck_Converter1*%
X138938000Y-109220000D03*
X141478000Y-109220000D03*
X144018000Y-109220000D03*
X146558000Y-109220000D03*
%TD*%
D18*
%TO.C,VN-100-1*%
X178054000Y-75518000D03*
D19*
X178054000Y-78018000D03*
X178054000Y-80518000D03*
X178054000Y-83018000D03*
X178054000Y-85518000D03*
X178054000Y-88018000D03*
%TD*%
D20*
%TO.C,PowerSwitch1*%
X139937000Y-116058000D03*
D21*
X139937000Y-113558000D03*
%TD*%
D18*
%TO.C,SensorBoard1*%
X177546000Y-109260000D03*
D19*
X177546000Y-111760000D03*
X177546000Y-114260000D03*
X177546000Y-116760000D03*
%TD*%
D10*
%TO.C,H1*%
X138938000Y-67564000D03*
%TD*%
%TO.C,H4*%
X177800000Y-132080000D03*
%TD*%
D22*
%TO.C,Q4*%
X149636000Y-72832000D03*
X151511000Y-71882000D03*
X149636000Y-70932000D03*
%TD*%
D23*
%TO.C,MotorDriver1*%
X138938000Y-86828000D03*
D19*
X138938000Y-84328000D03*
X138938000Y-81828000D03*
X138938000Y-79328000D03*
X138938000Y-76828000D03*
X138938000Y-74328000D03*
%TD*%
D11*
%TO.C,R8*%
X145050000Y-75565000D03*
X147050000Y-75565000D03*
%TD*%
D18*
%TO.C,MotorEncoder1*%
X177309000Y-94802000D03*
D19*
X177309000Y-97302000D03*
X177309000Y-99802000D03*
X177309000Y-102302000D03*
%TD*%
D22*
%TO.C,Q3*%
X149714500Y-77912000D03*
X151589500Y-76962000D03*
X149714500Y-76012000D03*
%TD*%
D16*
%TO.C,R1*%
X178054000Y-121412000D03*
X176054000Y-121412000D03*
%TD*%
D22*
%TO.C,Q1*%
X149557500Y-89215000D03*
X151432500Y-88265000D03*
X149557500Y-87315000D03*
%TD*%
D11*
%TO.C,R6*%
X145050000Y-82550000D03*
X147050000Y-82550000D03*
%TD*%
%TO.C,R4*%
X145050000Y-85725000D03*
X147050000Y-85725000D03*
%TD*%
D16*
%TO.C,R3*%
X151495000Y-91440000D03*
X149495000Y-91440000D03*
%TD*%
D20*
%TO.C,Battery1*%
X139683000Y-124694000D03*
D21*
X139683000Y-122194000D03*
%TD*%
D16*
%TO.C,R5*%
X151495000Y-84455000D03*
X149495000Y-84455000D03*
%TD*%
D10*
%TO.C,H2*%
X177546000Y-67564000D03*
%TD*%
D22*
%TO.C,Q2*%
X149636000Y-82484000D03*
X151511000Y-81534000D03*
X149636000Y-80584000D03*
%TD*%
M02*
