M48
; DRILL file {KiCad 8.0.2-1} date 2024-12-19T12:27:26-0500
; FORMAT={-:-/ absolute / inch / decimal}
; #@! TF.CreationDate,2024-12-19T12:27:26-05:00
; #@! TF.GenerationSoftware,Kicad,Pcbnew,8.0.2-1
; #@! TF.FileFunction,Plated,1,2,PTH
FMAT,2
INCH
; #@! TA.AperFunction,Plated,PTH,ViaDrill
T1C0.0118
; #@! TA.AperFunction,Plated,PTH,ComponentDrill
T2C0.0300
; #@! TA.AperFunction,Plated,PTH,ComponentDrill
T3C0.0315
; #@! TA.AperFunction,Plated,PTH,ComponentDrill
T4C0.0374
; #@! TA.AperFunction,Plated,PTH,ComponentDrill
T5C0.0394
; #@! TA.AperFunction,Plated,PTH,ComponentDrill
T6C0.0402
%
G90
G05
T1
X5.775Y-3.95
X5.825Y-3.65
X5.825Y-3.9
X6.0Y-3.825
X6.0Y-3.875
X6.3Y-3.9317
X6.3776Y-3.96
X6.54Y-5.02
X6.55Y-3.45
X6.6Y-5.0
T2
X5.47Y-4.3
X5.57Y-4.3
X5.67Y-4.3
X5.77Y-4.3
T3
X5.7746Y-2.9752
X5.7746Y-3.0752
X5.7746Y-3.3002
X5.7746Y-3.4002
X6.0746Y-2.9752
X6.0746Y-3.0752
X6.0746Y-3.3002
X6.0746Y-3.4002
T4
X5.47Y-2.9263
X5.47Y-3.0247
X5.47Y-3.1231
X5.47Y-3.2216
X5.47Y-3.32
X5.47Y-3.4184
X5.7547Y-5.19
X5.8531Y-5.19
X5.9516Y-5.19
X6.05Y-5.19
X6.1484Y-5.19
X6.9807Y-3.7324
X6.9807Y-3.8308
X6.9807Y-3.9292
X6.9807Y-4.0276
X6.99Y-4.3016
X6.99Y-4.4
X6.99Y-4.4984
X6.99Y-4.5969
X7.01Y-2.9731
X7.01Y-3.0716
X7.01Y-3.17
X7.01Y-3.2684
X7.01Y-3.3669
X7.01Y-3.4653
T5
X5.4993Y-4.8108
X5.4993Y-4.9092
X5.5Y-4.4708
X5.5Y-4.5692
X5.8266Y-2.675
X5.92Y-4.5204
X5.92Y-4.8196
X5.925Y-2.675
T6
X6.19Y-2.61
X6.19Y-2.71
X6.19Y-2.81
X6.19Y-2.91
X6.19Y-3.01
X6.19Y-3.11
X6.19Y-3.21
X6.19Y-3.31
X6.19Y-3.41
X6.19Y-3.51
X6.19Y-3.61
X6.19Y-3.71
X6.19Y-3.81
X6.19Y-3.91
X6.19Y-4.01
X6.19Y-4.11
X6.19Y-4.21
X6.19Y-4.31
X6.19Y-4.41
X6.19Y-4.51
X6.19Y-4.61
X6.19Y-4.71
X6.19Y-4.81
X6.19Y-4.91
X6.3101Y-2.86
X6.3101Y-2.96
X6.3101Y-3.06
X6.3101Y-3.16
X6.3101Y-3.26
X6.79Y-2.61
X6.79Y-2.71
X6.79Y-2.81
X6.79Y-2.91
X6.79Y-3.01
X6.79Y-3.11
X6.79Y-3.21
X6.79Y-3.31
X6.79Y-3.41
X6.79Y-3.51
X6.79Y-3.61
X6.79Y-3.71
X6.79Y-3.81
X6.79Y-3.91
X6.79Y-4.01
X6.79Y-4.11
X6.79Y-4.21
X6.79Y-4.31
X6.79Y-4.41
X6.79Y-4.51
X6.79Y-4.61
X6.79Y-4.71
X6.79Y-4.81
X6.79Y-4.91
M30
