%TF.GenerationSoftware,KiCad,Pcbnew,8.0.2-1*%
%TF.CreationDate,2024-12-19T12:27:28-05:00*%
%TF.ProjectId,Airbrake_ComputeBoard,41697262-7261-46b6-955f-436f6d707574,rev?*%
%TF.SameCoordinates,Original*%
%TF.FileFunction,Copper,L2,Bot*%
%TF.FilePolarity,Positive*%
%FSLAX46Y46*%
G04 Gerber Fmt 4.6, Leading zero omitted, Abs format (unit mm)*
G04 Created by KiCad (PCBNEW 8.0.2-1) date 2024-12-19 12:27:28*
%MOMM*%
%LPD*%
G01*
G04 APERTURE LIST*
G04 Aperture macros list*
%AMRoundRect*
0 Rectangle with rounded corners*
0 $1 Rounding radius*
0 $2 $3 $4 $5 $6 $7 $8 $9 X,Y pos of 4 corners*
0 Add a 4 corners polygon primitive as box body*
4,1,4,$2,$3,$4,$5,$6,$7,$8,$9,$2,$3,0*
0 Add four circle primitives for the rounded corners*
1,1,$1+$1,$2,$3*
1,1,$1+$1,$4,$5*
1,1,$1+$1,$6,$7*
1,1,$1+$1,$8,$9*
0 Add four rect primitives between the rounded corners*
20,1,$1+$1,$2,$3,$4,$5,0*
20,1,$1+$1,$4,$5,$6,$7,0*
20,1,$1+$1,$6,$7,$8,$9,0*
20,1,$1+$1,$8,$9,$2,$3,0*%
G04 Aperture macros list end*
%TA.AperFunction,ComponentPad*%
%ADD10R,1.600000X1.600000*%
%TD*%
%TA.AperFunction,ComponentPad*%
%ADD11O,1.600000X1.600000*%
%TD*%
%TA.AperFunction,ComponentPad*%
%ADD12RoundRect,0.250000X0.600000X0.725000X-0.600000X0.725000X-0.600000X-0.725000X0.600000X-0.725000X0*%
%TD*%
%TA.AperFunction,ComponentPad*%
%ADD13O,1.700000X1.950000*%
%TD*%
%TA.AperFunction,ComponentPad*%
%ADD14C,2.000000*%
%TD*%
%TA.AperFunction,ComponentPad*%
%ADD15R,2.000000X2.000000*%
%TD*%
%TA.AperFunction,ComponentPad*%
%ADD16C,1.524000*%
%TD*%
%TA.AperFunction,ComponentPad*%
%ADD17RoundRect,0.250000X-0.725000X0.600000X-0.725000X-0.600000X0.725000X-0.600000X0.725000X0.600000X0*%
%TD*%
%TA.AperFunction,ComponentPad*%
%ADD18O,1.950000X1.700000*%
%TD*%
%TA.AperFunction,ComponentPad*%
%ADD19RoundRect,0.250000X0.750000X-0.600000X0.750000X0.600000X-0.750000X0.600000X-0.750000X-0.600000X0*%
%TD*%
%TA.AperFunction,ComponentPad*%
%ADD20O,2.000000X1.700000*%
%TD*%
%TA.AperFunction,ComponentPad*%
%ADD21RoundRect,0.250000X0.725000X-0.600000X0.725000X0.600000X-0.725000X0.600000X-0.725000X-0.600000X0*%
%TD*%
%TA.AperFunction,ComponentPad*%
%ADD22RoundRect,0.250000X-0.600000X-0.750000X0.600000X-0.750000X0.600000X0.750000X-0.600000X0.750000X0*%
%TD*%
%TA.AperFunction,ComponentPad*%
%ADD23O,1.700000X2.000000*%
%TD*%
%TA.AperFunction,ViaPad*%
%ADD24C,0.600000*%
%TD*%
%TA.AperFunction,Conductor*%
%ADD25C,0.500000*%
%TD*%
%TA.AperFunction,Conductor*%
%ADD26C,0.200000*%
%TD*%
%TA.AperFunction,Conductor*%
%ADD27C,0.400000*%
%TD*%
%TA.AperFunction,Conductor*%
%ADD28C,0.100000*%
%TD*%
G04 APERTURE END LIST*
D10*
%TO.P,U3,1*%
%TO.N,/Stop*%
X154295000Y-78110000D03*
D11*
%TO.P,U3,2*%
%TO.N,Net-(R3-Pad1)*%
X154295000Y-75570000D03*
%TO.P,U3,3*%
%TO.N,GND*%
X146675000Y-75570000D03*
%TO.P,U3,4*%
%TO.N,/Stop_5V*%
X146675000Y-78110000D03*
%TD*%
D12*
%TO.P,BlueRaven1,1,Pin_1*%
%TO.N,/usb_5v*%
X156170000Y-131826000D03*
D13*
%TO.P,BlueRaven1,2,Pin_2*%
%TO.N,/D-*%
X153670000Y-131826000D03*
%TO.P,BlueRaven1,3,Pin_3*%
%TO.N,/D+*%
X151170000Y-131826000D03*
%TO.P,BlueRaven1,4,Pin_4*%
%TO.N,GND*%
X148670000Y-131826000D03*
%TO.P,BlueRaven1,5,Pin_5*%
X146170000Y-131826000D03*
%TD*%
D14*
%TO.P,Teensy4.1,0,GND*%
%TO.N,GND*%
X157226000Y-66294000D03*
%TO.P,Teensy4.1,1,RX1*%
%TO.N,unconnected-(Teensy4.1-RX1-Pad1)*%
X157226000Y-68834000D03*
%TO.P,Teensy4.1,2,TX1*%
%TO.N,unconnected-(Teensy4.1-TX1-Pad2)*%
X157226000Y-71374000D03*
%TO.P,Teensy4.1,3,PWM*%
%TO.N,/SV*%
X157226000Y-73914000D03*
%TO.P,Teensy4.1,4,PWM*%
%TO.N,/BK*%
X157226000Y-76454000D03*
%TO.P,Teensy4.1,5,PWM*%
%TO.N,/Stop*%
X157226000Y-78994000D03*
%TO.P,Teensy4.1,6,PWM*%
%TO.N,/Dir*%
X157226000Y-81534000D03*
%TO.P,Teensy4.1,7,PWM*%
%TO.N,/Limit_Switch*%
X157226000Y-84074000D03*
%TO.P,Teensy4.1,8,RX2*%
%TO.N,unconnected-(Teensy4.1-RX2-Pad8)*%
X157226000Y-86614000D03*
%TO.P,Teensy4.1,9,TX2*%
%TO.N,unconnected-(Teensy4.1-TX2-Pad9)*%
X157226000Y-89154000D03*
%TO.P,Teensy4.1,10,PWM*%
%TO.N,unconnected-(Teensy4.1-PWM-Pad10)*%
X157226000Y-91694000D03*
%TO.P,Teensy4.1,11,CS*%
%TO.N,/CS*%
X157226000Y-94234000D03*
%TO.P,Teensy4.1,12,MOSI*%
%TO.N,/MOSI*%
X157226000Y-96774000D03*
%TO.P,Teensy4.1,13,MISO*%
%TO.N,/MISO*%
X157226000Y-99314000D03*
%TO.P,Teensy4.1,14,3.3V*%
%TO.N,unconnected-(Teensy4.1-3.3V-Pad14)*%
X157226000Y-101854000D03*
%TO.P,Teensy4.1,15,SCL2*%
%TO.N,unconnected-(Teensy4.1-SCL2-Pad15)*%
X157226000Y-104394000D03*
%TO.P,Teensy4.1,16,SDA2*%
%TO.N,unconnected-(Teensy4.1-SDA2-Pad16)*%
X157226000Y-106934000D03*
%TO.P,Teensy4.1,17,MOSI1*%
%TO.N,unconnected-(Teensy4.1-MOSI1-Pad17)*%
X157226000Y-109474000D03*
%TO.P,Teensy4.1,18,SCK1*%
%TO.N,unconnected-(Teensy4.1-SCK1-Pad18)*%
X157226000Y-112014000D03*
%TO.P,Teensy4.1,19,RX7*%
%TO.N,unconnected-(Teensy4.1-RX7-Pad19)*%
X157226000Y-114554000D03*
%TO.P,Teensy4.1,20,TX7*%
%TO.N,unconnected-(Teensy4.1-TX7-Pad20)*%
X157226000Y-117094000D03*
%TO.P,Teensy4.1,21,GPIO*%
%TO.N,unconnected-(Teensy4.1-GPIO-Pad21)*%
X157226000Y-119634000D03*
%TO.P,Teensy4.1,22,GPIO*%
%TO.N,unconnected-(Teensy4.1-GPIO-Pad22)*%
X157226000Y-122174000D03*
%TO.P,Teensy4.1,23,GPIO*%
%TO.N,unconnected-(Teensy4.1-GPIO-Pad23)*%
X157226000Y-124714000D03*
%TO.P,Teensy4.1,24,PWM*%
%TO.N,unconnected-(Teensy4.1-PWM-Pad24)*%
X172466000Y-124714000D03*
%TO.P,Teensy4.1,25,RX8*%
%TO.N,unconnected-(Teensy4.1-RX8-Pad25)*%
X172466000Y-122174000D03*
%TO.P,Teensy4.1,26,TX8*%
%TO.N,unconnected-(Teensy4.1-TX8-Pad26)*%
X172466000Y-119634000D03*
%TO.P,Teensy4.1,27,PWM*%
%TO.N,/Encoder_A*%
X172466000Y-117094000D03*
%TO.P,Teensy4.1,28,PWM*%
%TO.N,/Encoder_B*%
X172466000Y-114554000D03*
%TO.P,Teensy4.1,29,CS1*%
%TO.N,unconnected-(Teensy4.1-CS1-Pad29)*%
X172466000Y-112014000D03*
%TO.P,Teensy4.1,30,MISO*%
%TO.N,unconnected-(Teensy4.1-MISO-Pad30)*%
X172466000Y-109474000D03*
%TO.P,Teensy4.1,31,A16*%
%TO.N,unconnected-(Teensy4.1-A16-Pad31)*%
X172466000Y-106934000D03*
%TO.P,Teensy4.1,32,A17*%
%TO.N,unconnected-(Teensy4.1-A17-Pad32)*%
X172466000Y-104394000D03*
%TO.P,Teensy4.1,33,GND*%
%TO.N,unconnected-(Teensy4.1-GND-Pad33)*%
X172466000Y-101854000D03*
%TO.P,Teensy4.1,34,SCK*%
%TO.N,/SCK*%
X172466000Y-99314000D03*
%TO.P,Teensy4.1,35,A0*%
%TO.N,unconnected-(Teensy4.1-A0-Pad35)*%
X172466000Y-96774000D03*
%TO.P,Teensy4.1,36,A1*%
%TO.N,unconnected-(Teensy4.1-A1-Pad36)*%
X172466000Y-94234000D03*
%TO.P,Teensy4.1,37,A2*%
%TO.N,unconnected-(Teensy4.1-A2-Pad37)*%
X172466000Y-91694000D03*
%TO.P,Teensy4.1,38,A3*%
%TO.N,unconnected-(Teensy4.1-A3-Pad38)*%
X172466000Y-89154000D03*
%TO.P,Teensy4.1,39,SDA*%
%TO.N,/SDA*%
X172466000Y-86614000D03*
%TO.P,Teensy4.1,40,SCL*%
%TO.N,/SCL*%
X172466000Y-84074000D03*
%TO.P,Teensy4.1,41,TX5*%
%TO.N,/BR-RX*%
X172466000Y-81534000D03*
%TO.P,Teensy4.1,42,RX5*%
%TO.N,/BR-TX*%
X172466000Y-78994000D03*
%TO.P,Teensy4.1,43,PWM*%
%TO.N,unconnected-(Teensy4.1-PWM-Pad43)*%
X172466000Y-76454000D03*
%TO.P,Teensy4.1,44,PWM*%
%TO.N,/buzzer*%
X172466000Y-73914000D03*
%TO.P,Teensy4.1,45,3.3V*%
%TO.N,+3.3V*%
X172466000Y-71374000D03*
%TO.P,Teensy4.1,46,GND*%
%TO.N,GND*%
X172466000Y-68834000D03*
%TO.P,Teensy4.1,47,Vin*%
%TO.N,+5V*%
X172466000Y-66294000D03*
%TO.P,Teensy4.1,48,usb_5v*%
%TO.N,/usb_5v*%
X160276000Y-72644000D03*
%TO.P,Teensy4.1,49,usb_D-*%
%TO.N,/D-*%
X160276000Y-75184000D03*
%TO.P,Teensy4.1,50,usb_D+*%
%TO.N,/D+*%
X160276000Y-77724000D03*
%TO.P,Teensy4.1,51,GND*%
%TO.N,GND*%
X160276000Y-80264000D03*
%TO.P,Teensy4.1,52,GND*%
X160276000Y-82804000D03*
%TD*%
D15*
%TO.P,BZ1,1,+*%
%TO.N,/buzzer*%
X150368000Y-122418000D03*
D14*
%TO.P,BZ1,2,-*%
%TO.N,GND*%
X150368000Y-114818000D03*
%TD*%
D16*
%TO.P,Buck_Converter1,0,EN*%
%TO.N,unconnected-(Buck_Converter1-EN-Pad0)*%
X138938000Y-109220000D03*
%TO.P,Buck_Converter1,1,VIN*%
%TO.N,Net-(Buck_Converter1-VIN)*%
X141478000Y-109220000D03*
%TO.P,Buck_Converter1,2,GND*%
%TO.N,GND*%
X144018000Y-109220000D03*
%TO.P,Buck_Converter1,3,VO*%
%TO.N,+5V*%
X146558000Y-109220000D03*
%TD*%
D17*
%TO.P,VN-100-1,1,Pin_1*%
%TO.N,+5V*%
X178054000Y-75518000D03*
D18*
%TO.P,VN-100-1,2,Pin_2*%
%TO.N,/MOSI*%
X178054000Y-78018000D03*
%TO.P,VN-100-1,3,Pin_3*%
%TO.N,/MISO*%
X178054000Y-80518000D03*
%TO.P,VN-100-1,4,Pin_4*%
%TO.N,/SCK*%
X178054000Y-83018000D03*
%TO.P,VN-100-1,5,Pin_5*%
%TO.N,/CS*%
X178054000Y-85518000D03*
%TO.P,VN-100-1,6,Pin_6*%
%TO.N,GND*%
X178054000Y-88018000D03*
%TD*%
D19*
%TO.P,PowerSwitch1,1,Pin_1*%
%TO.N,Net-(Buck_Converter1-VIN)*%
X139700000Y-116058000D03*
D20*
%TO.P,PowerSwitch1,2,Pin_2*%
%TO.N,Net-(Battery1-Pin_1)*%
X139700000Y-113558000D03*
%TD*%
D17*
%TO.P,SensorBoard1,1,Pin_1*%
%TO.N,GND*%
X177546000Y-109260000D03*
D18*
%TO.P,SensorBoard1,2,Pin_2*%
%TO.N,/SCL*%
X177546000Y-111760000D03*
%TO.P,SensorBoard1,3,Pin_3*%
%TO.N,/SDA*%
X177546000Y-114260000D03*
%TO.P,SensorBoard1,4,Pin_4*%
%TO.N,+3.3V*%
X177546000Y-116760000D03*
%TD*%
D21*
%TO.P,MotorDriver1,1,Pin_1*%
%TO.N,GND*%
X138938000Y-86828000D03*
D18*
%TO.P,MotorDriver1,2,Pin_2*%
%TO.N,/Dir_5V*%
X138938000Y-84328000D03*
%TO.P,MotorDriver1,3,Pin_3*%
%TO.N,/Stop_5V*%
X138938000Y-81828000D03*
%TO.P,MotorDriver1,4,Pin_4*%
%TO.N,/BK_5V*%
X138938000Y-79328000D03*
%TO.P,MotorDriver1,5,Pin_5*%
%TO.N,/SV_5V*%
X138938000Y-76828000D03*
%TO.P,MotorDriver1,6,Pin_6*%
%TO.N,+5V*%
X138938000Y-74328000D03*
%TD*%
D17*
%TO.P,MotorEncoder1,1,Pin_1*%
%TO.N,GND*%
X177309000Y-94802000D03*
D18*
%TO.P,MotorEncoder1,2,Pin_2*%
%TO.N,/Encoder_A_5V*%
X177309000Y-97302000D03*
%TO.P,MotorEncoder1,3,Pin_3*%
%TO.N,+5V*%
X177309000Y-99802000D03*
%TO.P,MotorEncoder1,4,Pin_4*%
%TO.N,/Encoder_B_5V*%
X177309000Y-102302000D03*
%TD*%
D10*
%TO.P,U1,1*%
%TO.N,/Dir*%
X154295000Y-86365000D03*
D11*
%TO.P,U1,2*%
%TO.N,Net-(R5-Pad1)*%
X154295000Y-83825000D03*
%TO.P,U1,3*%
%TO.N,GND*%
X146675000Y-83825000D03*
%TO.P,U1,4*%
%TO.N,/Dir_5V*%
X146675000Y-86365000D03*
%TD*%
D19*
%TO.P,Battery1,1,Pin_1*%
%TO.N,Net-(Battery1-Pin_1)*%
X139683000Y-124694000D03*
D20*
%TO.P,Battery1,2,Pin_2*%
%TO.N,GND*%
X139683000Y-122194000D03*
%TD*%
D22*
%TO.P,LimitSwitch1,1,Pin_1*%
%TO.N,GND*%
X147995000Y-67945000D03*
D23*
%TO.P,LimitSwitch1,2,Pin_2*%
%TO.N,/Limit_Switch*%
X150495000Y-67945000D03*
%TD*%
D24*
%TO.N,+5V*%
X146685000Y-100330000D03*
%TO.N,+3.3V*%
X147955000Y-92710000D03*
X147955000Y-99060000D03*
X167640000Y-127000000D03*
%TO.N,/CS*%
X166370000Y-87630000D03*
%TO.N,/buzzer*%
X166116000Y-127508000D03*
%TO.N,/Encoder_A*%
X152400000Y-98425000D03*
%TO.N,/Encoder_B*%
X152400000Y-97155000D03*
%TO.N,/Encoder_A_5V*%
X161990000Y-100584000D03*
%TO.N,/Encoder_B_5V*%
X160020000Y-99864000D03*
%TD*%
D25*
%TO.N,+5V*%
X146558000Y-98298000D02*
X146558000Y-109220000D01*
X137513000Y-75753000D02*
X137513000Y-89253000D01*
X142875000Y-94615000D02*
X146558000Y-98298000D01*
X138938000Y-74328000D02*
X137513000Y-75753000D01*
X137513000Y-89253000D02*
X142875000Y-94615000D01*
D26*
%TO.N,+3.3V*%
X147955000Y-117281478D02*
X147955000Y-92710000D01*
X179329000Y-114977000D02*
X177546000Y-116760000D01*
X179329000Y-73994000D02*
X179329000Y-114977000D01*
X167640000Y-127000000D02*
X166654000Y-126014000D01*
X176709000Y-71374000D02*
X179329000Y-73994000D01*
X172466000Y-71374000D02*
X176709000Y-71374000D01*
X156687522Y-126014000D02*
X147955000Y-117281478D01*
X166654000Y-126014000D02*
X156687522Y-126014000D01*
D27*
%TO.N,GND*%
X139533000Y-86828000D02*
X140970000Y-88265000D01*
D26*
X138938000Y-86828000D02*
X139533000Y-86828000D01*
%TO.N,/SCK*%
X173766000Y-98014000D02*
X172466000Y-99314000D01*
X173766000Y-87306000D02*
X173766000Y-98014000D01*
X178054000Y-83018000D02*
X173766000Y-87306000D01*
D28*
%TO.N,/MOSI*%
X167386000Y-82306233D02*
X171948233Y-77744000D01*
X177780000Y-77744000D02*
X178054000Y-78018000D01*
X157226000Y-96774000D02*
X164592000Y-96774000D01*
X164592000Y-96774000D02*
X167386000Y-93980000D01*
X167386000Y-93980000D02*
X167386000Y-82306233D01*
X171948233Y-77744000D02*
X177780000Y-77744000D01*
D26*
%TO.N,/Limit_Switch*%
X150495000Y-77343000D02*
X157226000Y-84074000D01*
X150495000Y-67310000D02*
X150495000Y-77343000D01*
%TO.N,/Stop_5V*%
X138938000Y-81828000D02*
X142957000Y-81828000D01*
X142957000Y-81828000D02*
X146675000Y-78110000D01*
D28*
%TO.N,/CS*%
X166370000Y-92710000D02*
X165608000Y-93472000D01*
X166370000Y-87630000D02*
X166370000Y-92710000D01*
X165100000Y-93472000D02*
X164338000Y-94234000D01*
X165608000Y-93472000D02*
X165100000Y-93472000D01*
X164338000Y-94234000D02*
X157226000Y-94234000D01*
%TO.N,/MISO*%
X163322000Y-99314000D02*
X167894000Y-94742000D01*
X170200000Y-80244000D02*
X177780000Y-80244000D01*
X177780000Y-80244000D02*
X178054000Y-80518000D01*
X157226000Y-99314000D02*
X163322000Y-99314000D01*
X167894000Y-82550000D02*
X170200000Y-80244000D01*
X167894000Y-94742000D02*
X167894000Y-82550000D01*
D26*
%TO.N,/buzzer*%
X165608000Y-128016000D02*
X166116000Y-127508000D01*
X155966000Y-128016000D02*
X165608000Y-128016000D01*
X150368000Y-122418000D02*
X155966000Y-128016000D01*
%TO.N,/Dir_5V*%
X146675000Y-86365000D02*
X140975000Y-86365000D01*
X140975000Y-86365000D02*
X138938000Y-84328000D01*
D28*
%TO.N,/Encoder_A*%
X158516000Y-103144000D02*
X156748233Y-103144000D01*
X152400000Y-98795767D02*
X152400000Y-98425000D01*
X167132000Y-111760000D02*
X158516000Y-103144000D01*
X172466000Y-117094000D02*
X167132000Y-111760000D01*
X156748233Y-103144000D02*
X152400000Y-98795767D01*
%TO.N,/Encoder_B*%
X155829000Y-100584000D02*
X152400000Y-97155000D01*
X157794478Y-100584000D02*
X155829000Y-100584000D01*
X172466000Y-114554000D02*
X158496000Y-100584000D01*
X158496000Y-100584000D02*
X157794478Y-100584000D01*
D26*
%TO.N,/Stop*%
X157226000Y-78994000D02*
X155179000Y-78994000D01*
X155179000Y-78994000D02*
X154295000Y-78110000D01*
D28*
%TO.N,/Encoder_A_5V*%
X161990000Y-100584000D02*
X174152000Y-100584000D01*
X177309000Y-97427000D02*
X177309000Y-97302000D01*
X174152000Y-100584000D02*
X177309000Y-97427000D01*
%TO.N,/Encoder_B_5V*%
X176507000Y-103104000D02*
X177309000Y-102302000D01*
X160020000Y-99864000D02*
X163260000Y-103104000D01*
X163260000Y-103104000D02*
X176507000Y-103104000D01*
%TD*%
%TA.AperFunction,Conductor*%
%TO.N,GND*%
G36*
X148227370Y-131642657D02*
G01*
X148195000Y-131763465D01*
X148195000Y-131888535D01*
X148227370Y-132009343D01*
X148265854Y-132076000D01*
X146574146Y-132076000D01*
X146612630Y-132009343D01*
X146645000Y-131888535D01*
X146645000Y-131763465D01*
X146612630Y-131642657D01*
X146574146Y-131576000D01*
X148265854Y-131576000D01*
X148227370Y-131642657D01*
G37*
%TD.AperFunction*%
%TA.AperFunction,Conductor*%
G36*
X176498935Y-85524813D02*
G01*
X176554868Y-85566685D01*
X176578074Y-85621597D01*
X176600707Y-85764500D01*
X176611754Y-85834243D01*
X176639134Y-85918511D01*
X176677444Y-86036414D01*
X176773951Y-86225820D01*
X176898890Y-86397786D01*
X177049209Y-86548105D01*
X177049214Y-86548109D01*
X177214218Y-86667991D01*
X177256884Y-86723320D01*
X177262863Y-86792934D01*
X177230258Y-86854729D01*
X177214218Y-86868627D01*
X177049540Y-86988272D01*
X177049535Y-86988276D01*
X176899276Y-87138535D01*
X176899272Y-87138540D01*
X176774379Y-87310442D01*
X176677904Y-87499782D01*
X176612242Y-87701870D01*
X176612242Y-87701873D01*
X176601769Y-87768000D01*
X177649854Y-87768000D01*
X177611370Y-87834657D01*
X177579000Y-87955465D01*
X177579000Y-88080535D01*
X177611370Y-88201343D01*
X177649854Y-88268000D01*
X176601769Y-88268000D01*
X176612242Y-88334126D01*
X176612242Y-88334129D01*
X176677904Y-88536217D01*
X176774379Y-88725557D01*
X176899272Y-88897459D01*
X176899276Y-88897464D01*
X177049535Y-89047723D01*
X177049540Y-89047727D01*
X177221442Y-89172620D01*
X177410782Y-89269095D01*
X177612872Y-89334757D01*
X177804000Y-89365029D01*
X177804000Y-88422145D01*
X177870657Y-88460630D01*
X177991465Y-88493000D01*
X178116535Y-88493000D01*
X178237343Y-88460630D01*
X178304000Y-88422145D01*
X178304000Y-89365028D01*
X178495124Y-89334758D01*
X178566181Y-89311670D01*
X178636022Y-89309674D01*
X178695855Y-89345754D01*
X178726684Y-89408455D01*
X178728500Y-89429601D01*
X178728500Y-93536477D01*
X178708815Y-93603516D01*
X178656011Y-93649271D01*
X178586853Y-93659215D01*
X178523297Y-93630190D01*
X178516819Y-93624158D01*
X178502345Y-93609684D01*
X178353124Y-93517643D01*
X178353119Y-93517641D01*
X178186697Y-93462494D01*
X178186690Y-93462493D01*
X178083986Y-93452000D01*
X177559000Y-93452000D01*
X177559000Y-94397854D01*
X177492343Y-94359370D01*
X177371535Y-94327000D01*
X177246465Y-94327000D01*
X177125657Y-94359370D01*
X177059000Y-94397854D01*
X177059000Y-93452000D01*
X176534028Y-93452000D01*
X176534012Y-93452001D01*
X176431302Y-93462494D01*
X176264880Y-93517641D01*
X176264875Y-93517643D01*
X176115654Y-93609684D01*
X175991684Y-93733654D01*
X175899643Y-93882875D01*
X175899641Y-93882880D01*
X175844494Y-94049302D01*
X175844493Y-94049309D01*
X175834000Y-94152013D01*
X175834000Y-94552000D01*
X176904854Y-94552000D01*
X176866370Y-94618657D01*
X176834000Y-94739465D01*
X176834000Y-94864535D01*
X176866370Y-94985343D01*
X176904854Y-95052000D01*
X175834001Y-95052000D01*
X175834001Y-95451986D01*
X175844494Y-95554697D01*
X175899641Y-95721119D01*
X175899643Y-95721124D01*
X175991684Y-95870345D01*
X176115654Y-95994315D01*
X176270484Y-96089815D01*
X176317208Y-96141763D01*
X176328431Y-96210726D01*
X176300587Y-96274808D01*
X176293069Y-96283035D01*
X176153889Y-96422215D01*
X176028951Y-96594179D01*
X175932444Y-96783585D01*
X175866753Y-96985760D01*
X175833500Y-97195713D01*
X175833500Y-97408286D01*
X175853756Y-97536181D01*
X175866754Y-97618243D01*
X175932174Y-97819585D01*
X175932445Y-97820417D01*
X175960609Y-97875693D01*
X175973505Y-97944362D01*
X175947228Y-98009102D01*
X175937805Y-98019668D01*
X174118797Y-99838677D01*
X174057474Y-99872162D01*
X173987782Y-99867178D01*
X173931849Y-99825306D01*
X173907432Y-99759842D01*
X173910911Y-99720555D01*
X173951105Y-99561833D01*
X173951107Y-99561824D01*
X173951108Y-99561821D01*
X173971643Y-99314000D01*
X173965449Y-99239255D01*
X173951109Y-99066187D01*
X173951107Y-99066175D01*
X173889992Y-98824838D01*
X173892617Y-98755018D01*
X173922513Y-98706721D01*
X174246520Y-98382716D01*
X174325577Y-98245784D01*
X174366501Y-98093057D01*
X174366501Y-97934942D01*
X174366501Y-97927347D01*
X174366500Y-97927329D01*
X174366500Y-87606097D01*
X174386185Y-87539058D01*
X174402819Y-87518416D01*
X175384892Y-86536343D01*
X176367922Y-85553312D01*
X176429243Y-85519829D01*
X176498935Y-85524813D01*
G37*
%TD.AperFunction*%
%TA.AperFunction,Conductor*%
G36*
X180942539Y-64218185D02*
G01*
X180988294Y-64270989D01*
X180999500Y-64322500D01*
X180999500Y-134875500D01*
X180979815Y-134942539D01*
X180927011Y-134988294D01*
X180875500Y-134999500D01*
X135624500Y-134999500D01*
X135557461Y-134979815D01*
X135511706Y-134927011D01*
X135500500Y-134875500D01*
X135500500Y-132212711D01*
X136579500Y-132212711D01*
X136579500Y-132455288D01*
X136611161Y-132695785D01*
X136673947Y-132930104D01*
X136748584Y-133110293D01*
X136766776Y-133154212D01*
X136888064Y-133364289D01*
X136888066Y-133364292D01*
X136888067Y-133364293D01*
X137035733Y-133556736D01*
X137035739Y-133556743D01*
X137207256Y-133728260D01*
X137207263Y-133728266D01*
X137320321Y-133815018D01*
X137399711Y-133875936D01*
X137609788Y-133997224D01*
X137833900Y-134090054D01*
X138068211Y-134152838D01*
X138248586Y-134176584D01*
X138308711Y-134184500D01*
X138308712Y-134184500D01*
X138551289Y-134184500D01*
X138599388Y-134178167D01*
X138791789Y-134152838D01*
X139026100Y-134090054D01*
X139250212Y-133997224D01*
X139460289Y-133875936D01*
X139652738Y-133728265D01*
X139824265Y-133556738D01*
X139971936Y-133364289D01*
X140093224Y-133154212D01*
X140186054Y-132930100D01*
X140248838Y-132695789D01*
X140280500Y-132455288D01*
X140280500Y-132212712D01*
X140248838Y-131972211D01*
X140186054Y-131737900D01*
X140118993Y-131576000D01*
X144822970Y-131576000D01*
X145765854Y-131576000D01*
X145727370Y-131642657D01*
X145695000Y-131763465D01*
X145695000Y-131888535D01*
X145727370Y-132009343D01*
X145765854Y-132076000D01*
X144822970Y-132076000D01*
X144853242Y-132267127D01*
X144853242Y-132267130D01*
X144918904Y-132469217D01*
X145015379Y-132658557D01*
X145140272Y-132830459D01*
X145140276Y-132830464D01*
X145290535Y-132980723D01*
X145290540Y-132980727D01*
X145462442Y-133105620D01*
X145651782Y-133202095D01*
X145853871Y-133267757D01*
X145920000Y-133278231D01*
X145920000Y-132230145D01*
X145986657Y-132268630D01*
X146107465Y-132301000D01*
X146232535Y-132301000D01*
X146353343Y-132268630D01*
X146420000Y-132230145D01*
X146420000Y-133278230D01*
X146486126Y-133267757D01*
X146486129Y-133267757D01*
X146688217Y-133202095D01*
X146877557Y-133105620D01*
X147049459Y-132980727D01*
X147049464Y-132980723D01*
X147199727Y-132830460D01*
X147319682Y-132665355D01*
X147375011Y-132622689D01*
X147444625Y-132616710D01*
X147506420Y-132649315D01*
X147520318Y-132665355D01*
X147640272Y-132830460D01*
X147790535Y-132980723D01*
X147790540Y-132980727D01*
X147962442Y-133105620D01*
X148151782Y-133202095D01*
X148353871Y-133267757D01*
X148420000Y-133278231D01*
X148420000Y-132230145D01*
X148486657Y-132268630D01*
X148607465Y-132301000D01*
X148732535Y-132301000D01*
X148853343Y-132268630D01*
X148920000Y-132230145D01*
X148920000Y-133278230D01*
X148986126Y-133267757D01*
X148986129Y-133267757D01*
X149188217Y-133202095D01*
X149377557Y-133105620D01*
X149549459Y-132980727D01*
X149549464Y-132980723D01*
X149699721Y-132830466D01*
X149819371Y-132665781D01*
X149874701Y-132623115D01*
X149944314Y-132617136D01*
X150006110Y-132649741D01*
X150020008Y-132665781D01*
X150139890Y-132830785D01*
X150139894Y-132830790D01*
X150290213Y-132981109D01*
X150462179Y-133106048D01*
X150462181Y-133106049D01*
X150462184Y-133106051D01*
X150651588Y-133202557D01*
X150853757Y-133268246D01*
X151063713Y-133301500D01*
X151063714Y-133301500D01*
X151276286Y-133301500D01*
X151276287Y-133301500D01*
X151486243Y-133268246D01*
X151688412Y-133202557D01*
X151877816Y-133106051D01*
X151899789Y-133090086D01*
X152049786Y-132981109D01*
X152049788Y-132981106D01*
X152049792Y-132981104D01*
X152200104Y-132830792D01*
X152319683Y-132666204D01*
X152375011Y-132623540D01*
X152444624Y-132617561D01*
X152506420Y-132650166D01*
X152520313Y-132666199D01*
X152623925Y-132808809D01*
X152639896Y-132830792D01*
X152790213Y-132981109D01*
X152962179Y-133106048D01*
X152962181Y-133106049D01*
X152962184Y-133106051D01*
X153151588Y-133202557D01*
X153353757Y-133268246D01*
X153563713Y-133301500D01*
X153563714Y-133301500D01*
X153776286Y-133301500D01*
X153776287Y-133301500D01*
X153986243Y-133268246D01*
X154188412Y-133202557D01*
X154377816Y-133106051D01*
X154549792Y-132981104D01*
X154688604Y-132842291D01*
X154749923Y-132808809D01*
X154819615Y-132813793D01*
X154875549Y-132855664D01*
X154881821Y-132864878D01*
X154885185Y-132870333D01*
X154885186Y-132870334D01*
X154977288Y-133019656D01*
X155101344Y-133143712D01*
X155250666Y-133235814D01*
X155417203Y-133290999D01*
X155519991Y-133301500D01*
X156820008Y-133301499D01*
X156922797Y-133290999D01*
X157089334Y-133235814D01*
X157238656Y-133143712D01*
X157362712Y-133019656D01*
X157454814Y-132870334D01*
X157509999Y-132703797D01*
X157520500Y-132601009D01*
X157520500Y-131958711D01*
X175949500Y-131958711D01*
X175949500Y-132201288D01*
X175981161Y-132441785D01*
X176043947Y-132676104D01*
X176122140Y-132864878D01*
X176136776Y-132900212D01*
X176258064Y-133110289D01*
X176258066Y-133110292D01*
X176258067Y-133110293D01*
X176405733Y-133302736D01*
X176405739Y-133302743D01*
X176577256Y-133474260D01*
X176577262Y-133474265D01*
X176769711Y-133621936D01*
X176979788Y-133743224D01*
X177203900Y-133836054D01*
X177438211Y-133898838D01*
X177618586Y-133922584D01*
X177678711Y-133930500D01*
X177678712Y-133930500D01*
X177921289Y-133930500D01*
X177969388Y-133924167D01*
X178161789Y-133898838D01*
X178396100Y-133836054D01*
X178620212Y-133743224D01*
X178830289Y-133621936D01*
X179022738Y-133474265D01*
X179194265Y-133302738D01*
X179341936Y-133110289D01*
X179463224Y-132900212D01*
X179556054Y-132676100D01*
X179618838Y-132441789D01*
X179650500Y-132201288D01*
X179650500Y-131958712D01*
X179618838Y-131718211D01*
X179556054Y-131483900D01*
X179463224Y-131259788D01*
X179341936Y-131049711D01*
X179194265Y-130857262D01*
X179194260Y-130857256D01*
X179022743Y-130685739D01*
X179022736Y-130685733D01*
X178830293Y-130538067D01*
X178830292Y-130538066D01*
X178830289Y-130538064D01*
X178620212Y-130416776D01*
X178618785Y-130416185D01*
X178396104Y-130323947D01*
X178161785Y-130261161D01*
X177921289Y-130229500D01*
X177921288Y-130229500D01*
X177678712Y-130229500D01*
X177678711Y-130229500D01*
X177438214Y-130261161D01*
X177203895Y-130323947D01*
X176979794Y-130416773D01*
X176979785Y-130416777D01*
X176769706Y-130538067D01*
X176577263Y-130685733D01*
X176577256Y-130685739D01*
X176405739Y-130857256D01*
X176405733Y-130857263D01*
X176258067Y-131049706D01*
X176258064Y-131049710D01*
X176258064Y-131049711D01*
X176257321Y-131050998D01*
X176136777Y-131259785D01*
X176136773Y-131259794D01*
X176043947Y-131483895D01*
X175981161Y-131718214D01*
X175949500Y-131958711D01*
X157520500Y-131958711D01*
X157520499Y-131050992D01*
X157518851Y-131034863D01*
X157509999Y-130948203D01*
X157509998Y-130948200D01*
X157472104Y-130833845D01*
X157454814Y-130781666D01*
X157362712Y-130632344D01*
X157238656Y-130508288D01*
X157143253Y-130449443D01*
X157089336Y-130416187D01*
X157089331Y-130416185D01*
X157087862Y-130415698D01*
X156922797Y-130361001D01*
X156922795Y-130361000D01*
X156820010Y-130350500D01*
X155519998Y-130350500D01*
X155519981Y-130350501D01*
X155417203Y-130361000D01*
X155417200Y-130361001D01*
X155250668Y-130416185D01*
X155250663Y-130416187D01*
X155101342Y-130508289D01*
X154977289Y-130632342D01*
X154881821Y-130787121D01*
X154829873Y-130833845D01*
X154760910Y-130845068D01*
X154696828Y-130817224D01*
X154688601Y-130809705D01*
X154549786Y-130670890D01*
X154377820Y-130545951D01*
X154188414Y-130449444D01*
X154188413Y-130449443D01*
X154188412Y-130449443D01*
X153986243Y-130383754D01*
X153986241Y-130383753D01*
X153986240Y-130383753D01*
X153824957Y-130358208D01*
X153776287Y-130350500D01*
X153563713Y-130350500D01*
X153515042Y-130358208D01*
X153353760Y-130383753D01*
X153151585Y-130449444D01*
X152962179Y-130545951D01*
X152790213Y-130670890D01*
X152639894Y-130821209D01*
X152639890Y-130821214D01*
X152520318Y-130985793D01*
X152464989Y-131028459D01*
X152395375Y-131034438D01*
X152333580Y-131001833D01*
X152319682Y-130985793D01*
X152200109Y-130821214D01*
X152200105Y-130821209D01*
X152049786Y-130670890D01*
X151877820Y-130545951D01*
X151688414Y-130449444D01*
X151688413Y-130449443D01*
X151688412Y-130449443D01*
X151486243Y-130383754D01*
X151486241Y-130383753D01*
X151486240Y-130383753D01*
X151324957Y-130358208D01*
X151276287Y-130350500D01*
X151063713Y-130350500D01*
X151015042Y-130358208D01*
X150853760Y-130383753D01*
X150651585Y-130449444D01*
X150462179Y-130545951D01*
X150290213Y-130670890D01*
X150139894Y-130821209D01*
X150139890Y-130821214D01*
X150020008Y-130986218D01*
X149964678Y-131028884D01*
X149895065Y-131034863D01*
X149833270Y-131002257D01*
X149819372Y-130986218D01*
X149699727Y-130821540D01*
X149699723Y-130821535D01*
X149549464Y-130671276D01*
X149549459Y-130671272D01*
X149377557Y-130546379D01*
X149188215Y-130449903D01*
X148986124Y-130384241D01*
X148920000Y-130373768D01*
X148920000Y-131421854D01*
X148853343Y-131383370D01*
X148732535Y-131351000D01*
X148607465Y-131351000D01*
X148486657Y-131383370D01*
X148420000Y-131421854D01*
X148420000Y-130373768D01*
X148419999Y-130373768D01*
X148353875Y-130384241D01*
X148151784Y-130449903D01*
X147962442Y-130546379D01*
X147790540Y-130671272D01*
X147790535Y-130671276D01*
X147640276Y-130821535D01*
X147640272Y-130821540D01*
X147520318Y-130986644D01*
X147464988Y-131029310D01*
X147395375Y-131035289D01*
X147333580Y-131002684D01*
X147319682Y-130986644D01*
X147199727Y-130821540D01*
X147199723Y-130821535D01*
X147049464Y-130671276D01*
X147049459Y-130671272D01*
X146877557Y-130546379D01*
X146688215Y-130449903D01*
X146486124Y-130384241D01*
X146420000Y-130373768D01*
X146420000Y-131421854D01*
X146353343Y-131383370D01*
X146232535Y-131351000D01*
X146107465Y-131351000D01*
X145986657Y-131383370D01*
X145920000Y-131421854D01*
X145920000Y-130373768D01*
X145919999Y-130373768D01*
X145853875Y-130384241D01*
X145651784Y-130449903D01*
X145462442Y-130546379D01*
X145290540Y-130671272D01*
X145290535Y-130671276D01*
X145140276Y-130821535D01*
X145140272Y-130821540D01*
X145015379Y-130993442D01*
X144918904Y-131182782D01*
X144853242Y-131384869D01*
X144853242Y-131384872D01*
X144822970Y-131576000D01*
X140118993Y-131576000D01*
X140093224Y-131513788D01*
X139971936Y-131303711D01*
X139824265Y-131111262D01*
X139824260Y-131111256D01*
X139652743Y-130939739D01*
X139652736Y-130939733D01*
X139460293Y-130792067D01*
X139460292Y-130792066D01*
X139460289Y-130792064D01*
X139250420Y-130670896D01*
X139250214Y-130670777D01*
X139250205Y-130670773D01*
X139026104Y-130577947D01*
X138791785Y-130515161D01*
X138551289Y-130483500D01*
X138551288Y-130483500D01*
X138308712Y-130483500D01*
X138308711Y-130483500D01*
X138068214Y-130515161D01*
X137833895Y-130577947D01*
X137609794Y-130670773D01*
X137609785Y-130670777D01*
X137399706Y-130792067D01*
X137207263Y-130939733D01*
X137207256Y-130939739D01*
X137035739Y-131111256D01*
X137035733Y-131111263D01*
X136888067Y-131303706D01*
X136766777Y-131513785D01*
X136766773Y-131513794D01*
X136673947Y-131737895D01*
X136611161Y-131972214D01*
X136579500Y-132212711D01*
X135500500Y-132212711D01*
X135500500Y-124043983D01*
X138182500Y-124043983D01*
X138182500Y-125344001D01*
X138182501Y-125344018D01*
X138193000Y-125446796D01*
X138193001Y-125446799D01*
X138221725Y-125533480D01*
X138248186Y-125613334D01*
X138340288Y-125762656D01*
X138464344Y-125886712D01*
X138613666Y-125978814D01*
X138780203Y-126033999D01*
X138882991Y-126044500D01*
X140483008Y-126044499D01*
X140585797Y-126033999D01*
X140752334Y-125978814D01*
X140901656Y-125886712D01*
X141025712Y-125762656D01*
X141117814Y-125613334D01*
X141172999Y-125446797D01*
X141183500Y-125344009D01*
X141183499Y-124043992D01*
X141172999Y-123941203D01*
X141117814Y-123774666D01*
X141025712Y-123625344D01*
X140901656Y-123501288D01*
X140752334Y-123409186D01*
X140752332Y-123409185D01*
X140746440Y-123405551D01*
X140699716Y-123353603D01*
X140688493Y-123284641D01*
X140716337Y-123220558D01*
X140723856Y-123212330D01*
X140862728Y-123073458D01*
X140987620Y-122901557D01*
X141084095Y-122712217D01*
X141149757Y-122510129D01*
X141149757Y-122510126D01*
X141160231Y-122444000D01*
X140116012Y-122444000D01*
X140148925Y-122386993D01*
X140183000Y-122259826D01*
X140183000Y-122128174D01*
X140148925Y-122001007D01*
X140116012Y-121944000D01*
X141160231Y-121944000D01*
X141149757Y-121877873D01*
X141149757Y-121877870D01*
X141084095Y-121675782D01*
X140987620Y-121486442D01*
X140862727Y-121314540D01*
X140862723Y-121314535D01*
X140712464Y-121164276D01*
X140712459Y-121164272D01*
X140540557Y-121039379D01*
X140351217Y-120942904D01*
X140149129Y-120877242D01*
X139939246Y-120844000D01*
X139933000Y-120844000D01*
X139933000Y-121760988D01*
X139875993Y-121728075D01*
X139748826Y-121694000D01*
X139617174Y-121694000D01*
X139490007Y-121728075D01*
X139433000Y-121760988D01*
X139433000Y-120844000D01*
X139426754Y-120844000D01*
X139216872Y-120877242D01*
X139216869Y-120877242D01*
X139014782Y-120942904D01*
X138825442Y-121039379D01*
X138653540Y-121164272D01*
X138653535Y-121164276D01*
X138503276Y-121314535D01*
X138503272Y-121314540D01*
X138378379Y-121486442D01*
X138281904Y-121675782D01*
X138216242Y-121877870D01*
X138216242Y-121877873D01*
X138205769Y-121944000D01*
X139249988Y-121944000D01*
X139217075Y-122001007D01*
X139183000Y-122128174D01*
X139183000Y-122259826D01*
X139217075Y-122386993D01*
X139249988Y-122444000D01*
X138205769Y-122444000D01*
X138216242Y-122510126D01*
X138216242Y-122510129D01*
X138281904Y-122712217D01*
X138378379Y-122901557D01*
X138503272Y-123073459D01*
X138503276Y-123073464D01*
X138642143Y-123212331D01*
X138675628Y-123273654D01*
X138670644Y-123343346D01*
X138628772Y-123399279D01*
X138619559Y-123405551D01*
X138464342Y-123501289D01*
X138340289Y-123625342D01*
X138248187Y-123774663D01*
X138248186Y-123774666D01*
X138193001Y-123941203D01*
X138193001Y-123941204D01*
X138193000Y-123941204D01*
X138182500Y-124043983D01*
X135500500Y-124043983D01*
X135500500Y-113451713D01*
X138199500Y-113451713D01*
X138199500Y-113664287D01*
X138232754Y-113874243D01*
X138294773Y-114065118D01*
X138298444Y-114076414D01*
X138394951Y-114265820D01*
X138519890Y-114437786D01*
X138658705Y-114576601D01*
X138692190Y-114637924D01*
X138687206Y-114707616D01*
X138645334Y-114763549D01*
X138636121Y-114769821D01*
X138481342Y-114865289D01*
X138357289Y-114989342D01*
X138265187Y-115138663D01*
X138265186Y-115138666D01*
X138210001Y-115305203D01*
X138210001Y-115305204D01*
X138210000Y-115305204D01*
X138199500Y-115407983D01*
X138199500Y-116708001D01*
X138199501Y-116708018D01*
X138210000Y-116810796D01*
X138210001Y-116810799D01*
X138265185Y-116977331D01*
X138265186Y-116977334D01*
X138357288Y-117126656D01*
X138481344Y-117250712D01*
X138630666Y-117342814D01*
X138797203Y-117397999D01*
X138899991Y-117408500D01*
X140500008Y-117408499D01*
X140602797Y-117397999D01*
X140769334Y-117342814D01*
X140918656Y-117250712D01*
X141042712Y-117126656D01*
X141134814Y-116977334D01*
X141189999Y-116810797D01*
X141200500Y-116708009D01*
X141200499Y-115407992D01*
X141189999Y-115305203D01*
X141134814Y-115138666D01*
X141042712Y-114989344D01*
X140918656Y-114865288D01*
X140769334Y-114773186D01*
X140769333Y-114773185D01*
X140763878Y-114769821D01*
X140717154Y-114717873D01*
X140705931Y-114648910D01*
X140733775Y-114584828D01*
X140741272Y-114576623D01*
X140880104Y-114437792D01*
X141005051Y-114265816D01*
X141101557Y-114076412D01*
X141167246Y-113874243D01*
X141200500Y-113664287D01*
X141200500Y-113451713D01*
X141167246Y-113241757D01*
X141101557Y-113039588D01*
X141005051Y-112850184D01*
X141005049Y-112850181D01*
X141005048Y-112850179D01*
X140880109Y-112678213D01*
X140729786Y-112527890D01*
X140557820Y-112402951D01*
X140368414Y-112306444D01*
X140368413Y-112306443D01*
X140368412Y-112306443D01*
X140166243Y-112240754D01*
X140166241Y-112240753D01*
X140166240Y-112240753D01*
X140004957Y-112215208D01*
X139956287Y-112207500D01*
X139443713Y-112207500D01*
X139395042Y-112215208D01*
X139233760Y-112240753D01*
X139031585Y-112306444D01*
X138842179Y-112402951D01*
X138670213Y-112527890D01*
X138519890Y-112678213D01*
X138394951Y-112850179D01*
X138298444Y-113039585D01*
X138232753Y-113241760D01*
X138204853Y-113417915D01*
X138199500Y-113451713D01*
X135500500Y-113451713D01*
X135500500Y-89326920D01*
X136762499Y-89326920D01*
X136791340Y-89471907D01*
X136791343Y-89471917D01*
X136847912Y-89608488D01*
X136847916Y-89608495D01*
X136870890Y-89642878D01*
X136870891Y-89642881D01*
X136930046Y-89731414D01*
X136930052Y-89731421D01*
X142287707Y-95089074D01*
X142287728Y-95089097D01*
X145771181Y-98572548D01*
X145804666Y-98633871D01*
X145807500Y-98660229D01*
X145807500Y-108139726D01*
X145787815Y-108206765D01*
X145754625Y-108241299D01*
X145743389Y-108249166D01*
X145743382Y-108249172D01*
X145587172Y-108405381D01*
X145460467Y-108586337D01*
X145400105Y-108715782D01*
X145353932Y-108768221D01*
X145286738Y-108787372D01*
X145219857Y-108767156D01*
X145175341Y-108715780D01*
X145115098Y-108586589D01*
X145115097Y-108586587D01*
X145069741Y-108521811D01*
X145069740Y-108521810D01*
X144399000Y-109192551D01*
X144399000Y-109169840D01*
X144373036Y-109072939D01*
X144322876Y-108986060D01*
X144251940Y-108915124D01*
X144165061Y-108864964D01*
X144068160Y-108839000D01*
X144045448Y-108839000D01*
X144716188Y-108168259D01*
X144716187Y-108168258D01*
X144651411Y-108122901D01*
X144651405Y-108122898D01*
X144451284Y-108029580D01*
X144451270Y-108029575D01*
X144237986Y-107972426D01*
X144237976Y-107972424D01*
X144018001Y-107953179D01*
X144017999Y-107953179D01*
X143798023Y-107972424D01*
X143798013Y-107972426D01*
X143584729Y-108029575D01*
X143584720Y-108029579D01*
X143384590Y-108122901D01*
X143319811Y-108168258D01*
X143990553Y-108839000D01*
X143967840Y-108839000D01*
X143870939Y-108864964D01*
X143784060Y-108915124D01*
X143713124Y-108986060D01*
X143662964Y-109072939D01*
X143637000Y-109169840D01*
X143637000Y-109192553D01*
X142966258Y-108521811D01*
X142920901Y-108586590D01*
X142860658Y-108715781D01*
X142814485Y-108768220D01*
X142747292Y-108787372D01*
X142680411Y-108767156D01*
X142635894Y-108715781D01*
X142575651Y-108586590D01*
X142575534Y-108586339D01*
X142448826Y-108405380D01*
X142292620Y-108249174D01*
X142292616Y-108249171D01*
X142292615Y-108249170D01*
X142111666Y-108122468D01*
X142111662Y-108122466D01*
X142094980Y-108114687D01*
X141911450Y-108029106D01*
X141911447Y-108029105D01*
X141911445Y-108029104D01*
X141698070Y-107971930D01*
X141698062Y-107971929D01*
X141478002Y-107952677D01*
X141477998Y-107952677D01*
X141257937Y-107971929D01*
X141257929Y-107971930D01*
X141044554Y-108029104D01*
X141044548Y-108029107D01*
X140844340Y-108122465D01*
X140844338Y-108122466D01*
X140663377Y-108249175D01*
X140507175Y-108405377D01*
X140380466Y-108586338D01*
X140380465Y-108586340D01*
X140320382Y-108715189D01*
X140274209Y-108767628D01*
X140207016Y-108786780D01*
X140140135Y-108766564D01*
X140095618Y-108715189D01*
X140035651Y-108586590D01*
X140035534Y-108586339D01*
X139908826Y-108405380D01*
X139752620Y-108249174D01*
X139752616Y-108249171D01*
X139752615Y-108249170D01*
X139571666Y-108122468D01*
X139571662Y-108122466D01*
X139554980Y-108114687D01*
X139371450Y-108029106D01*
X139371447Y-108029105D01*
X139371445Y-108029104D01*
X139158070Y-107971930D01*
X139158062Y-107971929D01*
X138938002Y-107952677D01*
X138937998Y-107952677D01*
X138717937Y-107971929D01*
X138717929Y-107971930D01*
X138504554Y-108029104D01*
X138504548Y-108029107D01*
X138304340Y-108122465D01*
X138304338Y-108122466D01*
X138123377Y-108249175D01*
X137967175Y-108405377D01*
X137840466Y-108586338D01*
X137840465Y-108586340D01*
X137747107Y-108786548D01*
X137747104Y-108786554D01*
X137689930Y-108999929D01*
X137689929Y-108999937D01*
X137670677Y-109219997D01*
X137670677Y-109220002D01*
X137689929Y-109440062D01*
X137689930Y-109440070D01*
X137747104Y-109653445D01*
X137747105Y-109653447D01*
X137747106Y-109653450D01*
X137840346Y-109853405D01*
X137840466Y-109853662D01*
X137840468Y-109853666D01*
X137967170Y-110034615D01*
X137967175Y-110034621D01*
X138123378Y-110190824D01*
X138123384Y-110190829D01*
X138304333Y-110317531D01*
X138304335Y-110317532D01*
X138304338Y-110317534D01*
X138504550Y-110410894D01*
X138717932Y-110468070D01*
X138875123Y-110481822D01*
X138937998Y-110487323D01*
X138938000Y-110487323D01*
X138938002Y-110487323D01*
X138993017Y-110482509D01*
X139158068Y-110468070D01*
X139371450Y-110410894D01*
X139571662Y-110317534D01*
X139752620Y-110190826D01*
X139908826Y-110034620D01*
X140035534Y-109853662D01*
X140095618Y-109724811D01*
X140141790Y-109672371D01*
X140208983Y-109653219D01*
X140275865Y-109673435D01*
X140320382Y-109724811D01*
X140380464Y-109853658D01*
X140380468Y-109853666D01*
X140507170Y-110034615D01*
X140507175Y-110034621D01*
X140663378Y-110190824D01*
X140663384Y-110190829D01*
X140844333Y-110317531D01*
X140844335Y-110317532D01*
X140844338Y-110317534D01*
X141044550Y-110410894D01*
X141257932Y-110468070D01*
X141415123Y-110481822D01*
X141477998Y-110487323D01*
X141478000Y-110487323D01*
X141478002Y-110487323D01*
X141533017Y-110482509D01*
X141698068Y-110468070D01*
X141911450Y-110410894D01*
X142111662Y-110317534D01*
X142292620Y-110190826D01*
X142448826Y-110034620D01*
X142575534Y-109853662D01*
X142635894Y-109724218D01*
X142682066Y-109671779D01*
X142749259Y-109652627D01*
X142816141Y-109672843D01*
X142860658Y-109724219D01*
X142920898Y-109853405D01*
X142920901Y-109853411D01*
X142966258Y-109918187D01*
X142966259Y-109918188D01*
X143637000Y-109247447D01*
X143637000Y-109270160D01*
X143662964Y-109367061D01*
X143713124Y-109453940D01*
X143784060Y-109524876D01*
X143870939Y-109575036D01*
X143967840Y-109601000D01*
X143990553Y-109601000D01*
X143319810Y-110271740D01*
X143384590Y-110317099D01*
X143384592Y-110317100D01*
X143584715Y-110410419D01*
X143584729Y-110410424D01*
X143798013Y-110467573D01*
X143798023Y-110467575D01*
X144017999Y-110486821D01*
X144018001Y-110486821D01*
X144237976Y-110467575D01*
X144237986Y-110467573D01*
X144451270Y-110410424D01*
X144451284Y-110410419D01*
X144651407Y-110317100D01*
X144651417Y-110317094D01*
X144716188Y-110271741D01*
X144045448Y-109601000D01*
X144068160Y-109601000D01*
X144165061Y-109575036D01*
X144251940Y-109524876D01*
X144322876Y-109453940D01*
X144373036Y-109367061D01*
X144399000Y-109270160D01*
X144399000Y-109247447D01*
X145069741Y-109918188D01*
X145115094Y-109853417D01*
X145115095Y-109853416D01*
X145175340Y-109724219D01*
X145221512Y-109671780D01*
X145288706Y-109652627D01*
X145355587Y-109672842D01*
X145400105Y-109724218D01*
X145460466Y-109853662D01*
X145460468Y-109853666D01*
X145587170Y-110034615D01*
X145587175Y-110034621D01*
X145743378Y-110190824D01*
X145743384Y-110190829D01*
X145924333Y-110317531D01*
X145924335Y-110317532D01*
X145924338Y-110317534D01*
X146124550Y-110410894D01*
X146337932Y-110468070D01*
X146495123Y-110481822D01*
X146557998Y-110487323D01*
X146558000Y-110487323D01*
X146558002Y-110487323D01*
X146613017Y-110482509D01*
X146778068Y-110468070D01*
X146991450Y-110410894D01*
X147178096Y-110323859D01*
X147247173Y-110313368D01*
X147310957Y-110341888D01*
X147349196Y-110400364D01*
X147354500Y-110436242D01*
X147354500Y-117194808D01*
X147354499Y-117194826D01*
X147354499Y-117360532D01*
X147354498Y-117360532D01*
X147354499Y-117360535D01*
X147383246Y-117467820D01*
X147395424Y-117513265D01*
X147407689Y-117534508D01*
X147407690Y-117534510D01*
X147474477Y-117650190D01*
X147474481Y-117650195D01*
X147593349Y-117769063D01*
X147593355Y-117769068D01*
X150530106Y-120705819D01*
X150563591Y-120767142D01*
X150558607Y-120836834D01*
X150516735Y-120892767D01*
X150451271Y-120917184D01*
X150442425Y-120917500D01*
X149320129Y-120917500D01*
X149320123Y-120917501D01*
X149260516Y-120923908D01*
X149125671Y-120974202D01*
X149125664Y-120974206D01*
X149010455Y-121060452D01*
X149010452Y-121060455D01*
X148924206Y-121175664D01*
X148924202Y-121175671D01*
X148873908Y-121310517D01*
X148867501Y-121370116D01*
X148867500Y-121370135D01*
X148867500Y-123465870D01*
X148867501Y-123465876D01*
X148873908Y-123525483D01*
X148924202Y-123660328D01*
X148924206Y-123660335D01*
X149010452Y-123775544D01*
X149010455Y-123775547D01*
X149125664Y-123861793D01*
X149125671Y-123861797D01*
X149260517Y-123912091D01*
X149260516Y-123912091D01*
X149267444Y-123912835D01*
X149320127Y-123918500D01*
X150967901Y-123918499D01*
X151034940Y-123938184D01*
X151055582Y-123954818D01*
X155597284Y-128496520D01*
X155597286Y-128496521D01*
X155597290Y-128496524D01*
X155734209Y-128575573D01*
X155734216Y-128575577D01*
X155886943Y-128616501D01*
X155886945Y-128616501D01*
X156052654Y-128616501D01*
X156052670Y-128616500D01*
X165521331Y-128616500D01*
X165521347Y-128616501D01*
X165528943Y-128616501D01*
X165687054Y-128616501D01*
X165687057Y-128616501D01*
X165839785Y-128575577D01*
X165889904Y-128546639D01*
X165976716Y-128496520D01*
X166088520Y-128384716D01*
X166088520Y-128384714D01*
X166098728Y-128374507D01*
X166098730Y-128374504D01*
X166134535Y-128338698D01*
X166195856Y-128305215D01*
X166208311Y-128303163D01*
X166295255Y-128293368D01*
X166465522Y-128233789D01*
X166618262Y-128137816D01*
X166745816Y-128010262D01*
X166841789Y-127857522D01*
X166901368Y-127687255D01*
X166901369Y-127687249D01*
X166902291Y-127679069D01*
X166929357Y-127614654D01*
X166986951Y-127575099D01*
X167056788Y-127572960D01*
X167113192Y-127605270D01*
X167137738Y-127629816D01*
X167290478Y-127725789D01*
X167460745Y-127785368D01*
X167460750Y-127785369D01*
X167639996Y-127805565D01*
X167640000Y-127805565D01*
X167640004Y-127805565D01*
X167819249Y-127785369D01*
X167819252Y-127785368D01*
X167819255Y-127785368D01*
X167989522Y-127725789D01*
X168142262Y-127629816D01*
X168269816Y-127502262D01*
X168365789Y-127349522D01*
X168425368Y-127179255D01*
X168440020Y-127049215D01*
X168445565Y-127000003D01*
X168445565Y-126999996D01*
X168425369Y-126820750D01*
X168425368Y-126820745D01*
X168391037Y-126722632D01*
X168365789Y-126650478D01*
X168355551Y-126634185D01*
X168269815Y-126497737D01*
X168142262Y-126370184D01*
X167989521Y-126274210D01*
X167819249Y-126214630D01*
X167732330Y-126204837D01*
X167667916Y-126177770D01*
X167658533Y-126169298D01*
X167141590Y-125652355D01*
X167141588Y-125652352D01*
X167022717Y-125533481D01*
X167022716Y-125533480D01*
X166935904Y-125483360D01*
X166935904Y-125483359D01*
X166935900Y-125483358D01*
X166885785Y-125454423D01*
X166733057Y-125413499D01*
X166574943Y-125413499D01*
X166567347Y-125413499D01*
X166567331Y-125413500D01*
X158747473Y-125413500D01*
X158680434Y-125393815D01*
X158634679Y-125341011D01*
X158624735Y-125271853D01*
X158633916Y-125239692D01*
X158650063Y-125202881D01*
X158711108Y-124961821D01*
X158731643Y-124714000D01*
X158711108Y-124466179D01*
X158650063Y-124225119D01*
X158593642Y-124096493D01*
X158550173Y-123997393D01*
X158414166Y-123789217D01*
X158392557Y-123765744D01*
X158245744Y-123606262D01*
X158162991Y-123541852D01*
X158122179Y-123485143D01*
X158118504Y-123415370D01*
X158153136Y-123354687D01*
X158162985Y-123346151D01*
X158245744Y-123281738D01*
X158414164Y-123098785D01*
X158550173Y-122890607D01*
X158650063Y-122662881D01*
X158711108Y-122421821D01*
X158723147Y-122276535D01*
X158731643Y-122174005D01*
X158731643Y-122173994D01*
X158711109Y-121926187D01*
X158711107Y-121926175D01*
X158650063Y-121685118D01*
X158550173Y-121457393D01*
X158414166Y-121249217D01*
X158346460Y-121175669D01*
X158245744Y-121066262D01*
X158162991Y-121001852D01*
X158122179Y-120945143D01*
X158118504Y-120875370D01*
X158153136Y-120814687D01*
X158162985Y-120806151D01*
X158245744Y-120741738D01*
X158414164Y-120558785D01*
X158550173Y-120350607D01*
X158650063Y-120122881D01*
X158711108Y-119881821D01*
X158731643Y-119634000D01*
X158711108Y-119386179D01*
X158650063Y-119145119D01*
X158550173Y-118917393D01*
X158414166Y-118709217D01*
X158392557Y-118685744D01*
X158245744Y-118526262D01*
X158162991Y-118461852D01*
X158122179Y-118405143D01*
X158118504Y-118335370D01*
X158153136Y-118274687D01*
X158162985Y-118266151D01*
X158245744Y-118201738D01*
X158414164Y-118018785D01*
X158550173Y-117810607D01*
X158650063Y-117582881D01*
X158711108Y-117341821D01*
X158716362Y-117278414D01*
X158731643Y-117094005D01*
X158731643Y-117093994D01*
X158711109Y-116846187D01*
X158711107Y-116846175D01*
X158650063Y-116605118D01*
X158550173Y-116377393D01*
X158414166Y-116169217D01*
X158306429Y-116052184D01*
X158245744Y-115986262D01*
X158162991Y-115921852D01*
X158122179Y-115865143D01*
X158118504Y-115795370D01*
X158153136Y-115734687D01*
X158162985Y-115726151D01*
X158245744Y-115661738D01*
X158414164Y-115478785D01*
X158550173Y-115270607D01*
X158650063Y-115042881D01*
X158711108Y-114801821D01*
X158713760Y-114769821D01*
X158731643Y-114554005D01*
X158731643Y-114553994D01*
X158711109Y-114306187D01*
X158711107Y-114306175D01*
X158650063Y-114065118D01*
X158550173Y-113837393D01*
X158414166Y-113629217D01*
X158382104Y-113594389D01*
X158245744Y-113446262D01*
X158162991Y-113381852D01*
X158122179Y-113325143D01*
X158118504Y-113255370D01*
X158153136Y-113194687D01*
X158162985Y-113186151D01*
X158245744Y-113121738D01*
X158414164Y-112938785D01*
X158550173Y-112730607D01*
X158650063Y-112502881D01*
X158711108Y-112261821D01*
X158715609Y-112207500D01*
X158731643Y-112014005D01*
X158731643Y-112013994D01*
X158711109Y-111766187D01*
X158711107Y-111766175D01*
X158650063Y-111525118D01*
X158550173Y-111297393D01*
X158414166Y-111089217D01*
X158392557Y-111065744D01*
X158245744Y-110906262D01*
X158162991Y-110841852D01*
X158122179Y-110785143D01*
X158118504Y-110715370D01*
X158153136Y-110654687D01*
X158162985Y-110646151D01*
X158245744Y-110581738D01*
X158414164Y-110398785D01*
X158550173Y-110190607D01*
X158650063Y-109962881D01*
X158711108Y-109721821D01*
X158712698Y-109702630D01*
X158731643Y-109474005D01*
X158731643Y-109473994D01*
X158711109Y-109226187D01*
X158711107Y-109226175D01*
X158650063Y-108985118D01*
X158550173Y-108757393D01*
X158414166Y-108549217D01*
X158375580Y-108507302D01*
X158245744Y-108366262D01*
X158162991Y-108301852D01*
X158122179Y-108245143D01*
X158118504Y-108175370D01*
X158153136Y-108114687D01*
X158162985Y-108106151D01*
X158245744Y-108041738D01*
X158414164Y-107858785D01*
X158550173Y-107650607D01*
X158650063Y-107422881D01*
X158711108Y-107181821D01*
X158731643Y-106934000D01*
X158711108Y-106686179D01*
X158650063Y-106445119D01*
X158550173Y-106217393D01*
X158414166Y-106009217D01*
X158392557Y-105985744D01*
X158245744Y-105826262D01*
X158162991Y-105761852D01*
X158122179Y-105705143D01*
X158118504Y-105635370D01*
X158153136Y-105574687D01*
X158162985Y-105566151D01*
X158245744Y-105501738D01*
X158414164Y-105318785D01*
X158550173Y-105110607D01*
X158650063Y-104882881D01*
X158711108Y-104641821D01*
X158729128Y-104424347D01*
X158754281Y-104359166D01*
X158810683Y-104317928D01*
X158880426Y-104313730D01*
X158940385Y-104346910D01*
X171029795Y-116436320D01*
X171063280Y-116497643D01*
X171058296Y-116567335D01*
X171055670Y-116573811D01*
X171041936Y-116605120D01*
X170980892Y-116846175D01*
X170980890Y-116846187D01*
X170960357Y-117093994D01*
X170960357Y-117094005D01*
X170980890Y-117341812D01*
X170980892Y-117341824D01*
X171041936Y-117582881D01*
X171141826Y-117810606D01*
X171277833Y-118018782D01*
X171277836Y-118018785D01*
X171446256Y-118201738D01*
X171529008Y-118266147D01*
X171569821Y-118322857D01*
X171573496Y-118392630D01*
X171538864Y-118453313D01*
X171529014Y-118461848D01*
X171470400Y-118507469D01*
X171446257Y-118526261D01*
X171277833Y-118709217D01*
X171141826Y-118917393D01*
X171041936Y-119145118D01*
X170980892Y-119386175D01*
X170980890Y-119386187D01*
X170960357Y-119633994D01*
X170960357Y-119634005D01*
X170980890Y-119881812D01*
X170980892Y-119881824D01*
X171041936Y-120122881D01*
X171141826Y-120350606D01*
X171277833Y-120558782D01*
X171277836Y-120558785D01*
X171446256Y-120741738D01*
X171529008Y-120806147D01*
X171569821Y-120862857D01*
X171573496Y-120932630D01*
X171538864Y-120993313D01*
X171529014Y-121001848D01*
X171480795Y-121039379D01*
X171446257Y-121066261D01*
X171277833Y-121249217D01*
X171141826Y-121457393D01*
X171041936Y-121685118D01*
X170980892Y-121926175D01*
X170980890Y-121926187D01*
X170960357Y-122173994D01*
X170960357Y-122174005D01*
X170980890Y-122421812D01*
X170980892Y-122421824D01*
X171041936Y-122662881D01*
X171141826Y-122890606D01*
X171277833Y-123098782D01*
X171277836Y-123098785D01*
X171446256Y-123281738D01*
X171529008Y-123346147D01*
X171569821Y-123402857D01*
X171573496Y-123472630D01*
X171538864Y-123533313D01*
X171529014Y-123541848D01*
X171470400Y-123587469D01*
X171446257Y-123606261D01*
X171277833Y-123789217D01*
X171141826Y-123997393D01*
X171041936Y-124225118D01*
X170980892Y-124466175D01*
X170980890Y-124466187D01*
X170960357Y-124713994D01*
X170960357Y-124714005D01*
X170980890Y-124961812D01*
X170980892Y-124961824D01*
X171041936Y-125202881D01*
X171141826Y-125430606D01*
X171277833Y-125638782D01*
X171290325Y-125652352D01*
X171446256Y-125821738D01*
X171642491Y-125974474D01*
X171861190Y-126092828D01*
X172096386Y-126173571D01*
X172341665Y-126214500D01*
X172590335Y-126214500D01*
X172835614Y-126173571D01*
X173070810Y-126092828D01*
X173289509Y-125974474D01*
X173485744Y-125821738D01*
X173654164Y-125638785D01*
X173790173Y-125430607D01*
X173890063Y-125202881D01*
X173951108Y-124961821D01*
X173971643Y-124714000D01*
X173951108Y-124466179D01*
X173890063Y-124225119D01*
X173833642Y-124096493D01*
X173790173Y-123997393D01*
X173654166Y-123789217D01*
X173632557Y-123765744D01*
X173485744Y-123606262D01*
X173402991Y-123541852D01*
X173362179Y-123485143D01*
X173358504Y-123415370D01*
X173393136Y-123354687D01*
X173402985Y-123346151D01*
X173485744Y-123281738D01*
X173654164Y-123098785D01*
X173790173Y-122890607D01*
X173890063Y-122662881D01*
X173951108Y-122421821D01*
X173963147Y-122276535D01*
X173971643Y-122174005D01*
X173971643Y-122173994D01*
X173951109Y-121926187D01*
X173951107Y-121926175D01*
X173890063Y-121685118D01*
X173790173Y-121457393D01*
X173654166Y-121249217D01*
X173586460Y-121175669D01*
X173485744Y-121066262D01*
X173402991Y-121001852D01*
X173362179Y-120945143D01*
X173358504Y-120875370D01*
X173393136Y-120814687D01*
X173402985Y-120806151D01*
X173485744Y-120741738D01*
X173654164Y-120558785D01*
X173790173Y-120350607D01*
X173890063Y-120122881D01*
X173951108Y-119881821D01*
X173971643Y-119634000D01*
X173951108Y-119386179D01*
X173890063Y-119145119D01*
X173790173Y-118917393D01*
X173654166Y-118709217D01*
X173632557Y-118685744D01*
X173485744Y-118526262D01*
X173402991Y-118461852D01*
X173362179Y-118405143D01*
X173358504Y-118335370D01*
X173393136Y-118274687D01*
X173402985Y-118266151D01*
X173485744Y-118201738D01*
X173654164Y-118018785D01*
X173790173Y-117810607D01*
X173890063Y-117582881D01*
X173951108Y-117341821D01*
X173956362Y-117278414D01*
X173971643Y-117094005D01*
X173971643Y-117093994D01*
X173951109Y-116846187D01*
X173951107Y-116846175D01*
X173890063Y-116605118D01*
X173790173Y-116377393D01*
X173654166Y-116169217D01*
X173546429Y-116052184D01*
X173485744Y-115986262D01*
X173402991Y-115921852D01*
X173362179Y-115865143D01*
X173358504Y-115795370D01*
X173393136Y-115734687D01*
X173402985Y-115726151D01*
X173485744Y-115661738D01*
X173654164Y-115478785D01*
X173790173Y-115270607D01*
X173890063Y-115042881D01*
X173951108Y-114801821D01*
X173953760Y-114769821D01*
X173971643Y-114554005D01*
X173971643Y-114553994D01*
X173951109Y-114306187D01*
X173951107Y-114306175D01*
X173890063Y-114065118D01*
X173790173Y-113837393D01*
X173654166Y-113629217D01*
X173622104Y-113594389D01*
X173485744Y-113446262D01*
X173402991Y-113381852D01*
X173362179Y-113325143D01*
X173358504Y-113255370D01*
X173393136Y-113194687D01*
X173402985Y-113186151D01*
X173485744Y-113121738D01*
X173654164Y-112938785D01*
X173790173Y-112730607D01*
X173890063Y-112502881D01*
X173951108Y-112261821D01*
X173955609Y-112207500D01*
X173971643Y-112014005D01*
X173971643Y-112013994D01*
X173951109Y-111766187D01*
X173951107Y-111766175D01*
X173890063Y-111525118D01*
X173790173Y-111297393D01*
X173654166Y-111089217D01*
X173632557Y-111065744D01*
X173485744Y-110906262D01*
X173402991Y-110841852D01*
X173362179Y-110785143D01*
X173358504Y-110715370D01*
X173393136Y-110654687D01*
X173402985Y-110646151D01*
X173485744Y-110581738D01*
X173654164Y-110398785D01*
X173790173Y-110190607D01*
X173890063Y-109962881D01*
X173951108Y-109721821D01*
X173952698Y-109702630D01*
X173971643Y-109474005D01*
X173971643Y-109473994D01*
X173951109Y-109226187D01*
X173951107Y-109226175D01*
X173890063Y-108985118D01*
X173790173Y-108757393D01*
X173654166Y-108549217D01*
X173615580Y-108507302D01*
X173485744Y-108366262D01*
X173402991Y-108301852D01*
X173362179Y-108245143D01*
X173358504Y-108175370D01*
X173393136Y-108114687D01*
X173402985Y-108106151D01*
X173485744Y-108041738D01*
X173654164Y-107858785D01*
X173790173Y-107650607D01*
X173890063Y-107422881D01*
X173951108Y-107181821D01*
X173971643Y-106934000D01*
X173951108Y-106686179D01*
X173890063Y-106445119D01*
X173790173Y-106217393D01*
X173654166Y-106009217D01*
X173632557Y-105985744D01*
X173485744Y-105826262D01*
X173402991Y-105761852D01*
X173362179Y-105705143D01*
X173358504Y-105635370D01*
X173393136Y-105574687D01*
X173402985Y-105566151D01*
X173485744Y-105501738D01*
X173654164Y-105318785D01*
X173790173Y-105110607D01*
X173890063Y-104882881D01*
X173951108Y-104641821D01*
X173971643Y-104394000D01*
X173951108Y-104146179D01*
X173890063Y-103905119D01*
X173873635Y-103867667D01*
X173856372Y-103828310D01*
X173847469Y-103759010D01*
X173877447Y-103695897D01*
X173936786Y-103659011D01*
X173969928Y-103654500D01*
X176579472Y-103654500D01*
X176579474Y-103654500D01*
X176579475Y-103654500D01*
X176719485Y-103616984D01*
X176722555Y-103615211D01*
X176725474Y-103614502D01*
X176726995Y-103613873D01*
X176727093Y-103614109D01*
X176790451Y-103598734D01*
X176822877Y-103604663D01*
X176867757Y-103619246D01*
X177077713Y-103652500D01*
X177077714Y-103652500D01*
X177540286Y-103652500D01*
X177540287Y-103652500D01*
X177750243Y-103619246D01*
X177952412Y-103553557D01*
X178141816Y-103457051D01*
X178163789Y-103441086D01*
X178313786Y-103332109D01*
X178313788Y-103332106D01*
X178313792Y-103332104D01*
X178464104Y-103181792D01*
X178504181Y-103126629D01*
X178559511Y-103083964D01*
X178629124Y-103077985D01*
X178690920Y-103110590D01*
X178725277Y-103171429D01*
X178728500Y-103199515D01*
X178728500Y-107849776D01*
X178708815Y-107916815D01*
X178656011Y-107962570D01*
X178586853Y-107972514D01*
X178565496Y-107967482D01*
X178423697Y-107920494D01*
X178423690Y-107920493D01*
X178320986Y-107910000D01*
X177796000Y-107910000D01*
X177796000Y-108855854D01*
X177729343Y-108817370D01*
X177608535Y-108785000D01*
X177483465Y-108785000D01*
X177362657Y-108817370D01*
X177296000Y-108855854D01*
X177296000Y-107910000D01*
X176771028Y-107910000D01*
X176771012Y-107910001D01*
X176668302Y-107920494D01*
X176501880Y-107975641D01*
X176501875Y-107975643D01*
X176352654Y-108067684D01*
X176228684Y-108191654D01*
X176136643Y-108340875D01*
X176136641Y-108340880D01*
X176081494Y-108507302D01*
X176081493Y-108507309D01*
X176071000Y-108610013D01*
X176071000Y-109010000D01*
X177141854Y-109010000D01*
X177103370Y-109076657D01*
X177071000Y-109197465D01*
X177071000Y-109322535D01*
X177103370Y-109443343D01*
X177141854Y-109510000D01*
X176071001Y-109510000D01*
X176071001Y-109909986D01*
X176081494Y-110012697D01*
X176136641Y-110179119D01*
X176136643Y-110179124D01*
X176228684Y-110328345D01*
X176352654Y-110452315D01*
X176507484Y-110547815D01*
X176554208Y-110599763D01*
X176565431Y-110668726D01*
X176537587Y-110732808D01*
X176530069Y-110741035D01*
X176390889Y-110880215D01*
X176265951Y-111052179D01*
X176169444Y-111241585D01*
X176103753Y-111443760D01*
X176070500Y-111653713D01*
X176070500Y-111866286D01*
X176101353Y-112061089D01*
X176103754Y-112076243D01*
X176164053Y-112261824D01*
X176169444Y-112278414D01*
X176265951Y-112467820D01*
X176390890Y-112639786D01*
X176541209Y-112790105D01*
X176541214Y-112790109D01*
X176705793Y-112909682D01*
X176748459Y-112965011D01*
X176754438Y-113034625D01*
X176721833Y-113096420D01*
X176705793Y-113110318D01*
X176541214Y-113229890D01*
X176541209Y-113229894D01*
X176390890Y-113380213D01*
X176265951Y-113552179D01*
X176169444Y-113741585D01*
X176103753Y-113943760D01*
X176070500Y-114153713D01*
X176070500Y-114366286D01*
X176102806Y-114570261D01*
X176103754Y-114576243D01*
X176149814Y-114718001D01*
X176169444Y-114778414D01*
X176265951Y-114967820D01*
X176390890Y-115139786D01*
X176541209Y-115290105D01*
X176541214Y-115290109D01*
X176705793Y-115409682D01*
X176748459Y-115465011D01*
X176754438Y-115534625D01*
X176721833Y-115596420D01*
X176705793Y-115610318D01*
X176541214Y-115729890D01*
X176541209Y-115729894D01*
X176390890Y-115880213D01*
X176265951Y-116052179D01*
X176169444Y-116241585D01*
X176103753Y-116443760D01*
X176070500Y-116653713D01*
X176070500Y-116866286D01*
X176102616Y-117069062D01*
X176103754Y-117076243D01*
X176142278Y-117194808D01*
X176169444Y-117278414D01*
X176265951Y-117467820D01*
X176390890Y-117639786D01*
X176541213Y-117790109D01*
X176713179Y-117915048D01*
X176713181Y-117915049D01*
X176713184Y-117915051D01*
X176902588Y-118011557D01*
X177104757Y-118077246D01*
X177314713Y-118110500D01*
X177314714Y-118110500D01*
X177777286Y-118110500D01*
X177777287Y-118110500D01*
X177987243Y-118077246D01*
X178189412Y-118011557D01*
X178378816Y-117915051D01*
X178400789Y-117899086D01*
X178550786Y-117790109D01*
X178550788Y-117790106D01*
X178550792Y-117790104D01*
X178701104Y-117639792D01*
X178701106Y-117639788D01*
X178701109Y-117639786D01*
X178826048Y-117467820D01*
X178826047Y-117467820D01*
X178826051Y-117467816D01*
X178922557Y-117278412D01*
X178988246Y-117076243D01*
X179021500Y-116866287D01*
X179021500Y-116653713D01*
X178988246Y-116443757D01*
X178943851Y-116307126D01*
X178941857Y-116237290D01*
X178974100Y-116181133D01*
X179809520Y-115345716D01*
X179888577Y-115208784D01*
X179929501Y-115056057D01*
X179929501Y-114897942D01*
X179929501Y-114890347D01*
X179929500Y-114890329D01*
X179929500Y-74083060D01*
X179929501Y-74083047D01*
X179929501Y-73914944D01*
X179929501Y-73914943D01*
X179888577Y-73762216D01*
X179882528Y-73751738D01*
X179809524Y-73625290D01*
X179809518Y-73625282D01*
X177196590Y-71012355D01*
X177196588Y-71012352D01*
X177077717Y-70893481D01*
X177077716Y-70893480D01*
X176990904Y-70843360D01*
X176990904Y-70843359D01*
X176990900Y-70843358D01*
X176940785Y-70814423D01*
X176788057Y-70773499D01*
X176629943Y-70773499D01*
X176622347Y-70773499D01*
X176622331Y-70773500D01*
X173922116Y-70773500D01*
X173855077Y-70753815D01*
X173809322Y-70701011D01*
X173808560Y-70699311D01*
X173790172Y-70657391D01*
X173654166Y-70449217D01*
X173632557Y-70425744D01*
X173485744Y-70266262D01*
X173382253Y-70185712D01*
X173341442Y-70129003D01*
X173334655Y-70080176D01*
X173336056Y-70057609D01*
X172603575Y-69325128D01*
X172662853Y-69309245D01*
X172779147Y-69242102D01*
X172874102Y-69147147D01*
X172941245Y-69030853D01*
X172957127Y-68971575D01*
X173689434Y-69703882D01*
X173789731Y-69550369D01*
X173889587Y-69322717D01*
X173950612Y-69081738D01*
X173950614Y-69081729D01*
X173971141Y-68834005D01*
X173971141Y-68833994D01*
X173950614Y-68586270D01*
X173950612Y-68586261D01*
X173889587Y-68345282D01*
X173789731Y-68117630D01*
X173689434Y-67964116D01*
X172957127Y-68696423D01*
X172941245Y-68637147D01*
X172874102Y-68520853D01*
X172779147Y-68425898D01*
X172662853Y-68358755D01*
X172603575Y-68342872D01*
X173336056Y-67610390D01*
X173334655Y-67587825D01*
X173350147Y-67519694D01*
X173382250Y-67482290D01*
X173433101Y-67442711D01*
X175695500Y-67442711D01*
X175695500Y-67685288D01*
X175727161Y-67925785D01*
X175789947Y-68160104D01*
X175807006Y-68201287D01*
X175882776Y-68384212D01*
X176004064Y-68594289D01*
X176004066Y-68594292D01*
X176004067Y-68594293D01*
X176151733Y-68786736D01*
X176151739Y-68786743D01*
X176323256Y-68958260D01*
X176323263Y-68958266D01*
X176396059Y-69014124D01*
X176515711Y-69105936D01*
X176725788Y-69227224D01*
X176870861Y-69287315D01*
X176945438Y-69318206D01*
X176949900Y-69320054D01*
X177184211Y-69382838D01*
X177364586Y-69406584D01*
X177424711Y-69414500D01*
X177424712Y-69414500D01*
X177667289Y-69414500D01*
X177715388Y-69408167D01*
X177907789Y-69382838D01*
X178142100Y-69320054D01*
X178366212Y-69227224D01*
X178576289Y-69105936D01*
X178768738Y-68958265D01*
X178940265Y-68786738D01*
X179087936Y-68594289D01*
X179209224Y-68384212D01*
X179302054Y-68160100D01*
X179364838Y-67925789D01*
X179396500Y-67685288D01*
X179396500Y-67442712D01*
X179364838Y-67202211D01*
X179302054Y-66967900D01*
X179209224Y-66743788D01*
X179087936Y-66533711D01*
X178940265Y-66341262D01*
X178940260Y-66341256D01*
X178768743Y-66169739D01*
X178768736Y-66169733D01*
X178576293Y-66022067D01*
X178576292Y-66022066D01*
X178576289Y-66022064D01*
X178366212Y-65900776D01*
X178366205Y-65900773D01*
X178142104Y-65807947D01*
X177907785Y-65745161D01*
X177667289Y-65713500D01*
X177667288Y-65713500D01*
X177424712Y-65713500D01*
X177424711Y-65713500D01*
X177184214Y-65745161D01*
X176949895Y-65807947D01*
X176725794Y-65900773D01*
X176725785Y-65900777D01*
X176515706Y-66022067D01*
X176323263Y-66169733D01*
X176323256Y-66169739D01*
X176151739Y-66341256D01*
X176151733Y-66341263D01*
X176004067Y-66533706D01*
X175882777Y-66743785D01*
X175882773Y-66743794D01*
X175789947Y-66967895D01*
X175727161Y-67202214D01*
X175695500Y-67442711D01*
X173433101Y-67442711D01*
X173485744Y-67401738D01*
X173654164Y-67218785D01*
X173790173Y-67010607D01*
X173890063Y-66782881D01*
X173951108Y-66541821D01*
X173951780Y-66533711D01*
X173971643Y-66294005D01*
X173971643Y-66293994D01*
X173951109Y-66046187D01*
X173951107Y-66046175D01*
X173890063Y-65805118D01*
X173790173Y-65577393D01*
X173654166Y-65369217D01*
X173632557Y-65345744D01*
X173485744Y-65186262D01*
X173289509Y-65033526D01*
X173289507Y-65033525D01*
X173289506Y-65033524D01*
X173070811Y-64915172D01*
X173070802Y-64915169D01*
X172835616Y-64834429D01*
X172590335Y-64793500D01*
X172341665Y-64793500D01*
X172096383Y-64834429D01*
X171861197Y-64915169D01*
X171861188Y-64915172D01*
X171642493Y-65033524D01*
X171446257Y-65186261D01*
X171277833Y-65369217D01*
X171141826Y-65577393D01*
X171041936Y-65805118D01*
X170980892Y-66046175D01*
X170980890Y-66046187D01*
X170960357Y-66293994D01*
X170960357Y-66294005D01*
X170980890Y-66541812D01*
X170980892Y-66541824D01*
X171041936Y-66782881D01*
X171141826Y-67010606D01*
X171277833Y-67218782D01*
X171277836Y-67218785D01*
X171446256Y-67401738D01*
X171446259Y-67401740D01*
X171446262Y-67401743D01*
X171549743Y-67482286D01*
X171590556Y-67538996D01*
X171597343Y-67587823D01*
X171595941Y-67610389D01*
X172328424Y-68342871D01*
X172269147Y-68358755D01*
X172152853Y-68425898D01*
X172057898Y-68520853D01*
X171990755Y-68637147D01*
X171974872Y-68696424D01*
X171242564Y-67964116D01*
X171142267Y-68117632D01*
X171042412Y-68345282D01*
X170981387Y-68586261D01*
X170981385Y-68586270D01*
X170960859Y-68833994D01*
X170960859Y-68834005D01*
X170981385Y-69081729D01*
X170981387Y-69081738D01*
X171042412Y-69322717D01*
X171142266Y-69550364D01*
X171242564Y-69703882D01*
X171974871Y-68971575D01*
X171990755Y-69030853D01*
X172057898Y-69147147D01*
X172152853Y-69242102D01*
X172269147Y-69309245D01*
X172328424Y-69325128D01*
X171595942Y-70057609D01*
X171597343Y-70080177D01*
X171581850Y-70148307D01*
X171549744Y-70185713D01*
X171446258Y-70266260D01*
X171277833Y-70449217D01*
X171141826Y-70657393D01*
X171041936Y-70885118D01*
X170980892Y-71126175D01*
X170980890Y-71126187D01*
X170960357Y-71373994D01*
X170960357Y-71374005D01*
X170980890Y-71621812D01*
X170980892Y-71621824D01*
X171041936Y-71862881D01*
X171141826Y-72090606D01*
X171277833Y-72298782D01*
X171277836Y-72298785D01*
X171446256Y-72481738D01*
X171529008Y-72546147D01*
X171569821Y-72602857D01*
X171573496Y-72672630D01*
X171538864Y-72733313D01*
X171529014Y-72741848D01*
X171470400Y-72787469D01*
X171446257Y-72806261D01*
X171277833Y-72989217D01*
X171141826Y-73197393D01*
X171041936Y-73425118D01*
X170980892Y-73666175D01*
X170980890Y-73666187D01*
X170960357Y-73913994D01*
X170960357Y-73914005D01*
X170980890Y-74161812D01*
X170980892Y-74161824D01*
X171041936Y-74402881D01*
X171141826Y-74630606D01*
X171277833Y-74838782D01*
X171277836Y-74838785D01*
X171446256Y-75021738D01*
X171529008Y-75086147D01*
X171569821Y-75142857D01*
X171573496Y-75212630D01*
X171538864Y-75273313D01*
X171529014Y-75281848D01*
X171479999Y-75319999D01*
X171446257Y-75346261D01*
X171277833Y-75529217D01*
X171141826Y-75737393D01*
X171041936Y-75965118D01*
X170980892Y-76206175D01*
X170980890Y-76206187D01*
X170960357Y-76453994D01*
X170960357Y-76454005D01*
X170980890Y-76701812D01*
X170980892Y-76701824D01*
X171041936Y-76942881D01*
X171141826Y-77170606D01*
X171202806Y-77263943D01*
X171277836Y-77378785D01*
X171320481Y-77425110D01*
X171351403Y-77487765D01*
X171343543Y-77557191D01*
X171316932Y-77596774D01*
X166945491Y-81968216D01*
X166945487Y-81968221D01*
X166880959Y-82079987D01*
X166880960Y-82079988D01*
X166873017Y-82093745D01*
X166873016Y-82093747D01*
X166873016Y-82093748D01*
X166835500Y-82233758D01*
X166835500Y-82233760D01*
X166835500Y-86770031D01*
X166815815Y-86837070D01*
X166763011Y-86882825D01*
X166693853Y-86892769D01*
X166670546Y-86887073D01*
X166549257Y-86844632D01*
X166549249Y-86844630D01*
X166370004Y-86824435D01*
X166369996Y-86824435D01*
X166190750Y-86844630D01*
X166190745Y-86844631D01*
X166020476Y-86904211D01*
X165867737Y-87000184D01*
X165740184Y-87127737D01*
X165644211Y-87280476D01*
X165584631Y-87450745D01*
X165584630Y-87450750D01*
X165564435Y-87629996D01*
X165564435Y-87630003D01*
X165584630Y-87809249D01*
X165584631Y-87809254D01*
X165644211Y-87979523D01*
X165740184Y-88132262D01*
X165783181Y-88175259D01*
X165816666Y-88236582D01*
X165819500Y-88262940D01*
X165819500Y-92430613D01*
X165799815Y-92497652D01*
X165783181Y-92518294D01*
X165416294Y-92885181D01*
X165354971Y-92918666D01*
X165328613Y-92921500D01*
X165027525Y-92921500D01*
X164904465Y-92954474D01*
X164904464Y-92954473D01*
X164887517Y-92959015D01*
X164887514Y-92959016D01*
X164761986Y-93031489D01*
X164761983Y-93031491D01*
X164146294Y-93647181D01*
X164084971Y-93680666D01*
X164058613Y-93683500D01*
X158704048Y-93683500D01*
X158637009Y-93663815D01*
X158591254Y-93611011D01*
X158590492Y-93609310D01*
X158550173Y-93517393D01*
X158414166Y-93309217D01*
X158387070Y-93279783D01*
X158245744Y-93126262D01*
X158162991Y-93061852D01*
X158122179Y-93005143D01*
X158118504Y-92935370D01*
X158153136Y-92874687D01*
X158162985Y-92866151D01*
X158245744Y-92801738D01*
X158414164Y-92618785D01*
X158550173Y-92410607D01*
X158650063Y-92182881D01*
X158711108Y-91941821D01*
X158711109Y-91941812D01*
X158731643Y-91694005D01*
X158731643Y-91693994D01*
X158711109Y-91446187D01*
X158711107Y-91446175D01*
X158650063Y-91205118D01*
X158550173Y-90977393D01*
X158414166Y-90769217D01*
X158392557Y-90745744D01*
X158245744Y-90586262D01*
X158162991Y-90521852D01*
X158122179Y-90465143D01*
X158118504Y-90395370D01*
X158153136Y-90334687D01*
X158162985Y-90326151D01*
X158245744Y-90261738D01*
X158414164Y-90078785D01*
X158550173Y-89870607D01*
X158650063Y-89642881D01*
X158711108Y-89401821D01*
X158716665Y-89334757D01*
X158731643Y-89154005D01*
X158731643Y-89153994D01*
X158711109Y-88906187D01*
X158711107Y-88906175D01*
X158650063Y-88665118D01*
X158550173Y-88437393D01*
X158414166Y-88229217D01*
X158357356Y-88167505D01*
X158245744Y-88046262D01*
X158162991Y-87981852D01*
X158122179Y-87925143D01*
X158118504Y-87855370D01*
X158153136Y-87794687D01*
X158162985Y-87786151D01*
X158245744Y-87721738D01*
X158414164Y-87538785D01*
X158550173Y-87330607D01*
X158650063Y-87102881D01*
X158711108Y-86861821D01*
X158712459Y-86845520D01*
X158731643Y-86614005D01*
X158731643Y-86613994D01*
X158711109Y-86366187D01*
X158711107Y-86366175D01*
X158650063Y-86125118D01*
X158550173Y-85897393D01*
X158414166Y-85689217D01*
X158367644Y-85638681D01*
X158245744Y-85506262D01*
X158162991Y-85441852D01*
X158122179Y-85385143D01*
X158118504Y-85315370D01*
X158153136Y-85254687D01*
X158162985Y-85246151D01*
X158245744Y-85181738D01*
X158414164Y-84998785D01*
X158550173Y-84790607D01*
X158650063Y-84562881D01*
X158711108Y-84321821D01*
X158715975Y-84263083D01*
X158731643Y-84074005D01*
X158731643Y-84073994D01*
X158711109Y-83826187D01*
X158711107Y-83826175D01*
X158650063Y-83585118D01*
X158550173Y-83357393D01*
X158414166Y-83149217D01*
X158348606Y-83078000D01*
X158245744Y-82966262D01*
X158162991Y-82901852D01*
X158122179Y-82845143D01*
X158118504Y-82775370D01*
X158153136Y-82714687D01*
X158162985Y-82706151D01*
X158245744Y-82641738D01*
X158414164Y-82458785D01*
X158550173Y-82250607D01*
X158650063Y-82022881D01*
X158711108Y-81781821D01*
X158711109Y-81781812D01*
X158731643Y-81534005D01*
X158731643Y-81533994D01*
X158711109Y-81286187D01*
X158711107Y-81286175D01*
X158650063Y-81045118D01*
X158550173Y-80817393D01*
X158414166Y-80609217D01*
X158372279Y-80563716D01*
X158245744Y-80426262D01*
X158162991Y-80361852D01*
X158122179Y-80305143D01*
X158118504Y-80235370D01*
X158153136Y-80174687D01*
X158162985Y-80166151D01*
X158245744Y-80101738D01*
X158414164Y-79918785D01*
X158550173Y-79710607D01*
X158650063Y-79482881D01*
X158711108Y-79241821D01*
X158711212Y-79240567D01*
X158731643Y-78994005D01*
X158731643Y-78993994D01*
X158711109Y-78746187D01*
X158711107Y-78746175D01*
X158650063Y-78505118D01*
X158550173Y-78277393D01*
X158414166Y-78069217D01*
X158324509Y-77971824D01*
X158245744Y-77886262D01*
X158162991Y-77821852D01*
X158122179Y-77765143D01*
X158118504Y-77695370D01*
X158153136Y-77634687D01*
X158162985Y-77626151D01*
X158245744Y-77561738D01*
X158414164Y-77378785D01*
X158550173Y-77170607D01*
X158650063Y-76942881D01*
X158711108Y-76701821D01*
X158714724Y-76658181D01*
X158731643Y-76454005D01*
X158731643Y-76453994D01*
X158711109Y-76206187D01*
X158711107Y-76206175D01*
X158650063Y-75965118D01*
X158550173Y-75737393D01*
X158414166Y-75529217D01*
X158392557Y-75505744D01*
X158245744Y-75346262D01*
X158162991Y-75281852D01*
X158122179Y-75225143D01*
X158118504Y-75155370D01*
X158153136Y-75094687D01*
X158162985Y-75086151D01*
X158245744Y-75021738D01*
X158414164Y-74838785D01*
X158550173Y-74630607D01*
X158650063Y-74402881D01*
X158711108Y-74161821D01*
X158717322Y-74086834D01*
X158731643Y-73914005D01*
X158731643Y-73913994D01*
X158711109Y-73666187D01*
X158711107Y-73666175D01*
X158650063Y-73425118D01*
X158550173Y-73197393D01*
X158414166Y-72989217D01*
X158324509Y-72891824D01*
X158245744Y-72806262D01*
X158162991Y-72741852D01*
X158122179Y-72685143D01*
X158120012Y-72643994D01*
X158770357Y-72643994D01*
X158770357Y-72644005D01*
X158790890Y-72891812D01*
X158790892Y-72891824D01*
X158851936Y-73132881D01*
X158951826Y-73360606D01*
X159087833Y-73568782D01*
X159087836Y-73568785D01*
X159256256Y-73751738D01*
X159339008Y-73816147D01*
X159379821Y-73872857D01*
X159383496Y-73942630D01*
X159348864Y-74003313D01*
X159339014Y-74011848D01*
X159280400Y-74057469D01*
X159256257Y-74076261D01*
X159087833Y-74259217D01*
X158951826Y-74467393D01*
X158851936Y-74695118D01*
X158790892Y-74936175D01*
X158790890Y-74936187D01*
X158770357Y-75183994D01*
X158770357Y-75184005D01*
X158790890Y-75431812D01*
X158790892Y-75431824D01*
X158851936Y-75672881D01*
X158951826Y-75900606D01*
X159087833Y-76108782D01*
X159120245Y-76143991D01*
X159256256Y-76291738D01*
X159339008Y-76356147D01*
X159379821Y-76412857D01*
X159383496Y-76482630D01*
X159348864Y-76543313D01*
X159339014Y-76551848D01*
X159293502Y-76587272D01*
X159256257Y-76616261D01*
X159087833Y-76799217D01*
X158951826Y-77007393D01*
X158851936Y-77235118D01*
X158790892Y-77476175D01*
X158790890Y-77476187D01*
X158770357Y-77723994D01*
X158770357Y-77724005D01*
X158790890Y-77971812D01*
X158790892Y-77971824D01*
X158851936Y-78212881D01*
X158951826Y-78440606D01*
X159087833Y-78648782D01*
X159087836Y-78648785D01*
X159256256Y-78831738D01*
X159256259Y-78831740D01*
X159256262Y-78831743D01*
X159359743Y-78912286D01*
X159400556Y-78968996D01*
X159407343Y-79017823D01*
X159405941Y-79040389D01*
X160138424Y-79772871D01*
X160079147Y-79788755D01*
X159962853Y-79855898D01*
X159867898Y-79950853D01*
X159800755Y-80067147D01*
X159784872Y-80126424D01*
X159052564Y-79394116D01*
X158952267Y-79547632D01*
X158852412Y-79775282D01*
X158791387Y-80016261D01*
X158791385Y-80016270D01*
X158770859Y-80263994D01*
X158770859Y-80264005D01*
X158791385Y-80511729D01*
X158791387Y-80511738D01*
X158852412Y-80752717D01*
X158952266Y-80980364D01*
X159052564Y-81133882D01*
X159784871Y-80401575D01*
X159800755Y-80460853D01*
X159867898Y-80577147D01*
X159962853Y-80672102D01*
X160079147Y-80739245D01*
X160138424Y-80755128D01*
X159405942Y-81487609D01*
X159408346Y-81526316D01*
X159408346Y-81541686D01*
X159405942Y-81580390D01*
X160138424Y-82312871D01*
X160079147Y-82328755D01*
X159962853Y-82395898D01*
X159867898Y-82490853D01*
X159800755Y-82607147D01*
X159784872Y-82666424D01*
X159052564Y-81934116D01*
X158952267Y-82087632D01*
X158852412Y-82315282D01*
X158791387Y-82556261D01*
X158791385Y-82556270D01*
X158770859Y-82803994D01*
X158770859Y-82804005D01*
X158791385Y-83051729D01*
X158791387Y-83051738D01*
X158852412Y-83292717D01*
X158952266Y-83520364D01*
X159052564Y-83673882D01*
X159784871Y-82941575D01*
X159800755Y-83000853D01*
X159867898Y-83117147D01*
X159962853Y-83212102D01*
X160079147Y-83279245D01*
X160138424Y-83295128D01*
X159405942Y-84027609D01*
X159452768Y-84064055D01*
X159452770Y-84064056D01*
X159671385Y-84182364D01*
X159671396Y-84182369D01*
X159906506Y-84263083D01*
X160151707Y-84304000D01*
X160400293Y-84304000D01*
X160645493Y-84263083D01*
X160880603Y-84182369D01*
X160880614Y-84182364D01*
X161099228Y-84064057D01*
X161099231Y-84064055D01*
X161146056Y-84027609D01*
X160413575Y-83295128D01*
X160472853Y-83279245D01*
X160589147Y-83212102D01*
X160684102Y-83117147D01*
X160751245Y-83000853D01*
X160767127Y-82941575D01*
X161499434Y-83673882D01*
X161599731Y-83520369D01*
X161699587Y-83292717D01*
X161760612Y-83051738D01*
X161760614Y-83051729D01*
X161781141Y-82804005D01*
X161781141Y-82803994D01*
X161760614Y-82556270D01*
X161760612Y-82556261D01*
X161699587Y-82315282D01*
X161599731Y-82087630D01*
X161499434Y-81934116D01*
X160767127Y-82666423D01*
X160751245Y-82607147D01*
X160684102Y-82490853D01*
X160589147Y-82395898D01*
X160472853Y-82328755D01*
X160413575Y-82312872D01*
X161146056Y-81580390D01*
X161143653Y-81541682D01*
X161143653Y-81526312D01*
X161146056Y-81487609D01*
X160413575Y-80755128D01*
X160472853Y-80739245D01*
X160589147Y-80672102D01*
X160684102Y-80577147D01*
X160751245Y-80460853D01*
X160767127Y-80401575D01*
X161499434Y-81133882D01*
X161599731Y-80980369D01*
X161699587Y-80752717D01*
X161760612Y-80511738D01*
X161760614Y-80511729D01*
X161781141Y-80264005D01*
X161781141Y-80263994D01*
X161760614Y-80016270D01*
X161760612Y-80016261D01*
X161699587Y-79775282D01*
X161599731Y-79547630D01*
X161499434Y-79394116D01*
X160767127Y-80126423D01*
X160751245Y-80067147D01*
X160684102Y-79950853D01*
X160589147Y-79855898D01*
X160472853Y-79788755D01*
X160413575Y-79772872D01*
X161146056Y-79040390D01*
X161144655Y-79017825D01*
X161160147Y-78949694D01*
X161192250Y-78912290D01*
X161295744Y-78831738D01*
X161464164Y-78648785D01*
X161600173Y-78440607D01*
X161700063Y-78212881D01*
X161761108Y-77971821D01*
X161768442Y-77883313D01*
X161781643Y-77724005D01*
X161781643Y-77723994D01*
X161761109Y-77476187D01*
X161761107Y-77476175D01*
X161700063Y-77235118D01*
X161600173Y-77007393D01*
X161464166Y-76799217D01*
X161438981Y-76771859D01*
X161295744Y-76616262D01*
X161212991Y-76551852D01*
X161172179Y-76495143D01*
X161168504Y-76425370D01*
X161203136Y-76364687D01*
X161212985Y-76356151D01*
X161295744Y-76291738D01*
X161464164Y-76108785D01*
X161600173Y-75900607D01*
X161700063Y-75672881D01*
X161761108Y-75431821D01*
X161762452Y-75415606D01*
X161781643Y-75184005D01*
X161781643Y-75183994D01*
X161761109Y-74936187D01*
X161761107Y-74936175D01*
X161700063Y-74695118D01*
X161600173Y-74467393D01*
X161464166Y-74259217D01*
X161379734Y-74167500D01*
X161295744Y-74076262D01*
X161212991Y-74011852D01*
X161172179Y-73955143D01*
X161168504Y-73885370D01*
X161203136Y-73824687D01*
X161212985Y-73816151D01*
X161295744Y-73751738D01*
X161464164Y-73568785D01*
X161600173Y-73360607D01*
X161700063Y-73132881D01*
X161761108Y-72891821D01*
X161773535Y-72741854D01*
X161781643Y-72644005D01*
X161781643Y-72643994D01*
X161761109Y-72396187D01*
X161761107Y-72396175D01*
X161700063Y-72155118D01*
X161600173Y-71927393D01*
X161464166Y-71719217D01*
X161374509Y-71621824D01*
X161295744Y-71536262D01*
X161099509Y-71383526D01*
X161099507Y-71383525D01*
X161099506Y-71383524D01*
X160880811Y-71265172D01*
X160880802Y-71265169D01*
X160645616Y-71184429D01*
X160400335Y-71143500D01*
X160151665Y-71143500D01*
X159906383Y-71184429D01*
X159671197Y-71265169D01*
X159671188Y-71265172D01*
X159452493Y-71383524D01*
X159256257Y-71536261D01*
X159087833Y-71719217D01*
X158951826Y-71927393D01*
X158851936Y-72155118D01*
X158790892Y-72396175D01*
X158790890Y-72396187D01*
X158770357Y-72643994D01*
X158120012Y-72643994D01*
X158118504Y-72615370D01*
X158153136Y-72554687D01*
X158162985Y-72546151D01*
X158245744Y-72481738D01*
X158414164Y-72298785D01*
X158550173Y-72090607D01*
X158650063Y-71862881D01*
X158711108Y-71621821D01*
X158731643Y-71374000D01*
X158722625Y-71265172D01*
X158711109Y-71126187D01*
X158711107Y-71126175D01*
X158650063Y-70885118D01*
X158550173Y-70657393D01*
X158414166Y-70449217D01*
X158392557Y-70425744D01*
X158245744Y-70266262D01*
X158162991Y-70201852D01*
X158122179Y-70145143D01*
X158118504Y-70075370D01*
X158153136Y-70014687D01*
X158162985Y-70006151D01*
X158245744Y-69941738D01*
X158414164Y-69758785D01*
X158550173Y-69550607D01*
X158650063Y-69322881D01*
X158711108Y-69081821D01*
X158711116Y-69081729D01*
X158731643Y-68834005D01*
X158731643Y-68833994D01*
X158711109Y-68586187D01*
X158711107Y-68586175D01*
X158650063Y-68345118D01*
X158550173Y-68117393D01*
X158414166Y-67909217D01*
X158308561Y-67794500D01*
X158245744Y-67726262D01*
X158142253Y-67645712D01*
X158101442Y-67589003D01*
X158094655Y-67540176D01*
X158096056Y-67517609D01*
X157363575Y-66785128D01*
X157422853Y-66769245D01*
X157539147Y-66702102D01*
X157634102Y-66607147D01*
X157701245Y-66490853D01*
X157717127Y-66431575D01*
X158449434Y-67163882D01*
X158549731Y-67010369D01*
X158649587Y-66782717D01*
X158710612Y-66541738D01*
X158710614Y-66541729D01*
X158731141Y-66294005D01*
X158731141Y-66293994D01*
X158710614Y-66046270D01*
X158710612Y-66046261D01*
X158649587Y-65805282D01*
X158549731Y-65577630D01*
X158449434Y-65424116D01*
X157717127Y-66156423D01*
X157701245Y-66097147D01*
X157634102Y-65980853D01*
X157539147Y-65885898D01*
X157422853Y-65818755D01*
X157363575Y-65802872D01*
X158096057Y-65070390D01*
X158096056Y-65070389D01*
X158049229Y-65033943D01*
X157830614Y-64915635D01*
X157830603Y-64915630D01*
X157595493Y-64834916D01*
X157350293Y-64794000D01*
X157101707Y-64794000D01*
X156856506Y-64834916D01*
X156621396Y-64915630D01*
X156621390Y-64915632D01*
X156402761Y-65033949D01*
X156355942Y-65070388D01*
X156355942Y-65070390D01*
X157088424Y-65802871D01*
X157029147Y-65818755D01*
X156912853Y-65885898D01*
X156817898Y-65980853D01*
X156750755Y-66097147D01*
X156734872Y-66156424D01*
X156002564Y-65424116D01*
X155902267Y-65577632D01*
X155802412Y-65805282D01*
X155741387Y-66046261D01*
X155741385Y-66046270D01*
X155720859Y-66293994D01*
X155720859Y-66294005D01*
X155741385Y-66541729D01*
X155741387Y-66541738D01*
X155802412Y-66782717D01*
X155902266Y-67010364D01*
X156002564Y-67163882D01*
X156734871Y-66431575D01*
X156750755Y-66490853D01*
X156817898Y-66607147D01*
X156912853Y-66702102D01*
X157029147Y-66769245D01*
X157088424Y-66785128D01*
X156355942Y-67517609D01*
X156357343Y-67540177D01*
X156341850Y-67608307D01*
X156309744Y-67645713D01*
X156206258Y-67726260D01*
X156037833Y-67909217D01*
X155901826Y-68117393D01*
X155801936Y-68345118D01*
X155740892Y-68586175D01*
X155740890Y-68586187D01*
X155720357Y-68833994D01*
X155720357Y-68834005D01*
X155740890Y-69081812D01*
X155740892Y-69081824D01*
X155801936Y-69322881D01*
X155901826Y-69550606D01*
X156037833Y-69758782D01*
X156037836Y-69758785D01*
X156206256Y-69941738D01*
X156289008Y-70006147D01*
X156329821Y-70062857D01*
X156333496Y-70132630D01*
X156298864Y-70193313D01*
X156289014Y-70201848D01*
X156230400Y-70247469D01*
X156206257Y-70266261D01*
X156037833Y-70449217D01*
X155901826Y-70657393D01*
X155801936Y-70885118D01*
X155740892Y-71126175D01*
X155740890Y-71126187D01*
X155720357Y-71373994D01*
X155720357Y-71374005D01*
X155740890Y-71621812D01*
X155740892Y-71621824D01*
X155801936Y-71862881D01*
X155901826Y-72090606D01*
X156037833Y-72298782D01*
X156037836Y-72298785D01*
X156206256Y-72481738D01*
X156289008Y-72546147D01*
X156329821Y-72602857D01*
X156333496Y-72672630D01*
X156298864Y-72733313D01*
X156289014Y-72741848D01*
X156230400Y-72787469D01*
X156206257Y-72806261D01*
X156037833Y-72989217D01*
X155901826Y-73197393D01*
X155801936Y-73425118D01*
X155740892Y-73666175D01*
X155740890Y-73666187D01*
X155720357Y-73913994D01*
X155720357Y-73914005D01*
X155740890Y-74161812D01*
X155740892Y-74161824D01*
X155801936Y-74402881D01*
X155901826Y-74630606D01*
X156037833Y-74838782D01*
X156037836Y-74838785D01*
X156206256Y-75021738D01*
X156289008Y-75086147D01*
X156329821Y-75142857D01*
X156333496Y-75212630D01*
X156298864Y-75273313D01*
X156289014Y-75281848D01*
X156239999Y-75319999D01*
X156206257Y-75346261D01*
X156037833Y-75529217D01*
X155901826Y-75737393D01*
X155801936Y-75965118D01*
X155740892Y-76206175D01*
X155740890Y-76206187D01*
X155720357Y-76453994D01*
X155720357Y-76454005D01*
X155740890Y-76701812D01*
X155740892Y-76701824D01*
X155801936Y-76942881D01*
X155901826Y-77170606D01*
X156037833Y-77378782D01*
X156037836Y-77378785D01*
X156206256Y-77561738D01*
X156289008Y-77626147D01*
X156329821Y-77682857D01*
X156333496Y-77752630D01*
X156298864Y-77813313D01*
X156289014Y-77821848D01*
X156230400Y-77867469D01*
X156206257Y-77886261D01*
X156037833Y-78069217D01*
X155901827Y-78277391D01*
X155883440Y-78319311D01*
X155838483Y-78372796D01*
X155771747Y-78393486D01*
X155769884Y-78393500D01*
X155719500Y-78393500D01*
X155652461Y-78373815D01*
X155606706Y-78321011D01*
X155595500Y-78269500D01*
X155595499Y-77262129D01*
X155595498Y-77262123D01*
X155595497Y-77262116D01*
X155589091Y-77202517D01*
X155577189Y-77170607D01*
X155538797Y-77067671D01*
X155538793Y-77067664D01*
X155452547Y-76952455D01*
X155452544Y-76952452D01*
X155337335Y-76866206D01*
X155337328Y-76866202D01*
X155202482Y-76815908D01*
X155202483Y-76815908D01*
X155167404Y-76812137D01*
X155102853Y-76785399D01*
X155063005Y-76728006D01*
X155060512Y-76658181D01*
X155096165Y-76598092D01*
X155109539Y-76587272D01*
X155134140Y-76570046D01*
X155295045Y-76409141D01*
X155295047Y-76409139D01*
X155425568Y-76222734D01*
X155521739Y-76016496D01*
X155580635Y-75796692D01*
X155600468Y-75570000D01*
X155597326Y-75534092D01*
X155585377Y-75397507D01*
X155580635Y-75343308D01*
X155521739Y-75123504D01*
X155425568Y-74917266D01*
X155295047Y-74730861D01*
X155295045Y-74730858D01*
X155134141Y-74569954D01*
X154947734Y-74439432D01*
X154947732Y-74439431D01*
X154741497Y-74343261D01*
X154741488Y-74343258D01*
X154521697Y-74284366D01*
X154521693Y-74284365D01*
X154521692Y-74284365D01*
X154521691Y-74284364D01*
X154521686Y-74284364D01*
X154295002Y-74264532D01*
X154294998Y-74264532D01*
X154068313Y-74284364D01*
X154068302Y-74284366D01*
X153848511Y-74343258D01*
X153848502Y-74343261D01*
X153642267Y-74439431D01*
X153642265Y-74439432D01*
X153455858Y-74569954D01*
X153294954Y-74730858D01*
X153164432Y-74917265D01*
X153164431Y-74917267D01*
X153068261Y-75123502D01*
X153068258Y-75123511D01*
X153009366Y-75343302D01*
X153009364Y-75343313D01*
X152989532Y-75569998D01*
X152989532Y-75570001D01*
X153009364Y-75796686D01*
X153009366Y-75796697D01*
X153068258Y-76016488D01*
X153068261Y-76016497D01*
X153164431Y-76222732D01*
X153164432Y-76222734D01*
X153294954Y-76409141D01*
X153455858Y-76570045D01*
X153480462Y-76587273D01*
X153524087Y-76641849D01*
X153531281Y-76711348D01*
X153499758Y-76773703D01*
X153439529Y-76809117D01*
X153422593Y-76812138D01*
X153387516Y-76815908D01*
X153252671Y-76866202D01*
X153252664Y-76866206D01*
X153137455Y-76952452D01*
X153137452Y-76952455D01*
X153051206Y-77067664D01*
X153051202Y-77067671D01*
X153000908Y-77202517D01*
X152995123Y-77256330D01*
X152994501Y-77262123D01*
X152994500Y-77262135D01*
X152994500Y-78693903D01*
X152974815Y-78760942D01*
X152922011Y-78806697D01*
X152852853Y-78816641D01*
X152789297Y-78787616D01*
X152782819Y-78781584D01*
X151131819Y-77130584D01*
X151098334Y-77069261D01*
X151095500Y-77042903D01*
X151095500Y-69380718D01*
X151115185Y-69313679D01*
X151163207Y-69270233D01*
X151202815Y-69250052D01*
X151202815Y-69250051D01*
X151202816Y-69250051D01*
X151294193Y-69183661D01*
X151374786Y-69125109D01*
X151374788Y-69125106D01*
X151374792Y-69125104D01*
X151525104Y-68974792D01*
X151525106Y-68974788D01*
X151525109Y-68974786D01*
X151650048Y-68802820D01*
X151650047Y-68802820D01*
X151650051Y-68802816D01*
X151746557Y-68613412D01*
X151812246Y-68411243D01*
X151845500Y-68201287D01*
X151845500Y-67688713D01*
X151812246Y-67478757D01*
X151746557Y-67276588D01*
X151650051Y-67087184D01*
X151650049Y-67087181D01*
X151650048Y-67087179D01*
X151525109Y-66915213D01*
X151374786Y-66764890D01*
X151202820Y-66639951D01*
X151013414Y-66543444D01*
X151013413Y-66543443D01*
X151013412Y-66543443D01*
X150811243Y-66477754D01*
X150811241Y-66477753D01*
X150811240Y-66477753D01*
X150649957Y-66452208D01*
X150601287Y-66444500D01*
X150388713Y-66444500D01*
X150340042Y-66452208D01*
X150178760Y-66477753D01*
X149976585Y-66543444D01*
X149787179Y-66639951D01*
X149615215Y-66764889D01*
X149476035Y-66904069D01*
X149414712Y-66937553D01*
X149345020Y-66932569D01*
X149289087Y-66890697D01*
X149282815Y-66881484D01*
X149187315Y-66726654D01*
X149063345Y-66602684D01*
X148914124Y-66510643D01*
X148914119Y-66510641D01*
X148747697Y-66455494D01*
X148747690Y-66455493D01*
X148644986Y-66445000D01*
X148245000Y-66445000D01*
X148245000Y-67511988D01*
X148187993Y-67479075D01*
X148060826Y-67445000D01*
X147929174Y-67445000D01*
X147802007Y-67479075D01*
X147745000Y-67511988D01*
X147745000Y-66445000D01*
X147345028Y-66445000D01*
X147345012Y-66445001D01*
X147242302Y-66455494D01*
X147075880Y-66510641D01*
X147075875Y-66510643D01*
X146926654Y-66602684D01*
X146802684Y-66726654D01*
X146710643Y-66875875D01*
X146710641Y-66875880D01*
X146655494Y-67042302D01*
X146655493Y-67042309D01*
X146645000Y-67145013D01*
X146645000Y-67695000D01*
X147561988Y-67695000D01*
X147529075Y-67752007D01*
X147495000Y-67879174D01*
X147495000Y-68010826D01*
X147529075Y-68137993D01*
X147561988Y-68195000D01*
X146645001Y-68195000D01*
X146645001Y-68744986D01*
X146655494Y-68847697D01*
X146710641Y-69014119D01*
X146710643Y-69014124D01*
X146802684Y-69163345D01*
X146926654Y-69287315D01*
X147075875Y-69379356D01*
X147075880Y-69379358D01*
X147242302Y-69434505D01*
X147242309Y-69434506D01*
X147345019Y-69444999D01*
X147744999Y-69444999D01*
X147745000Y-69444998D01*
X147745000Y-68378012D01*
X147802007Y-68410925D01*
X147929174Y-68445000D01*
X148060826Y-68445000D01*
X148187993Y-68410925D01*
X148245000Y-68378012D01*
X148245000Y-69444999D01*
X148644972Y-69444999D01*
X148644986Y-69444998D01*
X148747697Y-69434505D01*
X148914119Y-69379358D01*
X148914124Y-69379356D01*
X149063345Y-69287315D01*
X149187317Y-69163343D01*
X149282815Y-69008516D01*
X149334763Y-68961791D01*
X149403725Y-68950568D01*
X149467808Y-68978412D01*
X149476035Y-68985931D01*
X149615213Y-69125109D01*
X149787184Y-69250051D01*
X149787184Y-69250052D01*
X149826793Y-69270233D01*
X149877590Y-69318206D01*
X149894500Y-69380718D01*
X149894500Y-77256330D01*
X149894499Y-77256348D01*
X149894499Y-77422054D01*
X149894498Y-77422054D01*
X149930708Y-77557191D01*
X149935423Y-77574785D01*
X149958741Y-77615172D01*
X150005043Y-77695370D01*
X150014479Y-77711714D01*
X150014481Y-77711717D01*
X150133349Y-77830585D01*
X150133355Y-77830590D01*
X154632638Y-82329873D01*
X154666123Y-82391196D01*
X154661139Y-82460888D01*
X154619267Y-82516821D01*
X154553803Y-82541238D01*
X154523434Y-82539672D01*
X154521693Y-82539365D01*
X154295002Y-82519532D01*
X154294998Y-82519532D01*
X154068313Y-82539364D01*
X154068302Y-82539366D01*
X153848511Y-82598258D01*
X153848502Y-82598261D01*
X153642267Y-82694431D01*
X153642265Y-82694432D01*
X153455858Y-82824954D01*
X153294954Y-82985858D01*
X153164432Y-83172265D01*
X153164431Y-83172267D01*
X153068261Y-83378502D01*
X153068258Y-83378511D01*
X153009366Y-83598302D01*
X153009364Y-83598313D01*
X152989532Y-83824998D01*
X152989532Y-83825001D01*
X153009364Y-84051686D01*
X153009366Y-84051697D01*
X153068258Y-84271488D01*
X153068261Y-84271497D01*
X153164431Y-84477732D01*
X153164432Y-84477734D01*
X153294954Y-84664141D01*
X153455858Y-84825045D01*
X153480462Y-84842273D01*
X153524087Y-84896849D01*
X153531281Y-84966348D01*
X153499758Y-85028703D01*
X153439529Y-85064117D01*
X153422593Y-85067138D01*
X153387516Y-85070908D01*
X153252671Y-85121202D01*
X153252664Y-85121206D01*
X153137455Y-85207452D01*
X153137452Y-85207455D01*
X153051206Y-85322664D01*
X153051202Y-85322671D01*
X153000908Y-85457517D01*
X152995668Y-85506261D01*
X152994501Y-85517123D01*
X152994500Y-85517135D01*
X152994500Y-87212870D01*
X152994501Y-87212876D01*
X153000908Y-87272483D01*
X153051202Y-87407328D01*
X153051206Y-87407335D01*
X153137452Y-87522544D01*
X153137455Y-87522547D01*
X153252664Y-87608793D01*
X153252671Y-87608797D01*
X153387517Y-87659091D01*
X153387516Y-87659091D01*
X153394444Y-87659835D01*
X153447127Y-87665500D01*
X155142872Y-87665499D01*
X155202483Y-87659091D01*
X155337331Y-87608796D01*
X155452546Y-87522546D01*
X155538796Y-87407331D01*
X155589091Y-87272483D01*
X155595500Y-87212873D01*
X155595500Y-87212870D01*
X155595855Y-87209572D01*
X155598937Y-87209903D01*
X155614829Y-87155785D01*
X155667633Y-87110030D01*
X155736791Y-87100086D01*
X155800347Y-87129111D01*
X155832700Y-87173014D01*
X155901826Y-87330606D01*
X156037833Y-87538782D01*
X156037836Y-87538785D01*
X156206256Y-87721738D01*
X156289008Y-87786147D01*
X156329821Y-87842857D01*
X156333496Y-87912630D01*
X156298864Y-87973313D01*
X156289014Y-87981848D01*
X156239593Y-88020315D01*
X156206257Y-88046261D01*
X156037833Y-88229217D01*
X155901826Y-88437393D01*
X155801936Y-88665118D01*
X155740892Y-88906175D01*
X155740890Y-88906187D01*
X155720357Y-89153994D01*
X155720357Y-89154005D01*
X155740890Y-89401812D01*
X155740892Y-89401824D01*
X155801936Y-89642881D01*
X155901826Y-89870606D01*
X156037833Y-90078782D01*
X156037836Y-90078785D01*
X156206256Y-90261738D01*
X156289008Y-90326147D01*
X156329821Y-90382857D01*
X156333496Y-90452630D01*
X156298864Y-90513313D01*
X156289014Y-90521848D01*
X156230400Y-90567469D01*
X156206257Y-90586261D01*
X156037833Y-90769217D01*
X155901826Y-90977393D01*
X155801936Y-91205118D01*
X155740892Y-91446175D01*
X155740890Y-91446187D01*
X155720357Y-91693994D01*
X155720357Y-91694005D01*
X155740890Y-91941812D01*
X155740892Y-91941824D01*
X155801936Y-92182881D01*
X155901826Y-92410606D01*
X156037833Y-92618782D01*
X156037836Y-92618785D01*
X156206256Y-92801738D01*
X156289008Y-92866147D01*
X156329821Y-92922857D01*
X156333496Y-92992630D01*
X156298864Y-93053313D01*
X156289014Y-93061848D01*
X156230400Y-93107469D01*
X156206257Y-93126261D01*
X156037833Y-93309217D01*
X155901826Y-93517393D01*
X155801936Y-93745118D01*
X155740892Y-93986175D01*
X155740890Y-93986187D01*
X155720357Y-94233994D01*
X155720357Y-94234005D01*
X155740890Y-94481812D01*
X155740892Y-94481824D01*
X155801936Y-94722881D01*
X155901826Y-94950606D01*
X156037833Y-95158782D01*
X156037836Y-95158785D01*
X156206256Y-95341738D01*
X156289008Y-95406147D01*
X156329821Y-95462857D01*
X156333496Y-95532630D01*
X156298864Y-95593313D01*
X156289014Y-95601848D01*
X156230400Y-95647469D01*
X156206257Y-95666261D01*
X156037833Y-95849217D01*
X155901826Y-96057393D01*
X155801936Y-96285118D01*
X155740892Y-96526175D01*
X155740890Y-96526187D01*
X155720357Y-96773994D01*
X155720357Y-96774005D01*
X155740890Y-97021812D01*
X155740892Y-97021824D01*
X155801936Y-97262881D01*
X155901826Y-97490606D01*
X156037833Y-97698782D01*
X156037836Y-97698785D01*
X156206256Y-97881738D01*
X156289008Y-97946147D01*
X156329821Y-98002857D01*
X156333496Y-98072630D01*
X156298864Y-98133313D01*
X156289014Y-98141848D01*
X156237695Y-98181792D01*
X156206257Y-98206261D01*
X156037833Y-98389217D01*
X155901826Y-98597393D01*
X155801936Y-98825118D01*
X155740892Y-99066175D01*
X155740890Y-99066187D01*
X155720357Y-99313994D01*
X155720357Y-99314005D01*
X155727011Y-99394308D01*
X155712930Y-99462744D01*
X155664085Y-99512703D01*
X155595984Y-99528324D01*
X155530248Y-99504647D01*
X155515754Y-99492229D01*
X153239679Y-97216154D01*
X153206194Y-97154831D01*
X153204140Y-97142356D01*
X153185369Y-96975749D01*
X153185368Y-96975745D01*
X153125789Y-96805478D01*
X153029816Y-96652738D01*
X152902262Y-96525184D01*
X152889680Y-96517278D01*
X152749523Y-96429211D01*
X152579254Y-96369631D01*
X152579249Y-96369630D01*
X152400004Y-96349435D01*
X152399996Y-96349435D01*
X152220750Y-96369630D01*
X152220745Y-96369631D01*
X152050476Y-96429211D01*
X151897737Y-96525184D01*
X151770184Y-96652737D01*
X151674211Y-96805476D01*
X151614631Y-96975745D01*
X151614630Y-96975750D01*
X151594435Y-97154996D01*
X151594435Y-97155003D01*
X151614630Y-97334249D01*
X151614631Y-97334254D01*
X151674211Y-97504523D01*
X151770184Y-97657262D01*
X151770185Y-97657263D01*
X151815241Y-97702320D01*
X151848725Y-97763643D01*
X151843740Y-97833335D01*
X151815241Y-97877680D01*
X151770184Y-97922737D01*
X151674211Y-98075476D01*
X151614631Y-98245745D01*
X151614630Y-98245750D01*
X151594435Y-98424996D01*
X151594435Y-98425003D01*
X151614630Y-98604249D01*
X151614631Y-98604254D01*
X151674211Y-98774523D01*
X151770184Y-98927262D01*
X151897737Y-99054815D01*
X151903184Y-99059159D01*
X151902491Y-99060027D01*
X151938475Y-99097384D01*
X151959487Y-99133778D01*
X151959491Y-99133783D01*
X156076932Y-103251224D01*
X156110417Y-103312547D01*
X156105433Y-103382239D01*
X156080483Y-103422886D01*
X156037834Y-103469217D01*
X155901826Y-103677393D01*
X155801936Y-103905118D01*
X155740892Y-104146175D01*
X155740890Y-104146187D01*
X155720357Y-104393994D01*
X155720357Y-104394005D01*
X155740890Y-104641812D01*
X155740892Y-104641824D01*
X155801936Y-104882881D01*
X155901826Y-105110606D01*
X156037833Y-105318782D01*
X156037836Y-105318785D01*
X156206256Y-105501738D01*
X156289008Y-105566147D01*
X156329821Y-105622857D01*
X156333496Y-105692630D01*
X156298864Y-105753313D01*
X156289014Y-105761848D01*
X156230400Y-105807469D01*
X156206257Y-105826261D01*
X156037833Y-106009217D01*
X155901826Y-106217393D01*
X155801936Y-106445118D01*
X155740892Y-106686175D01*
X155740890Y-106686187D01*
X155720357Y-106933994D01*
X155720357Y-106934005D01*
X155740890Y-107181812D01*
X155740892Y-107181824D01*
X155801936Y-107422881D01*
X155901826Y-107650606D01*
X156037833Y-107858782D01*
X156037836Y-107858785D01*
X156206256Y-108041738D01*
X156289008Y-108106147D01*
X156329821Y-108162857D01*
X156333496Y-108232630D01*
X156298864Y-108293313D01*
X156289014Y-108301848D01*
X156238873Y-108340875D01*
X156206257Y-108366261D01*
X156037833Y-108549217D01*
X155901826Y-108757393D01*
X155801936Y-108985118D01*
X155740892Y-109226175D01*
X155740890Y-109226187D01*
X155720357Y-109473994D01*
X155720357Y-109474005D01*
X155740890Y-109721812D01*
X155740892Y-109721824D01*
X155801936Y-109962881D01*
X155901826Y-110190606D01*
X156037833Y-110398782D01*
X156047700Y-110409500D01*
X156206256Y-110581738D01*
X156289008Y-110646147D01*
X156329821Y-110702857D01*
X156333496Y-110772630D01*
X156298864Y-110833313D01*
X156289014Y-110841848D01*
X156239730Y-110880208D01*
X156206257Y-110906261D01*
X156037833Y-111089217D01*
X155901826Y-111297393D01*
X155801936Y-111525118D01*
X155740892Y-111766175D01*
X155740890Y-111766187D01*
X155720357Y-112013994D01*
X155720357Y-112014005D01*
X155740890Y-112261812D01*
X155740892Y-112261824D01*
X155801936Y-112502881D01*
X155901826Y-112730606D01*
X156037833Y-112938782D01*
X156037836Y-112938785D01*
X156206256Y-113121738D01*
X156289008Y-113186147D01*
X156329821Y-113242857D01*
X156333496Y-113312630D01*
X156298864Y-113373313D01*
X156289014Y-113381848D01*
X156242676Y-113417915D01*
X156206257Y-113446261D01*
X156037833Y-113629217D01*
X155901826Y-113837393D01*
X155801936Y-114065118D01*
X155740892Y-114306175D01*
X155740890Y-114306187D01*
X155720357Y-114553994D01*
X155720357Y-114554005D01*
X155740890Y-114801812D01*
X155740892Y-114801824D01*
X155801936Y-115042881D01*
X155901826Y-115270606D01*
X156037833Y-115478782D01*
X156037836Y-115478785D01*
X156206256Y-115661738D01*
X156289008Y-115726147D01*
X156329821Y-115782857D01*
X156333496Y-115852630D01*
X156298864Y-115913313D01*
X156289014Y-115921848D01*
X156230400Y-115967469D01*
X156206257Y-115986261D01*
X156037833Y-116169217D01*
X155901826Y-116377393D01*
X155801936Y-116605118D01*
X155740892Y-116846175D01*
X155740890Y-116846187D01*
X155720357Y-117093994D01*
X155720357Y-117094005D01*
X155740890Y-117341812D01*
X155740892Y-117341824D01*
X155801936Y-117582881D01*
X155901826Y-117810606D01*
X156037833Y-118018782D01*
X156037836Y-118018785D01*
X156206256Y-118201738D01*
X156289008Y-118266147D01*
X156329821Y-118322857D01*
X156333496Y-118392630D01*
X156298864Y-118453313D01*
X156289014Y-118461848D01*
X156230400Y-118507469D01*
X156206257Y-118526261D01*
X156037833Y-118709217D01*
X155901826Y-118917393D01*
X155801936Y-119145118D01*
X155740892Y-119386175D01*
X155740890Y-119386187D01*
X155720357Y-119633994D01*
X155720357Y-119634005D01*
X155740890Y-119881812D01*
X155740892Y-119881824D01*
X155801936Y-120122881D01*
X155901826Y-120350606D01*
X156037833Y-120558782D01*
X156037836Y-120558785D01*
X156206256Y-120741738D01*
X156289008Y-120806147D01*
X156329821Y-120862857D01*
X156333496Y-120932630D01*
X156298864Y-120993313D01*
X156289014Y-121001848D01*
X156240795Y-121039379D01*
X156206257Y-121066261D01*
X156037833Y-121249217D01*
X155901826Y-121457393D01*
X155801936Y-121685118D01*
X155740892Y-121926175D01*
X155740890Y-121926187D01*
X155720357Y-122173994D01*
X155720357Y-122174005D01*
X155740890Y-122421812D01*
X155740892Y-122421824D01*
X155801936Y-122662881D01*
X155901826Y-122890606D01*
X156037833Y-123098782D01*
X156037836Y-123098785D01*
X156206256Y-123281738D01*
X156289008Y-123346147D01*
X156329821Y-123402857D01*
X156333496Y-123472630D01*
X156298864Y-123533313D01*
X156289014Y-123541848D01*
X156230400Y-123587469D01*
X156206257Y-123606261D01*
X156037833Y-123789217D01*
X155901827Y-123997391D01*
X155858357Y-124096493D01*
X155813400Y-124149978D01*
X155746664Y-124170668D01*
X155679336Y-124151993D01*
X155657120Y-124134363D01*
X148591819Y-117069062D01*
X148558334Y-117007739D01*
X148555500Y-116981381D01*
X148555500Y-114817994D01*
X148862859Y-114817994D01*
X148862859Y-114818005D01*
X148883385Y-115065729D01*
X148883387Y-115065738D01*
X148944412Y-115306717D01*
X149044266Y-115534364D01*
X149144564Y-115687882D01*
X149885037Y-114947409D01*
X149902075Y-115010993D01*
X149967901Y-115125007D01*
X150060993Y-115218099D01*
X150175007Y-115283925D01*
X150238590Y-115300962D01*
X149497942Y-116041609D01*
X149544768Y-116078055D01*
X149544770Y-116078056D01*
X149763385Y-116196364D01*
X149763396Y-116196369D01*
X149998506Y-116277083D01*
X150243707Y-116318000D01*
X150492293Y-116318000D01*
X150737493Y-116277083D01*
X150972603Y-116196369D01*
X150972614Y-116196364D01*
X151191228Y-116078057D01*
X151191231Y-116078055D01*
X151238056Y-116041609D01*
X150497409Y-115300962D01*
X150560993Y-115283925D01*
X150675007Y-115218099D01*
X150768099Y-115125007D01*
X150833925Y-115010993D01*
X150850962Y-114947410D01*
X151591434Y-115687882D01*
X151691731Y-115534369D01*
X151791587Y-115306717D01*
X151852612Y-115065738D01*
X151852614Y-115065729D01*
X151873141Y-114818005D01*
X151873141Y-114817994D01*
X151852614Y-114570270D01*
X151852612Y-114570261D01*
X151791587Y-114329282D01*
X151691731Y-114101630D01*
X151591434Y-113948116D01*
X150850962Y-114688589D01*
X150833925Y-114625007D01*
X150768099Y-114510993D01*
X150675007Y-114417901D01*
X150560993Y-114352075D01*
X150497410Y-114335037D01*
X151238057Y-113594390D01*
X151238056Y-113594389D01*
X151191229Y-113557943D01*
X150972614Y-113439635D01*
X150972603Y-113439630D01*
X150737493Y-113358916D01*
X150492293Y-113318000D01*
X150243707Y-113318000D01*
X149998506Y-113358916D01*
X149763396Y-113439630D01*
X149763390Y-113439632D01*
X149544761Y-113557949D01*
X149497942Y-113594388D01*
X149497942Y-113594390D01*
X150238590Y-114335037D01*
X150175007Y-114352075D01*
X150060993Y-114417901D01*
X149967901Y-114510993D01*
X149902075Y-114625007D01*
X149885037Y-114688589D01*
X149144564Y-113948116D01*
X149044267Y-114101632D01*
X148944412Y-114329282D01*
X148883387Y-114570261D01*
X148883385Y-114570270D01*
X148862859Y-114817994D01*
X148555500Y-114817994D01*
X148555500Y-99642412D01*
X148575185Y-99575373D01*
X148582555Y-99565097D01*
X148584810Y-99562267D01*
X148584816Y-99562262D01*
X148680789Y-99409522D01*
X148740368Y-99239255D01*
X148752252Y-99133782D01*
X148760565Y-99060003D01*
X148760565Y-99059996D01*
X148740369Y-98880750D01*
X148740368Y-98880745D01*
X148699342Y-98763500D01*
X148680789Y-98710478D01*
X148584816Y-98557738D01*
X148584814Y-98557736D01*
X148584813Y-98557734D01*
X148582550Y-98554896D01*
X148581659Y-98552715D01*
X148581111Y-98551842D01*
X148581264Y-98551745D01*
X148556144Y-98490209D01*
X148555500Y-98477587D01*
X148555500Y-93292412D01*
X148575185Y-93225373D01*
X148582555Y-93215097D01*
X148584810Y-93212267D01*
X148584816Y-93212262D01*
X148680789Y-93059522D01*
X148740368Y-92889255D01*
X148740827Y-92885181D01*
X148760565Y-92710003D01*
X148760565Y-92709996D01*
X148740369Y-92530750D01*
X148740368Y-92530745D01*
X148698330Y-92410607D01*
X148680789Y-92360478D01*
X148584816Y-92207738D01*
X148457262Y-92080184D01*
X148304523Y-91984211D01*
X148134254Y-91924631D01*
X148134249Y-91924630D01*
X147955004Y-91904435D01*
X147954996Y-91904435D01*
X147775750Y-91924630D01*
X147775745Y-91924631D01*
X147605476Y-91984211D01*
X147452737Y-92080184D01*
X147325184Y-92207737D01*
X147229211Y-92360476D01*
X147169631Y-92530745D01*
X147169630Y-92530750D01*
X147149435Y-92709996D01*
X147149435Y-92710003D01*
X147169630Y-92889249D01*
X147169631Y-92889254D01*
X147229211Y-93059523D01*
X147289515Y-93155496D01*
X147318246Y-93201221D01*
X147325185Y-93212263D01*
X147327445Y-93215097D01*
X147328334Y-93217275D01*
X147328889Y-93218158D01*
X147328734Y-93218255D01*
X147353855Y-93279783D01*
X147354500Y-93292412D01*
X147354500Y-97733769D01*
X147334815Y-97800808D01*
X147282011Y-97846563D01*
X147212853Y-97856507D01*
X147149297Y-97827482D01*
X147142819Y-97821450D01*
X143349097Y-94027728D01*
X143349074Y-94027707D01*
X138299819Y-88978451D01*
X138266334Y-88917128D01*
X138263500Y-88890770D01*
X138263500Y-88301999D01*
X138283185Y-88234960D01*
X138335989Y-88189205D01*
X138387500Y-88177999D01*
X138688000Y-88177999D01*
X138688000Y-87232145D01*
X138754657Y-87270630D01*
X138875465Y-87303000D01*
X139000535Y-87303000D01*
X139121343Y-87270630D01*
X139188000Y-87232145D01*
X139188000Y-88177999D01*
X139712972Y-88177999D01*
X139712986Y-88177998D01*
X139815697Y-88167505D01*
X139982119Y-88112358D01*
X139982124Y-88112356D01*
X140131345Y-88020315D01*
X140255315Y-87896345D01*
X140347356Y-87747124D01*
X140347358Y-87747119D01*
X140402505Y-87580697D01*
X140402506Y-87580690D01*
X140412999Y-87477986D01*
X140412999Y-86948654D01*
X140432683Y-86881615D01*
X140485487Y-86835860D01*
X140554646Y-86825916D01*
X140597723Y-86844091D01*
X140599245Y-86841456D01*
X140693095Y-86895639D01*
X140693097Y-86895641D01*
X140731151Y-86917611D01*
X140743215Y-86924577D01*
X140895943Y-86965501D01*
X140895946Y-86965501D01*
X141061653Y-86965501D01*
X141061669Y-86965500D01*
X145443308Y-86965500D01*
X145510347Y-86985185D01*
X145544880Y-87018374D01*
X145602095Y-87100086D01*
X145674954Y-87204141D01*
X145835858Y-87365045D01*
X145835861Y-87365047D01*
X146022266Y-87495568D01*
X146228504Y-87591739D01*
X146448308Y-87650635D01*
X146610230Y-87664801D01*
X146674998Y-87670468D01*
X146675000Y-87670468D01*
X146675002Y-87670468D01*
X146731807Y-87665498D01*
X146901692Y-87650635D01*
X147121496Y-87591739D01*
X147327734Y-87495568D01*
X147514139Y-87365047D01*
X147675047Y-87204139D01*
X147805568Y-87017734D01*
X147901739Y-86811496D01*
X147960635Y-86591692D01*
X147980468Y-86365000D01*
X147960635Y-86138308D01*
X147901739Y-85918504D01*
X147805568Y-85712266D01*
X147675047Y-85525861D01*
X147675045Y-85525858D01*
X147514141Y-85364954D01*
X147327734Y-85234432D01*
X147327732Y-85234431D01*
X147316275Y-85229088D01*
X147269132Y-85207105D01*
X147216694Y-85160934D01*
X147197542Y-85093740D01*
X147217758Y-85026859D01*
X147269134Y-84982341D01*
X147327484Y-84955132D01*
X147513820Y-84824657D01*
X147674657Y-84663820D01*
X147805134Y-84477482D01*
X147901265Y-84271326D01*
X147901269Y-84271317D01*
X147953872Y-84075000D01*
X146990686Y-84075000D01*
X146995080Y-84070606D01*
X147047741Y-83979394D01*
X147075000Y-83877661D01*
X147075000Y-83772339D01*
X147047741Y-83670606D01*
X146995080Y-83579394D01*
X146990686Y-83575000D01*
X147953872Y-83575000D01*
X147953872Y-83574999D01*
X147901269Y-83378682D01*
X147901265Y-83378673D01*
X147805134Y-83172517D01*
X147674657Y-82986179D01*
X147513820Y-82825342D01*
X147327482Y-82694865D01*
X147121328Y-82598734D01*
X146925000Y-82546127D01*
X146925000Y-83509314D01*
X146920606Y-83504920D01*
X146829394Y-83452259D01*
X146727661Y-83425000D01*
X146622339Y-83425000D01*
X146520606Y-83452259D01*
X146429394Y-83504920D01*
X146425000Y-83509314D01*
X146425000Y-82546127D01*
X146228671Y-82598734D01*
X146022517Y-82694865D01*
X145836179Y-82825342D01*
X145675342Y-82986179D01*
X145544865Y-83172517D01*
X145448734Y-83378673D01*
X145448730Y-83378682D01*
X145396127Y-83574999D01*
X145396128Y-83575000D01*
X146359314Y-83575000D01*
X146354920Y-83579394D01*
X146302259Y-83670606D01*
X146275000Y-83772339D01*
X146275000Y-83877661D01*
X146302259Y-83979394D01*
X146354920Y-84070606D01*
X146359314Y-84075000D01*
X145396128Y-84075000D01*
X145448730Y-84271317D01*
X145448734Y-84271326D01*
X145544865Y-84477482D01*
X145675342Y-84663820D01*
X145836179Y-84824657D01*
X146022518Y-84955134D01*
X146022520Y-84955135D01*
X146080865Y-84982342D01*
X146133305Y-85028514D01*
X146152457Y-85095707D01*
X146132242Y-85162589D01*
X146080867Y-85207105D01*
X146022268Y-85234431D01*
X146022264Y-85234433D01*
X145835858Y-85364954D01*
X145674954Y-85525858D01*
X145606035Y-85624287D01*
X145544881Y-85711624D01*
X145490307Y-85755248D01*
X145443308Y-85764500D01*
X141275097Y-85764500D01*
X141208058Y-85744815D01*
X141187416Y-85728181D01*
X140366102Y-84906867D01*
X140332617Y-84845544D01*
X140335851Y-84780874D01*
X140380246Y-84644243D01*
X140413500Y-84434287D01*
X140413500Y-84221713D01*
X140380246Y-84011757D01*
X140314557Y-83809588D01*
X140218051Y-83620184D01*
X140218049Y-83620181D01*
X140218048Y-83620179D01*
X140093109Y-83448213D01*
X139942792Y-83297896D01*
X139917121Y-83279245D01*
X139778204Y-83178316D01*
X139735540Y-83122989D01*
X139729561Y-83053376D01*
X139762166Y-82991580D01*
X139778199Y-82977686D01*
X139942792Y-82858104D01*
X140093104Y-82707792D01*
X140093106Y-82707788D01*
X140093109Y-82707786D01*
X140166226Y-82607147D01*
X140218051Y-82535816D01*
X140218349Y-82535230D01*
X140238235Y-82496205D01*
X140286209Y-82445409D01*
X140348719Y-82428500D01*
X142870331Y-82428500D01*
X142870347Y-82428501D01*
X142877943Y-82428501D01*
X143036054Y-82428501D01*
X143036057Y-82428501D01*
X143188785Y-82387577D01*
X143238904Y-82358639D01*
X143325716Y-82308520D01*
X143437520Y-82196716D01*
X143437520Y-82196714D01*
X143447728Y-82186507D01*
X143447730Y-82186504D01*
X146232294Y-79401939D01*
X146293615Y-79368456D01*
X146352066Y-79369847D01*
X146371604Y-79375082D01*
X146448308Y-79395635D01*
X146610230Y-79409801D01*
X146674998Y-79415468D01*
X146675000Y-79415468D01*
X146675002Y-79415468D01*
X146731796Y-79410499D01*
X146901692Y-79395635D01*
X147121496Y-79336739D01*
X147327734Y-79240568D01*
X147514139Y-79110047D01*
X147675047Y-78949139D01*
X147805568Y-78762734D01*
X147901739Y-78556496D01*
X147960635Y-78336692D01*
X147980468Y-78110000D01*
X147960635Y-77883308D01*
X147901739Y-77663504D01*
X147805568Y-77457266D01*
X147675047Y-77270861D01*
X147675045Y-77270858D01*
X147514141Y-77109954D01*
X147327734Y-76979432D01*
X147327732Y-76979431D01*
X147316275Y-76974088D01*
X147269132Y-76952105D01*
X147216694Y-76905934D01*
X147197542Y-76838740D01*
X147217758Y-76771859D01*
X147269134Y-76727341D01*
X147327484Y-76700132D01*
X147513820Y-76569657D01*
X147674657Y-76408820D01*
X147805134Y-76222482D01*
X147901265Y-76016326D01*
X147901269Y-76016317D01*
X147953872Y-75820000D01*
X146990686Y-75820000D01*
X146995080Y-75815606D01*
X147047741Y-75724394D01*
X147075000Y-75622661D01*
X147075000Y-75517339D01*
X147047741Y-75415606D01*
X146995080Y-75324394D01*
X146990686Y-75320000D01*
X147953872Y-75320000D01*
X147953872Y-75319999D01*
X147901269Y-75123682D01*
X147901265Y-75123673D01*
X147805134Y-74917517D01*
X147674657Y-74731179D01*
X147513820Y-74570342D01*
X147327482Y-74439865D01*
X147121328Y-74343734D01*
X146925000Y-74291127D01*
X146925000Y-75254314D01*
X146920606Y-75249920D01*
X146829394Y-75197259D01*
X146727661Y-75170000D01*
X146622339Y-75170000D01*
X146520606Y-75197259D01*
X146429394Y-75249920D01*
X146425000Y-75254314D01*
X146425000Y-74291127D01*
X146228671Y-74343734D01*
X146022517Y-74439865D01*
X145836179Y-74570342D01*
X145675342Y-74731179D01*
X145544865Y-74917517D01*
X145448734Y-75123673D01*
X145448730Y-75123682D01*
X145396127Y-75319999D01*
X145396128Y-75320000D01*
X146359314Y-75320000D01*
X146354920Y-75324394D01*
X146302259Y-75415606D01*
X146275000Y-75517339D01*
X146275000Y-75622661D01*
X146302259Y-75724394D01*
X146354920Y-75815606D01*
X146359314Y-75820000D01*
X145396128Y-75820000D01*
X145448730Y-76016317D01*
X145448734Y-76016326D01*
X145544865Y-76222482D01*
X145675342Y-76408820D01*
X145836179Y-76569657D01*
X146022518Y-76700134D01*
X146022520Y-76700135D01*
X146080865Y-76727342D01*
X146133305Y-76773514D01*
X146152457Y-76840707D01*
X146132242Y-76907589D01*
X146080867Y-76952105D01*
X146022268Y-76979431D01*
X146022264Y-76979433D01*
X145835858Y-77109954D01*
X145674954Y-77270858D01*
X145544432Y-77457265D01*
X145544431Y-77457267D01*
X145448261Y-77663502D01*
X145448258Y-77663511D01*
X145389366Y-77883302D01*
X145389364Y-77883313D01*
X145369532Y-78109998D01*
X145369532Y-78110001D01*
X145389364Y-78336686D01*
X145389366Y-78336697D01*
X145415152Y-78432931D01*
X145413489Y-78502781D01*
X145383058Y-78552705D01*
X142744584Y-81191181D01*
X142683261Y-81224666D01*
X142656903Y-81227500D01*
X140348719Y-81227500D01*
X140281680Y-81207815D01*
X140238235Y-81159795D01*
X140218052Y-81120185D01*
X140218051Y-81120184D01*
X140093109Y-80948213D01*
X139942792Y-80797896D01*
X139862065Y-80739245D01*
X139778204Y-80678316D01*
X139735540Y-80622989D01*
X139729561Y-80553376D01*
X139762166Y-80491580D01*
X139778199Y-80477686D01*
X139942792Y-80358104D01*
X140093104Y-80207792D01*
X140093106Y-80207788D01*
X140093109Y-80207786D01*
X140218048Y-80035820D01*
X140218047Y-80035820D01*
X140218051Y-80035816D01*
X140314557Y-79846412D01*
X140380246Y-79644243D01*
X140413500Y-79434287D01*
X140413500Y-79221713D01*
X140380246Y-79011757D01*
X140314557Y-78809588D01*
X140218051Y-78620184D01*
X140218049Y-78620181D01*
X140218048Y-78620179D01*
X140093109Y-78448213D01*
X139942792Y-78297896D01*
X139903708Y-78269500D01*
X139778204Y-78178316D01*
X139735540Y-78122989D01*
X139729561Y-78053376D01*
X139762166Y-77991580D01*
X139778199Y-77977686D01*
X139942792Y-77858104D01*
X140093104Y-77707792D01*
X140093106Y-77707788D01*
X140093109Y-77707786D01*
X140218048Y-77535820D01*
X140218047Y-77535820D01*
X140218051Y-77535816D01*
X140314557Y-77346412D01*
X140380246Y-77144243D01*
X140413500Y-76934287D01*
X140413500Y-76721713D01*
X140380246Y-76511757D01*
X140314557Y-76309588D01*
X140218051Y-76120184D01*
X140218049Y-76120181D01*
X140218048Y-76120179D01*
X140093109Y-75948213D01*
X139942792Y-75797896D01*
X139841624Y-75724394D01*
X139778204Y-75678316D01*
X139735540Y-75622989D01*
X139729561Y-75553376D01*
X139762166Y-75491580D01*
X139778199Y-75477686D01*
X139942792Y-75358104D01*
X140093104Y-75207792D01*
X140093106Y-75207788D01*
X140093109Y-75207786D01*
X140218048Y-75035820D01*
X140218047Y-75035820D01*
X140218051Y-75035816D01*
X140314557Y-74846412D01*
X140380246Y-74644243D01*
X140413500Y-74434287D01*
X140413500Y-74221713D01*
X140380246Y-74011757D01*
X140314557Y-73809588D01*
X140218051Y-73620184D01*
X140218049Y-73620181D01*
X140218048Y-73620179D01*
X140093109Y-73448213D01*
X139942786Y-73297890D01*
X139770820Y-73172951D01*
X139581414Y-73076444D01*
X139581413Y-73076443D01*
X139581412Y-73076443D01*
X139379243Y-73010754D01*
X139379241Y-73010753D01*
X139379240Y-73010753D01*
X139217957Y-72985208D01*
X139169287Y-72977500D01*
X138706713Y-72977500D01*
X138658042Y-72985208D01*
X138496760Y-73010753D01*
X138294585Y-73076444D01*
X138105179Y-73172951D01*
X137933213Y-73297890D01*
X137782890Y-73448213D01*
X137657951Y-73620179D01*
X137561444Y-73809585D01*
X137495753Y-74011760D01*
X137469423Y-74178001D01*
X137462500Y-74221713D01*
X137462500Y-74434287D01*
X137464885Y-74449344D01*
X137494707Y-74637637D01*
X137485752Y-74706931D01*
X137459915Y-74744716D01*
X136930049Y-75274582D01*
X136930048Y-75274584D01*
X136908166Y-75307334D01*
X136899704Y-75319999D01*
X136847914Y-75397507D01*
X136791343Y-75534082D01*
X136791340Y-75534092D01*
X136762500Y-75679079D01*
X136762500Y-75679082D01*
X136762500Y-89326918D01*
X136762500Y-89326920D01*
X136762499Y-89326920D01*
X135500500Y-89326920D01*
X135500500Y-67442711D01*
X137087500Y-67442711D01*
X137087500Y-67685288D01*
X137119161Y-67925785D01*
X137181947Y-68160104D01*
X137199006Y-68201287D01*
X137274776Y-68384212D01*
X137396064Y-68594289D01*
X137396066Y-68594292D01*
X137396067Y-68594293D01*
X137543733Y-68786736D01*
X137543739Y-68786743D01*
X137715256Y-68958260D01*
X137715263Y-68958266D01*
X137788059Y-69014124D01*
X137907711Y-69105936D01*
X138117788Y-69227224D01*
X138262861Y-69287315D01*
X138337438Y-69318206D01*
X138341900Y-69320054D01*
X138576211Y-69382838D01*
X138756586Y-69406584D01*
X138816711Y-69414500D01*
X138816712Y-69414500D01*
X139059289Y-69414500D01*
X139107388Y-69408167D01*
X139299789Y-69382838D01*
X139534100Y-69320054D01*
X139758212Y-69227224D01*
X139968289Y-69105936D01*
X140160738Y-68958265D01*
X140332265Y-68786738D01*
X140479936Y-68594289D01*
X140601224Y-68384212D01*
X140694054Y-68160100D01*
X140756838Y-67925789D01*
X140788500Y-67685288D01*
X140788500Y-67442712D01*
X140756838Y-67202211D01*
X140694054Y-66967900D01*
X140601224Y-66743788D01*
X140479936Y-66533711D01*
X140332265Y-66341262D01*
X140332260Y-66341256D01*
X140160743Y-66169739D01*
X140160736Y-66169733D01*
X139968293Y-66022067D01*
X139968292Y-66022066D01*
X139968289Y-66022064D01*
X139758212Y-65900776D01*
X139758205Y-65900773D01*
X139534104Y-65807947D01*
X139299785Y-65745161D01*
X139059289Y-65713500D01*
X139059288Y-65713500D01*
X138816712Y-65713500D01*
X138816711Y-65713500D01*
X138576214Y-65745161D01*
X138341895Y-65807947D01*
X138117794Y-65900773D01*
X138117785Y-65900777D01*
X137907706Y-66022067D01*
X137715263Y-66169733D01*
X137715256Y-66169739D01*
X137543739Y-66341256D01*
X137543733Y-66341263D01*
X137396067Y-66533706D01*
X137274777Y-66743785D01*
X137274773Y-66743794D01*
X137181947Y-66967895D01*
X137119161Y-67202214D01*
X137087500Y-67442711D01*
X135500500Y-67442711D01*
X135500500Y-64322500D01*
X135520185Y-64255461D01*
X135572989Y-64209706D01*
X135624500Y-64198500D01*
X180875500Y-64198500D01*
X180942539Y-64218185D01*
G37*
%TD.AperFunction*%
%TD*%
M02*
